<?xml version="1.0" encoding="UTF-8" standalone="no"?>
<!-- Created with Inkscape (http://www.inkscape.org/) -->

<svg
   width="26.834589mm"
   height="31.624582mm"
   viewBox="0 0 26.834589 31.624582"
   version="1.1"
   id="svg1"
   xml:space="preserve"
   inkscape:version="1.3.1 (91b66b0783, 2023-11-16)"
   sodipodi:docname="tiny_osd.svg"
   xmlns:inkscape="http://www.inkscape.org/namespaces/inkscape"
   xmlns:sodipodi="http://sodipodi.sourceforge.net/DTD/sodipodi-0.dtd"
   xmlns="http://www.w3.org/2000/svg"
   xmlns:svg="http://www.w3.org/2000/svg"><sodipodi:namedview
     id="namedview1"
     pagecolor="#ffffff"
     bordercolor="#666666"
     borderopacity="1.0"
     inkscape:showpageshadow="2"
     inkscape:pageopacity="0.0"
     inkscape:pagecheckerboard="0"
     inkscape:deskcolor="#d1d1d1"
     inkscape:document-units="mm"
     inkscape:zoom="2.8649134"
     inkscape:cx="9.7734195"
     inkscape:cy="-29.145733"
     inkscape:window-width="3440"
     inkscape:window-height="1351"
     inkscape:window-x="-9"
     inkscape:window-y="-9"
     inkscape:window-maximized="1"
     inkscape:current-layer="layer1" /><defs
     id="defs1"><marker
       id="DistanceX"
       orient="auto"
       refX="0"
       refY="0"
       style="overflow:visible"><path
         d="M 3,-3 -3,3 M 0,-5 V 5"
         style="stroke:#000000;stroke-width:0.5"
         id="path1" /></marker><pattern
       id="Hatch"
       patternUnits="userSpaceOnUse"
       width="8"
       height="8"
       x="0"
       y="0"><path
         d="M8 4 l-4,4"
         stroke="#000000"
         stroke-width="0.25"
         linecap="square"
         id="path2" /><path
         d="M6 2 l-4,4"
         stroke="#000000"
         stroke-width="0.25"
         linecap="square"
         id="path3" /><path
         d="M4 0 l-4,4"
         stroke="#000000"
         stroke-width="0.25"
         linecap="square"
         id="path4" /></pattern><symbol
       id="*Model_Space" /><symbol
       id="*Paper_Space" /></defs><g
     inkscape:label="Layer 1"
     inkscape:groupmode="layer"
     id="layer1"
     transform="translate(-91.590623,-132.68825)"><g
       id="g1"><path
         d="m 111.88292,149.98054 v -10.16 a 7.0000025,7.0000025 0 0 0 -14.000005,0 v 10.16 a 7.0000025,7.0000025 0 0 0 14.000005,0 z"
         style="fill:none;stroke:#000000;stroke-width:0.264583;stroke-linecap:round"
         id="path5" /><path
         d="m 97.722916,160.14054 a 3.0000006,3.0000006 0 0 0 -6.000001,0 3.0000006,3.0000006 0 0 0 6.000001,0 z"
         style="fill:none;stroke:#000000;stroke-width:0.264583;stroke-linecap:round"
         id="path22" /><path
         d="m 118.29292,160.14054 a 3.2500001,3.2500001 0 0 0 -6.5,0 3.2500001,3.2500001 0 0 0 6.5,0 z"
         style="fill:none;stroke:#000000;stroke-width:0.264583;stroke-linecap:round"
         id="path23" /><path
         d="m 106.38291,162.68054 a 1.5,1.5 0 0 0 -3,0 1.5,1.5 0 0 0 3,0 z"
         style="fill:none;stroke:#000000;stroke-width:0.264583;stroke-linecap:round"
         id="path24" /></g></g></svg>
