M48
; DRILL file {KiCad (7.0.0)} date Sat Mar 11 17:47:19 2023
; FORMAT={-:-/ absolute / inch / decimal}
; #@! TF.CreationDate,2023-03-11T17:47:19+09:00
; #@! TF.GenerationSoftware,Kicad,Pcbnew,(7.0.0)
; #@! TF.FileFunction,Plated,1,2,PTH
FMAT,2
INCH
; #@! TA.AperFunction,Plated,PTH,ViaDrill
T1C0.0157
; #@! TA.AperFunction,Plated,PTH,ComponentDrill
T2C0.0276
; #@! TA.AperFunction,Plated,PTH,ComponentDrill
T3C0.0315
; #@! TA.AperFunction,Plated,PTH,ComponentDrill
T4C0.0354
; #@! TA.AperFunction,Plated,PTH,ComponentDrill
T5C0.0394
; #@! TA.AperFunction,Plated,PTH,ComponentDrill
T6C0.0433
; #@! TA.AperFunction,Plated,PTH,ComponentDrill
T7C0.0512
%
G90
G05
T1
X0.2345Y1.1296
X0.4795Y0.0606
X0.6495Y0.449
T2
X0.2345Y1.9256
X0.3345Y1.9256
X0.4345Y1.9256
T3
X0.1645Y1.5635
X0.1645Y1.4848
X0.1645Y1.406
X0.1645Y1.3273
X0.1645Y1.2486
X0.1645Y1.1698
X0.1645Y1.0911
X0.1645Y1.0123
X0.1645Y0.9336
X0.1645Y0.4956
X0.1645Y0.4168
X0.1645Y0.3381
X0.1645Y0.2593
X0.1645Y0.1806
T4
X0.3695Y0.3706
X0.3695Y0.2706
X0.3695Y0.1706
X1.1695Y0.3006
X1.1695Y0.2006
X1.1695Y0.1006
T5
X0.0645Y1.7456
X0.0645Y1.6456
X0.0645Y1.5456
X0.0645Y1.4456
X0.0645Y1.3456
X0.0645Y1.2456
X0.0645Y1.1456
X0.0645Y1.0456
X0.0645Y0.9456
X0.0645Y0.4844
X0.0645Y0.3844
X0.0645Y0.2844
X0.0645Y0.1844
X0.0645Y0.0844
X0.3445Y0.7756
T6
X1.4867Y0.4036
X1.4867Y0.1477
X1.6639Y0.4036
X1.6639Y0.1477
T7
X0.3745Y1.7043
X0.3745Y1.2121
X0.5713Y1.7043
X0.5713Y1.2121
X0.7379Y1.0436
X0.7379Y0.8468
X0.7383Y2.0665
X0.7383Y1.8696
X0.7383Y1.5558
X0.7383Y1.359
X1.23Y1.0436
X1.23Y0.8468
X1.2304Y2.0665
X1.2304Y1.8696
X1.2304Y1.5558
X1.2304Y1.359
X1.3973Y1.7047
X1.3973Y1.2125
X1.5942Y1.7047
X1.5942Y1.2125
T0
M30
