%TF.GenerationSoftware,KiCad,Pcbnew,(7.0.0)*%
%TF.CreationDate,2023-03-11T17:47:16+09:00*%
%TF.ProjectId,monitor_osd_control,6d6f6e69-746f-4725-9f6f-73645f636f6e,5*%
%TF.SameCoordinates,PX7ab4258PY723a4bd*%
%TF.FileFunction,Copper,L2,Bot*%
%TF.FilePolarity,Positive*%
%FSLAX46Y46*%
G04 Gerber Fmt 4.6, Leading zero omitted, Abs format (unit mm)*
G04 Created by KiCad (PCBNEW (7.0.0)) date 2023-03-11 17:47:16*
%MOMM*%
%LPD*%
G01*
G04 APERTURE LIST*
G04 Aperture macros list*
%AMRoundRect*
0 Rectangle with rounded corners*
0 $1 Rounding radius*
0 $2 $3 $4 $5 $6 $7 $8 $9 X,Y pos of 4 corners*
0 Add a 4 corners polygon primitive as box body*
4,1,4,$2,$3,$4,$5,$6,$7,$8,$9,$2,$3,0*
0 Add four circle primitives for the rounded corners*
1,1,$1+$1,$2,$3*
1,1,$1+$1,$4,$5*
1,1,$1+$1,$6,$7*
1,1,$1+$1,$8,$9*
0 Add four rect primitives between the rounded corners*
20,1,$1+$1,$2,$3,$4,$5,0*
20,1,$1+$1,$4,$5,$6,$7,0*
20,1,$1+$1,$6,$7,$8,$9,0*
20,1,$1+$1,$8,$9,$2,$3,0*%
G04 Aperture macros list end*
%TA.AperFunction,ComponentPad*%
%ADD10O,1.850000X3.048000*%
%TD*%
%TA.AperFunction,ComponentPad*%
%ADD11RoundRect,0.250200X-0.649800X0.649800X-0.649800X-0.649800X0.649800X-0.649800X0.649800X0.649800X0*%
%TD*%
%TA.AperFunction,ComponentPad*%
%ADD12C,1.800000*%
%TD*%
%TA.AperFunction,ComponentPad*%
%ADD13R,1.800000X1.800000*%
%TD*%
%TA.AperFunction,ComponentPad*%
%ADD14C,2.000000*%
%TD*%
%TA.AperFunction,ComponentPad*%
%ADD15C,1.500000*%
%TD*%
%TA.AperFunction,ComponentPad*%
%ADD16O,3.048000X1.850000*%
%TD*%
%TA.AperFunction,ComponentPad*%
%ADD17R,1.700000X1.700000*%
%TD*%
%TA.AperFunction,ComponentPad*%
%ADD18O,1.700000X1.700000*%
%TD*%
%TA.AperFunction,ComponentPad*%
%ADD19R,1.350000X1.350000*%
%TD*%
%TA.AperFunction,ComponentPad*%
%ADD20O,1.350000X1.350000*%
%TD*%
%TA.AperFunction,ViaPad*%
%ADD21C,0.800000*%
%TD*%
%TA.AperFunction,Conductor*%
%ADD22C,0.250000*%
%TD*%
%TA.AperFunction,Conductor*%
%ADD23C,0.500000*%
%TD*%
G04 APERTURE END LIST*
D10*
%TO.P,SW1,1,1*%
%TO.N,/VOL_M*%
X9511847Y30788444D03*
X9511847Y43288444D03*
%TO.P,SW1,2,2*%
%TO.N,GND*%
X14511847Y30788444D03*
X14511847Y43288444D03*
%TD*%
D11*
%TO.P,U1,1,OUT*%
%TO.N,/IRIN*%
X9384848Y9413445D03*
D12*
%TO.P,U1,2,GND*%
%TO.N,GND*%
X9384848Y6873445D03*
%TO.P,U1,3,Vs*%
%TO.N,Net-(C1-Pad1)*%
X9384848Y4333445D03*
%TD*%
D13*
%TO.P,D2,1,A1*%
%TO.N,/LED_R*%
X29704847Y2555444D03*
D12*
%TO.P,D2,2,K*%
%TO.N,GND*%
X29704848Y5095445D03*
%TO.P,D2,3,A2*%
%TO.N,/LED_G*%
X29704848Y7635445D03*
%TD*%
D14*
%TO.P,SW6,1,1*%
%TO.N,/POWER*%
X42261848Y10251645D03*
X42261848Y3751645D03*
%TO.P,SW6,2,2*%
%TO.N,GND*%
X37761848Y10251645D03*
X37761848Y3751645D03*
%TD*%
D15*
%TO.P,TP2,1,1*%
%TO.N,/SOURCE*%
X5955848Y48910445D03*
%TD*%
D10*
%TO.P,SW5,1,1*%
%TO.N,/VOL_P*%
X40491847Y43298444D03*
X40491847Y30798444D03*
%TO.P,SW5,2,2*%
%TO.N,GND*%
X35491847Y43298444D03*
X35491847Y30798444D03*
%TD*%
D15*
%TO.P,TP1,1,1*%
%TO.N,/POWER*%
X11035848Y48910445D03*
%TD*%
%TO.P,TP3,1,1*%
%TO.N,GND*%
X8495848Y48910445D03*
%TD*%
D16*
%TO.P,SW4,1,1*%
%TO.N,/DOWN*%
X31241847Y21508444D03*
X18741847Y21508444D03*
%TO.P,SW4,2,2*%
%TO.N,GND*%
X31241847Y26508444D03*
X18741847Y26508444D03*
%TD*%
%TO.P,SW2,1,1*%
%TO.N,/UP*%
X18751847Y52488444D03*
X31251847Y52488444D03*
%TO.P,SW2,2,2*%
%TO.N,GND*%
X18751847Y47488444D03*
X31251847Y47488444D03*
%TD*%
D14*
%TO.P,TP4,1,1*%
%TO.N,GND*%
X8749848Y19700445D03*
%TD*%
D16*
%TO.P,SW3,1,1*%
%TO.N,/MENU*%
X18751847Y39518444D03*
X31251847Y39518444D03*
%TO.P,SW3,2,2*%
%TO.N,GND*%
X18751847Y34518444D03*
X31251847Y34518444D03*
%TD*%
D17*
%TO.P,J4,1,Pin_1*%
%TO.N,+5V*%
X1637847Y2144444D03*
D18*
%TO.P,J4,2,Pin_2*%
%TO.N,/LED_R*%
X1637847Y4684444D03*
%TO.P,J4,3,Pin_3*%
%TO.N,/LED_G*%
X1637847Y7224444D03*
%TO.P,J4,4,Pin_4*%
%TO.N,/IRIN*%
X1637847Y9764444D03*
%TO.P,J4,5,Pin_5*%
%TO.N,GND*%
X1637847Y12304444D03*
%TD*%
D19*
%TO.P,J1,1,Pin_1*%
%TO.N,GND*%
X4177847Y23713644D03*
D20*
%TO.P,J1,2,Pin_2*%
%TO.N,/SOURCE*%
X4177847Y25713644D03*
%TO.P,J1,3,Pin_3*%
%TO.N,/UP*%
X4177847Y27713644D03*
%TO.P,J1,4,Pin_4*%
%TO.N,/DOWN*%
X4177847Y29713644D03*
%TO.P,J1,5,Pin_5*%
%TO.N,/VOL_P*%
X4177847Y31713644D03*
%TO.P,J1,6,Pin_6*%
%TO.N,/VOL_M*%
X4177847Y33713644D03*
%TO.P,J1,7,Pin_7*%
%TO.N,/MENU*%
X4177847Y35713644D03*
%TO.P,J1,8,Pin_8*%
%TO.N,/POWER*%
X4177847Y37713644D03*
%TO.P,J1,9,Pin_9*%
%TO.N,GND*%
X4177847Y39713644D03*
%TD*%
D17*
%TO.P,J2,1,Pin_1*%
%TO.N,GND*%
X1637847Y24018444D03*
D18*
%TO.P,J2,2,Pin_2*%
%TO.N,/SOURCE*%
X1637847Y26558444D03*
%TO.P,J2,3,Pin_3*%
%TO.N,/UP*%
X1637847Y29098444D03*
%TO.P,J2,4,Pin_4*%
%TO.N,/DOWN*%
X1637847Y31638444D03*
%TO.P,J2,5,Pin_5*%
%TO.N,/VOL_P*%
X1637847Y34178444D03*
%TO.P,J2,6,Pin_6*%
%TO.N,/VOL_M*%
X1637847Y36718444D03*
%TO.P,J2,7,Pin_7*%
%TO.N,/MENU*%
X1637847Y39258444D03*
%TO.P,J2,8,Pin_8*%
%TO.N,/POWER*%
X1637847Y41798444D03*
%TO.P,J2,9,Pin_9*%
%TO.N,GND*%
X1637847Y44338444D03*
%TD*%
D19*
%TO.P,J3,1,Pin_1*%
%TO.N,+5V*%
X4177847Y4587444D03*
D20*
%TO.P,J3,2,Pin_2*%
%TO.N,/LED_R*%
X4177847Y6587444D03*
%TO.P,J3,3,Pin_3*%
%TO.N,/LED_G*%
X4177847Y8587444D03*
%TO.P,J3,4,Pin_4*%
%TO.N,/IRIN*%
X4177847Y10587444D03*
%TO.P,J3,5,Pin_5*%
%TO.N,GND*%
X4177847Y12587444D03*
%TD*%
D21*
%TO.N,/SOURCE*%
X5955848Y28692045D03*
%TO.N,/IRIN*%
X16496848Y11404133D03*
%TO.N,Net-(C1-Pad1)*%
X12178848Y1539445D03*
%TD*%
D22*
%TO.N,/SOURCE*%
X5955848Y28692045D02*
X5955848Y48910445D01*
%TO.N,/UP*%
X21195848Y33035445D02*
X21195848Y50044445D01*
X21195848Y50044445D02*
X18751848Y52488445D01*
X4177848Y27713645D02*
X15874048Y27713645D01*
X15874048Y27713645D02*
X21195848Y33035445D01*
D23*
%TO.N,GND*%
X13686048Y43288445D02*
X14511848Y43288445D01*
X8495848Y48478645D02*
X13686048Y43288445D01*
X8495848Y48910445D02*
X8495848Y48478645D01*
X31241848Y26508445D02*
X35491848Y30758445D01*
X29196848Y4587445D02*
X29704848Y5095445D01*
X35441848Y43298445D02*
X35491848Y43298445D01*
X35491848Y30758445D02*
X35491848Y30798445D01*
X9384848Y6873445D02*
X12178848Y6873445D01*
X35491848Y30798445D02*
X31771848Y34518445D01*
X4736648Y23713645D02*
X4177848Y23713645D01*
X12178848Y6873445D02*
X14464848Y4587445D01*
X4177848Y23713645D02*
X15947048Y23713645D01*
X14511848Y30788445D02*
X18246648Y34523245D01*
X14464848Y4587445D02*
X29196848Y4587445D01*
X14511848Y43288445D02*
X18711848Y47488445D01*
X31771848Y34518445D02*
X31251848Y34518445D01*
X15947048Y23713645D02*
X18741848Y26508445D01*
X18246648Y34523245D02*
X18765848Y34523245D01*
X37761848Y10251645D02*
X37761848Y19988445D01*
X31251848Y47488445D02*
X35441848Y43298445D01*
X18711848Y47488445D02*
X18751848Y47488445D01*
X37761848Y19988445D02*
X31241848Y26508445D01*
X8749848Y19700445D02*
X4736648Y23713645D01*
D22*
%TO.N,/LED_R*%
X4590848Y6587445D02*
X5574848Y5603445D01*
X12051848Y5603445D02*
X15099848Y2555445D01*
X1637848Y4684445D02*
X3540848Y6587445D01*
X15099848Y2555445D02*
X29704848Y2555445D01*
X5574848Y5603445D02*
X12051848Y5603445D01*
X3540848Y6587445D02*
X4177848Y6587445D01*
X4177848Y6587445D02*
X4590848Y6587445D01*
%TO.N,/LED_G*%
X1637848Y7224445D02*
X2814848Y7224445D01*
X4177848Y8587445D02*
X4621848Y8143445D01*
X12813848Y8905445D02*
X28434848Y8905445D01*
X2814848Y7224445D02*
X4177848Y8587445D01*
X12051848Y8143445D02*
X12813848Y8905445D01*
X4621848Y8143445D02*
X12051848Y8143445D01*
X28434848Y8905445D02*
X29704848Y7635445D01*
%TO.N,/IRIN*%
X14506160Y9413445D02*
X9384848Y9413445D01*
X4177848Y10587445D02*
X5320848Y9444445D01*
X5320848Y9444445D02*
X9353848Y9444445D01*
X1637848Y9764445D02*
X3354848Y9764445D01*
X3354848Y9764445D02*
X4177848Y10587445D01*
X16496848Y11404133D02*
X14506160Y9413445D01*
D23*
%TO.N,Net-(C1-Pad1)*%
X12178848Y1539445D02*
X9384848Y4333445D01*
%TD*%
M02*
