%TF.GenerationSoftware,KiCad,Pcbnew,7.0.1*%
%TF.CreationDate,2023-04-02T16:57:02+09:00*%
%TF.ProjectId,monitor_osd_control,6d6f6e69-746f-4725-9f6f-73645f636f6e,5*%
%TF.SameCoordinates,PX7ab0ef8PY7236868*%
%TF.FileFunction,Soldermask,Top*%
%TF.FilePolarity,Negative*%
%FSLAX46Y46*%
G04 Gerber Fmt 4.6, Leading zero omitted, Abs format (unit mm)*
G04 Created by KiCad (PCBNEW 7.0.1) date 2023-04-02 16:57:02*
%MOMM*%
%LPD*%
G01*
G04 APERTURE LIST*
G04 Aperture macros list*
%AMRoundRect*
0 Rectangle with rounded corners*
0 $1 Rounding radius*
0 $2 $3 $4 $5 $6 $7 $8 $9 X,Y pos of 4 corners*
0 Add a 4 corners polygon primitive as box body*
4,1,4,$2,$3,$4,$5,$6,$7,$8,$9,$2,$3,0*
0 Add four circle primitives for the rounded corners*
1,1,$1+$1,$2,$3*
1,1,$1+$1,$4,$5*
1,1,$1+$1,$6,$7*
1,1,$1+$1,$8,$9*
0 Add four rect primitives between the rounded corners*
20,1,$1+$1,$2,$3,$4,$5,0*
20,1,$1+$1,$4,$5,$6,$7,0*
20,1,$1+$1,$6,$7,$8,$9,0*
20,1,$1+$1,$8,$9,$2,$3,0*%
G04 Aperture macros list end*
%ADD10O,1.850000X3.048000*%
%ADD11C,2.000000*%
%ADD12RoundRect,0.250200X-0.649800X0.649800X-0.649800X-0.649800X0.649800X-0.649800X0.649800X0.649800X0*%
%ADD13C,1.800000*%
%ADD14R,1.800000X1.800000*%
%ADD15C,1.500000*%
%ADD16O,3.048000X1.850000*%
%ADD17RoundRect,0.250000X-1.250000X-0.550000X1.250000X-0.550000X1.250000X0.550000X-1.250000X0.550000X0*%
%ADD18RoundRect,0.250000X0.450000X-0.350000X0.450000X0.350000X-0.450000X0.350000X-0.450000X-0.350000X0*%
%ADD19RoundRect,0.250000X0.475000X-0.337500X0.475000X0.337500X-0.475000X0.337500X-0.475000X-0.337500X0*%
%ADD20RoundRect,0.250000X0.400000X0.600000X-0.400000X0.600000X-0.400000X-0.600000X0.400000X-0.600000X0*%
%ADD21R,1.700000X1.700000*%
%ADD22O,1.700000X1.700000*%
%ADD23R,1.350000X1.350000*%
%ADD24O,1.350000X1.350000*%
G04 APERTURE END LIST*
D10*
%TO.C,SW1*%
X9525000Y30773000D03*
D11*
X9773400Y33771200D03*
X9773400Y40271200D03*
D10*
X9525000Y43273000D03*
X14525000Y30773000D03*
D11*
X14273400Y33771200D03*
X14273400Y40271200D03*
D10*
X14525000Y43273000D03*
%TD*%
D12*
%TO.C,U1*%
X9398000Y9398000D03*
D13*
X9398000Y6858000D03*
X9398000Y4318000D03*
%TD*%
D14*
%TO.C,D2*%
X29718000Y2540000D03*
D13*
X29718000Y5080000D03*
X29718000Y7620000D03*
%TD*%
D11*
%TO.C,SW6*%
X42275000Y10236200D03*
X42275000Y3736200D03*
X37775000Y10236200D03*
X37775000Y3736200D03*
%TD*%
D15*
%TO.C,TP2*%
X5969000Y48895000D03*
%TD*%
D10*
%TO.C,SW5*%
X40505000Y43283000D03*
D11*
X40256600Y40284800D03*
X40256600Y33784800D03*
D10*
X40505000Y30783000D03*
X35505000Y43283000D03*
D11*
X35756600Y40284800D03*
X35756600Y33784800D03*
D10*
X35505000Y30783000D03*
%TD*%
D15*
%TO.C,TP1*%
X11049000Y48895000D03*
%TD*%
%TO.C,TP3*%
X8509000Y48895000D03*
%TD*%
D16*
%TO.C,SW4*%
X31255000Y21493000D03*
D11*
X28256800Y21741400D03*
X21756800Y21741400D03*
D16*
X18755000Y21493000D03*
X31255000Y26493000D03*
D11*
X28256800Y26241400D03*
X21756800Y26241400D03*
D16*
X18755000Y26493000D03*
%TD*%
D17*
%TO.C,E1*%
X24216000Y11709400D03*
X28616000Y11709400D03*
%TD*%
D16*
%TO.C,SW2*%
X18765000Y52473000D03*
D11*
X21763200Y52224600D03*
X28263200Y52224600D03*
D16*
X31265000Y52473000D03*
X18765000Y47473000D03*
D11*
X21763200Y47724600D03*
X28263200Y47724600D03*
D16*
X31265000Y47473000D03*
%TD*%
D18*
%TO.C,R1*%
X16941800Y11471400D03*
X16941800Y13471400D03*
%TD*%
D19*
%TO.C,C1*%
X21056600Y11433900D03*
X21056600Y13508900D03*
%TD*%
D11*
%TO.C,TP4*%
X8763000Y19685000D03*
%TD*%
D19*
%TO.C,C2*%
X18973800Y11433900D03*
X18973800Y13508900D03*
%TD*%
D20*
%TO.C,D1*%
X13840400Y12446000D03*
X10340400Y12446000D03*
%TD*%
D16*
%TO.C,SW3*%
X18765000Y39503000D03*
D11*
X21763200Y39254600D03*
X28263200Y39254600D03*
D16*
X31265000Y39503000D03*
X18765000Y34503000D03*
D11*
X21763200Y34754600D03*
X28263200Y34754600D03*
D16*
X31265000Y34503000D03*
%TD*%
D21*
%TO.C,J4*%
X1651000Y2129000D03*
D22*
X1651000Y4669000D03*
X1651000Y7209000D03*
X1651000Y9749000D03*
X1651000Y12289000D03*
%TD*%
D23*
%TO.C,J1*%
X4191000Y23698200D03*
D24*
X4191000Y25698200D03*
X4191000Y27698200D03*
X4191000Y29698200D03*
X4191000Y31698200D03*
X4191000Y33698200D03*
X4191000Y35698200D03*
X4191000Y37698200D03*
X4191000Y39698200D03*
%TD*%
D21*
%TO.C,J2*%
X1651000Y24003000D03*
D22*
X1651000Y26543000D03*
X1651000Y29083000D03*
X1651000Y31623000D03*
X1651000Y34163000D03*
X1651000Y36703000D03*
X1651000Y39243000D03*
X1651000Y41783000D03*
X1651000Y44323000D03*
%TD*%
D23*
%TO.C,J3*%
X4191000Y4572000D03*
D24*
X4191000Y6572000D03*
X4191000Y8572000D03*
X4191000Y10572000D03*
X4191000Y12572000D03*
%TD*%
M02*
