%TF.GenerationSoftware,KiCad,Pcbnew,7.0.1*%
%TF.CreationDate,2023-04-02T16:51:07+09:00*%
%TF.ProjectId,monitor_osd_control,6d6f6e69-746f-4725-9f6f-73645f636f6e,5*%
%TF.SameCoordinates,PX7ab0ef8PY7236868*%
%TF.FileFunction,Legend,Bot*%
%TF.FilePolarity,Positive*%
%FSLAX46Y46*%
G04 Gerber Fmt 4.6, Leading zero omitted, Abs format (unit mm)*
G04 Created by KiCad (PCBNEW 7.0.1) date 2023-04-02 16:51:07*
%MOMM*%
%LPD*%
G01*
G04 APERTURE LIST*
G04 Aperture macros list*
%AMRoundRect*
0 Rectangle with rounded corners*
0 $1 Rounding radius*
0 $2 $3 $4 $5 $6 $7 $8 $9 X,Y pos of 4 corners*
0 Add a 4 corners polygon primitive as box body*
4,1,4,$2,$3,$4,$5,$6,$7,$8,$9,$2,$3,0*
0 Add four circle primitives for the rounded corners*
1,1,$1+$1,$2,$3*
1,1,$1+$1,$4,$5*
1,1,$1+$1,$6,$7*
1,1,$1+$1,$8,$9*
0 Add four rect primitives between the rounded corners*
20,1,$1+$1,$2,$3,$4,$5,0*
20,1,$1+$1,$4,$5,$6,$7,0*
20,1,$1+$1,$6,$7,$8,$9,0*
20,1,$1+$1,$8,$9,$2,$3,0*%
G04 Aperture macros list end*
%ADD10C,0.150000*%
%ADD11C,0.250000*%
%ADD12C,0.200000*%
%ADD13C,0.120000*%
%ADD14O,1.850000X3.048000*%
%ADD15C,2.000000*%
%ADD16RoundRect,0.250200X-0.649800X0.649800X-0.649800X-0.649800X0.649800X-0.649800X0.649800X0.649800X0*%
%ADD17C,1.800000*%
%ADD18R,1.800000X1.800000*%
%ADD19C,1.500000*%
%ADD20O,3.048000X1.850000*%
%ADD21R,1.700000X1.700000*%
%ADD22O,1.700000X1.700000*%
%ADD23R,1.350000X1.350000*%
%ADD24O,1.350000X1.350000*%
G04 APERTURE END LIST*
D10*
X30119000Y49987200D02*
G75*
G03*
X30119000Y49987200I-5100000J0D01*
G01*
X36499800Y15392400D02*
X48996600Y15392400D01*
X30119000Y24003000D02*
G75*
G03*
X30119000Y24003000I-5100000J0D01*
G01*
X43123800Y37033200D02*
G75*
G03*
X43123800Y37033200I-5100000J0D01*
G01*
X30144400Y37007800D02*
G75*
G03*
X30144400Y37007800I-5100000J0D01*
G01*
X17139600Y37007800D02*
G75*
G03*
X17139600Y37007800I-5100000J0D01*
G01*
X6221104Y27508230D02*
X5573485Y27508230D01*
X5573485Y27508230D02*
X5497295Y27546325D01*
X5497295Y27546325D02*
X5459200Y27584420D01*
X5459200Y27584420D02*
X5421104Y27660611D01*
X5421104Y27660611D02*
X5421104Y27812992D01*
X5421104Y27812992D02*
X5459200Y27889182D01*
X5459200Y27889182D02*
X5497295Y27927277D01*
X5497295Y27927277D02*
X5573485Y27965373D01*
X5573485Y27965373D02*
X6221104Y27965373D01*
X6271904Y4419620D02*
X6271904Y4038668D01*
X6271904Y4038668D02*
X5890952Y4000572D01*
X5890952Y4000572D02*
X5929047Y4038668D01*
X5929047Y4038668D02*
X5967142Y4114858D01*
X5967142Y4114858D02*
X5967142Y4305334D01*
X5967142Y4305334D02*
X5929047Y4381525D01*
X5929047Y4381525D02*
X5890952Y4419620D01*
X5890952Y4419620D02*
X5814761Y4457715D01*
X5814761Y4457715D02*
X5624285Y4457715D01*
X5624285Y4457715D02*
X5548095Y4419620D01*
X5548095Y4419620D02*
X5510000Y4381525D01*
X5510000Y4381525D02*
X5471904Y4305334D01*
X5471904Y4305334D02*
X5471904Y4114858D01*
X5471904Y4114858D02*
X5510000Y4038668D01*
X5510000Y4038668D02*
X5548095Y4000572D01*
X6271904Y4686287D02*
X5471904Y4952954D01*
X5471904Y4952954D02*
X6271904Y5219620D01*
D11*
X13895151Y36071981D02*
X13561818Y35071981D01*
X13561818Y35071981D02*
X13228485Y36071981D01*
X12704675Y36071981D02*
X12514199Y36071981D01*
X12514199Y36071981D02*
X12418961Y36024362D01*
X12418961Y36024362D02*
X12323723Y35929124D01*
X12323723Y35929124D02*
X12276104Y35738648D01*
X12276104Y35738648D02*
X12276104Y35405315D01*
X12276104Y35405315D02*
X12323723Y35214839D01*
X12323723Y35214839D02*
X12418961Y35119600D01*
X12418961Y35119600D02*
X12514199Y35071981D01*
X12514199Y35071981D02*
X12704675Y35071981D01*
X12704675Y35071981D02*
X12799913Y35119600D01*
X12799913Y35119600D02*
X12895151Y35214839D01*
X12895151Y35214839D02*
X12942770Y35405315D01*
X12942770Y35405315D02*
X12942770Y35738648D01*
X12942770Y35738648D02*
X12895151Y35929124D01*
X12895151Y35929124D02*
X12799913Y36024362D01*
X12799913Y36024362D02*
X12704675Y36071981D01*
X11371342Y35071981D02*
X11847532Y35071981D01*
X11847532Y35071981D02*
X11847532Y36071981D01*
X11038008Y35452934D02*
X10276104Y35452934D01*
D12*
X6997571Y50385000D02*
X6883285Y50337381D01*
X6883285Y50337381D02*
X6692809Y50337381D01*
X6692809Y50337381D02*
X6616618Y50385000D01*
X6616618Y50385000D02*
X6578523Y50432620D01*
X6578523Y50432620D02*
X6540428Y50527858D01*
X6540428Y50527858D02*
X6540428Y50623096D01*
X6540428Y50623096D02*
X6578523Y50718334D01*
X6578523Y50718334D02*
X6616618Y50765953D01*
X6616618Y50765953D02*
X6692809Y50813572D01*
X6692809Y50813572D02*
X6845190Y50861191D01*
X6845190Y50861191D02*
X6921380Y50908810D01*
X6921380Y50908810D02*
X6959475Y50956429D01*
X6959475Y50956429D02*
X6997571Y51051667D01*
X6997571Y51051667D02*
X6997571Y51146905D01*
X6997571Y51146905D02*
X6959475Y51242143D01*
X6959475Y51242143D02*
X6921380Y51289762D01*
X6921380Y51289762D02*
X6845190Y51337381D01*
X6845190Y51337381D02*
X6654713Y51337381D01*
X6654713Y51337381D02*
X6540428Y51289762D01*
X5740427Y50337381D02*
X6007094Y50813572D01*
X6197570Y50337381D02*
X6197570Y51337381D01*
X6197570Y51337381D02*
X5892808Y51337381D01*
X5892808Y51337381D02*
X5816618Y51289762D01*
X5816618Y51289762D02*
X5778523Y51242143D01*
X5778523Y51242143D02*
X5740427Y51146905D01*
X5740427Y51146905D02*
X5740427Y51004048D01*
X5740427Y51004048D02*
X5778523Y50908810D01*
X5778523Y50908810D02*
X5816618Y50861191D01*
X5816618Y50861191D02*
X5892808Y50813572D01*
X5892808Y50813572D02*
X6197570Y50813572D01*
X4940427Y50432620D02*
X4978523Y50385000D01*
X4978523Y50385000D02*
X5092808Y50337381D01*
X5092808Y50337381D02*
X5168999Y50337381D01*
X5168999Y50337381D02*
X5283285Y50385000D01*
X5283285Y50385000D02*
X5359475Y50480239D01*
X5359475Y50480239D02*
X5397570Y50575477D01*
X5397570Y50575477D02*
X5435666Y50765953D01*
X5435666Y50765953D02*
X5435666Y50908810D01*
X5435666Y50908810D02*
X5397570Y51099286D01*
X5397570Y51099286D02*
X5359475Y51194524D01*
X5359475Y51194524D02*
X5283285Y51289762D01*
X5283285Y51289762D02*
X5168999Y51337381D01*
X5168999Y51337381D02*
X5092808Y51337381D01*
X5092808Y51337381D02*
X4978523Y51289762D01*
X4978523Y51289762D02*
X4940427Y51242143D01*
D11*
X25880913Y49025981D02*
X25880913Y48216458D01*
X25880913Y48216458D02*
X25833294Y48121220D01*
X25833294Y48121220D02*
X25785675Y48073600D01*
X25785675Y48073600D02*
X25690437Y48025981D01*
X25690437Y48025981D02*
X25499961Y48025981D01*
X25499961Y48025981D02*
X25404723Y48073600D01*
X25404723Y48073600D02*
X25357104Y48121220D01*
X25357104Y48121220D02*
X25309485Y48216458D01*
X25309485Y48216458D02*
X25309485Y49025981D01*
X24833294Y48025981D02*
X24833294Y49025981D01*
X24833294Y49025981D02*
X24452342Y49025981D01*
X24452342Y49025981D02*
X24357104Y48978362D01*
X24357104Y48978362D02*
X24309485Y48930743D01*
X24309485Y48930743D02*
X24261866Y48835505D01*
X24261866Y48835505D02*
X24261866Y48692648D01*
X24261866Y48692648D02*
X24309485Y48597410D01*
X24309485Y48597410D02*
X24357104Y48549791D01*
X24357104Y48549791D02*
X24452342Y48502172D01*
X24452342Y48502172D02*
X24833294Y48502172D01*
D10*
X5421104Y29559277D02*
X6221104Y29559277D01*
X6221104Y29559277D02*
X6221104Y29749753D01*
X6221104Y29749753D02*
X6183009Y29864039D01*
X6183009Y29864039D02*
X6106819Y29940229D01*
X6106819Y29940229D02*
X6030628Y29978324D01*
X6030628Y29978324D02*
X5878247Y30016420D01*
X5878247Y30016420D02*
X5763961Y30016420D01*
X5763961Y30016420D02*
X5611580Y29978324D01*
X5611580Y29978324D02*
X5535390Y29940229D01*
X5535390Y29940229D02*
X5459200Y29864039D01*
X5459200Y29864039D02*
X5421104Y29749753D01*
X5421104Y29749753D02*
X5421104Y29559277D01*
X45384380Y46029715D02*
X45860571Y45696382D01*
X45384380Y45458287D02*
X46384380Y45458287D01*
X46384380Y45458287D02*
X46384380Y45839239D01*
X46384380Y45839239D02*
X46336761Y45934477D01*
X46336761Y45934477D02*
X46289142Y45982096D01*
X46289142Y45982096D02*
X46193904Y46029715D01*
X46193904Y46029715D02*
X46051047Y46029715D01*
X46051047Y46029715D02*
X45955809Y45982096D01*
X45955809Y45982096D02*
X45908190Y45934477D01*
X45908190Y45934477D02*
X45860571Y45839239D01*
X45860571Y45839239D02*
X45860571Y45458287D01*
X45432000Y46839239D02*
X45384380Y46744001D01*
X45384380Y46744001D02*
X45384380Y46553525D01*
X45384380Y46553525D02*
X45432000Y46458287D01*
X45432000Y46458287D02*
X45527238Y46410668D01*
X45527238Y46410668D02*
X45908190Y46410668D01*
X45908190Y46410668D02*
X46003428Y46458287D01*
X46003428Y46458287D02*
X46051047Y46553525D01*
X46051047Y46553525D02*
X46051047Y46744001D01*
X46051047Y46744001D02*
X46003428Y46839239D01*
X46003428Y46839239D02*
X45908190Y46886858D01*
X45908190Y46886858D02*
X45812952Y46886858D01*
X45812952Y46886858D02*
X45717714Y46410668D01*
X46051047Y47220192D02*
X45384380Y47458287D01*
X45384380Y47458287D02*
X46051047Y47696382D01*
X45479619Y48077335D02*
X45432000Y48124954D01*
X45432000Y48124954D02*
X45384380Y48077335D01*
X45384380Y48077335D02*
X45432000Y48029716D01*
X45432000Y48029716D02*
X45479619Y48077335D01*
X45479619Y48077335D02*
X45384380Y48077335D01*
X46384380Y49029715D02*
X46384380Y48553525D01*
X46384380Y48553525D02*
X45908190Y48505906D01*
X45908190Y48505906D02*
X45955809Y48553525D01*
X45955809Y48553525D02*
X46003428Y48648763D01*
X46003428Y48648763D02*
X46003428Y48886858D01*
X46003428Y48886858D02*
X45955809Y48982096D01*
X45955809Y48982096D02*
X45908190Y49029715D01*
X45908190Y49029715D02*
X45812952Y49077334D01*
X45812952Y49077334D02*
X45574857Y49077334D01*
X45574857Y49077334D02*
X45479619Y49029715D01*
X45479619Y49029715D02*
X45432000Y48982096D01*
X45432000Y48982096D02*
X45384380Y48886858D01*
X45384380Y48886858D02*
X45384380Y48648763D01*
X45384380Y48648763D02*
X45432000Y48553525D01*
X45432000Y48553525D02*
X45479619Y48505906D01*
X6183009Y23933124D02*
X6221104Y23856934D01*
X6221104Y23856934D02*
X6221104Y23742648D01*
X6221104Y23742648D02*
X6183009Y23628362D01*
X6183009Y23628362D02*
X6106819Y23552172D01*
X6106819Y23552172D02*
X6030628Y23514077D01*
X6030628Y23514077D02*
X5878247Y23475981D01*
X5878247Y23475981D02*
X5763961Y23475981D01*
X5763961Y23475981D02*
X5611580Y23514077D01*
X5611580Y23514077D02*
X5535390Y23552172D01*
X5535390Y23552172D02*
X5459200Y23628362D01*
X5459200Y23628362D02*
X5421104Y23742648D01*
X5421104Y23742648D02*
X5421104Y23818839D01*
X5421104Y23818839D02*
X5459200Y23933124D01*
X5459200Y23933124D02*
X5497295Y23971220D01*
X5497295Y23971220D02*
X5763961Y23971220D01*
X5763961Y23971220D02*
X5763961Y23818839D01*
X33558856Y12906858D02*
X33558856Y14106858D01*
X32301713Y12906858D02*
X32701713Y13478286D01*
X32987427Y12906858D02*
X32987427Y14106858D01*
X32987427Y14106858D02*
X32530284Y14106858D01*
X32530284Y14106858D02*
X32415999Y14049715D01*
X32415999Y14049715D02*
X32358856Y13992572D01*
X32358856Y13992572D02*
X32301713Y13878286D01*
X32301713Y13878286D02*
X32301713Y13706858D01*
X32301713Y13706858D02*
X32358856Y13592572D01*
X32358856Y13592572D02*
X32415999Y13535429D01*
X32415999Y13535429D02*
X32530284Y13478286D01*
X32530284Y13478286D02*
X32987427Y13478286D01*
X30187427Y12906858D02*
X30587427Y13478286D01*
X30873141Y12906858D02*
X30873141Y14106858D01*
X30873141Y14106858D02*
X30415998Y14106858D01*
X30415998Y14106858D02*
X30301713Y14049715D01*
X30301713Y14049715D02*
X30244570Y13992572D01*
X30244570Y13992572D02*
X30187427Y13878286D01*
X30187427Y13878286D02*
X30187427Y13706858D01*
X30187427Y13706858D02*
X30244570Y13592572D01*
X30244570Y13592572D02*
X30301713Y13535429D01*
X30301713Y13535429D02*
X30415998Y13478286D01*
X30415998Y13478286D02*
X30873141Y13478286D01*
X29215998Y12964000D02*
X29330284Y12906858D01*
X29330284Y12906858D02*
X29558856Y12906858D01*
X29558856Y12906858D02*
X29673141Y12964000D01*
X29673141Y12964000D02*
X29730284Y13078286D01*
X29730284Y13078286D02*
X29730284Y13535429D01*
X29730284Y13535429D02*
X29673141Y13649715D01*
X29673141Y13649715D02*
X29558856Y13706858D01*
X29558856Y13706858D02*
X29330284Y13706858D01*
X29330284Y13706858D02*
X29215998Y13649715D01*
X29215998Y13649715D02*
X29158856Y13535429D01*
X29158856Y13535429D02*
X29158856Y13421143D01*
X29158856Y13421143D02*
X29730284Y13306858D01*
X28130285Y12964000D02*
X28244570Y12906858D01*
X28244570Y12906858D02*
X28473142Y12906858D01*
X28473142Y12906858D02*
X28587427Y12964000D01*
X28587427Y12964000D02*
X28644570Y13021143D01*
X28644570Y13021143D02*
X28701713Y13135429D01*
X28701713Y13135429D02*
X28701713Y13478286D01*
X28701713Y13478286D02*
X28644570Y13592572D01*
X28644570Y13592572D02*
X28587427Y13649715D01*
X28587427Y13649715D02*
X28473142Y13706858D01*
X28473142Y13706858D02*
X28244570Y13706858D01*
X28244570Y13706858D02*
X28130285Y13649715D01*
X27158856Y12964000D02*
X27273142Y12906858D01*
X27273142Y12906858D02*
X27501714Y12906858D01*
X27501714Y12906858D02*
X27615999Y12964000D01*
X27615999Y12964000D02*
X27673142Y13078286D01*
X27673142Y13078286D02*
X27673142Y13535429D01*
X27673142Y13535429D02*
X27615999Y13649715D01*
X27615999Y13649715D02*
X27501714Y13706858D01*
X27501714Y13706858D02*
X27273142Y13706858D01*
X27273142Y13706858D02*
X27158856Y13649715D01*
X27158856Y13649715D02*
X27101714Y13535429D01*
X27101714Y13535429D02*
X27101714Y13421143D01*
X27101714Y13421143D02*
X27673142Y13306858D01*
X26587428Y12906858D02*
X26587428Y13706858D01*
X26587428Y14106858D02*
X26644571Y14049715D01*
X26644571Y14049715D02*
X26587428Y13992572D01*
X26587428Y13992572D02*
X26530285Y14049715D01*
X26530285Y14049715D02*
X26587428Y14106858D01*
X26587428Y14106858D02*
X26587428Y13992572D01*
X26130285Y13706858D02*
X25844571Y12906858D01*
X25844571Y12906858D02*
X25558856Y13706858D01*
X24644570Y12964000D02*
X24758856Y12906858D01*
X24758856Y12906858D02*
X24987428Y12906858D01*
X24987428Y12906858D02*
X25101713Y12964000D01*
X25101713Y12964000D02*
X25158856Y13078286D01*
X25158856Y13078286D02*
X25158856Y13535429D01*
X25158856Y13535429D02*
X25101713Y13649715D01*
X25101713Y13649715D02*
X24987428Y13706858D01*
X24987428Y13706858D02*
X24758856Y13706858D01*
X24758856Y13706858D02*
X24644570Y13649715D01*
X24644570Y13649715D02*
X24587428Y13535429D01*
X24587428Y13535429D02*
X24587428Y13421143D01*
X24587428Y13421143D02*
X25158856Y13306858D01*
X24073142Y12906858D02*
X24073142Y13706858D01*
X24073142Y13478286D02*
X24015999Y13592572D01*
X24015999Y13592572D02*
X23958857Y13649715D01*
X23958857Y13649715D02*
X23844571Y13706858D01*
X23844571Y13706858D02*
X23730285Y13706858D01*
X22415999Y12906858D02*
X22415999Y14106858D01*
X22415999Y14106858D02*
X21958856Y14106858D01*
X21958856Y14106858D02*
X21844571Y14049715D01*
X21844571Y14049715D02*
X21787428Y13992572D01*
X21787428Y13992572D02*
X21730285Y13878286D01*
X21730285Y13878286D02*
X21730285Y13706858D01*
X21730285Y13706858D02*
X21787428Y13592572D01*
X21787428Y13592572D02*
X21844571Y13535429D01*
X21844571Y13535429D02*
X21958856Y13478286D01*
X21958856Y13478286D02*
X22415999Y13478286D01*
X20701714Y12906858D02*
X20701714Y13535429D01*
X20701714Y13535429D02*
X20758856Y13649715D01*
X20758856Y13649715D02*
X20873142Y13706858D01*
X20873142Y13706858D02*
X21101714Y13706858D01*
X21101714Y13706858D02*
X21215999Y13649715D01*
X20701714Y12964000D02*
X20815999Y12906858D01*
X20815999Y12906858D02*
X21101714Y12906858D01*
X21101714Y12906858D02*
X21215999Y12964000D01*
X21215999Y12964000D02*
X21273142Y13078286D01*
X21273142Y13078286D02*
X21273142Y13192572D01*
X21273142Y13192572D02*
X21215999Y13306858D01*
X21215999Y13306858D02*
X21101714Y13364000D01*
X21101714Y13364000D02*
X20815999Y13364000D01*
X20815999Y13364000D02*
X20701714Y13421143D01*
X20130285Y12906858D02*
X20130285Y13706858D01*
X20130285Y13478286D02*
X20073142Y13592572D01*
X20073142Y13592572D02*
X20016000Y13649715D01*
X20016000Y13649715D02*
X19901714Y13706858D01*
X19901714Y13706858D02*
X19787428Y13706858D01*
X19558857Y13706858D02*
X19101714Y13706858D01*
X19387428Y14106858D02*
X19387428Y13078286D01*
X19387428Y13078286D02*
X19330285Y12964000D01*
X19330285Y12964000D02*
X19216000Y12906858D01*
X19216000Y12906858D02*
X19101714Y12906858D01*
D12*
X12115666Y50337381D02*
X12115666Y51337381D01*
X12115666Y51337381D02*
X11810904Y51337381D01*
X11810904Y51337381D02*
X11734714Y51289762D01*
X11734714Y51289762D02*
X11696619Y51242143D01*
X11696619Y51242143D02*
X11658523Y51146905D01*
X11658523Y51146905D02*
X11658523Y51004048D01*
X11658523Y51004048D02*
X11696619Y50908810D01*
X11696619Y50908810D02*
X11734714Y50861191D01*
X11734714Y50861191D02*
X11810904Y50813572D01*
X11810904Y50813572D02*
X12115666Y50813572D01*
X11391857Y51337381D02*
X11201381Y50337381D01*
X11201381Y50337381D02*
X11049000Y51051667D01*
X11049000Y51051667D02*
X10896619Y50337381D01*
X10896619Y50337381D02*
X10706143Y51337381D01*
X9944237Y50337381D02*
X10210904Y50813572D01*
X10401380Y50337381D02*
X10401380Y51337381D01*
X10401380Y51337381D02*
X10096618Y51337381D01*
X10096618Y51337381D02*
X10020428Y51289762D01*
X10020428Y51289762D02*
X9982333Y51242143D01*
X9982333Y51242143D02*
X9944237Y51146905D01*
X9944237Y51146905D02*
X9944237Y51004048D01*
X9944237Y51004048D02*
X9982333Y50908810D01*
X9982333Y50908810D02*
X10020428Y50861191D01*
X10020428Y50861191D02*
X10096618Y50813572D01*
X10096618Y50813572D02*
X10401380Y50813572D01*
D10*
X9524904Y18015762D02*
X9620142Y18063381D01*
X9620142Y18063381D02*
X9762999Y18063381D01*
X9762999Y18063381D02*
X9905856Y18015762D01*
X9905856Y18015762D02*
X10001094Y17920524D01*
X10001094Y17920524D02*
X10048713Y17825286D01*
X10048713Y17825286D02*
X10096332Y17634810D01*
X10096332Y17634810D02*
X10096332Y17491953D01*
X10096332Y17491953D02*
X10048713Y17301477D01*
X10048713Y17301477D02*
X10001094Y17206239D01*
X10001094Y17206239D02*
X9905856Y17111000D01*
X9905856Y17111000D02*
X9762999Y17063381D01*
X9762999Y17063381D02*
X9667761Y17063381D01*
X9667761Y17063381D02*
X9524904Y17111000D01*
X9524904Y17111000D02*
X9477285Y17158620D01*
X9477285Y17158620D02*
X9477285Y17491953D01*
X9477285Y17491953D02*
X9667761Y17491953D01*
X9048713Y17063381D02*
X9048713Y18063381D01*
X9048713Y18063381D02*
X8477285Y17063381D01*
X8477285Y17063381D02*
X8477285Y18063381D01*
X8001094Y17063381D02*
X8001094Y18063381D01*
X8001094Y18063381D02*
X7762999Y18063381D01*
X7762999Y18063381D02*
X7620142Y18015762D01*
X7620142Y18015762D02*
X7524904Y17920524D01*
X7524904Y17920524D02*
X7477285Y17825286D01*
X7477285Y17825286D02*
X7429666Y17634810D01*
X7429666Y17634810D02*
X7429666Y17491953D01*
X7429666Y17491953D02*
X7477285Y17301477D01*
X7477285Y17301477D02*
X7524904Y17206239D01*
X7524904Y17206239D02*
X7620142Y17111000D01*
X7620142Y17111000D02*
X7762999Y17063381D01*
X7762999Y17063381D02*
X8001094Y17063381D01*
X5459200Y25127029D02*
X5421104Y25241315D01*
X5421104Y25241315D02*
X5421104Y25431791D01*
X5421104Y25431791D02*
X5459200Y25507982D01*
X5459200Y25507982D02*
X5497295Y25546077D01*
X5497295Y25546077D02*
X5573485Y25584172D01*
X5573485Y25584172D02*
X5649676Y25584172D01*
X5649676Y25584172D02*
X5725866Y25546077D01*
X5725866Y25546077D02*
X5763961Y25507982D01*
X5763961Y25507982D02*
X5802057Y25431791D01*
X5802057Y25431791D02*
X5840152Y25279410D01*
X5840152Y25279410D02*
X5878247Y25203220D01*
X5878247Y25203220D02*
X5916342Y25165125D01*
X5916342Y25165125D02*
X5992533Y25127029D01*
X5992533Y25127029D02*
X6068723Y25127029D01*
X6068723Y25127029D02*
X6144914Y25165125D01*
X6144914Y25165125D02*
X6183009Y25203220D01*
X6183009Y25203220D02*
X6221104Y25279410D01*
X6221104Y25279410D02*
X6221104Y25469887D01*
X6221104Y25469887D02*
X6183009Y25584172D01*
X5421104Y26384173D02*
X5802057Y26117506D01*
X5421104Y25927030D02*
X6221104Y25927030D01*
X6221104Y25927030D02*
X6221104Y26231792D01*
X6221104Y26231792D02*
X6183009Y26307982D01*
X6183009Y26307982D02*
X6144914Y26346077D01*
X6144914Y26346077D02*
X6068723Y26384173D01*
X6068723Y26384173D02*
X5954438Y26384173D01*
X5954438Y26384173D02*
X5878247Y26346077D01*
X5878247Y26346077D02*
X5840152Y26307982D01*
X5840152Y26307982D02*
X5802057Y26231792D01*
X5802057Y26231792D02*
X5802057Y25927030D01*
X6221104Y30988096D02*
X5421104Y31254763D01*
X5421104Y31254763D02*
X6221104Y31521429D01*
X5725866Y31788096D02*
X5725866Y32397619D01*
X5421104Y32092858D02*
X6030628Y32092858D01*
X5471904Y10141001D02*
X6271904Y10141001D01*
X5471904Y10979096D02*
X5852857Y10712429D01*
X5471904Y10521953D02*
X6271904Y10521953D01*
X6271904Y10521953D02*
X6271904Y10826715D01*
X6271904Y10826715D02*
X6233809Y10902905D01*
X6233809Y10902905D02*
X6195714Y10941000D01*
X6195714Y10941000D02*
X6119523Y10979096D01*
X6119523Y10979096D02*
X6005238Y10979096D01*
X6005238Y10979096D02*
X5929047Y10941000D01*
X5929047Y10941000D02*
X5890952Y10902905D01*
X5890952Y10902905D02*
X5852857Y10826715D01*
X5852857Y10826715D02*
X5852857Y10521953D01*
X5471904Y6451620D02*
X5471904Y6070668D01*
X5471904Y6070668D02*
X6271904Y6070668D01*
X5471904Y7175430D02*
X5852857Y6908763D01*
X5471904Y6718287D02*
X6271904Y6718287D01*
X6271904Y6718287D02*
X6271904Y7023049D01*
X6271904Y7023049D02*
X6233809Y7099239D01*
X6233809Y7099239D02*
X6195714Y7137334D01*
X6195714Y7137334D02*
X6119523Y7175430D01*
X6119523Y7175430D02*
X6005238Y7175430D01*
X6005238Y7175430D02*
X5929047Y7137334D01*
X5929047Y7137334D02*
X5890952Y7099239D01*
X5890952Y7099239D02*
X5852857Y7023049D01*
X5852857Y7023049D02*
X5852857Y6718287D01*
X47196857Y24899859D02*
X48396857Y24899859D01*
X48396857Y24899859D02*
X47539714Y25299859D01*
X47539714Y25299859D02*
X48396857Y25699859D01*
X48396857Y25699859D02*
X47196857Y25699859D01*
X47196857Y26442716D02*
X47254000Y26328431D01*
X47254000Y26328431D02*
X47311142Y26271288D01*
X47311142Y26271288D02*
X47425428Y26214145D01*
X47425428Y26214145D02*
X47768285Y26214145D01*
X47768285Y26214145D02*
X47882571Y26271288D01*
X47882571Y26271288D02*
X47939714Y26328431D01*
X47939714Y26328431D02*
X47996857Y26442716D01*
X47996857Y26442716D02*
X47996857Y26614145D01*
X47996857Y26614145D02*
X47939714Y26728431D01*
X47939714Y26728431D02*
X47882571Y26785573D01*
X47882571Y26785573D02*
X47768285Y26842716D01*
X47768285Y26842716D02*
X47425428Y26842716D01*
X47425428Y26842716D02*
X47311142Y26785573D01*
X47311142Y26785573D02*
X47254000Y26728431D01*
X47254000Y26728431D02*
X47196857Y26614145D01*
X47196857Y26614145D02*
X47196857Y26442716D01*
X47996857Y27357002D02*
X47196857Y27357002D01*
X47882571Y27357002D02*
X47939714Y27414145D01*
X47939714Y27414145D02*
X47996857Y27528430D01*
X47996857Y27528430D02*
X47996857Y27699859D01*
X47996857Y27699859D02*
X47939714Y27814145D01*
X47939714Y27814145D02*
X47825428Y27871287D01*
X47825428Y27871287D02*
X47196857Y27871287D01*
X47196857Y28442716D02*
X47996857Y28442716D01*
X48396857Y28442716D02*
X48339714Y28385573D01*
X48339714Y28385573D02*
X48282571Y28442716D01*
X48282571Y28442716D02*
X48339714Y28499859D01*
X48339714Y28499859D02*
X48396857Y28442716D01*
X48396857Y28442716D02*
X48282571Y28442716D01*
X47996857Y28842716D02*
X47996857Y29299859D01*
X48396857Y29014145D02*
X47368285Y29014145D01*
X47368285Y29014145D02*
X47254000Y29071288D01*
X47254000Y29071288D02*
X47196857Y29185573D01*
X47196857Y29185573D02*
X47196857Y29299859D01*
X47196857Y29871287D02*
X47254000Y29757002D01*
X47254000Y29757002D02*
X47311142Y29699859D01*
X47311142Y29699859D02*
X47425428Y29642716D01*
X47425428Y29642716D02*
X47768285Y29642716D01*
X47768285Y29642716D02*
X47882571Y29699859D01*
X47882571Y29699859D02*
X47939714Y29757002D01*
X47939714Y29757002D02*
X47996857Y29871287D01*
X47996857Y29871287D02*
X47996857Y30042716D01*
X47996857Y30042716D02*
X47939714Y30157002D01*
X47939714Y30157002D02*
X47882571Y30214144D01*
X47882571Y30214144D02*
X47768285Y30271287D01*
X47768285Y30271287D02*
X47425428Y30271287D01*
X47425428Y30271287D02*
X47311142Y30214144D01*
X47311142Y30214144D02*
X47254000Y30157002D01*
X47254000Y30157002D02*
X47196857Y30042716D01*
X47196857Y30042716D02*
X47196857Y29871287D01*
X47196857Y30785573D02*
X47996857Y30785573D01*
X47768285Y30785573D02*
X47882571Y30842716D01*
X47882571Y30842716D02*
X47939714Y30899858D01*
X47939714Y30899858D02*
X47996857Y31014144D01*
X47996857Y31014144D02*
X47996857Y31128430D01*
X48396857Y32671287D02*
X48396857Y32899859D01*
X48396857Y32899859D02*
X48339714Y33014144D01*
X48339714Y33014144D02*
X48225428Y33128430D01*
X48225428Y33128430D02*
X47996857Y33185573D01*
X47996857Y33185573D02*
X47596857Y33185573D01*
X47596857Y33185573D02*
X47368285Y33128430D01*
X47368285Y33128430D02*
X47254000Y33014144D01*
X47254000Y33014144D02*
X47196857Y32899859D01*
X47196857Y32899859D02*
X47196857Y32671287D01*
X47196857Y32671287D02*
X47254000Y32557001D01*
X47254000Y32557001D02*
X47368285Y32442716D01*
X47368285Y32442716D02*
X47596857Y32385573D01*
X47596857Y32385573D02*
X47996857Y32385573D01*
X47996857Y32385573D02*
X48225428Y32442716D01*
X48225428Y32442716D02*
X48339714Y32557001D01*
X48339714Y32557001D02*
X48396857Y32671287D01*
X47254000Y33642716D02*
X47196857Y33814144D01*
X47196857Y33814144D02*
X47196857Y34099859D01*
X47196857Y34099859D02*
X47254000Y34214144D01*
X47254000Y34214144D02*
X47311142Y34271287D01*
X47311142Y34271287D02*
X47425428Y34328430D01*
X47425428Y34328430D02*
X47539714Y34328430D01*
X47539714Y34328430D02*
X47654000Y34271287D01*
X47654000Y34271287D02*
X47711142Y34214144D01*
X47711142Y34214144D02*
X47768285Y34099859D01*
X47768285Y34099859D02*
X47825428Y33871287D01*
X47825428Y33871287D02*
X47882571Y33757002D01*
X47882571Y33757002D02*
X47939714Y33699859D01*
X47939714Y33699859D02*
X48054000Y33642716D01*
X48054000Y33642716D02*
X48168285Y33642716D01*
X48168285Y33642716D02*
X48282571Y33699859D01*
X48282571Y33699859D02*
X48339714Y33757002D01*
X48339714Y33757002D02*
X48396857Y33871287D01*
X48396857Y33871287D02*
X48396857Y34157002D01*
X48396857Y34157002D02*
X48339714Y34328430D01*
X47196857Y34842716D02*
X48396857Y34842716D01*
X48396857Y34842716D02*
X48396857Y35128430D01*
X48396857Y35128430D02*
X48339714Y35299859D01*
X48339714Y35299859D02*
X48225428Y35414144D01*
X48225428Y35414144D02*
X48111142Y35471287D01*
X48111142Y35471287D02*
X47882571Y35528430D01*
X47882571Y35528430D02*
X47711142Y35528430D01*
X47711142Y35528430D02*
X47482571Y35471287D01*
X47482571Y35471287D02*
X47368285Y35414144D01*
X47368285Y35414144D02*
X47254000Y35299859D01*
X47254000Y35299859D02*
X47196857Y35128430D01*
X47196857Y35128430D02*
X47196857Y34842716D01*
X47311142Y37642716D02*
X47254000Y37585573D01*
X47254000Y37585573D02*
X47196857Y37414145D01*
X47196857Y37414145D02*
X47196857Y37299859D01*
X47196857Y37299859D02*
X47254000Y37128430D01*
X47254000Y37128430D02*
X47368285Y37014145D01*
X47368285Y37014145D02*
X47482571Y36957002D01*
X47482571Y36957002D02*
X47711142Y36899859D01*
X47711142Y36899859D02*
X47882571Y36899859D01*
X47882571Y36899859D02*
X48111142Y36957002D01*
X48111142Y36957002D02*
X48225428Y37014145D01*
X48225428Y37014145D02*
X48339714Y37128430D01*
X48339714Y37128430D02*
X48396857Y37299859D01*
X48396857Y37299859D02*
X48396857Y37414145D01*
X48396857Y37414145D02*
X48339714Y37585573D01*
X48339714Y37585573D02*
X48282571Y37642716D01*
X47196857Y38328430D02*
X47254000Y38214145D01*
X47254000Y38214145D02*
X47311142Y38157002D01*
X47311142Y38157002D02*
X47425428Y38099859D01*
X47425428Y38099859D02*
X47768285Y38099859D01*
X47768285Y38099859D02*
X47882571Y38157002D01*
X47882571Y38157002D02*
X47939714Y38214145D01*
X47939714Y38214145D02*
X47996857Y38328430D01*
X47996857Y38328430D02*
X47996857Y38499859D01*
X47996857Y38499859D02*
X47939714Y38614145D01*
X47939714Y38614145D02*
X47882571Y38671287D01*
X47882571Y38671287D02*
X47768285Y38728430D01*
X47768285Y38728430D02*
X47425428Y38728430D01*
X47425428Y38728430D02*
X47311142Y38671287D01*
X47311142Y38671287D02*
X47254000Y38614145D01*
X47254000Y38614145D02*
X47196857Y38499859D01*
X47196857Y38499859D02*
X47196857Y38328430D01*
X47996857Y39242716D02*
X47196857Y39242716D01*
X47882571Y39242716D02*
X47939714Y39299859D01*
X47939714Y39299859D02*
X47996857Y39414144D01*
X47996857Y39414144D02*
X47996857Y39585573D01*
X47996857Y39585573D02*
X47939714Y39699859D01*
X47939714Y39699859D02*
X47825428Y39757001D01*
X47825428Y39757001D02*
X47196857Y39757001D01*
X47996857Y40157001D02*
X47996857Y40614144D01*
X48396857Y40328430D02*
X47368285Y40328430D01*
X47368285Y40328430D02*
X47254000Y40385573D01*
X47254000Y40385573D02*
X47196857Y40499858D01*
X47196857Y40499858D02*
X47196857Y40614144D01*
X47196857Y41014144D02*
X47996857Y41014144D01*
X47768285Y41014144D02*
X47882571Y41071287D01*
X47882571Y41071287D02*
X47939714Y41128429D01*
X47939714Y41128429D02*
X47996857Y41242715D01*
X47996857Y41242715D02*
X47996857Y41357001D01*
X47196857Y41928429D02*
X47254000Y41814144D01*
X47254000Y41814144D02*
X47311142Y41757001D01*
X47311142Y41757001D02*
X47425428Y41699858D01*
X47425428Y41699858D02*
X47768285Y41699858D01*
X47768285Y41699858D02*
X47882571Y41757001D01*
X47882571Y41757001D02*
X47939714Y41814144D01*
X47939714Y41814144D02*
X47996857Y41928429D01*
X47996857Y41928429D02*
X47996857Y42099858D01*
X47996857Y42099858D02*
X47939714Y42214144D01*
X47939714Y42214144D02*
X47882571Y42271286D01*
X47882571Y42271286D02*
X47768285Y42328429D01*
X47768285Y42328429D02*
X47425428Y42328429D01*
X47425428Y42328429D02*
X47311142Y42271286D01*
X47311142Y42271286D02*
X47254000Y42214144D01*
X47254000Y42214144D02*
X47196857Y42099858D01*
X47196857Y42099858D02*
X47196857Y41928429D01*
X47196857Y43014143D02*
X47254000Y42899858D01*
X47254000Y42899858D02*
X47368285Y42842715D01*
X47368285Y42842715D02*
X48396857Y42842715D01*
X47825428Y44785572D02*
X47768285Y44957000D01*
X47768285Y44957000D02*
X47711142Y45014143D01*
X47711142Y45014143D02*
X47596857Y45071286D01*
X47596857Y45071286D02*
X47425428Y45071286D01*
X47425428Y45071286D02*
X47311142Y45014143D01*
X47311142Y45014143D02*
X47254000Y44957000D01*
X47254000Y44957000D02*
X47196857Y44842715D01*
X47196857Y44842715D02*
X47196857Y44385572D01*
X47196857Y44385572D02*
X48396857Y44385572D01*
X48396857Y44385572D02*
X48396857Y44785572D01*
X48396857Y44785572D02*
X48339714Y44899857D01*
X48339714Y44899857D02*
X48282571Y44957000D01*
X48282571Y44957000D02*
X48168285Y45014143D01*
X48168285Y45014143D02*
X48054000Y45014143D01*
X48054000Y45014143D02*
X47939714Y44957000D01*
X47939714Y44957000D02*
X47882571Y44899857D01*
X47882571Y44899857D02*
X47825428Y44785572D01*
X47825428Y44785572D02*
X47825428Y44385572D01*
X47196857Y45757000D02*
X47254000Y45642715D01*
X47254000Y45642715D02*
X47311142Y45585572D01*
X47311142Y45585572D02*
X47425428Y45528429D01*
X47425428Y45528429D02*
X47768285Y45528429D01*
X47768285Y45528429D02*
X47882571Y45585572D01*
X47882571Y45585572D02*
X47939714Y45642715D01*
X47939714Y45642715D02*
X47996857Y45757000D01*
X47996857Y45757000D02*
X47996857Y45928429D01*
X47996857Y45928429D02*
X47939714Y46042715D01*
X47939714Y46042715D02*
X47882571Y46099857D01*
X47882571Y46099857D02*
X47768285Y46157000D01*
X47768285Y46157000D02*
X47425428Y46157000D01*
X47425428Y46157000D02*
X47311142Y46099857D01*
X47311142Y46099857D02*
X47254000Y46042715D01*
X47254000Y46042715D02*
X47196857Y45928429D01*
X47196857Y45928429D02*
X47196857Y45757000D01*
X47196857Y47185571D02*
X47825428Y47185571D01*
X47825428Y47185571D02*
X47939714Y47128429D01*
X47939714Y47128429D02*
X47996857Y47014143D01*
X47996857Y47014143D02*
X47996857Y46785571D01*
X47996857Y46785571D02*
X47939714Y46671286D01*
X47254000Y47185571D02*
X47196857Y47071286D01*
X47196857Y47071286D02*
X47196857Y46785571D01*
X47196857Y46785571D02*
X47254000Y46671286D01*
X47254000Y46671286D02*
X47368285Y46614143D01*
X47368285Y46614143D02*
X47482571Y46614143D01*
X47482571Y46614143D02*
X47596857Y46671286D01*
X47596857Y46671286D02*
X47654000Y46785571D01*
X47654000Y46785571D02*
X47654000Y47071286D01*
X47654000Y47071286D02*
X47711142Y47185571D01*
X47196857Y47757000D02*
X47996857Y47757000D01*
X47768285Y47757000D02*
X47882571Y47814143D01*
X47882571Y47814143D02*
X47939714Y47871285D01*
X47939714Y47871285D02*
X47996857Y47985571D01*
X47996857Y47985571D02*
X47996857Y48099857D01*
X47196857Y49014142D02*
X48396857Y49014142D01*
X47254000Y49014142D02*
X47196857Y48899857D01*
X47196857Y48899857D02*
X47196857Y48671285D01*
X47196857Y48671285D02*
X47254000Y48557000D01*
X47254000Y48557000D02*
X47311142Y48499857D01*
X47311142Y48499857D02*
X47425428Y48442714D01*
X47425428Y48442714D02*
X47768285Y48442714D01*
X47768285Y48442714D02*
X47882571Y48499857D01*
X47882571Y48499857D02*
X47939714Y48557000D01*
X47939714Y48557000D02*
X47996857Y48671285D01*
X47996857Y48671285D02*
X47996857Y48899857D01*
X47996857Y48899857D02*
X47939714Y49014142D01*
X5421104Y37077734D02*
X6221104Y37077734D01*
X6221104Y37077734D02*
X6221104Y37382496D01*
X6221104Y37382496D02*
X6183009Y37458686D01*
X6183009Y37458686D02*
X6144914Y37496781D01*
X6144914Y37496781D02*
X6068723Y37534877D01*
X6068723Y37534877D02*
X5954438Y37534877D01*
X5954438Y37534877D02*
X5878247Y37496781D01*
X5878247Y37496781D02*
X5840152Y37458686D01*
X5840152Y37458686D02*
X5802057Y37382496D01*
X5802057Y37382496D02*
X5802057Y37077734D01*
X6221104Y37801543D02*
X5421104Y37992019D01*
X5421104Y37992019D02*
X5992533Y38144400D01*
X5992533Y38144400D02*
X5421104Y38296781D01*
X5421104Y38296781D02*
X6221104Y38487257D01*
X5471904Y8356620D02*
X5471904Y7975668D01*
X5471904Y7975668D02*
X6271904Y7975668D01*
X6233809Y9042334D02*
X6271904Y8966144D01*
X6271904Y8966144D02*
X6271904Y8851858D01*
X6271904Y8851858D02*
X6233809Y8737572D01*
X6233809Y8737572D02*
X6157619Y8661382D01*
X6157619Y8661382D02*
X6081428Y8623287D01*
X6081428Y8623287D02*
X5929047Y8585191D01*
X5929047Y8585191D02*
X5814761Y8585191D01*
X5814761Y8585191D02*
X5662380Y8623287D01*
X5662380Y8623287D02*
X5586190Y8661382D01*
X5586190Y8661382D02*
X5510000Y8737572D01*
X5510000Y8737572D02*
X5471904Y8851858D01*
X5471904Y8851858D02*
X5471904Y8928049D01*
X5471904Y8928049D02*
X5510000Y9042334D01*
X5510000Y9042334D02*
X5548095Y9080430D01*
X5548095Y9080430D02*
X5814761Y9080430D01*
X5814761Y9080430D02*
X5814761Y8928049D01*
X6183009Y39935124D02*
X6221104Y39858934D01*
X6221104Y39858934D02*
X6221104Y39744648D01*
X6221104Y39744648D02*
X6183009Y39630362D01*
X6183009Y39630362D02*
X6106819Y39554172D01*
X6106819Y39554172D02*
X6030628Y39516077D01*
X6030628Y39516077D02*
X5878247Y39477981D01*
X5878247Y39477981D02*
X5763961Y39477981D01*
X5763961Y39477981D02*
X5611580Y39516077D01*
X5611580Y39516077D02*
X5535390Y39554172D01*
X5535390Y39554172D02*
X5459200Y39630362D01*
X5459200Y39630362D02*
X5421104Y39744648D01*
X5421104Y39744648D02*
X5421104Y39820839D01*
X5421104Y39820839D02*
X5459200Y39935124D01*
X5459200Y39935124D02*
X5497295Y39973220D01*
X5497295Y39973220D02*
X5763961Y39973220D01*
X5763961Y39973220D02*
X5763961Y39820839D01*
X6233809Y12782524D02*
X6271904Y12706334D01*
X6271904Y12706334D02*
X6271904Y12592048D01*
X6271904Y12592048D02*
X6233809Y12477762D01*
X6233809Y12477762D02*
X6157619Y12401572D01*
X6157619Y12401572D02*
X6081428Y12363477D01*
X6081428Y12363477D02*
X5929047Y12325381D01*
X5929047Y12325381D02*
X5814761Y12325381D01*
X5814761Y12325381D02*
X5662380Y12363477D01*
X5662380Y12363477D02*
X5586190Y12401572D01*
X5586190Y12401572D02*
X5510000Y12477762D01*
X5510000Y12477762D02*
X5471904Y12592048D01*
X5471904Y12592048D02*
X5471904Y12668239D01*
X5471904Y12668239D02*
X5510000Y12782524D01*
X5510000Y12782524D02*
X5548095Y12820620D01*
X5548095Y12820620D02*
X5814761Y12820620D01*
X5814761Y12820620D02*
X5814761Y12668239D01*
X6221104Y32969296D02*
X5421104Y33235963D01*
X5421104Y33235963D02*
X6221104Y33502629D01*
X5725866Y33769296D02*
X5725866Y34378819D01*
D11*
X39879351Y36046581D02*
X39546018Y35046581D01*
X39546018Y35046581D02*
X39212685Y36046581D01*
X38688875Y36046581D02*
X38498399Y36046581D01*
X38498399Y36046581D02*
X38403161Y35998962D01*
X38403161Y35998962D02*
X38307923Y35903724D01*
X38307923Y35903724D02*
X38260304Y35713248D01*
X38260304Y35713248D02*
X38260304Y35379915D01*
X38260304Y35379915D02*
X38307923Y35189439D01*
X38307923Y35189439D02*
X38403161Y35094200D01*
X38403161Y35094200D02*
X38498399Y35046581D01*
X38498399Y35046581D02*
X38688875Y35046581D01*
X38688875Y35046581D02*
X38784113Y35094200D01*
X38784113Y35094200D02*
X38879351Y35189439D01*
X38879351Y35189439D02*
X38926970Y35379915D01*
X38926970Y35379915D02*
X38926970Y35713248D01*
X38926970Y35713248D02*
X38879351Y35903724D01*
X38879351Y35903724D02*
X38784113Y35998962D01*
X38784113Y35998962D02*
X38688875Y36046581D01*
X37355542Y35046581D02*
X37831732Y35046581D01*
X37831732Y35046581D02*
X37831732Y36046581D01*
X37022208Y35427534D02*
X36260304Y35427534D01*
X36641256Y35046581D02*
X36641256Y35808486D01*
X26950751Y22016381D02*
X26950751Y23016381D01*
X26950751Y23016381D02*
X26712656Y23016381D01*
X26712656Y23016381D02*
X26569799Y22968762D01*
X26569799Y22968762D02*
X26474561Y22873524D01*
X26474561Y22873524D02*
X26426942Y22778286D01*
X26426942Y22778286D02*
X26379323Y22587810D01*
X26379323Y22587810D02*
X26379323Y22444953D01*
X26379323Y22444953D02*
X26426942Y22254477D01*
X26426942Y22254477D02*
X26474561Y22159239D01*
X26474561Y22159239D02*
X26569799Y22064000D01*
X26569799Y22064000D02*
X26712656Y22016381D01*
X26712656Y22016381D02*
X26950751Y22016381D01*
X25760275Y23016381D02*
X25569799Y23016381D01*
X25569799Y23016381D02*
X25474561Y22968762D01*
X25474561Y22968762D02*
X25379323Y22873524D01*
X25379323Y22873524D02*
X25331704Y22683048D01*
X25331704Y22683048D02*
X25331704Y22349715D01*
X25331704Y22349715D02*
X25379323Y22159239D01*
X25379323Y22159239D02*
X25474561Y22064000D01*
X25474561Y22064000D02*
X25569799Y22016381D01*
X25569799Y22016381D02*
X25760275Y22016381D01*
X25760275Y22016381D02*
X25855513Y22064000D01*
X25855513Y22064000D02*
X25950751Y22159239D01*
X25950751Y22159239D02*
X25998370Y22349715D01*
X25998370Y22349715D02*
X25998370Y22683048D01*
X25998370Y22683048D02*
X25950751Y22873524D01*
X25950751Y22873524D02*
X25855513Y22968762D01*
X25855513Y22968762D02*
X25760275Y23016381D01*
X24998370Y23016381D02*
X24760275Y22016381D01*
X24760275Y22016381D02*
X24569799Y22730667D01*
X24569799Y22730667D02*
X24379323Y22016381D01*
X24379323Y22016381D02*
X24141228Y23016381D01*
X23760275Y22016381D02*
X23760275Y23016381D01*
X23760275Y23016381D02*
X23188847Y22016381D01*
X23188847Y22016381D02*
X23188847Y23016381D01*
D10*
X5421104Y35445734D02*
X6221104Y35445734D01*
X6221104Y35445734D02*
X5649676Y35712400D01*
X5649676Y35712400D02*
X6221104Y35979067D01*
X6221104Y35979067D02*
X5421104Y35979067D01*
D12*
X9118523Y47352762D02*
X9194713Y47400381D01*
X9194713Y47400381D02*
X9308999Y47400381D01*
X9308999Y47400381D02*
X9423285Y47352762D01*
X9423285Y47352762D02*
X9499475Y47257524D01*
X9499475Y47257524D02*
X9537570Y47162286D01*
X9537570Y47162286D02*
X9575666Y46971810D01*
X9575666Y46971810D02*
X9575666Y46828953D01*
X9575666Y46828953D02*
X9537570Y46638477D01*
X9537570Y46638477D02*
X9499475Y46543239D01*
X9499475Y46543239D02*
X9423285Y46448000D01*
X9423285Y46448000D02*
X9308999Y46400381D01*
X9308999Y46400381D02*
X9232808Y46400381D01*
X9232808Y46400381D02*
X9118523Y46448000D01*
X9118523Y46448000D02*
X9080427Y46495620D01*
X9080427Y46495620D02*
X9080427Y46828953D01*
X9080427Y46828953D02*
X9232808Y46828953D01*
X8737570Y46400381D02*
X8737570Y47400381D01*
X8737570Y47400381D02*
X8280427Y46400381D01*
X8280427Y46400381D02*
X8280427Y47400381D01*
X7899475Y46400381D02*
X7899475Y47400381D01*
X7899475Y47400381D02*
X7708999Y47400381D01*
X7708999Y47400381D02*
X7594713Y47352762D01*
X7594713Y47352762D02*
X7518523Y47257524D01*
X7518523Y47257524D02*
X7480428Y47162286D01*
X7480428Y47162286D02*
X7442332Y46971810D01*
X7442332Y46971810D02*
X7442332Y46828953D01*
X7442332Y46828953D02*
X7480428Y46638477D01*
X7480428Y46638477D02*
X7518523Y46543239D01*
X7518523Y46543239D02*
X7594713Y46448000D01*
X7594713Y46448000D02*
X7708999Y46400381D01*
X7708999Y46400381D02*
X7899475Y46400381D01*
D11*
X42776428Y12221058D02*
X42776428Y13421058D01*
X42776428Y13421058D02*
X42319285Y13421058D01*
X42319285Y13421058D02*
X42205000Y13363915D01*
X42205000Y13363915D02*
X42147857Y13306772D01*
X42147857Y13306772D02*
X42090714Y13192486D01*
X42090714Y13192486D02*
X42090714Y13021058D01*
X42090714Y13021058D02*
X42147857Y12906772D01*
X42147857Y12906772D02*
X42205000Y12849629D01*
X42205000Y12849629D02*
X42319285Y12792486D01*
X42319285Y12792486D02*
X42776428Y12792486D01*
X41347857Y13421058D02*
X41119285Y13421058D01*
X41119285Y13421058D02*
X41005000Y13363915D01*
X41005000Y13363915D02*
X40890714Y13249629D01*
X40890714Y13249629D02*
X40833571Y13021058D01*
X40833571Y13021058D02*
X40833571Y12621058D01*
X40833571Y12621058D02*
X40890714Y12392486D01*
X40890714Y12392486D02*
X41005000Y12278200D01*
X41005000Y12278200D02*
X41119285Y12221058D01*
X41119285Y12221058D02*
X41347857Y12221058D01*
X41347857Y12221058D02*
X41462143Y12278200D01*
X41462143Y12278200D02*
X41576428Y12392486D01*
X41576428Y12392486D02*
X41633571Y12621058D01*
X41633571Y12621058D02*
X41633571Y13021058D01*
X41633571Y13021058D02*
X41576428Y13249629D01*
X41576428Y13249629D02*
X41462143Y13363915D01*
X41462143Y13363915D02*
X41347857Y13421058D01*
X40433571Y13421058D02*
X40147857Y12221058D01*
X40147857Y12221058D02*
X39919285Y13078200D01*
X39919285Y13078200D02*
X39690714Y12221058D01*
X39690714Y12221058D02*
X39405000Y13421058D01*
X38947856Y12849629D02*
X38547856Y12849629D01*
X38376428Y12221058D02*
X38947856Y12221058D01*
X38947856Y12221058D02*
X38947856Y13421058D01*
X38947856Y13421058D02*
X38376428Y13421058D01*
X37176428Y12221058D02*
X37576428Y12792486D01*
X37862142Y12221058D02*
X37862142Y13421058D01*
X37862142Y13421058D02*
X37404999Y13421058D01*
X37404999Y13421058D02*
X37290714Y13363915D01*
X37290714Y13363915D02*
X37233571Y13306772D01*
X37233571Y13306772D02*
X37176428Y13192486D01*
X37176428Y13192486D02*
X37176428Y13021058D01*
X37176428Y13021058D02*
X37233571Y12906772D01*
X37233571Y12906772D02*
X37290714Y12849629D01*
X37290714Y12849629D02*
X37404999Y12792486D01*
X37404999Y12792486D02*
X37862142Y12792486D01*
X26979332Y34970381D02*
X26979332Y35970381D01*
X26979332Y35970381D02*
X26645999Y35256096D01*
X26645999Y35256096D02*
X26312666Y35970381D01*
X26312666Y35970381D02*
X26312666Y34970381D01*
X25836475Y35494191D02*
X25503142Y35494191D01*
X25360285Y34970381D02*
X25836475Y34970381D01*
X25836475Y34970381D02*
X25836475Y35970381D01*
X25836475Y35970381D02*
X25360285Y35970381D01*
X24931713Y34970381D02*
X24931713Y35970381D01*
X24931713Y35970381D02*
X24360285Y34970381D01*
X24360285Y34970381D02*
X24360285Y35970381D01*
X23884094Y35970381D02*
X23884094Y35160858D01*
X23884094Y35160858D02*
X23836475Y35065620D01*
X23836475Y35065620D02*
X23788856Y35018000D01*
X23788856Y35018000D02*
X23693618Y34970381D01*
X23693618Y34970381D02*
X23503142Y34970381D01*
X23503142Y34970381D02*
X23407904Y35018000D01*
X23407904Y35018000D02*
X23360285Y35065620D01*
X23360285Y35065620D02*
X23312666Y35160858D01*
X23312666Y35160858D02*
X23312666Y35970381D01*
D13*
%TO.C,J4*%
X321000Y13619000D02*
X2981000Y13619000D01*
X321000Y3399000D02*
X321000Y13619000D01*
X321000Y3399000D02*
X2981000Y3399000D01*
X321000Y2129000D02*
X321000Y799000D01*
X321000Y799000D02*
X1651000Y799000D01*
X2981000Y3399000D02*
X2981000Y13619000D01*
%TO.C,J1*%
X3131000Y40758200D02*
X5251000Y40758200D01*
X3131000Y24698200D02*
X3131000Y40758200D01*
X3131000Y24698200D02*
X5251000Y24698200D01*
X3131000Y23698200D02*
X3131000Y22638200D01*
X3131000Y22638200D02*
X4191000Y22638200D01*
X5251000Y24698200D02*
X5251000Y40758200D01*
%TO.C,J2*%
X321000Y45653000D02*
X2981000Y45653000D01*
X321000Y25273000D02*
X321000Y45653000D01*
X321000Y25273000D02*
X2981000Y25273000D01*
X321000Y24003000D02*
X321000Y22673000D01*
X321000Y22673000D02*
X1651000Y22673000D01*
X2981000Y25273000D02*
X2981000Y45653000D01*
%TO.C,J3*%
X3131000Y13632000D02*
X5251000Y13632000D01*
X3131000Y5572000D02*
X3131000Y13632000D01*
X3131000Y5572000D02*
X5251000Y5572000D01*
X3131000Y4572000D02*
X3131000Y3512000D01*
X3131000Y3512000D02*
X4191000Y3512000D01*
X5251000Y5572000D02*
X5251000Y13632000D01*
%TD*%
%LPC*%
D14*
%TO.C,SW1*%
X9525000Y30773000D03*
D15*
X9773400Y33771200D03*
X9773400Y40271200D03*
D14*
X9525000Y43273000D03*
X14525000Y30773000D03*
D15*
X14273400Y33771200D03*
X14273400Y40271200D03*
D14*
X14525000Y43273000D03*
%TD*%
D16*
%TO.C,U1*%
X9398000Y9398000D03*
D17*
X9398000Y6858000D03*
X9398000Y4318000D03*
%TD*%
D18*
%TO.C,D2*%
X29718000Y2540000D03*
D17*
X29718000Y5080000D03*
X29718000Y7620000D03*
%TD*%
D15*
%TO.C,SW6*%
X42275000Y10236200D03*
X42275000Y3736200D03*
X37775000Y10236200D03*
X37775000Y3736200D03*
%TD*%
D19*
%TO.C,TP2*%
X5969000Y48895000D03*
%TD*%
D14*
%TO.C,SW5*%
X40505000Y43283000D03*
D15*
X40256600Y40284800D03*
X40256600Y33784800D03*
D14*
X40505000Y30783000D03*
X35505000Y43283000D03*
D15*
X35756600Y40284800D03*
X35756600Y33784800D03*
D14*
X35505000Y30783000D03*
%TD*%
D19*
%TO.C,TP1*%
X11049000Y48895000D03*
%TD*%
%TO.C,TP3*%
X8509000Y48895000D03*
%TD*%
D20*
%TO.C,SW4*%
X31255000Y21493000D03*
D15*
X28256800Y21741400D03*
X21756800Y21741400D03*
D20*
X18755000Y21493000D03*
X31255000Y26493000D03*
D15*
X28256800Y26241400D03*
X21756800Y26241400D03*
D20*
X18755000Y26493000D03*
%TD*%
%TO.C,SW2*%
X18765000Y52473000D03*
D15*
X21763200Y52224600D03*
X28263200Y52224600D03*
D20*
X31265000Y52473000D03*
X18765000Y47473000D03*
D15*
X21763200Y47724600D03*
X28263200Y47724600D03*
D20*
X31265000Y47473000D03*
%TD*%
D15*
%TO.C,TP4*%
X8763000Y19685000D03*
%TD*%
D20*
%TO.C,SW3*%
X18765000Y39503000D03*
D15*
X21763200Y39254600D03*
X28263200Y39254600D03*
D20*
X31265000Y39503000D03*
X18765000Y34503000D03*
D15*
X21763200Y34754600D03*
X28263200Y34754600D03*
D20*
X31265000Y34503000D03*
%TD*%
D21*
%TO.C,J4*%
X1651000Y2129000D03*
D22*
X1651000Y4669000D03*
X1651000Y7209000D03*
X1651000Y9749000D03*
X1651000Y12289000D03*
%TD*%
D23*
%TO.C,J1*%
X4191000Y23698200D03*
D24*
X4191000Y25698200D03*
X4191000Y27698200D03*
X4191000Y29698200D03*
X4191000Y31698200D03*
X4191000Y33698200D03*
X4191000Y35698200D03*
X4191000Y37698200D03*
X4191000Y39698200D03*
%TD*%
D21*
%TO.C,J2*%
X1651000Y24003000D03*
D22*
X1651000Y26543000D03*
X1651000Y29083000D03*
X1651000Y31623000D03*
X1651000Y34163000D03*
X1651000Y36703000D03*
X1651000Y39243000D03*
X1651000Y41783000D03*
X1651000Y44323000D03*
%TD*%
D23*
%TO.C,J3*%
X4191000Y4572000D03*
D24*
X4191000Y6572000D03*
X4191000Y8572000D03*
X4191000Y10572000D03*
X4191000Y12572000D03*
%TD*%
M02*
