%TF.GenerationSoftware,KiCad,Pcbnew,(7.0.0)*%
%TF.CreationDate,2023-03-11T17:47:17+09:00*%
%TF.ProjectId,monitor_osd_control,6d6f6e69-746f-4725-9f6f-73645f636f6e,5*%
%TF.SameCoordinates,PX7ab4258PY723a4bd*%
%TF.FileFunction,Soldermask,Top*%
%TF.FilePolarity,Negative*%
%FSLAX46Y46*%
G04 Gerber Fmt 4.6, Leading zero omitted, Abs format (unit mm)*
G04 Created by KiCad (PCBNEW (7.0.0)) date 2023-03-11 17:47:17*
%MOMM*%
%LPD*%
G01*
G04 APERTURE LIST*
G04 Aperture macros list*
%AMRoundRect*
0 Rectangle with rounded corners*
0 $1 Rounding radius*
0 $2 $3 $4 $5 $6 $7 $8 $9 X,Y pos of 4 corners*
0 Add a 4 corners polygon primitive as box body*
4,1,4,$2,$3,$4,$5,$6,$7,$8,$9,$2,$3,0*
0 Add four circle primitives for the rounded corners*
1,1,$1+$1,$2,$3*
1,1,$1+$1,$4,$5*
1,1,$1+$1,$6,$7*
1,1,$1+$1,$8,$9*
0 Add four rect primitives between the rounded corners*
20,1,$1+$1,$2,$3,$4,$5,0*
20,1,$1+$1,$4,$5,$6,$7,0*
20,1,$1+$1,$6,$7,$8,$9,0*
20,1,$1+$1,$8,$9,$2,$3,0*%
G04 Aperture macros list end*
%ADD10RoundRect,0.250000X0.400000X0.600000X-0.400000X0.600000X-0.400000X-0.600000X0.400000X-0.600000X0*%
%ADD11O,1.850000X3.048000*%
%ADD12RoundRect,0.250200X-0.649800X0.649800X-0.649800X-0.649800X0.649800X-0.649800X0.649800X0.649800X0*%
%ADD13C,1.800000*%
%ADD14R,1.800000X1.800000*%
%ADD15C,2.000000*%
%ADD16C,1.500000*%
%ADD17O,3.048000X1.850000*%
%ADD18RoundRect,0.250000X-1.050000X-0.550000X1.050000X-0.550000X1.050000X0.550000X-1.050000X0.550000X0*%
%ADD19RoundRect,0.250000X0.450000X-0.350000X0.450000X0.350000X-0.450000X0.350000X-0.450000X-0.350000X0*%
%ADD20RoundRect,0.250000X0.475000X-0.337500X0.475000X0.337500X-0.475000X0.337500X-0.475000X-0.337500X0*%
%ADD21R,1.700000X1.700000*%
%ADD22O,1.700000X1.700000*%
%ADD23R,1.350000X1.350000*%
%ADD24O,1.350000X1.350000*%
G04 APERTURE END LIST*
D10*
%TO.C,D1*%
X14817848Y12461445D03*
X11317848Y12461445D03*
%TD*%
D11*
%TO.C,SW1*%
X9511847Y30788444D03*
X9511847Y43288444D03*
X14511847Y30788444D03*
X14511847Y43288444D03*
%TD*%
D12*
%TO.C,U1*%
X9384848Y9413445D03*
D13*
X9384848Y6873445D03*
X9384848Y4333445D03*
%TD*%
D14*
%TO.C,D2*%
X29704847Y2555444D03*
D13*
X29704848Y5095445D03*
X29704848Y7635445D03*
%TD*%
D15*
%TO.C,SW6*%
X42261848Y10251645D03*
X42261848Y3751645D03*
X37761848Y10251645D03*
X37761848Y3751645D03*
%TD*%
D16*
%TO.C,TP2*%
X5955848Y48910445D03*
%TD*%
D11*
%TO.C,SW5*%
X40491847Y43298444D03*
X40491847Y30798444D03*
X35491847Y43298444D03*
X35491847Y30798444D03*
%TD*%
D16*
%TO.C,TP1*%
X11035848Y48910445D03*
%TD*%
%TO.C,TP3*%
X8495848Y48910445D03*
%TD*%
D17*
%TO.C,SW4*%
X31241847Y21508444D03*
X18741847Y21508444D03*
X31241847Y26508444D03*
X18741847Y26508444D03*
%TD*%
D18*
%TO.C,E1*%
X25872848Y11572445D03*
X29472848Y11572445D03*
%TD*%
D17*
%TO.C,SW2*%
X18751847Y52488444D03*
X31251847Y52488444D03*
X18751847Y47488444D03*
X31251847Y47488444D03*
%TD*%
D19*
%TO.C,R1*%
X18046248Y11486845D03*
X18046248Y13486845D03*
%TD*%
D20*
%TO.C,C1*%
X22465848Y11449345D03*
X22465848Y13524345D03*
%TD*%
D15*
%TO.C,TP4*%
X8749848Y19700445D03*
%TD*%
D20*
%TO.C,C2*%
X20230648Y11449345D03*
X20230648Y13524345D03*
%TD*%
D17*
%TO.C,SW3*%
X18751847Y39518444D03*
X31251847Y39518444D03*
X18751847Y34518444D03*
X31251847Y34518444D03*
%TD*%
D21*
%TO.C,J4*%
X1637847Y2144444D03*
D22*
X1637847Y4684444D03*
X1637847Y7224444D03*
X1637847Y9764444D03*
X1637847Y12304444D03*
%TD*%
D23*
%TO.C,J1*%
X4177847Y23713644D03*
D24*
X4177847Y25713644D03*
X4177847Y27713644D03*
X4177847Y29713644D03*
X4177847Y31713644D03*
X4177847Y33713644D03*
X4177847Y35713644D03*
X4177847Y37713644D03*
X4177847Y39713644D03*
%TD*%
D21*
%TO.C,J2*%
X1637847Y24018444D03*
D22*
X1637847Y26558444D03*
X1637847Y29098444D03*
X1637847Y31638444D03*
X1637847Y34178444D03*
X1637847Y36718444D03*
X1637847Y39258444D03*
X1637847Y41798444D03*
X1637847Y44338444D03*
%TD*%
D23*
%TO.C,J3*%
X4177847Y4587444D03*
D24*
X4177847Y6587444D03*
X4177847Y8587444D03*
X4177847Y10587444D03*
X4177847Y12587444D03*
%TD*%
M02*
