%TF.GenerationSoftware,KiCad,Pcbnew,(7.0.0)*%
%TF.CreationDate,2023-03-11T17:47:17+09:00*%
%TF.ProjectId,monitor_osd_control,6d6f6e69-746f-4725-9f6f-73645f636f6e,5*%
%TF.SameCoordinates,PX7ab4258PY723a4bd*%
%TF.FileFunction,Legend,Bot*%
%TF.FilePolarity,Positive*%
%FSLAX46Y46*%
G04 Gerber Fmt 4.6, Leading zero omitted, Abs format (unit mm)*
G04 Created by KiCad (PCBNEW (7.0.0)) date 2023-03-11 17:47:17*
%MOMM*%
%LPD*%
G01*
G04 APERTURE LIST*
G04 Aperture macros list*
%AMRoundRect*
0 Rectangle with rounded corners*
0 $1 Rounding radius*
0 $2 $3 $4 $5 $6 $7 $8 $9 X,Y pos of 4 corners*
0 Add a 4 corners polygon primitive as box body*
4,1,4,$2,$3,$4,$5,$6,$7,$8,$9,$2,$3,0*
0 Add four circle primitives for the rounded corners*
1,1,$1+$1,$2,$3*
1,1,$1+$1,$4,$5*
1,1,$1+$1,$6,$7*
1,1,$1+$1,$8,$9*
0 Add four rect primitives between the rounded corners*
20,1,$1+$1,$2,$3,$4,$5,0*
20,1,$1+$1,$4,$5,$6,$7,0*
20,1,$1+$1,$6,$7,$8,$9,0*
20,1,$1+$1,$8,$9,$2,$3,0*%
G04 Aperture macros list end*
%ADD10C,0.150000*%
%ADD11C,0.250000*%
%ADD12C,0.200000*%
%ADD13C,0.120000*%
%ADD14O,1.850000X3.048000*%
%ADD15RoundRect,0.250200X-0.649800X0.649800X-0.649800X-0.649800X0.649800X-0.649800X0.649800X0.649800X0*%
%ADD16C,1.800000*%
%ADD17R,1.800000X1.800000*%
%ADD18C,2.000000*%
%ADD19C,1.500000*%
%ADD20O,3.048000X1.850000*%
%ADD21R,1.700000X1.700000*%
%ADD22O,1.700000X1.700000*%
%ADD23R,1.350000X1.350000*%
%ADD24O,1.350000X1.350000*%
G04 APERTURE END LIST*
D10*
X29205848Y50002645D02*
G75*
G03*
X29205848Y50002645I-4200000J0D01*
G01*
X29205848Y24018445D02*
G75*
G03*
X29205848Y24018445I-4200000J0D01*
G01*
X42210648Y37048645D02*
G75*
G03*
X42210648Y37048645I-4200000J0D01*
G01*
X29031248Y37023245D02*
G75*
G03*
X29031248Y37023245I-4000000J0D01*
G01*
X16226448Y37023245D02*
G75*
G03*
X16226448Y37023245I-4200000J0D01*
G01*
X6284143Y27523675D02*
X5636524Y27523675D01*
X5636524Y27523675D02*
X5560333Y27561770D01*
X5560333Y27561770D02*
X5522238Y27599865D01*
X5522238Y27599865D02*
X5484143Y27676056D01*
X5484143Y27676056D02*
X5484143Y27828437D01*
X5484143Y27828437D02*
X5522238Y27904627D01*
X5522238Y27904627D02*
X5560333Y27942722D01*
X5560333Y27942722D02*
X5636524Y27980818D01*
X5636524Y27980818D02*
X6284143Y27980818D01*
X6334943Y4435065D02*
X6334943Y4054113D01*
X6334943Y4054113D02*
X5953990Y4016017D01*
X5953990Y4016017D02*
X5992086Y4054113D01*
X5992086Y4054113D02*
X6030181Y4130303D01*
X6030181Y4130303D02*
X6030181Y4320779D01*
X6030181Y4320779D02*
X5992086Y4396970D01*
X5992086Y4396970D02*
X5953990Y4435065D01*
X5953990Y4435065D02*
X5877800Y4473160D01*
X5877800Y4473160D02*
X5687324Y4473160D01*
X5687324Y4473160D02*
X5611133Y4435065D01*
X5611133Y4435065D02*
X5573038Y4396970D01*
X5573038Y4396970D02*
X5534943Y4320779D01*
X5534943Y4320779D02*
X5534943Y4130303D01*
X5534943Y4130303D02*
X5573038Y4054113D01*
X5573038Y4054113D02*
X5611133Y4016017D01*
X6334943Y4701732D02*
X5534943Y4968399D01*
X5534943Y4968399D02*
X6334943Y5235065D01*
D11*
X14258190Y36309188D02*
X13858190Y35109188D01*
X13858190Y35109188D02*
X13458190Y36309188D01*
X12829619Y36309188D02*
X12601047Y36309188D01*
X12601047Y36309188D02*
X12486762Y36252045D01*
X12486762Y36252045D02*
X12372476Y36137760D01*
X12372476Y36137760D02*
X12315333Y35909188D01*
X12315333Y35909188D02*
X12315333Y35509188D01*
X12315333Y35509188D02*
X12372476Y35280617D01*
X12372476Y35280617D02*
X12486762Y35166331D01*
X12486762Y35166331D02*
X12601047Y35109188D01*
X12601047Y35109188D02*
X12829619Y35109188D01*
X12829619Y35109188D02*
X12943905Y35166331D01*
X12943905Y35166331D02*
X13058190Y35280617D01*
X13058190Y35280617D02*
X13115333Y35509188D01*
X13115333Y35509188D02*
X13115333Y35909188D01*
X13115333Y35909188D02*
X13058190Y36137760D01*
X13058190Y36137760D02*
X12943905Y36252045D01*
X12943905Y36252045D02*
X12829619Y36309188D01*
X11229619Y35109188D02*
X11801047Y35109188D01*
X11801047Y35109188D02*
X11801047Y36309188D01*
X10829618Y35566331D02*
X9915333Y35566331D01*
D12*
X6984419Y50495684D02*
X6870133Y50448065D01*
X6870133Y50448065D02*
X6679657Y50448065D01*
X6679657Y50448065D02*
X6603466Y50495684D01*
X6603466Y50495684D02*
X6565371Y50543303D01*
X6565371Y50543303D02*
X6527276Y50638541D01*
X6527276Y50638541D02*
X6527276Y50733779D01*
X6527276Y50733779D02*
X6565371Y50829017D01*
X6565371Y50829017D02*
X6603466Y50876636D01*
X6603466Y50876636D02*
X6679657Y50924255D01*
X6679657Y50924255D02*
X6832038Y50971874D01*
X6832038Y50971874D02*
X6908228Y51019493D01*
X6908228Y51019493D02*
X6946323Y51067112D01*
X6946323Y51067112D02*
X6984419Y51162350D01*
X6984419Y51162350D02*
X6984419Y51257588D01*
X6984419Y51257588D02*
X6946323Y51352826D01*
X6946323Y51352826D02*
X6908228Y51400445D01*
X6908228Y51400445D02*
X6832038Y51448065D01*
X6832038Y51448065D02*
X6641561Y51448065D01*
X6641561Y51448065D02*
X6527276Y51400445D01*
X5727275Y50448065D02*
X5993942Y50924255D01*
X6184418Y50448065D02*
X6184418Y51448065D01*
X6184418Y51448065D02*
X5879656Y51448065D01*
X5879656Y51448065D02*
X5803466Y51400445D01*
X5803466Y51400445D02*
X5765371Y51352826D01*
X5765371Y51352826D02*
X5727275Y51257588D01*
X5727275Y51257588D02*
X5727275Y51114731D01*
X5727275Y51114731D02*
X5765371Y51019493D01*
X5765371Y51019493D02*
X5803466Y50971874D01*
X5803466Y50971874D02*
X5879656Y50924255D01*
X5879656Y50924255D02*
X6184418Y50924255D01*
X4927275Y50543303D02*
X4965371Y50495684D01*
X4965371Y50495684D02*
X5079656Y50448065D01*
X5079656Y50448065D02*
X5155847Y50448065D01*
X5155847Y50448065D02*
X5270133Y50495684D01*
X5270133Y50495684D02*
X5346323Y50590922D01*
X5346323Y50590922D02*
X5384418Y50686160D01*
X5384418Y50686160D02*
X5422514Y50876636D01*
X5422514Y50876636D02*
X5422514Y51019493D01*
X5422514Y51019493D02*
X5384418Y51209969D01*
X5384418Y51209969D02*
X5346323Y51305207D01*
X5346323Y51305207D02*
X5270133Y51400445D01*
X5270133Y51400445D02*
X5155847Y51448065D01*
X5155847Y51448065D02*
X5079656Y51448065D01*
X5079656Y51448065D02*
X4965371Y51400445D01*
X4965371Y51400445D02*
X4927275Y51352826D01*
D11*
X26024904Y49263188D02*
X26024904Y48291760D01*
X26024904Y48291760D02*
X25967761Y48177474D01*
X25967761Y48177474D02*
X25910619Y48120331D01*
X25910619Y48120331D02*
X25796333Y48063188D01*
X25796333Y48063188D02*
X25567761Y48063188D01*
X25567761Y48063188D02*
X25453476Y48120331D01*
X25453476Y48120331D02*
X25396333Y48177474D01*
X25396333Y48177474D02*
X25339190Y48291760D01*
X25339190Y48291760D02*
X25339190Y49263188D01*
X24767761Y48063188D02*
X24767761Y49263188D01*
X24767761Y49263188D02*
X24310618Y49263188D01*
X24310618Y49263188D02*
X24196333Y49206045D01*
X24196333Y49206045D02*
X24139190Y49148903D01*
X24139190Y49148903D02*
X24082047Y49034617D01*
X24082047Y49034617D02*
X24082047Y48863188D01*
X24082047Y48863188D02*
X24139190Y48748903D01*
X24139190Y48748903D02*
X24196333Y48691760D01*
X24196333Y48691760D02*
X24310618Y48634617D01*
X24310618Y48634617D02*
X24767761Y48634617D01*
D10*
X5484143Y29574722D02*
X6284143Y29574722D01*
X6284143Y29574722D02*
X6284143Y29765198D01*
X6284143Y29765198D02*
X6246048Y29879484D01*
X6246048Y29879484D02*
X6169857Y29955674D01*
X6169857Y29955674D02*
X6093667Y29993769D01*
X6093667Y29993769D02*
X5941286Y30031865D01*
X5941286Y30031865D02*
X5827000Y30031865D01*
X5827000Y30031865D02*
X5674619Y29993769D01*
X5674619Y29993769D02*
X5598428Y29955674D01*
X5598428Y29955674D02*
X5522238Y29879484D01*
X5522238Y29879484D02*
X5484143Y29765198D01*
X5484143Y29765198D02*
X5484143Y29574722D01*
X45466467Y46045160D02*
X45942657Y45711827D01*
X45466467Y45473732D02*
X46466467Y45473732D01*
X46466467Y45473732D02*
X46466467Y45854684D01*
X46466467Y45854684D02*
X46418848Y45949922D01*
X46418848Y45949922D02*
X46371228Y45997541D01*
X46371228Y45997541D02*
X46275990Y46045160D01*
X46275990Y46045160D02*
X46133133Y46045160D01*
X46133133Y46045160D02*
X46037895Y45997541D01*
X46037895Y45997541D02*
X45990276Y45949922D01*
X45990276Y45949922D02*
X45942657Y45854684D01*
X45942657Y45854684D02*
X45942657Y45473732D01*
X45514086Y46854684D02*
X45466467Y46759446D01*
X45466467Y46759446D02*
X45466467Y46568970D01*
X45466467Y46568970D02*
X45514086Y46473732D01*
X45514086Y46473732D02*
X45609324Y46426113D01*
X45609324Y46426113D02*
X45990276Y46426113D01*
X45990276Y46426113D02*
X46085514Y46473732D01*
X46085514Y46473732D02*
X46133133Y46568970D01*
X46133133Y46568970D02*
X46133133Y46759446D01*
X46133133Y46759446D02*
X46085514Y46854684D01*
X46085514Y46854684D02*
X45990276Y46902303D01*
X45990276Y46902303D02*
X45895038Y46902303D01*
X45895038Y46902303D02*
X45799800Y46426113D01*
X46133133Y47235637D02*
X45466467Y47473732D01*
X45466467Y47473732D02*
X46133133Y47711827D01*
X45561705Y48092780D02*
X45514086Y48140399D01*
X45514086Y48140399D02*
X45466467Y48092780D01*
X45466467Y48092780D02*
X45514086Y48045161D01*
X45514086Y48045161D02*
X45561705Y48092780D01*
X45561705Y48092780D02*
X45466467Y48092780D01*
X46466467Y49045160D02*
X46466467Y48568970D01*
X46466467Y48568970D02*
X45990276Y48521351D01*
X45990276Y48521351D02*
X46037895Y48568970D01*
X46037895Y48568970D02*
X46085514Y48664208D01*
X46085514Y48664208D02*
X46085514Y48902303D01*
X46085514Y48902303D02*
X46037895Y48997541D01*
X46037895Y48997541D02*
X45990276Y49045160D01*
X45990276Y49045160D02*
X45895038Y49092779D01*
X45895038Y49092779D02*
X45656943Y49092779D01*
X45656943Y49092779D02*
X45561705Y49045160D01*
X45561705Y49045160D02*
X45514086Y48997541D01*
X45514086Y48997541D02*
X45466467Y48902303D01*
X45466467Y48902303D02*
X45466467Y48664208D01*
X45466467Y48664208D02*
X45514086Y48568970D01*
X45514086Y48568970D02*
X45561705Y48521351D01*
X6246048Y23948569D02*
X6284143Y23872379D01*
X6284143Y23872379D02*
X6284143Y23758093D01*
X6284143Y23758093D02*
X6246048Y23643807D01*
X6246048Y23643807D02*
X6169857Y23567617D01*
X6169857Y23567617D02*
X6093667Y23529522D01*
X6093667Y23529522D02*
X5941286Y23491426D01*
X5941286Y23491426D02*
X5827000Y23491426D01*
X5827000Y23491426D02*
X5674619Y23529522D01*
X5674619Y23529522D02*
X5598428Y23567617D01*
X5598428Y23567617D02*
X5522238Y23643807D01*
X5522238Y23643807D02*
X5484143Y23758093D01*
X5484143Y23758093D02*
X5484143Y23834284D01*
X5484143Y23834284D02*
X5522238Y23948569D01*
X5522238Y23948569D02*
X5560333Y23986665D01*
X5560333Y23986665D02*
X5827000Y23986665D01*
X5827000Y23986665D02*
X5827000Y23834284D01*
X33351418Y13036588D02*
X33351418Y14236588D01*
X32094275Y13036588D02*
X32494275Y13608017D01*
X32779989Y13036588D02*
X32779989Y14236588D01*
X32779989Y14236588D02*
X32322846Y14236588D01*
X32322846Y14236588D02*
X32208561Y14179445D01*
X32208561Y14179445D02*
X32151418Y14122303D01*
X32151418Y14122303D02*
X32094275Y14008017D01*
X32094275Y14008017D02*
X32094275Y13836588D01*
X32094275Y13836588D02*
X32151418Y13722303D01*
X32151418Y13722303D02*
X32208561Y13665160D01*
X32208561Y13665160D02*
X32322846Y13608017D01*
X32322846Y13608017D02*
X32779989Y13608017D01*
X30174275Y13036588D02*
X30574275Y13608017D01*
X30859989Y13036588D02*
X30859989Y14236588D01*
X30859989Y14236588D02*
X30402846Y14236588D01*
X30402846Y14236588D02*
X30288561Y14179445D01*
X30288561Y14179445D02*
X30231418Y14122303D01*
X30231418Y14122303D02*
X30174275Y14008017D01*
X30174275Y14008017D02*
X30174275Y13836588D01*
X30174275Y13836588D02*
X30231418Y13722303D01*
X30231418Y13722303D02*
X30288561Y13665160D01*
X30288561Y13665160D02*
X30402846Y13608017D01*
X30402846Y13608017D02*
X30859989Y13608017D01*
X29202846Y13093731D02*
X29317132Y13036588D01*
X29317132Y13036588D02*
X29545704Y13036588D01*
X29545704Y13036588D02*
X29659989Y13093731D01*
X29659989Y13093731D02*
X29717132Y13208017D01*
X29717132Y13208017D02*
X29717132Y13665160D01*
X29717132Y13665160D02*
X29659989Y13779445D01*
X29659989Y13779445D02*
X29545704Y13836588D01*
X29545704Y13836588D02*
X29317132Y13836588D01*
X29317132Y13836588D02*
X29202846Y13779445D01*
X29202846Y13779445D02*
X29145704Y13665160D01*
X29145704Y13665160D02*
X29145704Y13550874D01*
X29145704Y13550874D02*
X29717132Y13436588D01*
X28117133Y13093731D02*
X28231418Y13036588D01*
X28231418Y13036588D02*
X28459990Y13036588D01*
X28459990Y13036588D02*
X28574275Y13093731D01*
X28574275Y13093731D02*
X28631418Y13150874D01*
X28631418Y13150874D02*
X28688561Y13265160D01*
X28688561Y13265160D02*
X28688561Y13608017D01*
X28688561Y13608017D02*
X28631418Y13722303D01*
X28631418Y13722303D02*
X28574275Y13779445D01*
X28574275Y13779445D02*
X28459990Y13836588D01*
X28459990Y13836588D02*
X28231418Y13836588D01*
X28231418Y13836588D02*
X28117133Y13779445D01*
X27145704Y13093731D02*
X27259990Y13036588D01*
X27259990Y13036588D02*
X27488562Y13036588D01*
X27488562Y13036588D02*
X27602847Y13093731D01*
X27602847Y13093731D02*
X27659990Y13208017D01*
X27659990Y13208017D02*
X27659990Y13665160D01*
X27659990Y13665160D02*
X27602847Y13779445D01*
X27602847Y13779445D02*
X27488562Y13836588D01*
X27488562Y13836588D02*
X27259990Y13836588D01*
X27259990Y13836588D02*
X27145704Y13779445D01*
X27145704Y13779445D02*
X27088562Y13665160D01*
X27088562Y13665160D02*
X27088562Y13550874D01*
X27088562Y13550874D02*
X27659990Y13436588D01*
X26574276Y13036588D02*
X26574276Y13836588D01*
X26574276Y14236588D02*
X26631419Y14179445D01*
X26631419Y14179445D02*
X26574276Y14122303D01*
X26574276Y14122303D02*
X26517133Y14179445D01*
X26517133Y14179445D02*
X26574276Y14236588D01*
X26574276Y14236588D02*
X26574276Y14122303D01*
X26117133Y13836588D02*
X25831419Y13036588D01*
X25831419Y13036588D02*
X25545704Y13836588D01*
X24631418Y13093731D02*
X24745704Y13036588D01*
X24745704Y13036588D02*
X24974276Y13036588D01*
X24974276Y13036588D02*
X25088561Y13093731D01*
X25088561Y13093731D02*
X25145704Y13208017D01*
X25145704Y13208017D02*
X25145704Y13665160D01*
X25145704Y13665160D02*
X25088561Y13779445D01*
X25088561Y13779445D02*
X24974276Y13836588D01*
X24974276Y13836588D02*
X24745704Y13836588D01*
X24745704Y13836588D02*
X24631418Y13779445D01*
X24631418Y13779445D02*
X24574276Y13665160D01*
X24574276Y13665160D02*
X24574276Y13550874D01*
X24574276Y13550874D02*
X25145704Y13436588D01*
X24059990Y13036588D02*
X24059990Y13836588D01*
X24059990Y13608017D02*
X24002847Y13722303D01*
X24002847Y13722303D02*
X23945705Y13779445D01*
X23945705Y13779445D02*
X23831419Y13836588D01*
X23831419Y13836588D02*
X23717133Y13836588D01*
X22597133Y13036588D02*
X22597133Y14236588D01*
X22597133Y14236588D02*
X22139990Y14236588D01*
X22139990Y14236588D02*
X22025705Y14179445D01*
X22025705Y14179445D02*
X21968562Y14122303D01*
X21968562Y14122303D02*
X21911419Y14008017D01*
X21911419Y14008017D02*
X21911419Y13836588D01*
X21911419Y13836588D02*
X21968562Y13722303D01*
X21968562Y13722303D02*
X22025705Y13665160D01*
X22025705Y13665160D02*
X22139990Y13608017D01*
X22139990Y13608017D02*
X22597133Y13608017D01*
X20882848Y13036588D02*
X20882848Y13665160D01*
X20882848Y13665160D02*
X20939990Y13779445D01*
X20939990Y13779445D02*
X21054276Y13836588D01*
X21054276Y13836588D02*
X21282848Y13836588D01*
X21282848Y13836588D02*
X21397133Y13779445D01*
X20882848Y13093731D02*
X20997133Y13036588D01*
X20997133Y13036588D02*
X21282848Y13036588D01*
X21282848Y13036588D02*
X21397133Y13093731D01*
X21397133Y13093731D02*
X21454276Y13208017D01*
X21454276Y13208017D02*
X21454276Y13322303D01*
X21454276Y13322303D02*
X21397133Y13436588D01*
X21397133Y13436588D02*
X21282848Y13493731D01*
X21282848Y13493731D02*
X20997133Y13493731D01*
X20997133Y13493731D02*
X20882848Y13550874D01*
X20311419Y13036588D02*
X20311419Y13836588D01*
X20311419Y13608017D02*
X20254276Y13722303D01*
X20254276Y13722303D02*
X20197134Y13779445D01*
X20197134Y13779445D02*
X20082848Y13836588D01*
X20082848Y13836588D02*
X19968562Y13836588D01*
X19739991Y13836588D02*
X19282848Y13836588D01*
X19568562Y14236588D02*
X19568562Y13208017D01*
X19568562Y13208017D02*
X19511419Y13093731D01*
X19511419Y13093731D02*
X19397134Y13036588D01*
X19397134Y13036588D02*
X19282848Y13036588D01*
D12*
X12102514Y50448065D02*
X12102514Y51448065D01*
X12102514Y51448065D02*
X11797752Y51448065D01*
X11797752Y51448065D02*
X11721562Y51400445D01*
X11721562Y51400445D02*
X11683467Y51352826D01*
X11683467Y51352826D02*
X11645371Y51257588D01*
X11645371Y51257588D02*
X11645371Y51114731D01*
X11645371Y51114731D02*
X11683467Y51019493D01*
X11683467Y51019493D02*
X11721562Y50971874D01*
X11721562Y50971874D02*
X11797752Y50924255D01*
X11797752Y50924255D02*
X12102514Y50924255D01*
X11378705Y51448065D02*
X11188229Y50448065D01*
X11188229Y50448065D02*
X11035848Y51162350D01*
X11035848Y51162350D02*
X10883467Y50448065D01*
X10883467Y50448065D02*
X10692991Y51448065D01*
X9931085Y50448065D02*
X10197752Y50924255D01*
X10388228Y50448065D02*
X10388228Y51448065D01*
X10388228Y51448065D02*
X10083466Y51448065D01*
X10083466Y51448065D02*
X10007276Y51400445D01*
X10007276Y51400445D02*
X9969181Y51352826D01*
X9969181Y51352826D02*
X9931085Y51257588D01*
X9931085Y51257588D02*
X9931085Y51114731D01*
X9931085Y51114731D02*
X9969181Y51019493D01*
X9969181Y51019493D02*
X10007276Y50971874D01*
X10007276Y50971874D02*
X10083466Y50924255D01*
X10083466Y50924255D02*
X10388228Y50924255D01*
D10*
X9511752Y18126445D02*
X9606990Y18174065D01*
X9606990Y18174065D02*
X9749847Y18174065D01*
X9749847Y18174065D02*
X9892704Y18126445D01*
X9892704Y18126445D02*
X9987942Y18031207D01*
X9987942Y18031207D02*
X10035561Y17935969D01*
X10035561Y17935969D02*
X10083180Y17745493D01*
X10083180Y17745493D02*
X10083180Y17602636D01*
X10083180Y17602636D02*
X10035561Y17412160D01*
X10035561Y17412160D02*
X9987942Y17316922D01*
X9987942Y17316922D02*
X9892704Y17221684D01*
X9892704Y17221684D02*
X9749847Y17174065D01*
X9749847Y17174065D02*
X9654609Y17174065D01*
X9654609Y17174065D02*
X9511752Y17221684D01*
X9511752Y17221684D02*
X9464133Y17269303D01*
X9464133Y17269303D02*
X9464133Y17602636D01*
X9464133Y17602636D02*
X9654609Y17602636D01*
X9035561Y17174065D02*
X9035561Y18174065D01*
X9035561Y18174065D02*
X8464133Y17174065D01*
X8464133Y17174065D02*
X8464133Y18174065D01*
X7987942Y17174065D02*
X7987942Y18174065D01*
X7987942Y18174065D02*
X7749847Y18174065D01*
X7749847Y18174065D02*
X7606990Y18126445D01*
X7606990Y18126445D02*
X7511752Y18031207D01*
X7511752Y18031207D02*
X7464133Y17935969D01*
X7464133Y17935969D02*
X7416514Y17745493D01*
X7416514Y17745493D02*
X7416514Y17602636D01*
X7416514Y17602636D02*
X7464133Y17412160D01*
X7464133Y17412160D02*
X7511752Y17316922D01*
X7511752Y17316922D02*
X7606990Y17221684D01*
X7606990Y17221684D02*
X7749847Y17174065D01*
X7749847Y17174065D02*
X7987942Y17174065D01*
X5522238Y25142474D02*
X5484143Y25256760D01*
X5484143Y25256760D02*
X5484143Y25447236D01*
X5484143Y25447236D02*
X5522238Y25523427D01*
X5522238Y25523427D02*
X5560333Y25561522D01*
X5560333Y25561522D02*
X5636524Y25599617D01*
X5636524Y25599617D02*
X5712714Y25599617D01*
X5712714Y25599617D02*
X5788905Y25561522D01*
X5788905Y25561522D02*
X5827000Y25523427D01*
X5827000Y25523427D02*
X5865095Y25447236D01*
X5865095Y25447236D02*
X5903190Y25294855D01*
X5903190Y25294855D02*
X5941286Y25218665D01*
X5941286Y25218665D02*
X5979381Y25180570D01*
X5979381Y25180570D02*
X6055571Y25142474D01*
X6055571Y25142474D02*
X6131762Y25142474D01*
X6131762Y25142474D02*
X6207952Y25180570D01*
X6207952Y25180570D02*
X6246048Y25218665D01*
X6246048Y25218665D02*
X6284143Y25294855D01*
X6284143Y25294855D02*
X6284143Y25485332D01*
X6284143Y25485332D02*
X6246048Y25599617D01*
X5484143Y26399618D02*
X5865095Y26132951D01*
X5484143Y25942475D02*
X6284143Y25942475D01*
X6284143Y25942475D02*
X6284143Y26247237D01*
X6284143Y26247237D02*
X6246048Y26323427D01*
X6246048Y26323427D02*
X6207952Y26361522D01*
X6207952Y26361522D02*
X6131762Y26399618D01*
X6131762Y26399618D02*
X6017476Y26399618D01*
X6017476Y26399618D02*
X5941286Y26361522D01*
X5941286Y26361522D02*
X5903190Y26323427D01*
X5903190Y26323427D02*
X5865095Y26247237D01*
X5865095Y26247237D02*
X5865095Y25942475D01*
X6284143Y31003541D02*
X5484143Y31270208D01*
X5484143Y31270208D02*
X6284143Y31536874D01*
X5788905Y31803541D02*
X5788905Y32413064D01*
X5484143Y32108303D02*
X6093667Y32108303D01*
X5534943Y10156446D02*
X6334943Y10156446D01*
X5534943Y10994541D02*
X5915895Y10727874D01*
X5534943Y10537398D02*
X6334943Y10537398D01*
X6334943Y10537398D02*
X6334943Y10842160D01*
X6334943Y10842160D02*
X6296848Y10918350D01*
X6296848Y10918350D02*
X6258752Y10956445D01*
X6258752Y10956445D02*
X6182562Y10994541D01*
X6182562Y10994541D02*
X6068276Y10994541D01*
X6068276Y10994541D02*
X5992086Y10956445D01*
X5992086Y10956445D02*
X5953990Y10918350D01*
X5953990Y10918350D02*
X5915895Y10842160D01*
X5915895Y10842160D02*
X5915895Y10537398D01*
X5534943Y6467065D02*
X5534943Y6086113D01*
X5534943Y6086113D02*
X6334943Y6086113D01*
X5534943Y7190875D02*
X5915895Y6924208D01*
X5534943Y6733732D02*
X6334943Y6733732D01*
X6334943Y6733732D02*
X6334943Y7038494D01*
X6334943Y7038494D02*
X6296848Y7114684D01*
X6296848Y7114684D02*
X6258752Y7152779D01*
X6258752Y7152779D02*
X6182562Y7190875D01*
X6182562Y7190875D02*
X6068276Y7190875D01*
X6068276Y7190875D02*
X5992086Y7152779D01*
X5992086Y7152779D02*
X5953990Y7114684D01*
X5953990Y7114684D02*
X5915895Y7038494D01*
X5915895Y7038494D02*
X5915895Y6733732D01*
X47297990Y25206733D02*
X48497990Y25206733D01*
X48497990Y25206733D02*
X47640848Y25606733D01*
X47640848Y25606733D02*
X48497990Y26006733D01*
X48497990Y26006733D02*
X47297990Y26006733D01*
X47297990Y26749590D02*
X47355133Y26635305D01*
X47355133Y26635305D02*
X47412276Y26578162D01*
X47412276Y26578162D02*
X47526562Y26521019D01*
X47526562Y26521019D02*
X47869419Y26521019D01*
X47869419Y26521019D02*
X47983705Y26578162D01*
X47983705Y26578162D02*
X48040848Y26635305D01*
X48040848Y26635305D02*
X48097990Y26749590D01*
X48097990Y26749590D02*
X48097990Y26921019D01*
X48097990Y26921019D02*
X48040848Y27035305D01*
X48040848Y27035305D02*
X47983705Y27092447D01*
X47983705Y27092447D02*
X47869419Y27149590D01*
X47869419Y27149590D02*
X47526562Y27149590D01*
X47526562Y27149590D02*
X47412276Y27092447D01*
X47412276Y27092447D02*
X47355133Y27035305D01*
X47355133Y27035305D02*
X47297990Y26921019D01*
X47297990Y26921019D02*
X47297990Y26749590D01*
X48097990Y27663876D02*
X47297990Y27663876D01*
X47983705Y27663876D02*
X48040848Y27721019D01*
X48040848Y27721019D02*
X48097990Y27835304D01*
X48097990Y27835304D02*
X48097990Y28006733D01*
X48097990Y28006733D02*
X48040848Y28121019D01*
X48040848Y28121019D02*
X47926562Y28178161D01*
X47926562Y28178161D02*
X47297990Y28178161D01*
X47297990Y28749590D02*
X48097990Y28749590D01*
X48497990Y28749590D02*
X48440848Y28692447D01*
X48440848Y28692447D02*
X48383705Y28749590D01*
X48383705Y28749590D02*
X48440848Y28806733D01*
X48440848Y28806733D02*
X48497990Y28749590D01*
X48497990Y28749590D02*
X48383705Y28749590D01*
X48097990Y29149590D02*
X48097990Y29606733D01*
X48497990Y29321019D02*
X47469419Y29321019D01*
X47469419Y29321019D02*
X47355133Y29378162D01*
X47355133Y29378162D02*
X47297990Y29492447D01*
X47297990Y29492447D02*
X47297990Y29606733D01*
X47297990Y30178161D02*
X47355133Y30063876D01*
X47355133Y30063876D02*
X47412276Y30006733D01*
X47412276Y30006733D02*
X47526562Y29949590D01*
X47526562Y29949590D02*
X47869419Y29949590D01*
X47869419Y29949590D02*
X47983705Y30006733D01*
X47983705Y30006733D02*
X48040848Y30063876D01*
X48040848Y30063876D02*
X48097990Y30178161D01*
X48097990Y30178161D02*
X48097990Y30349590D01*
X48097990Y30349590D02*
X48040848Y30463876D01*
X48040848Y30463876D02*
X47983705Y30521018D01*
X47983705Y30521018D02*
X47869419Y30578161D01*
X47869419Y30578161D02*
X47526562Y30578161D01*
X47526562Y30578161D02*
X47412276Y30521018D01*
X47412276Y30521018D02*
X47355133Y30463876D01*
X47355133Y30463876D02*
X47297990Y30349590D01*
X47297990Y30349590D02*
X47297990Y30178161D01*
X47297990Y31092447D02*
X48097990Y31092447D01*
X47869419Y31092447D02*
X47983705Y31149590D01*
X47983705Y31149590D02*
X48040848Y31206732D01*
X48040848Y31206732D02*
X48097990Y31321018D01*
X48097990Y31321018D02*
X48097990Y31435304D01*
X48497990Y32783875D02*
X48497990Y33012447D01*
X48497990Y33012447D02*
X48440848Y33126732D01*
X48440848Y33126732D02*
X48326562Y33241018D01*
X48326562Y33241018D02*
X48097990Y33298161D01*
X48097990Y33298161D02*
X47697990Y33298161D01*
X47697990Y33298161D02*
X47469419Y33241018D01*
X47469419Y33241018D02*
X47355133Y33126732D01*
X47355133Y33126732D02*
X47297990Y33012447D01*
X47297990Y33012447D02*
X47297990Y32783875D01*
X47297990Y32783875D02*
X47355133Y32669589D01*
X47355133Y32669589D02*
X47469419Y32555304D01*
X47469419Y32555304D02*
X47697990Y32498161D01*
X47697990Y32498161D02*
X48097990Y32498161D01*
X48097990Y32498161D02*
X48326562Y32555304D01*
X48326562Y32555304D02*
X48440848Y32669589D01*
X48440848Y32669589D02*
X48497990Y32783875D01*
X47355133Y33755304D02*
X47297990Y33926732D01*
X47297990Y33926732D02*
X47297990Y34212447D01*
X47297990Y34212447D02*
X47355133Y34326732D01*
X47355133Y34326732D02*
X47412276Y34383875D01*
X47412276Y34383875D02*
X47526562Y34441018D01*
X47526562Y34441018D02*
X47640848Y34441018D01*
X47640848Y34441018D02*
X47755133Y34383875D01*
X47755133Y34383875D02*
X47812276Y34326732D01*
X47812276Y34326732D02*
X47869419Y34212447D01*
X47869419Y34212447D02*
X47926562Y33983875D01*
X47926562Y33983875D02*
X47983705Y33869590D01*
X47983705Y33869590D02*
X48040848Y33812447D01*
X48040848Y33812447D02*
X48155133Y33755304D01*
X48155133Y33755304D02*
X48269419Y33755304D01*
X48269419Y33755304D02*
X48383705Y33812447D01*
X48383705Y33812447D02*
X48440848Y33869590D01*
X48440848Y33869590D02*
X48497990Y33983875D01*
X48497990Y33983875D02*
X48497990Y34269590D01*
X48497990Y34269590D02*
X48440848Y34441018D01*
X47297990Y34955304D02*
X48497990Y34955304D01*
X48497990Y34955304D02*
X48497990Y35241018D01*
X48497990Y35241018D02*
X48440848Y35412447D01*
X48440848Y35412447D02*
X48326562Y35526732D01*
X48326562Y35526732D02*
X48212276Y35583875D01*
X48212276Y35583875D02*
X47983705Y35641018D01*
X47983705Y35641018D02*
X47812276Y35641018D01*
X47812276Y35641018D02*
X47583705Y35583875D01*
X47583705Y35583875D02*
X47469419Y35526732D01*
X47469419Y35526732D02*
X47355133Y35412447D01*
X47355133Y35412447D02*
X47297990Y35241018D01*
X47297990Y35241018D02*
X47297990Y34955304D01*
X47412276Y37561018D02*
X47355133Y37503875D01*
X47355133Y37503875D02*
X47297990Y37332447D01*
X47297990Y37332447D02*
X47297990Y37218161D01*
X47297990Y37218161D02*
X47355133Y37046732D01*
X47355133Y37046732D02*
X47469419Y36932447D01*
X47469419Y36932447D02*
X47583705Y36875304D01*
X47583705Y36875304D02*
X47812276Y36818161D01*
X47812276Y36818161D02*
X47983705Y36818161D01*
X47983705Y36818161D02*
X48212276Y36875304D01*
X48212276Y36875304D02*
X48326562Y36932447D01*
X48326562Y36932447D02*
X48440848Y37046732D01*
X48440848Y37046732D02*
X48497990Y37218161D01*
X48497990Y37218161D02*
X48497990Y37332447D01*
X48497990Y37332447D02*
X48440848Y37503875D01*
X48440848Y37503875D02*
X48383705Y37561018D01*
X47297990Y38246732D02*
X47355133Y38132447D01*
X47355133Y38132447D02*
X47412276Y38075304D01*
X47412276Y38075304D02*
X47526562Y38018161D01*
X47526562Y38018161D02*
X47869419Y38018161D01*
X47869419Y38018161D02*
X47983705Y38075304D01*
X47983705Y38075304D02*
X48040848Y38132447D01*
X48040848Y38132447D02*
X48097990Y38246732D01*
X48097990Y38246732D02*
X48097990Y38418161D01*
X48097990Y38418161D02*
X48040848Y38532447D01*
X48040848Y38532447D02*
X47983705Y38589589D01*
X47983705Y38589589D02*
X47869419Y38646732D01*
X47869419Y38646732D02*
X47526562Y38646732D01*
X47526562Y38646732D02*
X47412276Y38589589D01*
X47412276Y38589589D02*
X47355133Y38532447D01*
X47355133Y38532447D02*
X47297990Y38418161D01*
X47297990Y38418161D02*
X47297990Y38246732D01*
X48097990Y39161018D02*
X47297990Y39161018D01*
X47983705Y39161018D02*
X48040848Y39218161D01*
X48040848Y39218161D02*
X48097990Y39332446D01*
X48097990Y39332446D02*
X48097990Y39503875D01*
X48097990Y39503875D02*
X48040848Y39618161D01*
X48040848Y39618161D02*
X47926562Y39675303D01*
X47926562Y39675303D02*
X47297990Y39675303D01*
X48097990Y40075303D02*
X48097990Y40532446D01*
X48497990Y40246732D02*
X47469419Y40246732D01*
X47469419Y40246732D02*
X47355133Y40303875D01*
X47355133Y40303875D02*
X47297990Y40418160D01*
X47297990Y40418160D02*
X47297990Y40532446D01*
X47297990Y40932446D02*
X48097990Y40932446D01*
X47869419Y40932446D02*
X47983705Y40989589D01*
X47983705Y40989589D02*
X48040848Y41046731D01*
X48040848Y41046731D02*
X48097990Y41161017D01*
X48097990Y41161017D02*
X48097990Y41275303D01*
X47297990Y41846731D02*
X47355133Y41732446D01*
X47355133Y41732446D02*
X47412276Y41675303D01*
X47412276Y41675303D02*
X47526562Y41618160D01*
X47526562Y41618160D02*
X47869419Y41618160D01*
X47869419Y41618160D02*
X47983705Y41675303D01*
X47983705Y41675303D02*
X48040848Y41732446D01*
X48040848Y41732446D02*
X48097990Y41846731D01*
X48097990Y41846731D02*
X48097990Y42018160D01*
X48097990Y42018160D02*
X48040848Y42132446D01*
X48040848Y42132446D02*
X47983705Y42189588D01*
X47983705Y42189588D02*
X47869419Y42246731D01*
X47869419Y42246731D02*
X47526562Y42246731D01*
X47526562Y42246731D02*
X47412276Y42189588D01*
X47412276Y42189588D02*
X47355133Y42132446D01*
X47355133Y42132446D02*
X47297990Y42018160D01*
X47297990Y42018160D02*
X47297990Y41846731D01*
X47297990Y42932445D02*
X47355133Y42818160D01*
X47355133Y42818160D02*
X47469419Y42761017D01*
X47469419Y42761017D02*
X48497990Y42761017D01*
X47926562Y44509588D02*
X47869419Y44681016D01*
X47869419Y44681016D02*
X47812276Y44738159D01*
X47812276Y44738159D02*
X47697990Y44795302D01*
X47697990Y44795302D02*
X47526562Y44795302D01*
X47526562Y44795302D02*
X47412276Y44738159D01*
X47412276Y44738159D02*
X47355133Y44681016D01*
X47355133Y44681016D02*
X47297990Y44566731D01*
X47297990Y44566731D02*
X47297990Y44109588D01*
X47297990Y44109588D02*
X48497990Y44109588D01*
X48497990Y44109588D02*
X48497990Y44509588D01*
X48497990Y44509588D02*
X48440848Y44623873D01*
X48440848Y44623873D02*
X48383705Y44681016D01*
X48383705Y44681016D02*
X48269419Y44738159D01*
X48269419Y44738159D02*
X48155133Y44738159D01*
X48155133Y44738159D02*
X48040848Y44681016D01*
X48040848Y44681016D02*
X47983705Y44623873D01*
X47983705Y44623873D02*
X47926562Y44509588D01*
X47926562Y44509588D02*
X47926562Y44109588D01*
X47297990Y45481016D02*
X47355133Y45366731D01*
X47355133Y45366731D02*
X47412276Y45309588D01*
X47412276Y45309588D02*
X47526562Y45252445D01*
X47526562Y45252445D02*
X47869419Y45252445D01*
X47869419Y45252445D02*
X47983705Y45309588D01*
X47983705Y45309588D02*
X48040848Y45366731D01*
X48040848Y45366731D02*
X48097990Y45481016D01*
X48097990Y45481016D02*
X48097990Y45652445D01*
X48097990Y45652445D02*
X48040848Y45766731D01*
X48040848Y45766731D02*
X47983705Y45823873D01*
X47983705Y45823873D02*
X47869419Y45881016D01*
X47869419Y45881016D02*
X47526562Y45881016D01*
X47526562Y45881016D02*
X47412276Y45823873D01*
X47412276Y45823873D02*
X47355133Y45766731D01*
X47355133Y45766731D02*
X47297990Y45652445D01*
X47297990Y45652445D02*
X47297990Y45481016D01*
X47297990Y46909587D02*
X47926562Y46909587D01*
X47926562Y46909587D02*
X48040848Y46852445D01*
X48040848Y46852445D02*
X48097990Y46738159D01*
X48097990Y46738159D02*
X48097990Y46509587D01*
X48097990Y46509587D02*
X48040848Y46395302D01*
X47355133Y46909587D02*
X47297990Y46795302D01*
X47297990Y46795302D02*
X47297990Y46509587D01*
X47297990Y46509587D02*
X47355133Y46395302D01*
X47355133Y46395302D02*
X47469419Y46338159D01*
X47469419Y46338159D02*
X47583705Y46338159D01*
X47583705Y46338159D02*
X47697990Y46395302D01*
X47697990Y46395302D02*
X47755133Y46509587D01*
X47755133Y46509587D02*
X47755133Y46795302D01*
X47755133Y46795302D02*
X47812276Y46909587D01*
X47297990Y47481016D02*
X48097990Y47481016D01*
X47869419Y47481016D02*
X47983705Y47538159D01*
X47983705Y47538159D02*
X48040848Y47595301D01*
X48040848Y47595301D02*
X48097990Y47709587D01*
X48097990Y47709587D02*
X48097990Y47823873D01*
X47297990Y48738158D02*
X48497990Y48738158D01*
X47355133Y48738158D02*
X47297990Y48623873D01*
X47297990Y48623873D02*
X47297990Y48395301D01*
X47297990Y48395301D02*
X47355133Y48281016D01*
X47355133Y48281016D02*
X47412276Y48223873D01*
X47412276Y48223873D02*
X47526562Y48166730D01*
X47526562Y48166730D02*
X47869419Y48166730D01*
X47869419Y48166730D02*
X47983705Y48223873D01*
X47983705Y48223873D02*
X48040848Y48281016D01*
X48040848Y48281016D02*
X48097990Y48395301D01*
X48097990Y48395301D02*
X48097990Y48623873D01*
X48097990Y48623873D02*
X48040848Y48738158D01*
X5484143Y37093179D02*
X6284143Y37093179D01*
X6284143Y37093179D02*
X6284143Y37397941D01*
X6284143Y37397941D02*
X6246048Y37474131D01*
X6246048Y37474131D02*
X6207952Y37512226D01*
X6207952Y37512226D02*
X6131762Y37550322D01*
X6131762Y37550322D02*
X6017476Y37550322D01*
X6017476Y37550322D02*
X5941286Y37512226D01*
X5941286Y37512226D02*
X5903190Y37474131D01*
X5903190Y37474131D02*
X5865095Y37397941D01*
X5865095Y37397941D02*
X5865095Y37093179D01*
X6284143Y37816988D02*
X5484143Y38007464D01*
X5484143Y38007464D02*
X6055571Y38159845D01*
X6055571Y38159845D02*
X5484143Y38312226D01*
X5484143Y38312226D02*
X6284143Y38502702D01*
X5534943Y8372065D02*
X5534943Y7991113D01*
X5534943Y7991113D02*
X6334943Y7991113D01*
X6296848Y9057779D02*
X6334943Y8981589D01*
X6334943Y8981589D02*
X6334943Y8867303D01*
X6334943Y8867303D02*
X6296848Y8753017D01*
X6296848Y8753017D02*
X6220657Y8676827D01*
X6220657Y8676827D02*
X6144467Y8638732D01*
X6144467Y8638732D02*
X5992086Y8600636D01*
X5992086Y8600636D02*
X5877800Y8600636D01*
X5877800Y8600636D02*
X5725419Y8638732D01*
X5725419Y8638732D02*
X5649228Y8676827D01*
X5649228Y8676827D02*
X5573038Y8753017D01*
X5573038Y8753017D02*
X5534943Y8867303D01*
X5534943Y8867303D02*
X5534943Y8943494D01*
X5534943Y8943494D02*
X5573038Y9057779D01*
X5573038Y9057779D02*
X5611133Y9095875D01*
X5611133Y9095875D02*
X5877800Y9095875D01*
X5877800Y9095875D02*
X5877800Y8943494D01*
X6246048Y39950569D02*
X6284143Y39874379D01*
X6284143Y39874379D02*
X6284143Y39760093D01*
X6284143Y39760093D02*
X6246048Y39645807D01*
X6246048Y39645807D02*
X6169857Y39569617D01*
X6169857Y39569617D02*
X6093667Y39531522D01*
X6093667Y39531522D02*
X5941286Y39493426D01*
X5941286Y39493426D02*
X5827000Y39493426D01*
X5827000Y39493426D02*
X5674619Y39531522D01*
X5674619Y39531522D02*
X5598428Y39569617D01*
X5598428Y39569617D02*
X5522238Y39645807D01*
X5522238Y39645807D02*
X5484143Y39760093D01*
X5484143Y39760093D02*
X5484143Y39836284D01*
X5484143Y39836284D02*
X5522238Y39950569D01*
X5522238Y39950569D02*
X5560333Y39988665D01*
X5560333Y39988665D02*
X5827000Y39988665D01*
X5827000Y39988665D02*
X5827000Y39836284D01*
X6296848Y12797969D02*
X6334943Y12721779D01*
X6334943Y12721779D02*
X6334943Y12607493D01*
X6334943Y12607493D02*
X6296848Y12493207D01*
X6296848Y12493207D02*
X6220657Y12417017D01*
X6220657Y12417017D02*
X6144467Y12378922D01*
X6144467Y12378922D02*
X5992086Y12340826D01*
X5992086Y12340826D02*
X5877800Y12340826D01*
X5877800Y12340826D02*
X5725419Y12378922D01*
X5725419Y12378922D02*
X5649228Y12417017D01*
X5649228Y12417017D02*
X5573038Y12493207D01*
X5573038Y12493207D02*
X5534943Y12607493D01*
X5534943Y12607493D02*
X5534943Y12683684D01*
X5534943Y12683684D02*
X5573038Y12797969D01*
X5573038Y12797969D02*
X5611133Y12836065D01*
X5611133Y12836065D02*
X5877800Y12836065D01*
X5877800Y12836065D02*
X5877800Y12683684D01*
X6284143Y32984741D02*
X5484143Y33251408D01*
X5484143Y33251408D02*
X6284143Y33518074D01*
X5788905Y33784741D02*
X5788905Y34394264D01*
D11*
X40242390Y36283788D02*
X39842390Y35083788D01*
X39842390Y35083788D02*
X39442390Y36283788D01*
X38813819Y36283788D02*
X38585247Y36283788D01*
X38585247Y36283788D02*
X38470962Y36226645D01*
X38470962Y36226645D02*
X38356676Y36112360D01*
X38356676Y36112360D02*
X38299533Y35883788D01*
X38299533Y35883788D02*
X38299533Y35483788D01*
X38299533Y35483788D02*
X38356676Y35255217D01*
X38356676Y35255217D02*
X38470962Y35140931D01*
X38470962Y35140931D02*
X38585247Y35083788D01*
X38585247Y35083788D02*
X38813819Y35083788D01*
X38813819Y35083788D02*
X38928105Y35140931D01*
X38928105Y35140931D02*
X39042390Y35255217D01*
X39042390Y35255217D02*
X39099533Y35483788D01*
X39099533Y35483788D02*
X39099533Y35883788D01*
X39099533Y35883788D02*
X39042390Y36112360D01*
X39042390Y36112360D02*
X38928105Y36226645D01*
X38928105Y36226645D02*
X38813819Y36283788D01*
X37213819Y35083788D02*
X37785247Y35083788D01*
X37785247Y35083788D02*
X37785247Y36283788D01*
X36813818Y35540931D02*
X35899533Y35540931D01*
X36356675Y35083788D02*
X36356675Y35998074D01*
X27313790Y22053588D02*
X27313790Y23253588D01*
X27313790Y23253588D02*
X27028076Y23253588D01*
X27028076Y23253588D02*
X26856647Y23196445D01*
X26856647Y23196445D02*
X26742362Y23082160D01*
X26742362Y23082160D02*
X26685219Y22967874D01*
X26685219Y22967874D02*
X26628076Y22739303D01*
X26628076Y22739303D02*
X26628076Y22567874D01*
X26628076Y22567874D02*
X26685219Y22339303D01*
X26685219Y22339303D02*
X26742362Y22225017D01*
X26742362Y22225017D02*
X26856647Y22110731D01*
X26856647Y22110731D02*
X27028076Y22053588D01*
X27028076Y22053588D02*
X27313790Y22053588D01*
X25885219Y23253588D02*
X25656647Y23253588D01*
X25656647Y23253588D02*
X25542362Y23196445D01*
X25542362Y23196445D02*
X25428076Y23082160D01*
X25428076Y23082160D02*
X25370933Y22853588D01*
X25370933Y22853588D02*
X25370933Y22453588D01*
X25370933Y22453588D02*
X25428076Y22225017D01*
X25428076Y22225017D02*
X25542362Y22110731D01*
X25542362Y22110731D02*
X25656647Y22053588D01*
X25656647Y22053588D02*
X25885219Y22053588D01*
X25885219Y22053588D02*
X25999505Y22110731D01*
X25999505Y22110731D02*
X26113790Y22225017D01*
X26113790Y22225017D02*
X26170933Y22453588D01*
X26170933Y22453588D02*
X26170933Y22853588D01*
X26170933Y22853588D02*
X26113790Y23082160D01*
X26113790Y23082160D02*
X25999505Y23196445D01*
X25999505Y23196445D02*
X25885219Y23253588D01*
X24970933Y23253588D02*
X24685219Y22053588D01*
X24685219Y22053588D02*
X24456647Y22910731D01*
X24456647Y22910731D02*
X24228076Y22053588D01*
X24228076Y22053588D02*
X23942362Y23253588D01*
X23485218Y22053588D02*
X23485218Y23253588D01*
X23485218Y23253588D02*
X22799504Y22053588D01*
X22799504Y22053588D02*
X22799504Y23253588D01*
D10*
X5484143Y35461179D02*
X6284143Y35461179D01*
X6284143Y35461179D02*
X5712714Y35727845D01*
X5712714Y35727845D02*
X6284143Y35994512D01*
X6284143Y35994512D02*
X5484143Y35994512D01*
D12*
X9105371Y47463445D02*
X9181561Y47511065D01*
X9181561Y47511065D02*
X9295847Y47511065D01*
X9295847Y47511065D02*
X9410133Y47463445D01*
X9410133Y47463445D02*
X9486323Y47368207D01*
X9486323Y47368207D02*
X9524418Y47272969D01*
X9524418Y47272969D02*
X9562514Y47082493D01*
X9562514Y47082493D02*
X9562514Y46939636D01*
X9562514Y46939636D02*
X9524418Y46749160D01*
X9524418Y46749160D02*
X9486323Y46653922D01*
X9486323Y46653922D02*
X9410133Y46558684D01*
X9410133Y46558684D02*
X9295847Y46511065D01*
X9295847Y46511065D02*
X9219656Y46511065D01*
X9219656Y46511065D02*
X9105371Y46558684D01*
X9105371Y46558684D02*
X9067275Y46606303D01*
X9067275Y46606303D02*
X9067275Y46939636D01*
X9067275Y46939636D02*
X9219656Y46939636D01*
X8724418Y46511065D02*
X8724418Y47511065D01*
X8724418Y47511065D02*
X8267275Y46511065D01*
X8267275Y46511065D02*
X8267275Y47511065D01*
X7886323Y46511065D02*
X7886323Y47511065D01*
X7886323Y47511065D02*
X7695847Y47511065D01*
X7695847Y47511065D02*
X7581561Y47463445D01*
X7581561Y47463445D02*
X7505371Y47368207D01*
X7505371Y47368207D02*
X7467276Y47272969D01*
X7467276Y47272969D02*
X7429180Y47082493D01*
X7429180Y47082493D02*
X7429180Y46939636D01*
X7429180Y46939636D02*
X7467276Y46749160D01*
X7467276Y46749160D02*
X7505371Y46653922D01*
X7505371Y46653922D02*
X7581561Y46558684D01*
X7581561Y46558684D02*
X7695847Y46511065D01*
X7695847Y46511065D02*
X7886323Y46511065D01*
D11*
X42763276Y12350788D02*
X42763276Y13550788D01*
X42763276Y13550788D02*
X42306133Y13550788D01*
X42306133Y13550788D02*
X42191848Y13493645D01*
X42191848Y13493645D02*
X42134705Y13436503D01*
X42134705Y13436503D02*
X42077562Y13322217D01*
X42077562Y13322217D02*
X42077562Y13150788D01*
X42077562Y13150788D02*
X42134705Y13036503D01*
X42134705Y13036503D02*
X42191848Y12979360D01*
X42191848Y12979360D02*
X42306133Y12922217D01*
X42306133Y12922217D02*
X42763276Y12922217D01*
X41334705Y13550788D02*
X41106133Y13550788D01*
X41106133Y13550788D02*
X40991848Y13493645D01*
X40991848Y13493645D02*
X40877562Y13379360D01*
X40877562Y13379360D02*
X40820419Y13150788D01*
X40820419Y13150788D02*
X40820419Y12750788D01*
X40820419Y12750788D02*
X40877562Y12522217D01*
X40877562Y12522217D02*
X40991848Y12407931D01*
X40991848Y12407931D02*
X41106133Y12350788D01*
X41106133Y12350788D02*
X41334705Y12350788D01*
X41334705Y12350788D02*
X41448991Y12407931D01*
X41448991Y12407931D02*
X41563276Y12522217D01*
X41563276Y12522217D02*
X41620419Y12750788D01*
X41620419Y12750788D02*
X41620419Y13150788D01*
X41620419Y13150788D02*
X41563276Y13379360D01*
X41563276Y13379360D02*
X41448991Y13493645D01*
X41448991Y13493645D02*
X41334705Y13550788D01*
X40420419Y13550788D02*
X40134705Y12350788D01*
X40134705Y12350788D02*
X39906133Y13207931D01*
X39906133Y13207931D02*
X39677562Y12350788D01*
X39677562Y12350788D02*
X39391848Y13550788D01*
X38934704Y12979360D02*
X38534704Y12979360D01*
X38363276Y12350788D02*
X38934704Y12350788D01*
X38934704Y12350788D02*
X38934704Y13550788D01*
X38934704Y13550788D02*
X38363276Y13550788D01*
X37163276Y12350788D02*
X37563276Y12922217D01*
X37848990Y12350788D02*
X37848990Y13550788D01*
X37848990Y13550788D02*
X37391847Y13550788D01*
X37391847Y13550788D02*
X37277562Y13493645D01*
X37277562Y13493645D02*
X37220419Y13436503D01*
X37220419Y13436503D02*
X37163276Y13322217D01*
X37163276Y13322217D02*
X37163276Y13150788D01*
X37163276Y13150788D02*
X37220419Y13036503D01*
X37220419Y13036503D02*
X37277562Y12979360D01*
X37277562Y12979360D02*
X37391847Y12922217D01*
X37391847Y12922217D02*
X37848990Y12922217D01*
X26966180Y35007588D02*
X26966180Y36207588D01*
X26966180Y36207588D02*
X26632847Y35350445D01*
X26632847Y35350445D02*
X26299514Y36207588D01*
X26299514Y36207588D02*
X26299514Y35007588D01*
X25823323Y35636160D02*
X25489990Y35636160D01*
X25347133Y35007588D02*
X25823323Y35007588D01*
X25823323Y35007588D02*
X25823323Y36207588D01*
X25823323Y36207588D02*
X25347133Y36207588D01*
X24918561Y35007588D02*
X24918561Y36207588D01*
X24918561Y36207588D02*
X24347133Y35007588D01*
X24347133Y35007588D02*
X24347133Y36207588D01*
X23870942Y36207588D02*
X23870942Y35236160D01*
X23870942Y35236160D02*
X23823323Y35121874D01*
X23823323Y35121874D02*
X23775704Y35064731D01*
X23775704Y35064731D02*
X23680466Y35007588D01*
X23680466Y35007588D02*
X23489990Y35007588D01*
X23489990Y35007588D02*
X23394752Y35064731D01*
X23394752Y35064731D02*
X23347133Y35121874D01*
X23347133Y35121874D02*
X23299514Y35236160D01*
X23299514Y35236160D02*
X23299514Y36207588D01*
D13*
%TO.C,J4*%
X307848Y13634445D02*
X2967848Y13634445D01*
X307848Y3414445D02*
X307848Y13634445D01*
X307848Y3414445D02*
X2967848Y3414445D01*
X307848Y2144445D02*
X307848Y814445D01*
X307848Y814445D02*
X1637848Y814445D01*
X2967848Y3414445D02*
X2967848Y13634445D01*
%TO.C,J1*%
X3117848Y40773645D02*
X5237848Y40773645D01*
X3117848Y24713645D02*
X3117848Y40773645D01*
X3117848Y24713645D02*
X5237848Y24713645D01*
X3117848Y23713645D02*
X3117848Y22653645D01*
X3117848Y22653645D02*
X4177848Y22653645D01*
X5237848Y24713645D02*
X5237848Y40773645D01*
%TO.C,J2*%
X307848Y45668445D02*
X2967848Y45668445D01*
X307848Y25288445D02*
X307848Y45668445D01*
X307848Y25288445D02*
X2967848Y25288445D01*
X307848Y24018445D02*
X307848Y22688445D01*
X307848Y22688445D02*
X1637848Y22688445D01*
X2967848Y25288445D02*
X2967848Y45668445D01*
%TO.C,J3*%
X3117848Y13647445D02*
X5237848Y13647445D01*
X3117848Y5587445D02*
X3117848Y13647445D01*
X3117848Y5587445D02*
X5237848Y5587445D01*
X3117848Y4587445D02*
X3117848Y3527445D01*
X3117848Y3527445D02*
X4177848Y3527445D01*
X5237848Y5587445D02*
X5237848Y13647445D01*
%TD*%
%LPC*%
D14*
%TO.C,SW1*%
X9511847Y30788444D03*
X9511847Y43288444D03*
X14511847Y30788444D03*
X14511847Y43288444D03*
%TD*%
D15*
%TO.C,U1*%
X9384848Y9413445D03*
D16*
X9384848Y6873445D03*
X9384848Y4333445D03*
%TD*%
D17*
%TO.C,D2*%
X29704847Y2555444D03*
D16*
X29704848Y5095445D03*
X29704848Y7635445D03*
%TD*%
D18*
%TO.C,SW6*%
X42261848Y10251645D03*
X42261848Y3751645D03*
X37761848Y10251645D03*
X37761848Y3751645D03*
%TD*%
D19*
%TO.C,TP2*%
X5955848Y48910445D03*
%TD*%
D14*
%TO.C,SW5*%
X40491847Y43298444D03*
X40491847Y30798444D03*
X35491847Y43298444D03*
X35491847Y30798444D03*
%TD*%
D19*
%TO.C,TP1*%
X11035848Y48910445D03*
%TD*%
%TO.C,TP3*%
X8495848Y48910445D03*
%TD*%
D20*
%TO.C,SW4*%
X31241847Y21508444D03*
X18741847Y21508444D03*
X31241847Y26508444D03*
X18741847Y26508444D03*
%TD*%
%TO.C,SW2*%
X18751847Y52488444D03*
X31251847Y52488444D03*
X18751847Y47488444D03*
X31251847Y47488444D03*
%TD*%
D18*
%TO.C,TP4*%
X8749848Y19700445D03*
%TD*%
D20*
%TO.C,SW3*%
X18751847Y39518444D03*
X31251847Y39518444D03*
X18751847Y34518444D03*
X31251847Y34518444D03*
%TD*%
D21*
%TO.C,J4*%
X1637847Y2144444D03*
D22*
X1637847Y4684444D03*
X1637847Y7224444D03*
X1637847Y9764444D03*
X1637847Y12304444D03*
%TD*%
D23*
%TO.C,J1*%
X4177847Y23713644D03*
D24*
X4177847Y25713644D03*
X4177847Y27713644D03*
X4177847Y29713644D03*
X4177847Y31713644D03*
X4177847Y33713644D03*
X4177847Y35713644D03*
X4177847Y37713644D03*
X4177847Y39713644D03*
%TD*%
D21*
%TO.C,J2*%
X1637847Y24018444D03*
D22*
X1637847Y26558444D03*
X1637847Y29098444D03*
X1637847Y31638444D03*
X1637847Y34178444D03*
X1637847Y36718444D03*
X1637847Y39258444D03*
X1637847Y41798444D03*
X1637847Y44338444D03*
%TD*%
D23*
%TO.C,J3*%
X4177847Y4587444D03*
D24*
X4177847Y6587444D03*
X4177847Y8587444D03*
X4177847Y10587444D03*
X4177847Y12587444D03*
%TD*%
M02*
