%TF.GenerationSoftware,KiCad,Pcbnew,7.0.1*%
%TF.CreationDate,2023-04-02T16:57:02+09:00*%
%TF.ProjectId,monitor_osd_control,6d6f6e69-746f-4725-9f6f-73645f636f6e,5*%
%TF.SameCoordinates,PX7ab0ef8PY7236868*%
%TF.FileFunction,Profile,NP*%
%FSLAX46Y46*%
G04 Gerber Fmt 4.6, Leading zero omitted, Abs format (unit mm)*
G04 Created by KiCad (PCBNEW 7.0.1) date 2023-04-02 16:57:02*
%MOMM*%
%LPD*%
G01*
G04 APERTURE LIST*
%TA.AperFunction,Profile*%
%ADD10C,0.100000*%
%TD*%
%TA.AperFunction,Profile*%
%ADD11C,0.120000*%
%TD*%
G04 APERTURE END LIST*
D10*
X20013156Y6983979D02*
G75*
G03*
X20013156Y6983979I-500000J0D01*
G01*
X7513153Y10983284D02*
G75*
G03*
X7513153Y10983284I-500000J0D01*
G01*
X35433000Y14859000D02*
X35433000Y1498600D01*
X34417000Y1498600D01*
X34417000Y14859000D01*
X7467600Y14859000D01*
X7467600Y15875000D01*
X35433000Y15875000D01*
X35433000Y14859000D01*
X48005000Y18973800D02*
G75*
G03*
X48005000Y18973800I-1000000J0D01*
G01*
X32513154Y2984932D02*
G75*
G03*
X32513154Y2984932I-500000J0D01*
G01*
X7513153Y2984932D02*
G75*
G03*
X7513153Y2984932I-500000J0D01*
G01*
X4005000Y54993000D02*
G75*
G03*
X4005000Y54993000I-1000000J0D01*
G01*
X48005000Y54991000D02*
G75*
G03*
X48005000Y54991000I-1000000J0D01*
G01*
X48005000Y2993000D02*
G75*
G03*
X48005000Y2993000I-1000000J0D01*
G01*
X50012600Y0D02*
X0Y0D01*
X0Y15875000D01*
X25400Y57962800D01*
X50012600Y57988200D01*
X50012600Y0D01*
X4005000Y18989800D02*
G75*
G03*
X4005000Y18989800I-1000000J0D01*
G01*
X40505000Y6993000D02*
G75*
G03*
X40505000Y6993000I-500000J0D01*
G01*
X32513154Y10983284D02*
G75*
G03*
X32513154Y10983284I-500000J0D01*
G01*
X1498600Y15875000D02*
X5943600Y15875000D01*
X5943600Y14859000D01*
X1498600Y14859000D01*
X1498600Y15875000D01*
D11*
%TO.C,SW1*%
X12525000Y37023000D02*
G75*
G03*
X12525000Y37023000I-500000J0D01*
G01*
%TO.C,SW5*%
X38505000Y37033000D02*
G75*
G03*
X38505000Y37033000I-500000J0D01*
G01*
%TO.C,SW4*%
X25505000Y23993000D02*
G75*
G03*
X25505000Y23993000I-500000J0D01*
G01*
%TO.C,SW2*%
X25515000Y49973000D02*
G75*
G03*
X25515000Y49973000I-500000J0D01*
G01*
%TO.C,SW3*%
X25515000Y37003000D02*
G75*
G03*
X25515000Y37003000I-500000J0D01*
G01*
%TD*%
M02*
