%TF.GenerationSoftware,KiCad,Pcbnew,(7.0.0)*%
%TF.CreationDate,2023-03-11T17:47:17+09:00*%
%TF.ProjectId,monitor_osd_control,6d6f6e69-746f-4725-9f6f-73645f636f6e,5*%
%TF.SameCoordinates,PX7ab4258PY723a4bd*%
%TF.FileFunction,Legend,Top*%
%TF.FilePolarity,Positive*%
%FSLAX46Y46*%
G04 Gerber Fmt 4.6, Leading zero omitted, Abs format (unit mm)*
G04 Created by KiCad (PCBNEW (7.0.0)) date 2023-03-11 17:47:17*
%MOMM*%
%LPD*%
G01*
G04 APERTURE LIST*
G04 Aperture macros list*
%AMRoundRect*
0 Rectangle with rounded corners*
0 $1 Rounding radius*
0 $2 $3 $4 $5 $6 $7 $8 $9 X,Y pos of 4 corners*
0 Add a 4 corners polygon primitive as box body*
4,1,4,$2,$3,$4,$5,$6,$7,$8,$9,$2,$3,0*
0 Add four circle primitives for the rounded corners*
1,1,$1+$1,$2,$3*
1,1,$1+$1,$4,$5*
1,1,$1+$1,$6,$7*
1,1,$1+$1,$8,$9*
0 Add four rect primitives between the rounded corners*
20,1,$1+$1,$2,$3,$4,$5,0*
20,1,$1+$1,$4,$5,$6,$7,0*
20,1,$1+$1,$6,$7,$8,$9,0*
20,1,$1+$1,$8,$9,$2,$3,0*%
G04 Aperture macros list end*
%ADD10C,0.150000*%
%ADD11C,0.250000*%
%ADD12C,0.200000*%
%ADD13C,0.120000*%
%ADD14RoundRect,0.250000X0.400000X0.600000X-0.400000X0.600000X-0.400000X-0.600000X0.400000X-0.600000X0*%
%ADD15O,1.850000X3.048000*%
%ADD16RoundRect,0.250200X-0.649800X0.649800X-0.649800X-0.649800X0.649800X-0.649800X0.649800X0.649800X0*%
%ADD17C,1.800000*%
%ADD18R,1.800000X1.800000*%
%ADD19C,2.000000*%
%ADD20C,1.500000*%
%ADD21O,3.048000X1.850000*%
%ADD22RoundRect,0.250000X-1.050000X-0.550000X1.050000X-0.550000X1.050000X0.550000X-1.050000X0.550000X0*%
%ADD23RoundRect,0.250000X0.450000X-0.350000X0.450000X0.350000X-0.450000X0.350000X-0.450000X-0.350000X0*%
%ADD24RoundRect,0.250000X0.475000X-0.337500X0.475000X0.337500X-0.475000X0.337500X-0.475000X-0.337500X0*%
%ADD25R,1.700000X1.700000*%
%ADD26O,1.700000X1.700000*%
%ADD27R,1.350000X1.350000*%
%ADD28O,1.350000X1.350000*%
G04 APERTURE END LIST*
D10*
X35610348Y15763445D02*
X49643848Y15763445D01*
X27120514Y10160874D02*
X27120514Y9627541D01*
X26930038Y10465636D02*
X26739561Y9894207D01*
X26739561Y9894207D02*
X27234800Y9894207D01*
X27463371Y10427541D02*
X27996705Y10427541D01*
X27996705Y10427541D02*
X27653847Y9627541D01*
X28644324Y10160874D02*
X28644324Y9627541D01*
X28301467Y10160874D02*
X28301467Y9741826D01*
X28301467Y9741826D02*
X28339562Y9665636D01*
X28339562Y9665636D02*
X28415752Y9627541D01*
X28415752Y9627541D02*
X28530038Y9627541D01*
X28530038Y9627541D02*
X28606229Y9665636D01*
X28606229Y9665636D02*
X28644324Y9703731D01*
X29291943Y10046588D02*
X29025277Y10046588D01*
X29025277Y9627541D02*
X29025277Y10427541D01*
X29025277Y10427541D02*
X29406229Y10427541D01*
X5255543Y10981845D02*
X6055543Y10981845D01*
X5255543Y10143750D02*
X5636495Y10410417D01*
X5255543Y10600893D02*
X6055543Y10600893D01*
X6055543Y10600893D02*
X6055543Y10296131D01*
X6055543Y10296131D02*
X6017448Y10219941D01*
X6017448Y10219941D02*
X5979352Y10181846D01*
X5979352Y10181846D02*
X5903162Y10143750D01*
X5903162Y10143750D02*
X5788876Y10143750D01*
X5788876Y10143750D02*
X5712686Y10181846D01*
X5712686Y10181846D02*
X5674590Y10219941D01*
X5674590Y10219941D02*
X5636495Y10296131D01*
X5636495Y10296131D02*
X5636495Y10600893D01*
D11*
X22799505Y22053588D02*
X22799505Y23253588D01*
X22799505Y23253588D02*
X23085219Y23253588D01*
X23085219Y23253588D02*
X23256648Y23196445D01*
X23256648Y23196445D02*
X23370933Y23082160D01*
X23370933Y23082160D02*
X23428076Y22967874D01*
X23428076Y22967874D02*
X23485219Y22739303D01*
X23485219Y22739303D02*
X23485219Y22567874D01*
X23485219Y22567874D02*
X23428076Y22339303D01*
X23428076Y22339303D02*
X23370933Y22225017D01*
X23370933Y22225017D02*
X23256648Y22110731D01*
X23256648Y22110731D02*
X23085219Y22053588D01*
X23085219Y22053588D02*
X22799505Y22053588D01*
X24228076Y23253588D02*
X24456648Y23253588D01*
X24456648Y23253588D02*
X24570933Y23196445D01*
X24570933Y23196445D02*
X24685219Y23082160D01*
X24685219Y23082160D02*
X24742362Y22853588D01*
X24742362Y22853588D02*
X24742362Y22453588D01*
X24742362Y22453588D02*
X24685219Y22225017D01*
X24685219Y22225017D02*
X24570933Y22110731D01*
X24570933Y22110731D02*
X24456648Y22053588D01*
X24456648Y22053588D02*
X24228076Y22053588D01*
X24228076Y22053588D02*
X24113791Y22110731D01*
X24113791Y22110731D02*
X23999505Y22225017D01*
X23999505Y22225017D02*
X23942362Y22453588D01*
X23942362Y22453588D02*
X23942362Y22853588D01*
X23942362Y22853588D02*
X23999505Y23082160D01*
X23999505Y23082160D02*
X24113791Y23196445D01*
X24113791Y23196445D02*
X24228076Y23253588D01*
X25142362Y23253588D02*
X25428076Y22053588D01*
X25428076Y22053588D02*
X25656648Y22910731D01*
X25656648Y22910731D02*
X25885219Y22053588D01*
X25885219Y22053588D02*
X26170934Y23253588D01*
X26628077Y22053588D02*
X26628077Y23253588D01*
X26628077Y23253588D02*
X27313791Y22053588D01*
X27313791Y22053588D02*
X27313791Y23253588D01*
D10*
X28347752Y7483065D02*
X28347752Y7102113D01*
X28347752Y7102113D02*
X27547752Y7102113D01*
X27585848Y8168779D02*
X27547752Y8092589D01*
X27547752Y8092589D02*
X27547752Y7978303D01*
X27547752Y7978303D02*
X27585848Y7864017D01*
X27585848Y7864017D02*
X27662038Y7787827D01*
X27662038Y7787827D02*
X27738228Y7749732D01*
X27738228Y7749732D02*
X27890609Y7711636D01*
X27890609Y7711636D02*
X28004895Y7711636D01*
X28004895Y7711636D02*
X28157276Y7749732D01*
X28157276Y7749732D02*
X28233467Y7787827D01*
X28233467Y7787827D02*
X28309657Y7864017D01*
X28309657Y7864017D02*
X28347752Y7978303D01*
X28347752Y7978303D02*
X28347752Y8054494D01*
X28347752Y8054494D02*
X28309657Y8168779D01*
X28309657Y8168779D02*
X28271562Y8206875D01*
X28271562Y8206875D02*
X28004895Y8206875D01*
X28004895Y8206875D02*
X28004895Y8054494D01*
D12*
X4927276Y50495684D02*
X5041562Y50448065D01*
X5041562Y50448065D02*
X5232038Y50448065D01*
X5232038Y50448065D02*
X5308229Y50495684D01*
X5308229Y50495684D02*
X5346324Y50543303D01*
X5346324Y50543303D02*
X5384419Y50638541D01*
X5384419Y50638541D02*
X5384419Y50733779D01*
X5384419Y50733779D02*
X5346324Y50829017D01*
X5346324Y50829017D02*
X5308229Y50876636D01*
X5308229Y50876636D02*
X5232038Y50924255D01*
X5232038Y50924255D02*
X5079657Y50971874D01*
X5079657Y50971874D02*
X5003467Y51019493D01*
X5003467Y51019493D02*
X4965372Y51067112D01*
X4965372Y51067112D02*
X4927276Y51162350D01*
X4927276Y51162350D02*
X4927276Y51257588D01*
X4927276Y51257588D02*
X4965372Y51352826D01*
X4965372Y51352826D02*
X5003467Y51400445D01*
X5003467Y51400445D02*
X5079657Y51448065D01*
X5079657Y51448065D02*
X5270134Y51448065D01*
X5270134Y51448065D02*
X5384419Y51400445D01*
X6184420Y50448065D02*
X5917753Y50924255D01*
X5727277Y50448065D02*
X5727277Y51448065D01*
X5727277Y51448065D02*
X6032039Y51448065D01*
X6032039Y51448065D02*
X6108229Y51400445D01*
X6108229Y51400445D02*
X6146324Y51352826D01*
X6146324Y51352826D02*
X6184420Y51257588D01*
X6184420Y51257588D02*
X6184420Y51114731D01*
X6184420Y51114731D02*
X6146324Y51019493D01*
X6146324Y51019493D02*
X6108229Y50971874D01*
X6108229Y50971874D02*
X6032039Y50924255D01*
X6032039Y50924255D02*
X5727277Y50924255D01*
X6984420Y50543303D02*
X6946324Y50495684D01*
X6946324Y50495684D02*
X6832039Y50448065D01*
X6832039Y50448065D02*
X6755848Y50448065D01*
X6755848Y50448065D02*
X6641562Y50495684D01*
X6641562Y50495684D02*
X6565372Y50590922D01*
X6565372Y50590922D02*
X6527277Y50686160D01*
X6527277Y50686160D02*
X6489181Y50876636D01*
X6489181Y50876636D02*
X6489181Y51019493D01*
X6489181Y51019493D02*
X6527277Y51209969D01*
X6527277Y51209969D02*
X6565372Y51305207D01*
X6565372Y51305207D02*
X6641562Y51400445D01*
X6641562Y51400445D02*
X6755848Y51448065D01*
X6755848Y51448065D02*
X6832039Y51448065D01*
X6832039Y51448065D02*
X6946324Y51400445D01*
X6946324Y51400445D02*
X6984420Y51352826D01*
D11*
X23304515Y35007588D02*
X23304515Y36207588D01*
X23304515Y36207588D02*
X23637848Y35350445D01*
X23637848Y35350445D02*
X23971181Y36207588D01*
X23971181Y36207588D02*
X23971181Y35007588D01*
X24447372Y35636160D02*
X24780705Y35636160D01*
X24923562Y35007588D02*
X24447372Y35007588D01*
X24447372Y35007588D02*
X24447372Y36207588D01*
X24447372Y36207588D02*
X24923562Y36207588D01*
X25352134Y35007588D02*
X25352134Y36207588D01*
X25352134Y36207588D02*
X25923562Y35007588D01*
X25923562Y35007588D02*
X25923562Y36207588D01*
X26399753Y36207588D02*
X26399753Y35236160D01*
X26399753Y35236160D02*
X26447372Y35121874D01*
X26447372Y35121874D02*
X26494991Y35064731D01*
X26494991Y35064731D02*
X26590229Y35007588D01*
X26590229Y35007588D02*
X26780705Y35007588D01*
X26780705Y35007588D02*
X26875943Y35064731D01*
X26875943Y35064731D02*
X26923562Y35121874D01*
X26923562Y35121874D02*
X26971181Y35236160D01*
X26971181Y35236160D02*
X26971181Y36207588D01*
X37220419Y12350788D02*
X37220419Y13550788D01*
X37220419Y13550788D02*
X37677562Y13550788D01*
X37677562Y13550788D02*
X37791847Y13493645D01*
X37791847Y13493645D02*
X37848990Y13436503D01*
X37848990Y13436503D02*
X37906133Y13322217D01*
X37906133Y13322217D02*
X37906133Y13150788D01*
X37906133Y13150788D02*
X37848990Y13036503D01*
X37848990Y13036503D02*
X37791847Y12979360D01*
X37791847Y12979360D02*
X37677562Y12922217D01*
X37677562Y12922217D02*
X37220419Y12922217D01*
X38648990Y13550788D02*
X38877562Y13550788D01*
X38877562Y13550788D02*
X38991847Y13493645D01*
X38991847Y13493645D02*
X39106133Y13379360D01*
X39106133Y13379360D02*
X39163276Y13150788D01*
X39163276Y13150788D02*
X39163276Y12750788D01*
X39163276Y12750788D02*
X39106133Y12522217D01*
X39106133Y12522217D02*
X38991847Y12407931D01*
X38991847Y12407931D02*
X38877562Y12350788D01*
X38877562Y12350788D02*
X38648990Y12350788D01*
X38648990Y12350788D02*
X38534705Y12407931D01*
X38534705Y12407931D02*
X38420419Y12522217D01*
X38420419Y12522217D02*
X38363276Y12750788D01*
X38363276Y12750788D02*
X38363276Y13150788D01*
X38363276Y13150788D02*
X38420419Y13379360D01*
X38420419Y13379360D02*
X38534705Y13493645D01*
X38534705Y13493645D02*
X38648990Y13550788D01*
X39563276Y13550788D02*
X39848990Y12350788D01*
X39848990Y12350788D02*
X40077562Y13207931D01*
X40077562Y13207931D02*
X40306133Y12350788D01*
X40306133Y12350788D02*
X40591848Y13550788D01*
X41048991Y12979360D02*
X41448991Y12979360D01*
X41620419Y12350788D02*
X41048991Y12350788D01*
X41048991Y12350788D02*
X41048991Y13550788D01*
X41048991Y13550788D02*
X41620419Y13550788D01*
X42820419Y12350788D02*
X42420419Y12922217D01*
X42134705Y12350788D02*
X42134705Y13550788D01*
X42134705Y13550788D02*
X42591848Y13550788D01*
X42591848Y13550788D02*
X42706133Y13493645D01*
X42706133Y13493645D02*
X42763276Y13436503D01*
X42763276Y13436503D02*
X42820419Y13322217D01*
X42820419Y13322217D02*
X42820419Y13150788D01*
X42820419Y13150788D02*
X42763276Y13036503D01*
X42763276Y13036503D02*
X42706133Y12979360D01*
X42706133Y12979360D02*
X42591848Y12922217D01*
X42591848Y12922217D02*
X42134705Y12922217D01*
X24139191Y49263188D02*
X24139191Y48291760D01*
X24139191Y48291760D02*
X24196334Y48177474D01*
X24196334Y48177474D02*
X24253477Y48120331D01*
X24253477Y48120331D02*
X24367762Y48063188D01*
X24367762Y48063188D02*
X24596334Y48063188D01*
X24596334Y48063188D02*
X24710619Y48120331D01*
X24710619Y48120331D02*
X24767762Y48177474D01*
X24767762Y48177474D02*
X24824905Y48291760D01*
X24824905Y48291760D02*
X24824905Y49263188D01*
X25396334Y48063188D02*
X25396334Y49263188D01*
X25396334Y49263188D02*
X25853477Y49263188D01*
X25853477Y49263188D02*
X25967762Y49206045D01*
X25967762Y49206045D02*
X26024905Y49148903D01*
X26024905Y49148903D02*
X26082048Y49034617D01*
X26082048Y49034617D02*
X26082048Y48863188D01*
X26082048Y48863188D02*
X26024905Y48748903D01*
X26024905Y48748903D02*
X25967762Y48691760D01*
X25967762Y48691760D02*
X25853477Y48634617D01*
X25853477Y48634617D02*
X25396334Y48634617D01*
X9743905Y36309188D02*
X10143905Y35109188D01*
X10143905Y35109188D02*
X10543905Y36309188D01*
X11172476Y36309188D02*
X11401048Y36309188D01*
X11401048Y36309188D02*
X11515333Y36252045D01*
X11515333Y36252045D02*
X11629619Y36137760D01*
X11629619Y36137760D02*
X11686762Y35909188D01*
X11686762Y35909188D02*
X11686762Y35509188D01*
X11686762Y35509188D02*
X11629619Y35280617D01*
X11629619Y35280617D02*
X11515333Y35166331D01*
X11515333Y35166331D02*
X11401048Y35109188D01*
X11401048Y35109188D02*
X11172476Y35109188D01*
X11172476Y35109188D02*
X11058191Y35166331D01*
X11058191Y35166331D02*
X10943905Y35280617D01*
X10943905Y35280617D02*
X10886762Y35509188D01*
X10886762Y35509188D02*
X10886762Y35909188D01*
X10886762Y35909188D02*
X10943905Y36137760D01*
X10943905Y36137760D02*
X11058191Y36252045D01*
X11058191Y36252045D02*
X11172476Y36309188D01*
X12772476Y35109188D02*
X12201048Y35109188D01*
X12201048Y35109188D02*
X12201048Y36309188D01*
X13172477Y35566331D02*
X14086763Y35566331D01*
D10*
X12440324Y10682236D02*
X12440324Y10644141D01*
X12478419Y10758426D02*
X12478419Y10644141D01*
X12516514Y10834617D02*
X12516514Y10644141D01*
X12554609Y10910807D02*
X12554609Y10644141D01*
X12592705Y10948903D02*
X12592705Y10644141D01*
X12630800Y11025093D02*
X12630800Y10644141D01*
X12668895Y11101284D02*
X12668895Y10644141D01*
X12706990Y11177474D02*
X12706990Y10644141D01*
X12745086Y11253665D02*
X12745086Y10644141D01*
X12783181Y11177474D02*
X12783181Y10644141D01*
X12821276Y11101284D02*
X12821276Y10644141D01*
X12859371Y11025093D02*
X12859371Y10644141D01*
X12897467Y10948903D02*
X12897467Y10644141D01*
X12935562Y10910807D02*
X12935562Y10644141D01*
X12973657Y10834617D02*
X12973657Y10644141D01*
X13011752Y10758426D02*
X13011752Y10644141D01*
X13049848Y10644141D02*
X12745086Y11215569D01*
X12745086Y11215569D02*
X12440324Y10644141D01*
X13049848Y10682236D02*
X13049848Y10644141D01*
X12745086Y11253665D02*
X13087943Y10644141D01*
X13087943Y10644141D02*
X12402228Y10644141D01*
X12402228Y10644141D02*
X12745086Y11253665D01*
X11480324Y9348141D02*
X11480324Y10148141D01*
X11746990Y9881474D02*
X12051752Y9881474D01*
X11861276Y9348141D02*
X11861276Y10033855D01*
X11861276Y10033855D02*
X11899371Y10110045D01*
X11899371Y10110045D02*
X11975561Y10148141D01*
X11975561Y10148141D02*
X12051752Y10148141D01*
X12798419Y9881474D02*
X12798419Y9348141D01*
X12798419Y9805284D02*
X12836514Y9843379D01*
X12836514Y9843379D02*
X12912704Y9881474D01*
X12912704Y9881474D02*
X13026990Y9881474D01*
X13026990Y9881474D02*
X13103181Y9843379D01*
X13103181Y9843379D02*
X13141276Y9767188D01*
X13141276Y9767188D02*
X13141276Y9348141D01*
X13636514Y9348141D02*
X13560324Y9386236D01*
X13560324Y9386236D02*
X13522229Y9424331D01*
X13522229Y9424331D02*
X13484133Y9500522D01*
X13484133Y9500522D02*
X13484133Y9729093D01*
X13484133Y9729093D02*
X13522229Y9805284D01*
X13522229Y9805284D02*
X13560324Y9843379D01*
X13560324Y9843379D02*
X13636514Y9881474D01*
X13636514Y9881474D02*
X13750800Y9881474D01*
X13750800Y9881474D02*
X13826991Y9843379D01*
X13826991Y9843379D02*
X13865086Y9805284D01*
X13865086Y9805284D02*
X13903181Y9729093D01*
X13903181Y9729093D02*
X13903181Y9500522D01*
X13903181Y9500522D02*
X13865086Y9424331D01*
X13865086Y9424331D02*
X13826991Y9386236D01*
X13826991Y9386236D02*
X13750800Y9348141D01*
X13750800Y9348141D02*
X13636514Y9348141D01*
X14131753Y9881474D02*
X14436515Y9881474D01*
X14246039Y10148141D02*
X14246039Y9462426D01*
X14246039Y9462426D02*
X14284134Y9386236D01*
X14284134Y9386236D02*
X14360324Y9348141D01*
X14360324Y9348141D02*
X14436515Y9348141D01*
X15526039Y9881474D02*
X15526039Y9348141D01*
X15183182Y9881474D02*
X15183182Y9462426D01*
X15183182Y9462426D02*
X15221277Y9386236D01*
X15221277Y9386236D02*
X15297467Y9348141D01*
X15297467Y9348141D02*
X15411753Y9348141D01*
X15411753Y9348141D02*
X15487944Y9386236D01*
X15487944Y9386236D02*
X15526039Y9424331D01*
X15868896Y9386236D02*
X15945087Y9348141D01*
X15945087Y9348141D02*
X16097468Y9348141D01*
X16097468Y9348141D02*
X16173658Y9386236D01*
X16173658Y9386236D02*
X16211754Y9462426D01*
X16211754Y9462426D02*
X16211754Y9500522D01*
X16211754Y9500522D02*
X16173658Y9576712D01*
X16173658Y9576712D02*
X16097468Y9614807D01*
X16097468Y9614807D02*
X15983182Y9614807D01*
X15983182Y9614807D02*
X15906992Y9652903D01*
X15906992Y9652903D02*
X15868896Y9729093D01*
X15868896Y9729093D02*
X15868896Y9767188D01*
X15868896Y9767188D02*
X15906992Y9843379D01*
X15906992Y9843379D02*
X15983182Y9881474D01*
X15983182Y9881474D02*
X16097468Y9881474D01*
X16097468Y9881474D02*
X16173658Y9843379D01*
X16859373Y9386236D02*
X16783182Y9348141D01*
X16783182Y9348141D02*
X16630801Y9348141D01*
X16630801Y9348141D02*
X16554611Y9386236D01*
X16554611Y9386236D02*
X16516515Y9462426D01*
X16516515Y9462426D02*
X16516515Y9767188D01*
X16516515Y9767188D02*
X16554611Y9843379D01*
X16554611Y9843379D02*
X16630801Y9881474D01*
X16630801Y9881474D02*
X16783182Y9881474D01*
X16783182Y9881474D02*
X16859373Y9843379D01*
X16859373Y9843379D02*
X16897468Y9767188D01*
X16897468Y9767188D02*
X16897468Y9690998D01*
X16897468Y9690998D02*
X16516515Y9614807D01*
X17583182Y9348141D02*
X17583182Y10148141D01*
X17583182Y9386236D02*
X17506991Y9348141D01*
X17506991Y9348141D02*
X17354610Y9348141D01*
X17354610Y9348141D02*
X17278420Y9386236D01*
X17278420Y9386236D02*
X17240325Y9424331D01*
X17240325Y9424331D02*
X17202229Y9500522D01*
X17202229Y9500522D02*
X17202229Y9729093D01*
X17202229Y9729093D02*
X17240325Y9805284D01*
X17240325Y9805284D02*
X17278420Y9843379D01*
X17278420Y9843379D02*
X17354610Y9881474D01*
X17354610Y9881474D02*
X17506991Y9881474D01*
X17506991Y9881474D02*
X17583182Y9843379D01*
X18002230Y9386236D02*
X18002230Y9348141D01*
X18002230Y9348141D02*
X17964135Y9271950D01*
X17964135Y9271950D02*
X17926039Y9233855D01*
X11442228Y8090236D02*
X11556514Y8052141D01*
X11556514Y8052141D02*
X11746990Y8052141D01*
X11746990Y8052141D02*
X11823181Y8090236D01*
X11823181Y8090236D02*
X11861276Y8128331D01*
X11861276Y8128331D02*
X11899371Y8204522D01*
X11899371Y8204522D02*
X11899371Y8280712D01*
X11899371Y8280712D02*
X11861276Y8356903D01*
X11861276Y8356903D02*
X11823181Y8394998D01*
X11823181Y8394998D02*
X11746990Y8433093D01*
X11746990Y8433093D02*
X11594609Y8471188D01*
X11594609Y8471188D02*
X11518419Y8509284D01*
X11518419Y8509284D02*
X11480324Y8547379D01*
X11480324Y8547379D02*
X11442228Y8623569D01*
X11442228Y8623569D02*
X11442228Y8699760D01*
X11442228Y8699760D02*
X11480324Y8775950D01*
X11480324Y8775950D02*
X11518419Y8814045D01*
X11518419Y8814045D02*
X11594609Y8852141D01*
X11594609Y8852141D02*
X11785086Y8852141D01*
X11785086Y8852141D02*
X11899371Y8814045D01*
X12242229Y8052141D02*
X12242229Y8852141D01*
X12242229Y8471188D02*
X12699372Y8471188D01*
X12699372Y8052141D02*
X12699372Y8852141D01*
X13232705Y8852141D02*
X13385086Y8852141D01*
X13385086Y8852141D02*
X13461276Y8814045D01*
X13461276Y8814045D02*
X13537467Y8737855D01*
X13537467Y8737855D02*
X13575562Y8585474D01*
X13575562Y8585474D02*
X13575562Y8318807D01*
X13575562Y8318807D02*
X13537467Y8166426D01*
X13537467Y8166426D02*
X13461276Y8090236D01*
X13461276Y8090236D02*
X13385086Y8052141D01*
X13385086Y8052141D02*
X13232705Y8052141D01*
X13232705Y8052141D02*
X13156514Y8090236D01*
X13156514Y8090236D02*
X13080324Y8166426D01*
X13080324Y8166426D02*
X13042228Y8318807D01*
X13042228Y8318807D02*
X13042228Y8585474D01*
X13042228Y8585474D02*
X13080324Y8737855D01*
X13080324Y8737855D02*
X13156514Y8814045D01*
X13156514Y8814045D02*
X13232705Y8852141D01*
X14375562Y8052141D02*
X14108895Y8433093D01*
X13918419Y8052141D02*
X13918419Y8852141D01*
X13918419Y8852141D02*
X14223181Y8852141D01*
X14223181Y8852141D02*
X14299371Y8814045D01*
X14299371Y8814045D02*
X14337466Y8775950D01*
X14337466Y8775950D02*
X14375562Y8699760D01*
X14375562Y8699760D02*
X14375562Y8585474D01*
X14375562Y8585474D02*
X14337466Y8509284D01*
X14337466Y8509284D02*
X14299371Y8471188D01*
X14299371Y8471188D02*
X14223181Y8433093D01*
X14223181Y8433093D02*
X13918419Y8433093D01*
X14604133Y8852141D02*
X15061276Y8852141D01*
X14832704Y8052141D02*
X14832704Y8852141D01*
X15807943Y8052141D02*
X15807943Y8585474D01*
X15807943Y8852141D02*
X15769847Y8814045D01*
X15769847Y8814045D02*
X15807943Y8775950D01*
X15807943Y8775950D02*
X15846038Y8814045D01*
X15846038Y8814045D02*
X15807943Y8852141D01*
X15807943Y8852141D02*
X15807943Y8775950D01*
X16074609Y8585474D02*
X16379371Y8585474D01*
X16188895Y8852141D02*
X16188895Y8166426D01*
X16188895Y8166426D02*
X16226990Y8090236D01*
X16226990Y8090236D02*
X16303180Y8052141D01*
X16303180Y8052141D02*
X16379371Y8052141D01*
X16646038Y8128331D02*
X16684133Y8090236D01*
X16684133Y8090236D02*
X16646038Y8052141D01*
X16646038Y8052141D02*
X16607942Y8090236D01*
X16607942Y8090236D02*
X16646038Y8128331D01*
X16646038Y8128331D02*
X16646038Y8052141D01*
X28347752Y2403065D02*
X28347752Y2022113D01*
X28347752Y2022113D02*
X27547752Y2022113D01*
X28347752Y3126875D02*
X27966800Y2860208D01*
X28347752Y2669732D02*
X27547752Y2669732D01*
X27547752Y2669732D02*
X27547752Y2974494D01*
X27547752Y2974494D02*
X27585848Y3050684D01*
X27585848Y3050684D02*
X27623943Y3088779D01*
X27623943Y3088779D02*
X27700133Y3126875D01*
X27700133Y3126875D02*
X27814419Y3126875D01*
X27814419Y3126875D02*
X27890609Y3088779D01*
X27890609Y3088779D02*
X27928705Y3050684D01*
X27928705Y3050684D02*
X27966800Y2974494D01*
X27966800Y2974494D02*
X27966800Y2669732D01*
X6055543Y4739826D02*
X6055543Y5120778D01*
X6055543Y5120778D02*
X5674590Y5158874D01*
X5674590Y5158874D02*
X5712686Y5120778D01*
X5712686Y5120778D02*
X5750781Y5044588D01*
X5750781Y5044588D02*
X5750781Y4854112D01*
X5750781Y4854112D02*
X5712686Y4777921D01*
X5712686Y4777921D02*
X5674590Y4739826D01*
X5674590Y4739826D02*
X5598400Y4701731D01*
X5598400Y4701731D02*
X5407924Y4701731D01*
X5407924Y4701731D02*
X5331733Y4739826D01*
X5331733Y4739826D02*
X5293638Y4777921D01*
X5293638Y4777921D02*
X5255543Y4854112D01*
X5255543Y4854112D02*
X5255543Y5044588D01*
X5255543Y5044588D02*
X5293638Y5120778D01*
X5293638Y5120778D02*
X5331733Y5158874D01*
X6055543Y4473159D02*
X5255543Y4206492D01*
X5255543Y4206492D02*
X6055543Y3939826D01*
X6017448Y12404322D02*
X6055543Y12480512D01*
X6055543Y12480512D02*
X6055543Y12594798D01*
X6055543Y12594798D02*
X6017448Y12709084D01*
X6017448Y12709084D02*
X5941257Y12785274D01*
X5941257Y12785274D02*
X5865067Y12823369D01*
X5865067Y12823369D02*
X5712686Y12861465D01*
X5712686Y12861465D02*
X5598400Y12861465D01*
X5598400Y12861465D02*
X5446019Y12823369D01*
X5446019Y12823369D02*
X5369828Y12785274D01*
X5369828Y12785274D02*
X5293638Y12709084D01*
X5293638Y12709084D02*
X5255543Y12594798D01*
X5255543Y12594798D02*
X5255543Y12518607D01*
X5255543Y12518607D02*
X5293638Y12404322D01*
X5293638Y12404322D02*
X5331733Y12366226D01*
X5331733Y12366226D02*
X5598400Y12366226D01*
X5598400Y12366226D02*
X5598400Y12518607D01*
D12*
X7886324Y47463445D02*
X7810134Y47511065D01*
X7810134Y47511065D02*
X7695848Y47511065D01*
X7695848Y47511065D02*
X7581562Y47463445D01*
X7581562Y47463445D02*
X7505372Y47368207D01*
X7505372Y47368207D02*
X7467277Y47272969D01*
X7467277Y47272969D02*
X7429181Y47082493D01*
X7429181Y47082493D02*
X7429181Y46939636D01*
X7429181Y46939636D02*
X7467277Y46749160D01*
X7467277Y46749160D02*
X7505372Y46653922D01*
X7505372Y46653922D02*
X7581562Y46558684D01*
X7581562Y46558684D02*
X7695848Y46511065D01*
X7695848Y46511065D02*
X7772039Y46511065D01*
X7772039Y46511065D02*
X7886324Y46558684D01*
X7886324Y46558684D02*
X7924420Y46606303D01*
X7924420Y46606303D02*
X7924420Y46939636D01*
X7924420Y46939636D02*
X7772039Y46939636D01*
X8267277Y46511065D02*
X8267277Y47511065D01*
X8267277Y47511065D02*
X8724420Y46511065D01*
X8724420Y46511065D02*
X8724420Y47511065D01*
X9105372Y46511065D02*
X9105372Y47511065D01*
X9105372Y47511065D02*
X9295848Y47511065D01*
X9295848Y47511065D02*
X9410134Y47463445D01*
X9410134Y47463445D02*
X9486324Y47368207D01*
X9486324Y47368207D02*
X9524419Y47272969D01*
X9524419Y47272969D02*
X9562515Y47082493D01*
X9562515Y47082493D02*
X9562515Y46939636D01*
X9562515Y46939636D02*
X9524419Y46749160D01*
X9524419Y46749160D02*
X9486324Y46653922D01*
X9486324Y46653922D02*
X9410134Y46558684D01*
X9410134Y46558684D02*
X9295848Y46511065D01*
X9295848Y46511065D02*
X9105372Y46511065D01*
D10*
X7987943Y18126445D02*
X7892705Y18174065D01*
X7892705Y18174065D02*
X7749848Y18174065D01*
X7749848Y18174065D02*
X7606991Y18126445D01*
X7606991Y18126445D02*
X7511753Y18031207D01*
X7511753Y18031207D02*
X7464134Y17935969D01*
X7464134Y17935969D02*
X7416515Y17745493D01*
X7416515Y17745493D02*
X7416515Y17602636D01*
X7416515Y17602636D02*
X7464134Y17412160D01*
X7464134Y17412160D02*
X7511753Y17316922D01*
X7511753Y17316922D02*
X7606991Y17221684D01*
X7606991Y17221684D02*
X7749848Y17174065D01*
X7749848Y17174065D02*
X7845086Y17174065D01*
X7845086Y17174065D02*
X7987943Y17221684D01*
X7987943Y17221684D02*
X8035562Y17269303D01*
X8035562Y17269303D02*
X8035562Y17602636D01*
X8035562Y17602636D02*
X7845086Y17602636D01*
X8464134Y17174065D02*
X8464134Y18174065D01*
X8464134Y18174065D02*
X9035562Y17174065D01*
X9035562Y17174065D02*
X9035562Y18174065D01*
X9511753Y17174065D02*
X9511753Y18174065D01*
X9511753Y18174065D02*
X9749848Y18174065D01*
X9749848Y18174065D02*
X9892705Y18126445D01*
X9892705Y18126445D02*
X9987943Y18031207D01*
X9987943Y18031207D02*
X10035562Y17935969D01*
X10035562Y17935969D02*
X10083181Y17745493D01*
X10083181Y17745493D02*
X10083181Y17602636D01*
X10083181Y17602636D02*
X10035562Y17412160D01*
X10035562Y17412160D02*
X9987943Y17316922D01*
X9987943Y17316922D02*
X9892705Y17221684D01*
X9892705Y17221684D02*
X9749848Y17174065D01*
X9749848Y17174065D02*
X9511753Y17174065D01*
D12*
X9969181Y50448065D02*
X9969181Y51448065D01*
X9969181Y51448065D02*
X10273943Y51448065D01*
X10273943Y51448065D02*
X10350133Y51400445D01*
X10350133Y51400445D02*
X10388228Y51352826D01*
X10388228Y51352826D02*
X10426324Y51257588D01*
X10426324Y51257588D02*
X10426324Y51114731D01*
X10426324Y51114731D02*
X10388228Y51019493D01*
X10388228Y51019493D02*
X10350133Y50971874D01*
X10350133Y50971874D02*
X10273943Y50924255D01*
X10273943Y50924255D02*
X9969181Y50924255D01*
X10692990Y51448065D02*
X10883466Y50448065D01*
X10883466Y50448065D02*
X11035847Y51162350D01*
X11035847Y51162350D02*
X11188228Y50448065D01*
X11188228Y50448065D02*
X11378705Y51448065D01*
X12140610Y50448065D02*
X11873943Y50924255D01*
X11683467Y50448065D02*
X11683467Y51448065D01*
X11683467Y51448065D02*
X11988229Y51448065D01*
X11988229Y51448065D02*
X12064419Y51400445D01*
X12064419Y51400445D02*
X12102514Y51352826D01*
X12102514Y51352826D02*
X12140610Y51257588D01*
X12140610Y51257588D02*
X12140610Y51114731D01*
X12140610Y51114731D02*
X12102514Y51019493D01*
X12102514Y51019493D02*
X12064419Y50971874D01*
X12064419Y50971874D02*
X11988229Y50924255D01*
X11988229Y50924255D02*
X11683467Y50924255D01*
D10*
X17068324Y5767588D02*
X17334990Y5767588D01*
X17449276Y5348541D02*
X17068324Y5348541D01*
X17068324Y5348541D02*
X17068324Y6148541D01*
X17068324Y6148541D02*
X17449276Y6148541D01*
X18211181Y5348541D02*
X17754038Y5348541D01*
X17982610Y5348541D02*
X17982610Y6148541D01*
X17982610Y6148541D02*
X17906419Y6034255D01*
X17906419Y6034255D02*
X17830229Y5958065D01*
X17830229Y5958065D02*
X17754038Y5919969D01*
X19034039Y5653303D02*
X19643563Y5653303D01*
X20847372Y5881874D02*
X20847372Y5348541D01*
X20656896Y6186636D02*
X20466419Y5615207D01*
X20466419Y5615207D02*
X20961658Y5615207D01*
X21190229Y6148541D02*
X21723563Y6148541D01*
X21723563Y6148541D02*
X21380705Y5348541D01*
X22371182Y5881874D02*
X22371182Y5348541D01*
X22028325Y5881874D02*
X22028325Y5462826D01*
X22028325Y5462826D02*
X22066420Y5386636D01*
X22066420Y5386636D02*
X22142610Y5348541D01*
X22142610Y5348541D02*
X22256896Y5348541D01*
X22256896Y5348541D02*
X22333087Y5386636D01*
X22333087Y5386636D02*
X22371182Y5424731D01*
X23018801Y5767588D02*
X22752135Y5767588D01*
X22752135Y5348541D02*
X22752135Y6148541D01*
X22752135Y6148541D02*
X23133087Y6148541D01*
X17525467Y4128731D02*
X17487371Y4090636D01*
X17487371Y4090636D02*
X17373086Y4052541D01*
X17373086Y4052541D02*
X17296895Y4052541D01*
X17296895Y4052541D02*
X17182609Y4090636D01*
X17182609Y4090636D02*
X17106419Y4166826D01*
X17106419Y4166826D02*
X17068324Y4243017D01*
X17068324Y4243017D02*
X17030228Y4395398D01*
X17030228Y4395398D02*
X17030228Y4509684D01*
X17030228Y4509684D02*
X17068324Y4662065D01*
X17068324Y4662065D02*
X17106419Y4738255D01*
X17106419Y4738255D02*
X17182609Y4814445D01*
X17182609Y4814445D02*
X17296895Y4852541D01*
X17296895Y4852541D02*
X17373086Y4852541D01*
X17373086Y4852541D02*
X17487371Y4814445D01*
X17487371Y4814445D02*
X17525467Y4776350D01*
X18287371Y4052541D02*
X17830228Y4052541D01*
X18058800Y4052541D02*
X18058800Y4852541D01*
X18058800Y4852541D02*
X17982609Y4738255D01*
X17982609Y4738255D02*
X17906419Y4662065D01*
X17906419Y4662065D02*
X17830228Y4623969D01*
X19110229Y4357303D02*
X19719753Y4357303D01*
X20733086Y4852541D02*
X20809276Y4852541D01*
X20809276Y4852541D02*
X20885467Y4814445D01*
X20885467Y4814445D02*
X20923562Y4776350D01*
X20923562Y4776350D02*
X20961657Y4700160D01*
X20961657Y4700160D02*
X20999752Y4547779D01*
X20999752Y4547779D02*
X20999752Y4357303D01*
X20999752Y4357303D02*
X20961657Y4204922D01*
X20961657Y4204922D02*
X20923562Y4128731D01*
X20923562Y4128731D02*
X20885467Y4090636D01*
X20885467Y4090636D02*
X20809276Y4052541D01*
X20809276Y4052541D02*
X20733086Y4052541D01*
X20733086Y4052541D02*
X20656895Y4090636D01*
X20656895Y4090636D02*
X20618800Y4128731D01*
X20618800Y4128731D02*
X20580705Y4204922D01*
X20580705Y4204922D02*
X20542609Y4357303D01*
X20542609Y4357303D02*
X20542609Y4547779D01*
X20542609Y4547779D02*
X20580705Y4700160D01*
X20580705Y4700160D02*
X20618800Y4776350D01*
X20618800Y4776350D02*
X20656895Y4814445D01*
X20656895Y4814445D02*
X20733086Y4852541D01*
X21342610Y4128731D02*
X21380705Y4090636D01*
X21380705Y4090636D02*
X21342610Y4052541D01*
X21342610Y4052541D02*
X21304514Y4090636D01*
X21304514Y4090636D02*
X21342610Y4128731D01*
X21342610Y4128731D02*
X21342610Y4052541D01*
X22142609Y4052541D02*
X21685466Y4052541D01*
X21914038Y4052541D02*
X21914038Y4852541D01*
X21914038Y4852541D02*
X21837847Y4738255D01*
X21837847Y4738255D02*
X21761657Y4662065D01*
X21761657Y4662065D02*
X21685466Y4623969D01*
X22828324Y4585874D02*
X22828324Y4052541D01*
X22485467Y4585874D02*
X22485467Y4166826D01*
X22485467Y4166826D02*
X22523562Y4090636D01*
X22523562Y4090636D02*
X22599752Y4052541D01*
X22599752Y4052541D02*
X22714038Y4052541D01*
X22714038Y4052541D02*
X22790229Y4090636D01*
X22790229Y4090636D02*
X22828324Y4128731D01*
X23475943Y4471588D02*
X23209277Y4471588D01*
X23209277Y4052541D02*
X23209277Y4852541D01*
X23209277Y4852541D02*
X23590229Y4852541D01*
X17525467Y2832731D02*
X17487371Y2794636D01*
X17487371Y2794636D02*
X17373086Y2756541D01*
X17373086Y2756541D02*
X17296895Y2756541D01*
X17296895Y2756541D02*
X17182609Y2794636D01*
X17182609Y2794636D02*
X17106419Y2870826D01*
X17106419Y2870826D02*
X17068324Y2947017D01*
X17068324Y2947017D02*
X17030228Y3099398D01*
X17030228Y3099398D02*
X17030228Y3213684D01*
X17030228Y3213684D02*
X17068324Y3366065D01*
X17068324Y3366065D02*
X17106419Y3442255D01*
X17106419Y3442255D02*
X17182609Y3518445D01*
X17182609Y3518445D02*
X17296895Y3556541D01*
X17296895Y3556541D02*
X17373086Y3556541D01*
X17373086Y3556541D02*
X17487371Y3518445D01*
X17487371Y3518445D02*
X17525467Y3480350D01*
X17830228Y3480350D02*
X17868324Y3518445D01*
X17868324Y3518445D02*
X17944514Y3556541D01*
X17944514Y3556541D02*
X18134990Y3556541D01*
X18134990Y3556541D02*
X18211181Y3518445D01*
X18211181Y3518445D02*
X18249276Y3480350D01*
X18249276Y3480350D02*
X18287371Y3404160D01*
X18287371Y3404160D02*
X18287371Y3327969D01*
X18287371Y3327969D02*
X18249276Y3213684D01*
X18249276Y3213684D02*
X17792133Y2756541D01*
X17792133Y2756541D02*
X18287371Y2756541D01*
X19110229Y3061303D02*
X19719753Y3061303D01*
X20961657Y3556541D02*
X20580705Y3556541D01*
X20580705Y3556541D02*
X20542609Y3175588D01*
X20542609Y3175588D02*
X20580705Y3213684D01*
X20580705Y3213684D02*
X20656895Y3251779D01*
X20656895Y3251779D02*
X20847371Y3251779D01*
X20847371Y3251779D02*
X20923562Y3213684D01*
X20923562Y3213684D02*
X20961657Y3175588D01*
X20961657Y3175588D02*
X20999752Y3099398D01*
X20999752Y3099398D02*
X20999752Y2908922D01*
X20999752Y2908922D02*
X20961657Y2832731D01*
X20961657Y2832731D02*
X20923562Y2794636D01*
X20923562Y2794636D02*
X20847371Y2756541D01*
X20847371Y2756541D02*
X20656895Y2756541D01*
X20656895Y2756541D02*
X20580705Y2794636D01*
X20580705Y2794636D02*
X20542609Y2832731D01*
X21685467Y3556541D02*
X21533086Y3556541D01*
X21533086Y3556541D02*
X21456895Y3518445D01*
X21456895Y3518445D02*
X21418800Y3480350D01*
X21418800Y3480350D02*
X21342610Y3366065D01*
X21342610Y3366065D02*
X21304514Y3213684D01*
X21304514Y3213684D02*
X21304514Y2908922D01*
X21304514Y2908922D02*
X21342610Y2832731D01*
X21342610Y2832731D02*
X21380705Y2794636D01*
X21380705Y2794636D02*
X21456895Y2756541D01*
X21456895Y2756541D02*
X21609276Y2756541D01*
X21609276Y2756541D02*
X21685467Y2794636D01*
X21685467Y2794636D02*
X21723562Y2832731D01*
X21723562Y2832731D02*
X21761657Y2908922D01*
X21761657Y2908922D02*
X21761657Y3099398D01*
X21761657Y3099398D02*
X21723562Y3175588D01*
X21723562Y3175588D02*
X21685467Y3213684D01*
X21685467Y3213684D02*
X21609276Y3251779D01*
X21609276Y3251779D02*
X21456895Y3251779D01*
X21456895Y3251779D02*
X21380705Y3213684D01*
X21380705Y3213684D02*
X21342610Y3175588D01*
X21342610Y3175588D02*
X21304514Y3099398D01*
X22256896Y3556541D02*
X22333086Y3556541D01*
X22333086Y3556541D02*
X22409277Y3518445D01*
X22409277Y3518445D02*
X22447372Y3480350D01*
X22447372Y3480350D02*
X22485467Y3404160D01*
X22485467Y3404160D02*
X22523562Y3251779D01*
X22523562Y3251779D02*
X22523562Y3061303D01*
X22523562Y3061303D02*
X22485467Y2908922D01*
X22485467Y2908922D02*
X22447372Y2832731D01*
X22447372Y2832731D02*
X22409277Y2794636D01*
X22409277Y2794636D02*
X22333086Y2756541D01*
X22333086Y2756541D02*
X22256896Y2756541D01*
X22256896Y2756541D02*
X22180705Y2794636D01*
X22180705Y2794636D02*
X22142610Y2832731D01*
X22142610Y2832731D02*
X22104515Y2908922D01*
X22104515Y2908922D02*
X22066419Y3061303D01*
X22066419Y3061303D02*
X22066419Y3251779D01*
X22066419Y3251779D02*
X22104515Y3404160D01*
X22104515Y3404160D02*
X22142610Y3480350D01*
X22142610Y3480350D02*
X22180705Y3518445D01*
X22180705Y3518445D02*
X22256896Y3556541D01*
X22866420Y3289874D02*
X22866420Y2489874D01*
X22866420Y3251779D02*
X22942610Y3289874D01*
X22942610Y3289874D02*
X23094991Y3289874D01*
X23094991Y3289874D02*
X23171182Y3251779D01*
X23171182Y3251779D02*
X23209277Y3213684D01*
X23209277Y3213684D02*
X23247372Y3137493D01*
X23247372Y3137493D02*
X23247372Y2908922D01*
X23247372Y2908922D02*
X23209277Y2832731D01*
X23209277Y2832731D02*
X23171182Y2794636D01*
X23171182Y2794636D02*
X23094991Y2756541D01*
X23094991Y2756541D02*
X22942610Y2756541D01*
X22942610Y2756541D02*
X22866420Y2794636D01*
X23856896Y3175588D02*
X23590230Y3175588D01*
X23590230Y2756541D02*
X23590230Y3556541D01*
X23590230Y3556541D02*
X23971182Y3556541D01*
X17525467Y1460541D02*
X17258800Y1841493D01*
X17068324Y1460541D02*
X17068324Y2260541D01*
X17068324Y2260541D02*
X17373086Y2260541D01*
X17373086Y2260541D02*
X17449276Y2222445D01*
X17449276Y2222445D02*
X17487371Y2184350D01*
X17487371Y2184350D02*
X17525467Y2108160D01*
X17525467Y2108160D02*
X17525467Y1993874D01*
X17525467Y1993874D02*
X17487371Y1917684D01*
X17487371Y1917684D02*
X17449276Y1879588D01*
X17449276Y1879588D02*
X17373086Y1841493D01*
X17373086Y1841493D02*
X17068324Y1841493D01*
X18287371Y1460541D02*
X17830228Y1460541D01*
X18058800Y1460541D02*
X18058800Y2260541D01*
X18058800Y2260541D02*
X17982609Y2146255D01*
X17982609Y2146255D02*
X17906419Y2070065D01*
X17906419Y2070065D02*
X17830228Y2031969D01*
X19110229Y1765303D02*
X19719753Y1765303D01*
X20961657Y2260541D02*
X20580705Y2260541D01*
X20580705Y2260541D02*
X20542609Y1879588D01*
X20542609Y1879588D02*
X20580705Y1917684D01*
X20580705Y1917684D02*
X20656895Y1955779D01*
X20656895Y1955779D02*
X20847371Y1955779D01*
X20847371Y1955779D02*
X20923562Y1917684D01*
X20923562Y1917684D02*
X20961657Y1879588D01*
X20961657Y1879588D02*
X20999752Y1803398D01*
X20999752Y1803398D02*
X20999752Y1612922D01*
X20999752Y1612922D02*
X20961657Y1536731D01*
X20961657Y1536731D02*
X20923562Y1498636D01*
X20923562Y1498636D02*
X20847371Y1460541D01*
X20847371Y1460541D02*
X20656895Y1460541D01*
X20656895Y1460541D02*
X20580705Y1498636D01*
X20580705Y1498636D02*
X20542609Y1536731D01*
X21342610Y1536731D02*
X21380705Y1498636D01*
X21380705Y1498636D02*
X21342610Y1460541D01*
X21342610Y1460541D02*
X21304514Y1498636D01*
X21304514Y1498636D02*
X21342610Y1536731D01*
X21342610Y1536731D02*
X21342610Y1460541D01*
X22142609Y1460541D02*
X21685466Y1460541D01*
X21914038Y1460541D02*
X21914038Y2260541D01*
X21914038Y2260541D02*
X21837847Y2146255D01*
X21837847Y2146255D02*
X21761657Y2070065D01*
X21761657Y2070065D02*
X21685466Y2031969D01*
X22485467Y1460541D02*
X22485467Y2260541D01*
X22561657Y1765303D02*
X22790229Y1460541D01*
X22790229Y1993874D02*
X22485467Y1689112D01*
D11*
X35728105Y36283788D02*
X36128105Y35083788D01*
X36128105Y35083788D02*
X36528105Y36283788D01*
X37156676Y36283788D02*
X37385248Y36283788D01*
X37385248Y36283788D02*
X37499533Y36226645D01*
X37499533Y36226645D02*
X37613819Y36112360D01*
X37613819Y36112360D02*
X37670962Y35883788D01*
X37670962Y35883788D02*
X37670962Y35483788D01*
X37670962Y35483788D02*
X37613819Y35255217D01*
X37613819Y35255217D02*
X37499533Y35140931D01*
X37499533Y35140931D02*
X37385248Y35083788D01*
X37385248Y35083788D02*
X37156676Y35083788D01*
X37156676Y35083788D02*
X37042391Y35140931D01*
X37042391Y35140931D02*
X36928105Y35255217D01*
X36928105Y35255217D02*
X36870962Y35483788D01*
X36870962Y35483788D02*
X36870962Y35883788D01*
X36870962Y35883788D02*
X36928105Y36112360D01*
X36928105Y36112360D02*
X37042391Y36226645D01*
X37042391Y36226645D02*
X37156676Y36283788D01*
X38756676Y35083788D02*
X38185248Y35083788D01*
X38185248Y35083788D02*
X38185248Y36283788D01*
X39156677Y35540931D02*
X40070963Y35540931D01*
X39613820Y35083788D02*
X39613820Y35998074D01*
D10*
%TO.C,D1*%
X12477372Y12167541D02*
X12477372Y12967541D01*
X12477372Y12967541D02*
X12667848Y12967541D01*
X12667848Y12967541D02*
X12782134Y12929445D01*
X12782134Y12929445D02*
X12858324Y12853255D01*
X12858324Y12853255D02*
X12896419Y12777065D01*
X12896419Y12777065D02*
X12934515Y12624684D01*
X12934515Y12624684D02*
X12934515Y12510398D01*
X12934515Y12510398D02*
X12896419Y12358017D01*
X12896419Y12358017D02*
X12858324Y12281826D01*
X12858324Y12281826D02*
X12782134Y12205636D01*
X12782134Y12205636D02*
X12667848Y12167541D01*
X12667848Y12167541D02*
X12477372Y12167541D01*
X13696419Y12167541D02*
X13239276Y12167541D01*
X13467848Y12167541D02*
X13467848Y12967541D01*
X13467848Y12967541D02*
X13391657Y12853255D01*
X13391657Y12853255D02*
X13315467Y12777065D01*
X13315467Y12777065D02*
X13239276Y12738969D01*
%TO.C,U1*%
X6719752Y6365522D02*
X7367371Y6365522D01*
X7367371Y6365522D02*
X7443562Y6403617D01*
X7443562Y6403617D02*
X7481657Y6441712D01*
X7481657Y6441712D02*
X7519752Y6517903D01*
X7519752Y6517903D02*
X7519752Y6670284D01*
X7519752Y6670284D02*
X7481657Y6746474D01*
X7481657Y6746474D02*
X7443562Y6784569D01*
X7443562Y6784569D02*
X7367371Y6822665D01*
X7367371Y6822665D02*
X6719752Y6822665D01*
X7519752Y7622664D02*
X7519752Y7165521D01*
X7519752Y7394093D02*
X6719752Y7394093D01*
X6719752Y7394093D02*
X6834038Y7317902D01*
X6834038Y7317902D02*
X6910228Y7241712D01*
X6910228Y7241712D02*
X6948324Y7165521D01*
%TO.C,D2*%
X32792752Y4504970D02*
X31992752Y4504970D01*
X31992752Y4504970D02*
X31992752Y4695446D01*
X31992752Y4695446D02*
X32030848Y4809732D01*
X32030848Y4809732D02*
X32107038Y4885922D01*
X32107038Y4885922D02*
X32183228Y4924017D01*
X32183228Y4924017D02*
X32335609Y4962113D01*
X32335609Y4962113D02*
X32449895Y4962113D01*
X32449895Y4962113D02*
X32602276Y4924017D01*
X32602276Y4924017D02*
X32678467Y4885922D01*
X32678467Y4885922D02*
X32754657Y4809732D01*
X32754657Y4809732D02*
X32792752Y4695446D01*
X32792752Y4695446D02*
X32792752Y4504970D01*
X32068943Y5266874D02*
X32030848Y5304970D01*
X32030848Y5304970D02*
X31992752Y5381160D01*
X31992752Y5381160D02*
X31992752Y5571636D01*
X31992752Y5571636D02*
X32030848Y5647827D01*
X32030848Y5647827D02*
X32068943Y5685922D01*
X32068943Y5685922D02*
X32145133Y5724017D01*
X32145133Y5724017D02*
X32221324Y5724017D01*
X32221324Y5724017D02*
X32335609Y5685922D01*
X32335609Y5685922D02*
X32792752Y5228779D01*
X32792752Y5228779D02*
X32792752Y5724017D01*
%TO.C,SW6*%
X38945180Y5220636D02*
X39059466Y5182541D01*
X39059466Y5182541D02*
X39249942Y5182541D01*
X39249942Y5182541D02*
X39326133Y5220636D01*
X39326133Y5220636D02*
X39364228Y5258731D01*
X39364228Y5258731D02*
X39402323Y5334922D01*
X39402323Y5334922D02*
X39402323Y5411112D01*
X39402323Y5411112D02*
X39364228Y5487303D01*
X39364228Y5487303D02*
X39326133Y5525398D01*
X39326133Y5525398D02*
X39249942Y5563493D01*
X39249942Y5563493D02*
X39097561Y5601588D01*
X39097561Y5601588D02*
X39021371Y5639684D01*
X39021371Y5639684D02*
X38983276Y5677779D01*
X38983276Y5677779D02*
X38945180Y5753969D01*
X38945180Y5753969D02*
X38945180Y5830160D01*
X38945180Y5830160D02*
X38983276Y5906350D01*
X38983276Y5906350D02*
X39021371Y5944445D01*
X39021371Y5944445D02*
X39097561Y5982541D01*
X39097561Y5982541D02*
X39288038Y5982541D01*
X39288038Y5982541D02*
X39402323Y5944445D01*
X39668990Y5982541D02*
X39859466Y5182541D01*
X39859466Y5182541D02*
X40011847Y5753969D01*
X40011847Y5753969D02*
X40164228Y5182541D01*
X40164228Y5182541D02*
X40354705Y5982541D01*
X41002324Y5982541D02*
X40849943Y5982541D01*
X40849943Y5982541D02*
X40773752Y5944445D01*
X40773752Y5944445D02*
X40735657Y5906350D01*
X40735657Y5906350D02*
X40659467Y5792065D01*
X40659467Y5792065D02*
X40621371Y5639684D01*
X40621371Y5639684D02*
X40621371Y5334922D01*
X40621371Y5334922D02*
X40659467Y5258731D01*
X40659467Y5258731D02*
X40697562Y5220636D01*
X40697562Y5220636D02*
X40773752Y5182541D01*
X40773752Y5182541D02*
X40926133Y5182541D01*
X40926133Y5182541D02*
X41002324Y5220636D01*
X41002324Y5220636D02*
X41040419Y5258731D01*
X41040419Y5258731D02*
X41078514Y5334922D01*
X41078514Y5334922D02*
X41078514Y5525398D01*
X41078514Y5525398D02*
X41040419Y5601588D01*
X41040419Y5601588D02*
X41002324Y5639684D01*
X41002324Y5639684D02*
X40926133Y5677779D01*
X40926133Y5677779D02*
X40773752Y5677779D01*
X40773752Y5677779D02*
X40697562Y5639684D01*
X40697562Y5639684D02*
X40659467Y5601588D01*
X40659467Y5601588D02*
X40621371Y5525398D01*
%TO.C,E1*%
X28517467Y13221588D02*
X28784133Y13221588D01*
X28898419Y12802541D02*
X28517467Y12802541D01*
X28517467Y12802541D02*
X28517467Y13602541D01*
X28517467Y13602541D02*
X28898419Y13602541D01*
X29660324Y12802541D02*
X29203181Y12802541D01*
X29431753Y12802541D02*
X29431753Y13602541D01*
X29431753Y13602541D02*
X29355562Y13488255D01*
X29355562Y13488255D02*
X29279372Y13412065D01*
X29279372Y13412065D02*
X29203181Y13373969D01*
%TO.C,R1*%
X17070152Y12353513D02*
X16689200Y12086846D01*
X17070152Y11896370D02*
X16270152Y11896370D01*
X16270152Y11896370D02*
X16270152Y12201132D01*
X16270152Y12201132D02*
X16308248Y12277322D01*
X16308248Y12277322D02*
X16346343Y12315417D01*
X16346343Y12315417D02*
X16422533Y12353513D01*
X16422533Y12353513D02*
X16536819Y12353513D01*
X16536819Y12353513D02*
X16613009Y12315417D01*
X16613009Y12315417D02*
X16651105Y12277322D01*
X16651105Y12277322D02*
X16689200Y12201132D01*
X16689200Y12201132D02*
X16689200Y11896370D01*
X17070152Y13115417D02*
X17070152Y12658274D01*
X17070152Y12886846D02*
X16270152Y12886846D01*
X16270152Y12886846D02*
X16384438Y12810655D01*
X16384438Y12810655D02*
X16460628Y12734465D01*
X16460628Y12734465D02*
X16498724Y12658274D01*
%TO.C,C1*%
X22332515Y10084731D02*
X22294419Y10046636D01*
X22294419Y10046636D02*
X22180134Y10008541D01*
X22180134Y10008541D02*
X22103943Y10008541D01*
X22103943Y10008541D02*
X21989657Y10046636D01*
X21989657Y10046636D02*
X21913467Y10122826D01*
X21913467Y10122826D02*
X21875372Y10199017D01*
X21875372Y10199017D02*
X21837276Y10351398D01*
X21837276Y10351398D02*
X21837276Y10465684D01*
X21837276Y10465684D02*
X21875372Y10618065D01*
X21875372Y10618065D02*
X21913467Y10694255D01*
X21913467Y10694255D02*
X21989657Y10770445D01*
X21989657Y10770445D02*
X22103943Y10808541D01*
X22103943Y10808541D02*
X22180134Y10808541D01*
X22180134Y10808541D02*
X22294419Y10770445D01*
X22294419Y10770445D02*
X22332515Y10732350D01*
X23094419Y10008541D02*
X22637276Y10008541D01*
X22865848Y10008541D02*
X22865848Y10808541D01*
X22865848Y10808541D02*
X22789657Y10694255D01*
X22789657Y10694255D02*
X22713467Y10618065D01*
X22713467Y10618065D02*
X22637276Y10579969D01*
%TO.C,C2*%
X20097315Y10084731D02*
X20059219Y10046636D01*
X20059219Y10046636D02*
X19944934Y10008541D01*
X19944934Y10008541D02*
X19868743Y10008541D01*
X19868743Y10008541D02*
X19754457Y10046636D01*
X19754457Y10046636D02*
X19678267Y10122826D01*
X19678267Y10122826D02*
X19640172Y10199017D01*
X19640172Y10199017D02*
X19602076Y10351398D01*
X19602076Y10351398D02*
X19602076Y10465684D01*
X19602076Y10465684D02*
X19640172Y10618065D01*
X19640172Y10618065D02*
X19678267Y10694255D01*
X19678267Y10694255D02*
X19754457Y10770445D01*
X19754457Y10770445D02*
X19868743Y10808541D01*
X19868743Y10808541D02*
X19944934Y10808541D01*
X19944934Y10808541D02*
X20059219Y10770445D01*
X20059219Y10770445D02*
X20097315Y10732350D01*
X20402076Y10732350D02*
X20440172Y10770445D01*
X20440172Y10770445D02*
X20516362Y10808541D01*
X20516362Y10808541D02*
X20706838Y10808541D01*
X20706838Y10808541D02*
X20783029Y10770445D01*
X20783029Y10770445D02*
X20821124Y10732350D01*
X20821124Y10732350D02*
X20859219Y10656160D01*
X20859219Y10656160D02*
X20859219Y10579969D01*
X20859219Y10579969D02*
X20821124Y10465684D01*
X20821124Y10465684D02*
X20363981Y10008541D01*
X20363981Y10008541D02*
X20859219Y10008541D01*
D13*
%TO.C,D1*%
X11317848Y11351445D02*
X15727848Y11351445D01*
X15727848Y11351445D02*
X15727848Y13571445D01*
X15727848Y13571445D02*
X11317848Y13571445D01*
%TO.C,SW1*%
X5861848Y30888445D02*
X5861848Y43188445D01*
X8261848Y30888445D02*
X5861848Y30888445D01*
X13311848Y30888445D02*
X10761848Y30888445D01*
X18161848Y30888445D02*
X15761848Y30888445D01*
X5861848Y43188445D02*
X8261848Y43188445D01*
X10761848Y43188445D02*
X13261848Y43188445D01*
X15761848Y43188445D02*
X18161848Y43188445D01*
X18161848Y43188445D02*
X18161848Y30888445D01*
X16590898Y37038445D02*
G75*
G03*
X16590898Y37038445I-4579050J0D01*
G01*
%TO.C,U1*%
X10894848Y4273445D02*
X10894848Y6873445D01*
X10544848Y4273445D02*
X10894848Y4273445D01*
X8224848Y4273445D02*
X7884848Y4273445D01*
X7884848Y4273445D02*
X7884848Y9363445D01*
X7883112Y8973361D02*
G75*
G03*
X7884848Y4773446I101736J-2099916D01*
G01*
%TO.C,D2*%
X28468848Y3535445D02*
X28624848Y3535445D01*
X30784848Y3535445D02*
X30940848Y3535445D01*
X28626240Y6767779D02*
G75*
G03*
X28469333Y3535446I1078608J-1672334D01*
G01*
X28625012Y6136574D02*
G75*
G03*
X28624849Y4054485I1079836J-1041129D01*
G01*
X30784847Y4054485D02*
G75*
G03*
X30784684Y6136574I-1079999J1040960D01*
G01*
X30940363Y3535446D02*
G75*
G03*
X30783456Y6767779I-1235515J1559999D01*
G01*
%TO.C,SW6*%
X40761848Y10501645D02*
X39261848Y10501645D01*
X36761848Y9251645D02*
X36761848Y4751645D01*
X43261848Y4751645D02*
X43261848Y9251645D01*
X39261848Y3501645D02*
X40761848Y3501645D01*
%TO.C,TP2*%
X6905848Y48910445D02*
G75*
G03*
X6905848Y48910445I-950000J0D01*
G01*
%TO.C,SW5*%
X44141848Y43198445D02*
X44141848Y30898445D01*
X41741848Y43198445D02*
X44141848Y43198445D01*
X36691848Y43198445D02*
X39241848Y43198445D01*
X31841848Y43198445D02*
X34241848Y43198445D01*
X44141848Y30898445D02*
X41741848Y30898445D01*
X39241848Y30898445D02*
X36741848Y30898445D01*
X34241848Y30898445D02*
X31841848Y30898445D01*
X31841848Y30898445D02*
X31841848Y43198445D01*
X42570898Y37048445D02*
G75*
G03*
X42570898Y37048445I-4579050J0D01*
G01*
%TO.C,TP1*%
X11985848Y48910445D02*
G75*
G03*
X11985848Y48910445I-950000J0D01*
G01*
%TO.C,TP3*%
X9445848Y48910445D02*
G75*
G03*
X9445848Y48910445I-950000J0D01*
G01*
%TO.C,SW4*%
X31141848Y17858445D02*
X18841848Y17858445D01*
X31141848Y20258445D02*
X31141848Y17858445D01*
X31141848Y25308445D02*
X31141848Y22758445D01*
X31141848Y30158445D02*
X31141848Y27758445D01*
X18841848Y17858445D02*
X18841848Y20258445D01*
X18841848Y22758445D02*
X18841848Y25258445D01*
X18841848Y27758445D02*
X18841848Y30158445D01*
X18841848Y30158445D02*
X31141848Y30158445D01*
X29570898Y24008445D02*
G75*
G03*
X29570898Y24008445I-4579050J0D01*
G01*
%TO.C,E1*%
X24672848Y13132445D02*
X25172848Y13132445D01*
X24922848Y13382445D02*
X24922848Y12882445D01*
X25412848Y12768008D02*
X25412848Y12632445D01*
X25412848Y12768008D02*
X26477285Y13832445D01*
X25412848Y10376882D02*
X25412848Y10512445D01*
X25412848Y10376882D02*
X26477285Y9312445D01*
X26477285Y13832445D02*
X29932848Y13832445D01*
X26477285Y9312445D02*
X29932848Y9312445D01*
X29932848Y13832445D02*
X29932848Y12632445D01*
X29932848Y9312445D02*
X29932848Y10512445D01*
%TO.C,SW2*%
X18851848Y56138445D02*
X31151848Y56138445D01*
X18851848Y53738445D02*
X18851848Y56138445D01*
X18851848Y48688445D02*
X18851848Y51238445D01*
X18851848Y43838445D02*
X18851848Y46238445D01*
X31151848Y56138445D02*
X31151848Y53738445D01*
X31151848Y51238445D02*
X31151848Y48738445D01*
X31151848Y46238445D02*
X31151848Y43838445D01*
X31151848Y43838445D02*
X18851848Y43838445D01*
X29580898Y49988445D02*
G75*
G03*
X29580898Y49988445I-4579050J0D01*
G01*
%TO.C,R1*%
X17311248Y12259781D02*
X17311248Y12713909D01*
X18781248Y12259781D02*
X18781248Y12713909D01*
%TO.C,C1*%
X21730848Y12225593D02*
X21730848Y12748097D01*
X23200848Y12225593D02*
X23200848Y12748097D01*
%TO.C,TP4*%
X9949848Y19700445D02*
G75*
G03*
X9949848Y19700445I-1200000J0D01*
G01*
%TO.C,C2*%
X19495648Y12225593D02*
X19495648Y12748097D01*
X20965648Y12225593D02*
X20965648Y12748097D01*
%TO.C,SW3*%
X18851848Y43168445D02*
X31151848Y43168445D01*
X18851848Y40768445D02*
X18851848Y43168445D01*
X18851848Y35718445D02*
X18851848Y38268445D01*
X18851848Y30868445D02*
X18851848Y33268445D01*
X31151848Y43168445D02*
X31151848Y40768445D01*
X31151848Y38268445D02*
X31151848Y35768445D01*
X31151848Y33268445D02*
X31151848Y30868445D01*
X31151848Y30868445D02*
X18851848Y30868445D01*
X29580898Y37018445D02*
G75*
G03*
X29580898Y37018445I-4579050J0D01*
G01*
%TD*%
%LPC*%
D14*
%TO.C,D1*%
X14817848Y12461445D03*
X11317848Y12461445D03*
%TD*%
D15*
%TO.C,SW1*%
X9511847Y30788444D03*
X9511847Y43288444D03*
X14511847Y30788444D03*
X14511847Y43288444D03*
%TD*%
D16*
%TO.C,U1*%
X9384848Y9413445D03*
D17*
X9384848Y6873445D03*
X9384848Y4333445D03*
%TD*%
D18*
%TO.C,D2*%
X29704847Y2555444D03*
D17*
X29704848Y5095445D03*
X29704848Y7635445D03*
%TD*%
D19*
%TO.C,SW6*%
X42261848Y10251645D03*
X42261848Y3751645D03*
X37761848Y10251645D03*
X37761848Y3751645D03*
%TD*%
D20*
%TO.C,TP2*%
X5955848Y48910445D03*
%TD*%
D15*
%TO.C,SW5*%
X40491847Y43298444D03*
X40491847Y30798444D03*
X35491847Y43298444D03*
X35491847Y30798444D03*
%TD*%
D20*
%TO.C,TP1*%
X11035848Y48910445D03*
%TD*%
%TO.C,TP3*%
X8495848Y48910445D03*
%TD*%
D21*
%TO.C,SW4*%
X31241847Y21508444D03*
X18741847Y21508444D03*
X31241847Y26508444D03*
X18741847Y26508444D03*
%TD*%
D22*
%TO.C,E1*%
X25872848Y11572445D03*
X29472848Y11572445D03*
%TD*%
D21*
%TO.C,SW2*%
X18751847Y52488444D03*
X31251847Y52488444D03*
X18751847Y47488444D03*
X31251847Y47488444D03*
%TD*%
D23*
%TO.C,R1*%
X18046248Y11486845D03*
X18046248Y13486845D03*
%TD*%
D24*
%TO.C,C1*%
X22465848Y11449345D03*
X22465848Y13524345D03*
%TD*%
D19*
%TO.C,TP4*%
X8749848Y19700445D03*
%TD*%
D24*
%TO.C,C2*%
X20230648Y11449345D03*
X20230648Y13524345D03*
%TD*%
D21*
%TO.C,SW3*%
X18751847Y39518444D03*
X31251847Y39518444D03*
X18751847Y34518444D03*
X31251847Y34518444D03*
%TD*%
D25*
%TO.C,J4*%
X1637847Y2144444D03*
D26*
X1637847Y4684444D03*
X1637847Y7224444D03*
X1637847Y9764444D03*
X1637847Y12304444D03*
%TD*%
D27*
%TO.C,J1*%
X4177847Y23713644D03*
D28*
X4177847Y25713644D03*
X4177847Y27713644D03*
X4177847Y29713644D03*
X4177847Y31713644D03*
X4177847Y33713644D03*
X4177847Y35713644D03*
X4177847Y37713644D03*
X4177847Y39713644D03*
%TD*%
D25*
%TO.C,J2*%
X1637847Y24018444D03*
D26*
X1637847Y26558444D03*
X1637847Y29098444D03*
X1637847Y31638444D03*
X1637847Y34178444D03*
X1637847Y36718444D03*
X1637847Y39258444D03*
X1637847Y41798444D03*
X1637847Y44338444D03*
%TD*%
D27*
%TO.C,J3*%
X4177847Y4587444D03*
D28*
X4177847Y6587444D03*
X4177847Y8587444D03*
X4177847Y10587444D03*
X4177847Y12587444D03*
%TD*%
M02*
