%TF.GenerationSoftware,KiCad,Pcbnew,7.0.1*%
%TF.CreationDate,2023-03-28T22:02:51+09:00*%
%TF.ProjectId,monitor_osd_control,6d6f6e69-746f-4725-9f6f-73645f636f6e,5*%
%TF.SameCoordinates,PX7ab0ef8PY7236868*%
%TF.FileFunction,Copper,L2,Bot*%
%TF.FilePolarity,Positive*%
%FSLAX46Y46*%
G04 Gerber Fmt 4.6, Leading zero omitted, Abs format (unit mm)*
G04 Created by KiCad (PCBNEW 7.0.1) date 2023-03-28 22:02:51*
%MOMM*%
%LPD*%
G01*
G04 APERTURE LIST*
G04 Aperture macros list*
%AMRoundRect*
0 Rectangle with rounded corners*
0 $1 Rounding radius*
0 $2 $3 $4 $5 $6 $7 $8 $9 X,Y pos of 4 corners*
0 Add a 4 corners polygon primitive as box body*
4,1,4,$2,$3,$4,$5,$6,$7,$8,$9,$2,$3,0*
0 Add four circle primitives for the rounded corners*
1,1,$1+$1,$2,$3*
1,1,$1+$1,$4,$5*
1,1,$1+$1,$6,$7*
1,1,$1+$1,$8,$9*
0 Add four rect primitives between the rounded corners*
20,1,$1+$1,$2,$3,$4,$5,0*
20,1,$1+$1,$4,$5,$6,$7,0*
20,1,$1+$1,$6,$7,$8,$9,0*
20,1,$1+$1,$8,$9,$2,$3,0*%
G04 Aperture macros list end*
%TA.AperFunction,ComponentPad*%
%ADD10O,1.850000X3.048000*%
%TD*%
%TA.AperFunction,ComponentPad*%
%ADD11C,2.000000*%
%TD*%
%TA.AperFunction,ComponentPad*%
%ADD12RoundRect,0.250200X-0.649800X0.649800X-0.649800X-0.649800X0.649800X-0.649800X0.649800X0.649800X0*%
%TD*%
%TA.AperFunction,ComponentPad*%
%ADD13C,1.800000*%
%TD*%
%TA.AperFunction,ComponentPad*%
%ADD14R,1.800000X1.800000*%
%TD*%
%TA.AperFunction,ComponentPad*%
%ADD15C,1.500000*%
%TD*%
%TA.AperFunction,ComponentPad*%
%ADD16O,3.048000X1.850000*%
%TD*%
%TA.AperFunction,ComponentPad*%
%ADD17R,1.700000X1.700000*%
%TD*%
%TA.AperFunction,ComponentPad*%
%ADD18O,1.700000X1.700000*%
%TD*%
%TA.AperFunction,ComponentPad*%
%ADD19R,1.350000X1.350000*%
%TD*%
%TA.AperFunction,ComponentPad*%
%ADD20O,1.350000X1.350000*%
%TD*%
%TA.AperFunction,ViaPad*%
%ADD21C,0.800000*%
%TD*%
%TA.AperFunction,Conductor*%
%ADD22C,0.250000*%
%TD*%
%TA.AperFunction,Conductor*%
%ADD23C,0.500000*%
%TD*%
G04 APERTURE END LIST*
D10*
%TO.P,SW1,1,1*%
%TO.N,/VOL_M*%
X9525000Y30773000D03*
D11*
X9773400Y33771200D03*
X9773400Y40271200D03*
D10*
X9525000Y43273000D03*
%TO.P,SW1,2,2*%
%TO.N,GND*%
X14525000Y30773000D03*
D11*
X14273400Y33771200D03*
X14273400Y40271200D03*
D10*
X14525000Y43273000D03*
%TD*%
D12*
%TO.P,U1,1,OUT*%
%TO.N,/IRIN*%
X9398000Y9398000D03*
D13*
%TO.P,U1,2,GND*%
%TO.N,GND*%
X9398000Y6858000D03*
%TO.P,U1,3,Vs*%
%TO.N,Net-(C1-Pad1)*%
X9398000Y4318000D03*
%TD*%
D14*
%TO.P,D2,1,A1*%
%TO.N,/LED_R*%
X29718000Y2540000D03*
D13*
%TO.P,D2,2,K*%
%TO.N,GND*%
X29718000Y5080000D03*
%TO.P,D2,3,A2*%
%TO.N,/LED_G*%
X29718000Y7620000D03*
%TD*%
D11*
%TO.P,SW6,1,1*%
%TO.N,/POWER*%
X42275000Y10236200D03*
X42275000Y3736200D03*
%TO.P,SW6,2,2*%
%TO.N,GND*%
X37775000Y10236200D03*
X37775000Y3736200D03*
%TD*%
D15*
%TO.P,TP2,1,1*%
%TO.N,/SOURCE*%
X5969000Y48895000D03*
%TD*%
D10*
%TO.P,SW5,1,1*%
%TO.N,/VOL_P*%
X40505000Y43283000D03*
D11*
X40256600Y40284800D03*
X40256600Y33784800D03*
D10*
X40505000Y30783000D03*
%TO.P,SW5,2,2*%
%TO.N,GND*%
X35505000Y43283000D03*
D11*
X35756600Y40284800D03*
X35756600Y33784800D03*
D10*
X35505000Y30783000D03*
%TD*%
D15*
%TO.P,TP1,1,1*%
%TO.N,/POWER*%
X11049000Y48895000D03*
%TD*%
%TO.P,TP3,1,1*%
%TO.N,GND*%
X8509000Y48895000D03*
%TD*%
D16*
%TO.P,SW4,1,1*%
%TO.N,/DOWN*%
X31255000Y21493000D03*
D11*
X28256800Y21741400D03*
X21756800Y21741400D03*
D16*
X18755000Y21493000D03*
%TO.P,SW4,2,2*%
%TO.N,GND*%
X31255000Y26493000D03*
D11*
X28256800Y26241400D03*
X21756800Y26241400D03*
D16*
X18755000Y26493000D03*
%TD*%
%TO.P,SW2,1,1*%
%TO.N,/UP*%
X18765000Y52473000D03*
D11*
X21763200Y52224600D03*
X28263200Y52224600D03*
D16*
X31265000Y52473000D03*
%TO.P,SW2,2,2*%
%TO.N,GND*%
X18765000Y47473000D03*
D11*
X21763200Y47724600D03*
X28263200Y47724600D03*
D16*
X31265000Y47473000D03*
%TD*%
D11*
%TO.P,TP4,1,1*%
%TO.N,GND*%
X8763000Y19685000D03*
%TD*%
D16*
%TO.P,SW3,1,1*%
%TO.N,/MENU*%
X18765000Y39503000D03*
D11*
X21763200Y39254600D03*
X28263200Y39254600D03*
D16*
X31265000Y39503000D03*
%TO.P,SW3,2,2*%
%TO.N,GND*%
X18765000Y34503000D03*
D11*
X21763200Y34754600D03*
X28263200Y34754600D03*
D16*
X31265000Y34503000D03*
%TD*%
D17*
%TO.P,J4,1,Pin_1*%
%TO.N,+5V*%
X1651000Y2129000D03*
D18*
%TO.P,J4,2,Pin_2*%
%TO.N,/LED_R*%
X1651000Y4669000D03*
%TO.P,J4,3,Pin_3*%
%TO.N,/LED_G*%
X1651000Y7209000D03*
%TO.P,J4,4,Pin_4*%
%TO.N,/IRIN*%
X1651000Y9749000D03*
%TO.P,J4,5,Pin_5*%
%TO.N,GND*%
X1651000Y12289000D03*
%TD*%
D19*
%TO.P,J1,1,Pin_1*%
%TO.N,GND*%
X4191000Y23698200D03*
D20*
%TO.P,J1,2,Pin_2*%
%TO.N,/SOURCE*%
X4191000Y25698200D03*
%TO.P,J1,3,Pin_3*%
%TO.N,/UP*%
X4191000Y27698200D03*
%TO.P,J1,4,Pin_4*%
%TO.N,/DOWN*%
X4191000Y29698200D03*
%TO.P,J1,5,Pin_5*%
%TO.N,/VOL_P*%
X4191000Y31698200D03*
%TO.P,J1,6,Pin_6*%
%TO.N,/VOL_M*%
X4191000Y33698200D03*
%TO.P,J1,7,Pin_7*%
%TO.N,/MENU*%
X4191000Y35698200D03*
%TO.P,J1,8,Pin_8*%
%TO.N,/POWER*%
X4191000Y37698200D03*
%TO.P,J1,9,Pin_9*%
%TO.N,GND*%
X4191000Y39698200D03*
%TD*%
D17*
%TO.P,J2,1,Pin_1*%
%TO.N,GND*%
X1651000Y24003000D03*
D18*
%TO.P,J2,2,Pin_2*%
%TO.N,/SOURCE*%
X1651000Y26543000D03*
%TO.P,J2,3,Pin_3*%
%TO.N,/UP*%
X1651000Y29083000D03*
%TO.P,J2,4,Pin_4*%
%TO.N,/DOWN*%
X1651000Y31623000D03*
%TO.P,J2,5,Pin_5*%
%TO.N,/VOL_P*%
X1651000Y34163000D03*
%TO.P,J2,6,Pin_6*%
%TO.N,/VOL_M*%
X1651000Y36703000D03*
%TO.P,J2,7,Pin_7*%
%TO.N,/MENU*%
X1651000Y39243000D03*
%TO.P,J2,8,Pin_8*%
%TO.N,/POWER*%
X1651000Y41783000D03*
%TO.P,J2,9,Pin_9*%
%TO.N,GND*%
X1651000Y44323000D03*
%TD*%
D19*
%TO.P,J3,1,Pin_1*%
%TO.N,+5V*%
X4191000Y4572000D03*
D20*
%TO.P,J3,2,Pin_2*%
%TO.N,/LED_R*%
X4191000Y6572000D03*
%TO.P,J3,3,Pin_3*%
%TO.N,/LED_G*%
X4191000Y8572000D03*
%TO.P,J3,4,Pin_4*%
%TO.N,/IRIN*%
X4191000Y10572000D03*
%TO.P,J3,5,Pin_5*%
%TO.N,GND*%
X4191000Y12572000D03*
%TD*%
D21*
%TO.N,/SOURCE*%
X5969000Y28676600D03*
%TO.N,/IRIN*%
X16510000Y11388688D03*
%TO.N,Net-(C1-Pad1)*%
X12192000Y1524000D03*
%TD*%
D22*
%TO.N,/SOURCE*%
X5969000Y28676600D02*
X5969000Y48895000D01*
%TO.N,/UP*%
X4191000Y27698200D02*
X15811000Y27698200D01*
X19685000Y28752800D02*
X23317200Y32385000D01*
X23317200Y50670600D02*
X21763200Y52224600D01*
X15811000Y27698200D02*
X16865600Y28752800D01*
X23317200Y32385000D02*
X23317200Y50670600D01*
X16865600Y28752800D02*
X19685000Y28752800D01*
D23*
%TO.N,GND*%
X31255000Y26493000D02*
X35505000Y30743000D01*
X29210000Y4572000D02*
X29718000Y5080000D01*
X8509000Y48895000D02*
X8509000Y48463200D01*
X35455000Y43283000D02*
X35505000Y43283000D01*
X35505000Y30743000D02*
X35505000Y30783000D01*
X9398000Y6858000D02*
X12192000Y6858000D01*
X13699200Y43273000D02*
X14525000Y43273000D01*
X35505000Y30783000D02*
X31785000Y34503000D01*
X4749800Y23698200D02*
X4191000Y23698200D01*
X12192000Y6858000D02*
X14478000Y4572000D01*
X4191000Y23698200D02*
X15960200Y23698200D01*
X14525000Y30773000D02*
X18259800Y34507800D01*
X14478000Y4572000D02*
X29210000Y4572000D01*
X14525000Y43273000D02*
X18725000Y47473000D01*
X31785000Y34503000D02*
X31265000Y34503000D01*
X15960200Y23698200D02*
X18755000Y26493000D01*
X18259800Y34507800D02*
X18779000Y34507800D01*
X37775000Y10236200D02*
X37775000Y19973000D01*
X31265000Y47473000D02*
X35455000Y43283000D01*
X18725000Y47473000D02*
X18765000Y47473000D01*
X8509000Y48463200D02*
X13699200Y43273000D01*
X37775000Y19973000D02*
X31255000Y26493000D01*
X8763000Y19685000D02*
X4749800Y23698200D01*
D22*
%TO.N,/LED_R*%
X4604000Y6572000D02*
X5588000Y5588000D01*
X12065000Y5588000D02*
X15113000Y2540000D01*
X1651000Y4669000D02*
X3554000Y6572000D01*
X15113000Y2540000D02*
X29718000Y2540000D01*
X5588000Y5588000D02*
X12065000Y5588000D01*
X3554000Y6572000D02*
X4191000Y6572000D01*
X4191000Y6572000D02*
X4604000Y6572000D01*
%TO.N,/LED_G*%
X1651000Y7209000D02*
X2828000Y7209000D01*
X4191000Y8572000D02*
X4635000Y8128000D01*
X12827000Y8890000D02*
X28448000Y8890000D01*
X2828000Y7209000D02*
X4191000Y8572000D01*
X12065000Y8128000D02*
X12827000Y8890000D01*
X4635000Y8128000D02*
X12065000Y8128000D01*
X28448000Y8890000D02*
X29718000Y7620000D01*
%TO.N,/IRIN*%
X14519312Y9398000D02*
X9398000Y9398000D01*
X4191000Y10572000D02*
X5334000Y9429000D01*
X5334000Y9429000D02*
X9367000Y9429000D01*
X1651000Y9749000D02*
X3368000Y9749000D01*
X3368000Y9749000D02*
X4191000Y10572000D01*
X16510000Y11388688D02*
X14519312Y9398000D01*
D23*
%TO.N,Net-(C1-Pad1)*%
X12192000Y1524000D02*
X9398000Y4318000D01*
%TD*%
M02*
