%TF.GenerationSoftware,KiCad,Pcbnew,7.0.1*%
%TF.CreationDate,2023-04-02T16:57:02+09:00*%
%TF.ProjectId,monitor_osd_control,6d6f6e69-746f-4725-9f6f-73645f636f6e,5*%
%TF.SameCoordinates,PX7ab0ef8PY7236868*%
%TF.FileFunction,Legend,Top*%
%TF.FilePolarity,Positive*%
%FSLAX46Y46*%
G04 Gerber Fmt 4.6, Leading zero omitted, Abs format (unit mm)*
G04 Created by KiCad (PCBNEW 7.0.1) date 2023-04-02 16:57:02*
%MOMM*%
%LPD*%
G01*
G04 APERTURE LIST*
G04 Aperture macros list*
%AMRoundRect*
0 Rectangle with rounded corners*
0 $1 Rounding radius*
0 $2 $3 $4 $5 $6 $7 $8 $9 X,Y pos of 4 corners*
0 Add a 4 corners polygon primitive as box body*
4,1,4,$2,$3,$4,$5,$6,$7,$8,$9,$2,$3,0*
0 Add four circle primitives for the rounded corners*
1,1,$1+$1,$2,$3*
1,1,$1+$1,$4,$5*
1,1,$1+$1,$6,$7*
1,1,$1+$1,$8,$9*
0 Add four rect primitives between the rounded corners*
20,1,$1+$1,$2,$3,$4,$5,0*
20,1,$1+$1,$4,$5,$6,$7,0*
20,1,$1+$1,$6,$7,$8,$9,0*
20,1,$1+$1,$8,$9,$2,$3,0*%
G04 Aperture macros list end*
%ADD10C,0.150000*%
%ADD11C,0.250000*%
%ADD12C,0.200000*%
%ADD13C,0.120000*%
%ADD14O,1.850000X3.048000*%
%ADD15C,2.000000*%
%ADD16RoundRect,0.250200X-0.649800X0.649800X-0.649800X-0.649800X0.649800X-0.649800X0.649800X0.649800X0*%
%ADD17C,1.800000*%
%ADD18R,1.800000X1.800000*%
%ADD19C,1.500000*%
%ADD20O,3.048000X1.850000*%
%ADD21RoundRect,0.250000X-1.250000X-0.550000X1.250000X-0.550000X1.250000X0.550000X-1.250000X0.550000X0*%
%ADD22RoundRect,0.250000X0.450000X-0.350000X0.450000X0.350000X-0.450000X0.350000X-0.450000X-0.350000X0*%
%ADD23RoundRect,0.250000X0.475000X-0.337500X0.475000X0.337500X-0.475000X0.337500X-0.475000X-0.337500X0*%
%ADD24RoundRect,0.250000X0.400000X0.600000X-0.400000X0.600000X-0.400000X-0.600000X0.400000X-0.600000X0*%
%ADD25R,1.700000X1.700000*%
%ADD26O,1.700000X1.700000*%
%ADD27R,1.350000X1.350000*%
%ADD28O,1.350000X1.350000*%
G04 APERTURE END LIST*
D10*
X36499800Y15392400D02*
X48996600Y15392400D01*
X25431866Y10348639D02*
X25431866Y9815305D01*
X25241390Y10653400D02*
X25050913Y10081972D01*
X25050913Y10081972D02*
X25546152Y10081972D01*
X25774723Y10615305D02*
X26308057Y10615305D01*
X26308057Y10615305D02*
X25965199Y9815305D01*
X26955676Y10348639D02*
X26955676Y9815305D01*
X26612819Y10348639D02*
X26612819Y9929591D01*
X26612819Y9929591D02*
X26650914Y9853400D01*
X26650914Y9853400D02*
X26727104Y9815305D01*
X26727104Y9815305D02*
X26841390Y9815305D01*
X26841390Y9815305D02*
X26917581Y9853400D01*
X26917581Y9853400D02*
X26955676Y9891496D01*
X27603295Y10234353D02*
X27336629Y10234353D01*
X27336629Y9815305D02*
X27336629Y10615305D01*
X27336629Y10615305D02*
X27717581Y10615305D01*
X5192504Y10966400D02*
X5992504Y10966400D01*
X5192504Y10128305D02*
X5573457Y10394972D01*
X5192504Y10585448D02*
X5992504Y10585448D01*
X5992504Y10585448D02*
X5992504Y10280686D01*
X5992504Y10280686D02*
X5954409Y10204496D01*
X5954409Y10204496D02*
X5916314Y10166401D01*
X5916314Y10166401D02*
X5840123Y10128305D01*
X5840123Y10128305D02*
X5725838Y10128305D01*
X5725838Y10128305D02*
X5649647Y10166401D01*
X5649647Y10166401D02*
X5611552Y10204496D01*
X5611552Y10204496D02*
X5573457Y10280686D01*
X5573457Y10280686D02*
X5573457Y10585448D01*
D11*
X23188848Y22016381D02*
X23188848Y23016381D01*
X23188848Y23016381D02*
X23426943Y23016381D01*
X23426943Y23016381D02*
X23569800Y22968762D01*
X23569800Y22968762D02*
X23665038Y22873524D01*
X23665038Y22873524D02*
X23712657Y22778286D01*
X23712657Y22778286D02*
X23760276Y22587810D01*
X23760276Y22587810D02*
X23760276Y22444953D01*
X23760276Y22444953D02*
X23712657Y22254477D01*
X23712657Y22254477D02*
X23665038Y22159239D01*
X23665038Y22159239D02*
X23569800Y22064000D01*
X23569800Y22064000D02*
X23426943Y22016381D01*
X23426943Y22016381D02*
X23188848Y22016381D01*
X24379324Y23016381D02*
X24569800Y23016381D01*
X24569800Y23016381D02*
X24665038Y22968762D01*
X24665038Y22968762D02*
X24760276Y22873524D01*
X24760276Y22873524D02*
X24807895Y22683048D01*
X24807895Y22683048D02*
X24807895Y22349715D01*
X24807895Y22349715D02*
X24760276Y22159239D01*
X24760276Y22159239D02*
X24665038Y22064000D01*
X24665038Y22064000D02*
X24569800Y22016381D01*
X24569800Y22016381D02*
X24379324Y22016381D01*
X24379324Y22016381D02*
X24284086Y22064000D01*
X24284086Y22064000D02*
X24188848Y22159239D01*
X24188848Y22159239D02*
X24141229Y22349715D01*
X24141229Y22349715D02*
X24141229Y22683048D01*
X24141229Y22683048D02*
X24188848Y22873524D01*
X24188848Y22873524D02*
X24284086Y22968762D01*
X24284086Y22968762D02*
X24379324Y23016381D01*
X25141229Y23016381D02*
X25379324Y22016381D01*
X25379324Y22016381D02*
X25569800Y22730667D01*
X25569800Y22730667D02*
X25760276Y22016381D01*
X25760276Y22016381D02*
X25998372Y23016381D01*
X26379324Y22016381D02*
X26379324Y23016381D01*
X26379324Y23016381D02*
X26950752Y22016381D01*
X26950752Y22016381D02*
X26950752Y23016381D01*
D10*
X28437095Y7467620D02*
X28437095Y7086668D01*
X28437095Y7086668D02*
X27637095Y7086668D01*
X27675190Y8153334D02*
X27637095Y8077144D01*
X27637095Y8077144D02*
X27637095Y7962858D01*
X27637095Y7962858D02*
X27675190Y7848572D01*
X27675190Y7848572D02*
X27751380Y7772382D01*
X27751380Y7772382D02*
X27827571Y7734287D01*
X27827571Y7734287D02*
X27979952Y7696191D01*
X27979952Y7696191D02*
X28094238Y7696191D01*
X28094238Y7696191D02*
X28246619Y7734287D01*
X28246619Y7734287D02*
X28322809Y7772382D01*
X28322809Y7772382D02*
X28399000Y7848572D01*
X28399000Y7848572D02*
X28437095Y7962858D01*
X28437095Y7962858D02*
X28437095Y8039049D01*
X28437095Y8039049D02*
X28399000Y8153334D01*
X28399000Y8153334D02*
X28360904Y8191430D01*
X28360904Y8191430D02*
X28094238Y8191430D01*
X28094238Y8191430D02*
X28094238Y8039049D01*
D12*
X4940428Y50385000D02*
X5054714Y50337381D01*
X5054714Y50337381D02*
X5245190Y50337381D01*
X5245190Y50337381D02*
X5321381Y50385000D01*
X5321381Y50385000D02*
X5359476Y50432620D01*
X5359476Y50432620D02*
X5397571Y50527858D01*
X5397571Y50527858D02*
X5397571Y50623096D01*
X5397571Y50623096D02*
X5359476Y50718334D01*
X5359476Y50718334D02*
X5321381Y50765953D01*
X5321381Y50765953D02*
X5245190Y50813572D01*
X5245190Y50813572D02*
X5092809Y50861191D01*
X5092809Y50861191D02*
X5016619Y50908810D01*
X5016619Y50908810D02*
X4978524Y50956429D01*
X4978524Y50956429D02*
X4940428Y51051667D01*
X4940428Y51051667D02*
X4940428Y51146905D01*
X4940428Y51146905D02*
X4978524Y51242143D01*
X4978524Y51242143D02*
X5016619Y51289762D01*
X5016619Y51289762D02*
X5092809Y51337381D01*
X5092809Y51337381D02*
X5283286Y51337381D01*
X5283286Y51337381D02*
X5397571Y51289762D01*
X6197572Y50337381D02*
X5930905Y50813572D01*
X5740429Y50337381D02*
X5740429Y51337381D01*
X5740429Y51337381D02*
X6045191Y51337381D01*
X6045191Y51337381D02*
X6121381Y51289762D01*
X6121381Y51289762D02*
X6159476Y51242143D01*
X6159476Y51242143D02*
X6197572Y51146905D01*
X6197572Y51146905D02*
X6197572Y51004048D01*
X6197572Y51004048D02*
X6159476Y50908810D01*
X6159476Y50908810D02*
X6121381Y50861191D01*
X6121381Y50861191D02*
X6045191Y50813572D01*
X6045191Y50813572D02*
X5740429Y50813572D01*
X6997572Y50432620D02*
X6959476Y50385000D01*
X6959476Y50385000D02*
X6845191Y50337381D01*
X6845191Y50337381D02*
X6769000Y50337381D01*
X6769000Y50337381D02*
X6654714Y50385000D01*
X6654714Y50385000D02*
X6578524Y50480239D01*
X6578524Y50480239D02*
X6540429Y50575477D01*
X6540429Y50575477D02*
X6502333Y50765953D01*
X6502333Y50765953D02*
X6502333Y50908810D01*
X6502333Y50908810D02*
X6540429Y51099286D01*
X6540429Y51099286D02*
X6578524Y51194524D01*
X6578524Y51194524D02*
X6654714Y51289762D01*
X6654714Y51289762D02*
X6769000Y51337381D01*
X6769000Y51337381D02*
X6845191Y51337381D01*
X6845191Y51337381D02*
X6959476Y51289762D01*
X6959476Y51289762D02*
X6997572Y51242143D01*
D11*
X23317667Y34970381D02*
X23317667Y35970381D01*
X23317667Y35970381D02*
X23651000Y35256096D01*
X23651000Y35256096D02*
X23984333Y35970381D01*
X23984333Y35970381D02*
X23984333Y34970381D01*
X24460524Y35494191D02*
X24793857Y35494191D01*
X24936714Y34970381D02*
X24460524Y34970381D01*
X24460524Y34970381D02*
X24460524Y35970381D01*
X24460524Y35970381D02*
X24936714Y35970381D01*
X25365286Y34970381D02*
X25365286Y35970381D01*
X25365286Y35970381D02*
X25936714Y34970381D01*
X25936714Y34970381D02*
X25936714Y35970381D01*
X26412905Y35970381D02*
X26412905Y35160858D01*
X26412905Y35160858D02*
X26460524Y35065620D01*
X26460524Y35065620D02*
X26508143Y35018000D01*
X26508143Y35018000D02*
X26603381Y34970381D01*
X26603381Y34970381D02*
X26793857Y34970381D01*
X26793857Y34970381D02*
X26889095Y35018000D01*
X26889095Y35018000D02*
X26936714Y35065620D01*
X26936714Y35065620D02*
X26984333Y35160858D01*
X26984333Y35160858D02*
X26984333Y35970381D01*
X37233571Y12221058D02*
X37233571Y13421058D01*
X37233571Y13421058D02*
X37690714Y13421058D01*
X37690714Y13421058D02*
X37804999Y13363915D01*
X37804999Y13363915D02*
X37862142Y13306772D01*
X37862142Y13306772D02*
X37919285Y13192486D01*
X37919285Y13192486D02*
X37919285Y13021058D01*
X37919285Y13021058D02*
X37862142Y12906772D01*
X37862142Y12906772D02*
X37804999Y12849629D01*
X37804999Y12849629D02*
X37690714Y12792486D01*
X37690714Y12792486D02*
X37233571Y12792486D01*
X38662142Y13421058D02*
X38890714Y13421058D01*
X38890714Y13421058D02*
X39004999Y13363915D01*
X39004999Y13363915D02*
X39119285Y13249629D01*
X39119285Y13249629D02*
X39176428Y13021058D01*
X39176428Y13021058D02*
X39176428Y12621058D01*
X39176428Y12621058D02*
X39119285Y12392486D01*
X39119285Y12392486D02*
X39004999Y12278200D01*
X39004999Y12278200D02*
X38890714Y12221058D01*
X38890714Y12221058D02*
X38662142Y12221058D01*
X38662142Y12221058D02*
X38547857Y12278200D01*
X38547857Y12278200D02*
X38433571Y12392486D01*
X38433571Y12392486D02*
X38376428Y12621058D01*
X38376428Y12621058D02*
X38376428Y13021058D01*
X38376428Y13021058D02*
X38433571Y13249629D01*
X38433571Y13249629D02*
X38547857Y13363915D01*
X38547857Y13363915D02*
X38662142Y13421058D01*
X39576428Y13421058D02*
X39862142Y12221058D01*
X39862142Y12221058D02*
X40090714Y13078200D01*
X40090714Y13078200D02*
X40319285Y12221058D01*
X40319285Y12221058D02*
X40605000Y13421058D01*
X41062143Y12849629D02*
X41462143Y12849629D01*
X41633571Y12221058D02*
X41062143Y12221058D01*
X41062143Y12221058D02*
X41062143Y13421058D01*
X41062143Y13421058D02*
X41633571Y13421058D01*
X42833571Y12221058D02*
X42433571Y12792486D01*
X42147857Y12221058D02*
X42147857Y13421058D01*
X42147857Y13421058D02*
X42605000Y13421058D01*
X42605000Y13421058D02*
X42719285Y13363915D01*
X42719285Y13363915D02*
X42776428Y13306772D01*
X42776428Y13306772D02*
X42833571Y13192486D01*
X42833571Y13192486D02*
X42833571Y13021058D01*
X42833571Y13021058D02*
X42776428Y12906772D01*
X42776428Y12906772D02*
X42719285Y12849629D01*
X42719285Y12849629D02*
X42605000Y12792486D01*
X42605000Y12792486D02*
X42147857Y12792486D01*
X24309486Y49025981D02*
X24309486Y48216458D01*
X24309486Y48216458D02*
X24357105Y48121220D01*
X24357105Y48121220D02*
X24404724Y48073600D01*
X24404724Y48073600D02*
X24499962Y48025981D01*
X24499962Y48025981D02*
X24690438Y48025981D01*
X24690438Y48025981D02*
X24785676Y48073600D01*
X24785676Y48073600D02*
X24833295Y48121220D01*
X24833295Y48121220D02*
X24880914Y48216458D01*
X24880914Y48216458D02*
X24880914Y49025981D01*
X25357105Y48025981D02*
X25357105Y49025981D01*
X25357105Y49025981D02*
X25738057Y49025981D01*
X25738057Y49025981D02*
X25833295Y48978362D01*
X25833295Y48978362D02*
X25880914Y48930743D01*
X25880914Y48930743D02*
X25928533Y48835505D01*
X25928533Y48835505D02*
X25928533Y48692648D01*
X25928533Y48692648D02*
X25880914Y48597410D01*
X25880914Y48597410D02*
X25833295Y48549791D01*
X25833295Y48549791D02*
X25738057Y48502172D01*
X25738057Y48502172D02*
X25357105Y48502172D01*
X10133248Y36071981D02*
X10466581Y35071981D01*
X10466581Y35071981D02*
X10799914Y36071981D01*
X11323724Y36071981D02*
X11514200Y36071981D01*
X11514200Y36071981D02*
X11609438Y36024362D01*
X11609438Y36024362D02*
X11704676Y35929124D01*
X11704676Y35929124D02*
X11752295Y35738648D01*
X11752295Y35738648D02*
X11752295Y35405315D01*
X11752295Y35405315D02*
X11704676Y35214839D01*
X11704676Y35214839D02*
X11609438Y35119600D01*
X11609438Y35119600D02*
X11514200Y35071981D01*
X11514200Y35071981D02*
X11323724Y35071981D01*
X11323724Y35071981D02*
X11228486Y35119600D01*
X11228486Y35119600D02*
X11133248Y35214839D01*
X11133248Y35214839D02*
X11085629Y35405315D01*
X11085629Y35405315D02*
X11085629Y35738648D01*
X11085629Y35738648D02*
X11133248Y35929124D01*
X11133248Y35929124D02*
X11228486Y36024362D01*
X11228486Y36024362D02*
X11323724Y36071981D01*
X12657057Y35071981D02*
X12180867Y35071981D01*
X12180867Y35071981D02*
X12180867Y36071981D01*
X12990391Y35452934D02*
X13752296Y35452934D01*
D10*
X11849000Y10565200D02*
X11849000Y10527105D01*
X11887095Y10641391D02*
X11887095Y10527105D01*
X11925190Y10717581D02*
X11925190Y10527105D01*
X11963285Y10793772D02*
X11963285Y10527105D01*
X12001381Y10831867D02*
X12001381Y10527105D01*
X12039476Y10908058D02*
X12039476Y10527105D01*
X12077571Y10984248D02*
X12077571Y10527105D01*
X12115666Y11060439D02*
X12115666Y10527105D01*
X12153762Y11136629D02*
X12153762Y10527105D01*
X12191857Y11060439D02*
X12191857Y10527105D01*
X12229952Y10984248D02*
X12229952Y10527105D01*
X12268047Y10908058D02*
X12268047Y10527105D01*
X12306143Y10831867D02*
X12306143Y10527105D01*
X12344238Y10793772D02*
X12344238Y10527105D01*
X12382333Y10717581D02*
X12382333Y10527105D01*
X12420428Y10641391D02*
X12420428Y10527105D01*
X12458524Y10527105D02*
X12153762Y11098534D01*
X12153762Y11098534D02*
X11849000Y10527105D01*
X12458524Y10565200D02*
X12458524Y10527105D01*
X12153762Y11136629D02*
X12496619Y10527105D01*
X12496619Y10527105D02*
X11810904Y10527105D01*
X11810904Y10527105D02*
X12153762Y11136629D01*
X11239476Y9231105D02*
X11239476Y10031105D01*
X11506142Y9764439D02*
X11810904Y9764439D01*
X11620428Y9231105D02*
X11620428Y9916820D01*
X11620428Y9916820D02*
X11658523Y9993010D01*
X11658523Y9993010D02*
X11734713Y10031105D01*
X11734713Y10031105D02*
X11810904Y10031105D01*
X12687095Y9764439D02*
X12687095Y9231105D01*
X12687095Y9688248D02*
X12725190Y9726343D01*
X12725190Y9726343D02*
X12801380Y9764439D01*
X12801380Y9764439D02*
X12915666Y9764439D01*
X12915666Y9764439D02*
X12991857Y9726343D01*
X12991857Y9726343D02*
X13029952Y9650153D01*
X13029952Y9650153D02*
X13029952Y9231105D01*
X13525190Y9231105D02*
X13449000Y9269200D01*
X13449000Y9269200D02*
X13410905Y9307296D01*
X13410905Y9307296D02*
X13372809Y9383486D01*
X13372809Y9383486D02*
X13372809Y9612058D01*
X13372809Y9612058D02*
X13410905Y9688248D01*
X13410905Y9688248D02*
X13449000Y9726343D01*
X13449000Y9726343D02*
X13525190Y9764439D01*
X13525190Y9764439D02*
X13639476Y9764439D01*
X13639476Y9764439D02*
X13715667Y9726343D01*
X13715667Y9726343D02*
X13753762Y9688248D01*
X13753762Y9688248D02*
X13791857Y9612058D01*
X13791857Y9612058D02*
X13791857Y9383486D01*
X13791857Y9383486D02*
X13753762Y9307296D01*
X13753762Y9307296D02*
X13715667Y9269200D01*
X13715667Y9269200D02*
X13639476Y9231105D01*
X13639476Y9231105D02*
X13525190Y9231105D01*
X14020429Y9764439D02*
X14325191Y9764439D01*
X14134715Y10031105D02*
X14134715Y9345391D01*
X14134715Y9345391D02*
X14172810Y9269200D01*
X14172810Y9269200D02*
X14249000Y9231105D01*
X14249000Y9231105D02*
X14325191Y9231105D01*
X15544239Y9764439D02*
X15544239Y9231105D01*
X15201382Y9764439D02*
X15201382Y9345391D01*
X15201382Y9345391D02*
X15239477Y9269200D01*
X15239477Y9269200D02*
X15315667Y9231105D01*
X15315667Y9231105D02*
X15429953Y9231105D01*
X15429953Y9231105D02*
X15506144Y9269200D01*
X15506144Y9269200D02*
X15544239Y9307296D01*
X15887096Y9269200D02*
X15963287Y9231105D01*
X15963287Y9231105D02*
X16115668Y9231105D01*
X16115668Y9231105D02*
X16191858Y9269200D01*
X16191858Y9269200D02*
X16229954Y9345391D01*
X16229954Y9345391D02*
X16229954Y9383486D01*
X16229954Y9383486D02*
X16191858Y9459677D01*
X16191858Y9459677D02*
X16115668Y9497772D01*
X16115668Y9497772D02*
X16001382Y9497772D01*
X16001382Y9497772D02*
X15925192Y9535867D01*
X15925192Y9535867D02*
X15887096Y9612058D01*
X15887096Y9612058D02*
X15887096Y9650153D01*
X15887096Y9650153D02*
X15925192Y9726343D01*
X15925192Y9726343D02*
X16001382Y9764439D01*
X16001382Y9764439D02*
X16115668Y9764439D01*
X16115668Y9764439D02*
X16191858Y9726343D01*
X16877573Y9269200D02*
X16801382Y9231105D01*
X16801382Y9231105D02*
X16649001Y9231105D01*
X16649001Y9231105D02*
X16572811Y9269200D01*
X16572811Y9269200D02*
X16534715Y9345391D01*
X16534715Y9345391D02*
X16534715Y9650153D01*
X16534715Y9650153D02*
X16572811Y9726343D01*
X16572811Y9726343D02*
X16649001Y9764439D01*
X16649001Y9764439D02*
X16801382Y9764439D01*
X16801382Y9764439D02*
X16877573Y9726343D01*
X16877573Y9726343D02*
X16915668Y9650153D01*
X16915668Y9650153D02*
X16915668Y9573962D01*
X16915668Y9573962D02*
X16534715Y9497772D01*
X17601382Y9231105D02*
X17601382Y10031105D01*
X17601382Y9269200D02*
X17525191Y9231105D01*
X17525191Y9231105D02*
X17372810Y9231105D01*
X17372810Y9231105D02*
X17296620Y9269200D01*
X17296620Y9269200D02*
X17258525Y9307296D01*
X17258525Y9307296D02*
X17220429Y9383486D01*
X17220429Y9383486D02*
X17220429Y9612058D01*
X17220429Y9612058D02*
X17258525Y9688248D01*
X17258525Y9688248D02*
X17296620Y9726343D01*
X17296620Y9726343D02*
X17372810Y9764439D01*
X17372810Y9764439D02*
X17525191Y9764439D01*
X17525191Y9764439D02*
X17601382Y9726343D01*
X18020430Y9269200D02*
X18020430Y9231105D01*
X18020430Y9231105D02*
X17982335Y9154915D01*
X17982335Y9154915D02*
X17944239Y9116820D01*
X11201380Y7973200D02*
X11315666Y7935105D01*
X11315666Y7935105D02*
X11506142Y7935105D01*
X11506142Y7935105D02*
X11582333Y7973200D01*
X11582333Y7973200D02*
X11620428Y8011296D01*
X11620428Y8011296D02*
X11658523Y8087486D01*
X11658523Y8087486D02*
X11658523Y8163677D01*
X11658523Y8163677D02*
X11620428Y8239867D01*
X11620428Y8239867D02*
X11582333Y8277962D01*
X11582333Y8277962D02*
X11506142Y8316058D01*
X11506142Y8316058D02*
X11353761Y8354153D01*
X11353761Y8354153D02*
X11277571Y8392248D01*
X11277571Y8392248D02*
X11239476Y8430343D01*
X11239476Y8430343D02*
X11201380Y8506534D01*
X11201380Y8506534D02*
X11201380Y8582724D01*
X11201380Y8582724D02*
X11239476Y8658915D01*
X11239476Y8658915D02*
X11277571Y8697010D01*
X11277571Y8697010D02*
X11353761Y8735105D01*
X11353761Y8735105D02*
X11544238Y8735105D01*
X11544238Y8735105D02*
X11658523Y8697010D01*
X12001381Y7935105D02*
X12001381Y8735105D01*
X12001381Y8354153D02*
X12458524Y8354153D01*
X12458524Y7935105D02*
X12458524Y8735105D01*
X12991857Y8735105D02*
X13144238Y8735105D01*
X13144238Y8735105D02*
X13220428Y8697010D01*
X13220428Y8697010D02*
X13296619Y8620820D01*
X13296619Y8620820D02*
X13334714Y8468439D01*
X13334714Y8468439D02*
X13334714Y8201772D01*
X13334714Y8201772D02*
X13296619Y8049391D01*
X13296619Y8049391D02*
X13220428Y7973200D01*
X13220428Y7973200D02*
X13144238Y7935105D01*
X13144238Y7935105D02*
X12991857Y7935105D01*
X12991857Y7935105D02*
X12915666Y7973200D01*
X12915666Y7973200D02*
X12839476Y8049391D01*
X12839476Y8049391D02*
X12801380Y8201772D01*
X12801380Y8201772D02*
X12801380Y8468439D01*
X12801380Y8468439D02*
X12839476Y8620820D01*
X12839476Y8620820D02*
X12915666Y8697010D01*
X12915666Y8697010D02*
X12991857Y8735105D01*
X14134714Y7935105D02*
X13868047Y8316058D01*
X13677571Y7935105D02*
X13677571Y8735105D01*
X13677571Y8735105D02*
X13982333Y8735105D01*
X13982333Y8735105D02*
X14058523Y8697010D01*
X14058523Y8697010D02*
X14096618Y8658915D01*
X14096618Y8658915D02*
X14134714Y8582724D01*
X14134714Y8582724D02*
X14134714Y8468439D01*
X14134714Y8468439D02*
X14096618Y8392248D01*
X14096618Y8392248D02*
X14058523Y8354153D01*
X14058523Y8354153D02*
X13982333Y8316058D01*
X13982333Y8316058D02*
X13677571Y8316058D01*
X14363285Y8735105D02*
X14820428Y8735105D01*
X14591856Y7935105D02*
X14591856Y8735105D01*
X15696619Y7935105D02*
X15696619Y8468439D01*
X15696619Y8735105D02*
X15658523Y8697010D01*
X15658523Y8697010D02*
X15696619Y8658915D01*
X15696619Y8658915D02*
X15734714Y8697010D01*
X15734714Y8697010D02*
X15696619Y8735105D01*
X15696619Y8735105D02*
X15696619Y8658915D01*
X15963285Y8468439D02*
X16268047Y8468439D01*
X16077571Y8735105D02*
X16077571Y8049391D01*
X16077571Y8049391D02*
X16115666Y7973200D01*
X16115666Y7973200D02*
X16191856Y7935105D01*
X16191856Y7935105D02*
X16268047Y7935105D01*
X16534714Y8011296D02*
X16572809Y7973200D01*
X16572809Y7973200D02*
X16534714Y7935105D01*
X16534714Y7935105D02*
X16496618Y7973200D01*
X16496618Y7973200D02*
X16534714Y8011296D01*
X16534714Y8011296D02*
X16534714Y7935105D01*
X28437095Y2387620D02*
X28437095Y2006668D01*
X28437095Y2006668D02*
X27637095Y2006668D01*
X28437095Y3111430D02*
X28056142Y2844763D01*
X28437095Y2654287D02*
X27637095Y2654287D01*
X27637095Y2654287D02*
X27637095Y2959049D01*
X27637095Y2959049D02*
X27675190Y3035239D01*
X27675190Y3035239D02*
X27713285Y3073334D01*
X27713285Y3073334D02*
X27789476Y3111430D01*
X27789476Y3111430D02*
X27903761Y3111430D01*
X27903761Y3111430D02*
X27979952Y3073334D01*
X27979952Y3073334D02*
X28018047Y3035239D01*
X28018047Y3035239D02*
X28056142Y2959049D01*
X28056142Y2959049D02*
X28056142Y2654287D01*
X5992504Y4724381D02*
X5992504Y5105333D01*
X5992504Y5105333D02*
X5611552Y5143429D01*
X5611552Y5143429D02*
X5649647Y5105333D01*
X5649647Y5105333D02*
X5687742Y5029143D01*
X5687742Y5029143D02*
X5687742Y4838667D01*
X5687742Y4838667D02*
X5649647Y4762476D01*
X5649647Y4762476D02*
X5611552Y4724381D01*
X5611552Y4724381D02*
X5535361Y4686286D01*
X5535361Y4686286D02*
X5344885Y4686286D01*
X5344885Y4686286D02*
X5268695Y4724381D01*
X5268695Y4724381D02*
X5230600Y4762476D01*
X5230600Y4762476D02*
X5192504Y4838667D01*
X5192504Y4838667D02*
X5192504Y5029143D01*
X5192504Y5029143D02*
X5230600Y5105333D01*
X5230600Y5105333D02*
X5268695Y5143429D01*
X5992504Y4457714D02*
X5192504Y4191047D01*
X5192504Y4191047D02*
X5992504Y3924381D01*
X5954409Y12388877D02*
X5992504Y12465067D01*
X5992504Y12465067D02*
X5992504Y12579353D01*
X5992504Y12579353D02*
X5954409Y12693639D01*
X5954409Y12693639D02*
X5878219Y12769829D01*
X5878219Y12769829D02*
X5802028Y12807924D01*
X5802028Y12807924D02*
X5649647Y12846020D01*
X5649647Y12846020D02*
X5535361Y12846020D01*
X5535361Y12846020D02*
X5382980Y12807924D01*
X5382980Y12807924D02*
X5306790Y12769829D01*
X5306790Y12769829D02*
X5230600Y12693639D01*
X5230600Y12693639D02*
X5192504Y12579353D01*
X5192504Y12579353D02*
X5192504Y12503162D01*
X5192504Y12503162D02*
X5230600Y12388877D01*
X5230600Y12388877D02*
X5268695Y12350781D01*
X5268695Y12350781D02*
X5535361Y12350781D01*
X5535361Y12350781D02*
X5535361Y12503162D01*
D12*
X7899476Y47352762D02*
X7823286Y47400381D01*
X7823286Y47400381D02*
X7709000Y47400381D01*
X7709000Y47400381D02*
X7594714Y47352762D01*
X7594714Y47352762D02*
X7518524Y47257524D01*
X7518524Y47257524D02*
X7480429Y47162286D01*
X7480429Y47162286D02*
X7442333Y46971810D01*
X7442333Y46971810D02*
X7442333Y46828953D01*
X7442333Y46828953D02*
X7480429Y46638477D01*
X7480429Y46638477D02*
X7518524Y46543239D01*
X7518524Y46543239D02*
X7594714Y46448000D01*
X7594714Y46448000D02*
X7709000Y46400381D01*
X7709000Y46400381D02*
X7785191Y46400381D01*
X7785191Y46400381D02*
X7899476Y46448000D01*
X7899476Y46448000D02*
X7937572Y46495620D01*
X7937572Y46495620D02*
X7937572Y46828953D01*
X7937572Y46828953D02*
X7785191Y46828953D01*
X8280429Y46400381D02*
X8280429Y47400381D01*
X8280429Y47400381D02*
X8737572Y46400381D01*
X8737572Y46400381D02*
X8737572Y47400381D01*
X9118524Y46400381D02*
X9118524Y47400381D01*
X9118524Y47400381D02*
X9309000Y47400381D01*
X9309000Y47400381D02*
X9423286Y47352762D01*
X9423286Y47352762D02*
X9499476Y47257524D01*
X9499476Y47257524D02*
X9537571Y47162286D01*
X9537571Y47162286D02*
X9575667Y46971810D01*
X9575667Y46971810D02*
X9575667Y46828953D01*
X9575667Y46828953D02*
X9537571Y46638477D01*
X9537571Y46638477D02*
X9499476Y46543239D01*
X9499476Y46543239D02*
X9423286Y46448000D01*
X9423286Y46448000D02*
X9309000Y46400381D01*
X9309000Y46400381D02*
X9118524Y46400381D01*
D10*
X8001095Y18015762D02*
X7905857Y18063381D01*
X7905857Y18063381D02*
X7763000Y18063381D01*
X7763000Y18063381D02*
X7620143Y18015762D01*
X7620143Y18015762D02*
X7524905Y17920524D01*
X7524905Y17920524D02*
X7477286Y17825286D01*
X7477286Y17825286D02*
X7429667Y17634810D01*
X7429667Y17634810D02*
X7429667Y17491953D01*
X7429667Y17491953D02*
X7477286Y17301477D01*
X7477286Y17301477D02*
X7524905Y17206239D01*
X7524905Y17206239D02*
X7620143Y17111000D01*
X7620143Y17111000D02*
X7763000Y17063381D01*
X7763000Y17063381D02*
X7858238Y17063381D01*
X7858238Y17063381D02*
X8001095Y17111000D01*
X8001095Y17111000D02*
X8048714Y17158620D01*
X8048714Y17158620D02*
X8048714Y17491953D01*
X8048714Y17491953D02*
X7858238Y17491953D01*
X8477286Y17063381D02*
X8477286Y18063381D01*
X8477286Y18063381D02*
X9048714Y17063381D01*
X9048714Y17063381D02*
X9048714Y18063381D01*
X9524905Y17063381D02*
X9524905Y18063381D01*
X9524905Y18063381D02*
X9763000Y18063381D01*
X9763000Y18063381D02*
X9905857Y18015762D01*
X9905857Y18015762D02*
X10001095Y17920524D01*
X10001095Y17920524D02*
X10048714Y17825286D01*
X10048714Y17825286D02*
X10096333Y17634810D01*
X10096333Y17634810D02*
X10096333Y17491953D01*
X10096333Y17491953D02*
X10048714Y17301477D01*
X10048714Y17301477D02*
X10001095Y17206239D01*
X10001095Y17206239D02*
X9905857Y17111000D01*
X9905857Y17111000D02*
X9763000Y17063381D01*
X9763000Y17063381D02*
X9524905Y17063381D01*
D12*
X9982333Y50337381D02*
X9982333Y51337381D01*
X9982333Y51337381D02*
X10287095Y51337381D01*
X10287095Y51337381D02*
X10363285Y51289762D01*
X10363285Y51289762D02*
X10401380Y51242143D01*
X10401380Y51242143D02*
X10439476Y51146905D01*
X10439476Y51146905D02*
X10439476Y51004048D01*
X10439476Y51004048D02*
X10401380Y50908810D01*
X10401380Y50908810D02*
X10363285Y50861191D01*
X10363285Y50861191D02*
X10287095Y50813572D01*
X10287095Y50813572D02*
X9982333Y50813572D01*
X10706142Y51337381D02*
X10896618Y50337381D01*
X10896618Y50337381D02*
X11048999Y51051667D01*
X11048999Y51051667D02*
X11201380Y50337381D01*
X11201380Y50337381D02*
X11391857Y51337381D01*
X12153762Y50337381D02*
X11887095Y50813572D01*
X11696619Y50337381D02*
X11696619Y51337381D01*
X11696619Y51337381D02*
X12001381Y51337381D01*
X12001381Y51337381D02*
X12077571Y51289762D01*
X12077571Y51289762D02*
X12115666Y51242143D01*
X12115666Y51242143D02*
X12153762Y51146905D01*
X12153762Y51146905D02*
X12153762Y51004048D01*
X12153762Y51004048D02*
X12115666Y50908810D01*
X12115666Y50908810D02*
X12077571Y50861191D01*
X12077571Y50861191D02*
X12001381Y50813572D01*
X12001381Y50813572D02*
X11696619Y50813572D01*
D10*
X17081476Y5675953D02*
X17348142Y5675953D01*
X17462428Y5256905D02*
X17081476Y5256905D01*
X17081476Y5256905D02*
X17081476Y6056905D01*
X17081476Y6056905D02*
X17462428Y6056905D01*
X18224333Y5256905D02*
X17767190Y5256905D01*
X17995762Y5256905D02*
X17995762Y6056905D01*
X17995762Y6056905D02*
X17919571Y5942620D01*
X17919571Y5942620D02*
X17843381Y5866429D01*
X17843381Y5866429D02*
X17767190Y5828334D01*
X19176715Y5561667D02*
X19786239Y5561667D01*
X21119572Y5790239D02*
X21119572Y5256905D01*
X20929096Y6095000D02*
X20738619Y5523572D01*
X20738619Y5523572D02*
X21233858Y5523572D01*
X21462429Y6056905D02*
X21995763Y6056905D01*
X21995763Y6056905D02*
X21652905Y5256905D01*
X22643382Y5790239D02*
X22643382Y5256905D01*
X22300525Y5790239D02*
X22300525Y5371191D01*
X22300525Y5371191D02*
X22338620Y5295000D01*
X22338620Y5295000D02*
X22414810Y5256905D01*
X22414810Y5256905D02*
X22529096Y5256905D01*
X22529096Y5256905D02*
X22605287Y5295000D01*
X22605287Y5295000D02*
X22643382Y5333096D01*
X23291001Y5675953D02*
X23024335Y5675953D01*
X23024335Y5256905D02*
X23024335Y6056905D01*
X23024335Y6056905D02*
X23405287Y6056905D01*
X17538619Y4037096D02*
X17500523Y3999000D01*
X17500523Y3999000D02*
X17386238Y3960905D01*
X17386238Y3960905D02*
X17310047Y3960905D01*
X17310047Y3960905D02*
X17195761Y3999000D01*
X17195761Y3999000D02*
X17119571Y4075191D01*
X17119571Y4075191D02*
X17081476Y4151381D01*
X17081476Y4151381D02*
X17043380Y4303762D01*
X17043380Y4303762D02*
X17043380Y4418048D01*
X17043380Y4418048D02*
X17081476Y4570429D01*
X17081476Y4570429D02*
X17119571Y4646620D01*
X17119571Y4646620D02*
X17195761Y4722810D01*
X17195761Y4722810D02*
X17310047Y4760905D01*
X17310047Y4760905D02*
X17386238Y4760905D01*
X17386238Y4760905D02*
X17500523Y4722810D01*
X17500523Y4722810D02*
X17538619Y4684715D01*
X18300523Y3960905D02*
X17843380Y3960905D01*
X18071952Y3960905D02*
X18071952Y4760905D01*
X18071952Y4760905D02*
X17995761Y4646620D01*
X17995761Y4646620D02*
X17919571Y4570429D01*
X17919571Y4570429D02*
X17843380Y4532334D01*
X19252905Y4265667D02*
X19862429Y4265667D01*
X21005286Y4760905D02*
X21081476Y4760905D01*
X21081476Y4760905D02*
X21157667Y4722810D01*
X21157667Y4722810D02*
X21195762Y4684715D01*
X21195762Y4684715D02*
X21233857Y4608524D01*
X21233857Y4608524D02*
X21271952Y4456143D01*
X21271952Y4456143D02*
X21271952Y4265667D01*
X21271952Y4265667D02*
X21233857Y4113286D01*
X21233857Y4113286D02*
X21195762Y4037096D01*
X21195762Y4037096D02*
X21157667Y3999000D01*
X21157667Y3999000D02*
X21081476Y3960905D01*
X21081476Y3960905D02*
X21005286Y3960905D01*
X21005286Y3960905D02*
X20929095Y3999000D01*
X20929095Y3999000D02*
X20891000Y4037096D01*
X20891000Y4037096D02*
X20852905Y4113286D01*
X20852905Y4113286D02*
X20814809Y4265667D01*
X20814809Y4265667D02*
X20814809Y4456143D01*
X20814809Y4456143D02*
X20852905Y4608524D01*
X20852905Y4608524D02*
X20891000Y4684715D01*
X20891000Y4684715D02*
X20929095Y4722810D01*
X20929095Y4722810D02*
X21005286Y4760905D01*
X21614810Y4037096D02*
X21652905Y3999000D01*
X21652905Y3999000D02*
X21614810Y3960905D01*
X21614810Y3960905D02*
X21576714Y3999000D01*
X21576714Y3999000D02*
X21614810Y4037096D01*
X21614810Y4037096D02*
X21614810Y3960905D01*
X22414809Y3960905D02*
X21957666Y3960905D01*
X22186238Y3960905D02*
X22186238Y4760905D01*
X22186238Y4760905D02*
X22110047Y4646620D01*
X22110047Y4646620D02*
X22033857Y4570429D01*
X22033857Y4570429D02*
X21957666Y4532334D01*
X23100524Y4494239D02*
X23100524Y3960905D01*
X22757667Y4494239D02*
X22757667Y4075191D01*
X22757667Y4075191D02*
X22795762Y3999000D01*
X22795762Y3999000D02*
X22871952Y3960905D01*
X22871952Y3960905D02*
X22986238Y3960905D01*
X22986238Y3960905D02*
X23062429Y3999000D01*
X23062429Y3999000D02*
X23100524Y4037096D01*
X23748143Y4379953D02*
X23481477Y4379953D01*
X23481477Y3960905D02*
X23481477Y4760905D01*
X23481477Y4760905D02*
X23862429Y4760905D01*
X17538619Y2741096D02*
X17500523Y2703000D01*
X17500523Y2703000D02*
X17386238Y2664905D01*
X17386238Y2664905D02*
X17310047Y2664905D01*
X17310047Y2664905D02*
X17195761Y2703000D01*
X17195761Y2703000D02*
X17119571Y2779191D01*
X17119571Y2779191D02*
X17081476Y2855381D01*
X17081476Y2855381D02*
X17043380Y3007762D01*
X17043380Y3007762D02*
X17043380Y3122048D01*
X17043380Y3122048D02*
X17081476Y3274429D01*
X17081476Y3274429D02*
X17119571Y3350620D01*
X17119571Y3350620D02*
X17195761Y3426810D01*
X17195761Y3426810D02*
X17310047Y3464905D01*
X17310047Y3464905D02*
X17386238Y3464905D01*
X17386238Y3464905D02*
X17500523Y3426810D01*
X17500523Y3426810D02*
X17538619Y3388715D01*
X17843380Y3388715D02*
X17881476Y3426810D01*
X17881476Y3426810D02*
X17957666Y3464905D01*
X17957666Y3464905D02*
X18148142Y3464905D01*
X18148142Y3464905D02*
X18224333Y3426810D01*
X18224333Y3426810D02*
X18262428Y3388715D01*
X18262428Y3388715D02*
X18300523Y3312524D01*
X18300523Y3312524D02*
X18300523Y3236334D01*
X18300523Y3236334D02*
X18262428Y3122048D01*
X18262428Y3122048D02*
X17805285Y2664905D01*
X17805285Y2664905D02*
X18300523Y2664905D01*
X19252905Y2969667D02*
X19862429Y2969667D01*
X21233857Y3464905D02*
X20852905Y3464905D01*
X20852905Y3464905D02*
X20814809Y3083953D01*
X20814809Y3083953D02*
X20852905Y3122048D01*
X20852905Y3122048D02*
X20929095Y3160143D01*
X20929095Y3160143D02*
X21119571Y3160143D01*
X21119571Y3160143D02*
X21195762Y3122048D01*
X21195762Y3122048D02*
X21233857Y3083953D01*
X21233857Y3083953D02*
X21271952Y3007762D01*
X21271952Y3007762D02*
X21271952Y2817286D01*
X21271952Y2817286D02*
X21233857Y2741096D01*
X21233857Y2741096D02*
X21195762Y2703000D01*
X21195762Y2703000D02*
X21119571Y2664905D01*
X21119571Y2664905D02*
X20929095Y2664905D01*
X20929095Y2664905D02*
X20852905Y2703000D01*
X20852905Y2703000D02*
X20814809Y2741096D01*
X21957667Y3464905D02*
X21805286Y3464905D01*
X21805286Y3464905D02*
X21729095Y3426810D01*
X21729095Y3426810D02*
X21691000Y3388715D01*
X21691000Y3388715D02*
X21614810Y3274429D01*
X21614810Y3274429D02*
X21576714Y3122048D01*
X21576714Y3122048D02*
X21576714Y2817286D01*
X21576714Y2817286D02*
X21614810Y2741096D01*
X21614810Y2741096D02*
X21652905Y2703000D01*
X21652905Y2703000D02*
X21729095Y2664905D01*
X21729095Y2664905D02*
X21881476Y2664905D01*
X21881476Y2664905D02*
X21957667Y2703000D01*
X21957667Y2703000D02*
X21995762Y2741096D01*
X21995762Y2741096D02*
X22033857Y2817286D01*
X22033857Y2817286D02*
X22033857Y3007762D01*
X22033857Y3007762D02*
X21995762Y3083953D01*
X21995762Y3083953D02*
X21957667Y3122048D01*
X21957667Y3122048D02*
X21881476Y3160143D01*
X21881476Y3160143D02*
X21729095Y3160143D01*
X21729095Y3160143D02*
X21652905Y3122048D01*
X21652905Y3122048D02*
X21614810Y3083953D01*
X21614810Y3083953D02*
X21576714Y3007762D01*
X22529096Y3464905D02*
X22605286Y3464905D01*
X22605286Y3464905D02*
X22681477Y3426810D01*
X22681477Y3426810D02*
X22719572Y3388715D01*
X22719572Y3388715D02*
X22757667Y3312524D01*
X22757667Y3312524D02*
X22795762Y3160143D01*
X22795762Y3160143D02*
X22795762Y2969667D01*
X22795762Y2969667D02*
X22757667Y2817286D01*
X22757667Y2817286D02*
X22719572Y2741096D01*
X22719572Y2741096D02*
X22681477Y2703000D01*
X22681477Y2703000D02*
X22605286Y2664905D01*
X22605286Y2664905D02*
X22529096Y2664905D01*
X22529096Y2664905D02*
X22452905Y2703000D01*
X22452905Y2703000D02*
X22414810Y2741096D01*
X22414810Y2741096D02*
X22376715Y2817286D01*
X22376715Y2817286D02*
X22338619Y2969667D01*
X22338619Y2969667D02*
X22338619Y3160143D01*
X22338619Y3160143D02*
X22376715Y3312524D01*
X22376715Y3312524D02*
X22414810Y3388715D01*
X22414810Y3388715D02*
X22452905Y3426810D01*
X22452905Y3426810D02*
X22529096Y3464905D01*
X23138620Y3198239D02*
X23138620Y2398239D01*
X23138620Y3160143D02*
X23214810Y3198239D01*
X23214810Y3198239D02*
X23367191Y3198239D01*
X23367191Y3198239D02*
X23443382Y3160143D01*
X23443382Y3160143D02*
X23481477Y3122048D01*
X23481477Y3122048D02*
X23519572Y3045858D01*
X23519572Y3045858D02*
X23519572Y2817286D01*
X23519572Y2817286D02*
X23481477Y2741096D01*
X23481477Y2741096D02*
X23443382Y2703000D01*
X23443382Y2703000D02*
X23367191Y2664905D01*
X23367191Y2664905D02*
X23214810Y2664905D01*
X23214810Y2664905D02*
X23138620Y2703000D01*
X24129096Y3083953D02*
X23862430Y3083953D01*
X23862430Y2664905D02*
X23862430Y3464905D01*
X23862430Y3464905D02*
X24243382Y3464905D01*
X17538619Y1368905D02*
X17271952Y1749858D01*
X17081476Y1368905D02*
X17081476Y2168905D01*
X17081476Y2168905D02*
X17386238Y2168905D01*
X17386238Y2168905D02*
X17462428Y2130810D01*
X17462428Y2130810D02*
X17500523Y2092715D01*
X17500523Y2092715D02*
X17538619Y2016524D01*
X17538619Y2016524D02*
X17538619Y1902239D01*
X17538619Y1902239D02*
X17500523Y1826048D01*
X17500523Y1826048D02*
X17462428Y1787953D01*
X17462428Y1787953D02*
X17386238Y1749858D01*
X17386238Y1749858D02*
X17081476Y1749858D01*
X18300523Y1368905D02*
X17843380Y1368905D01*
X18071952Y1368905D02*
X18071952Y2168905D01*
X18071952Y2168905D02*
X17995761Y2054620D01*
X17995761Y2054620D02*
X17919571Y1978429D01*
X17919571Y1978429D02*
X17843380Y1940334D01*
X19252905Y1673667D02*
X19862429Y1673667D01*
X21233857Y2168905D02*
X20852905Y2168905D01*
X20852905Y2168905D02*
X20814809Y1787953D01*
X20814809Y1787953D02*
X20852905Y1826048D01*
X20852905Y1826048D02*
X20929095Y1864143D01*
X20929095Y1864143D02*
X21119571Y1864143D01*
X21119571Y1864143D02*
X21195762Y1826048D01*
X21195762Y1826048D02*
X21233857Y1787953D01*
X21233857Y1787953D02*
X21271952Y1711762D01*
X21271952Y1711762D02*
X21271952Y1521286D01*
X21271952Y1521286D02*
X21233857Y1445096D01*
X21233857Y1445096D02*
X21195762Y1407000D01*
X21195762Y1407000D02*
X21119571Y1368905D01*
X21119571Y1368905D02*
X20929095Y1368905D01*
X20929095Y1368905D02*
X20852905Y1407000D01*
X20852905Y1407000D02*
X20814809Y1445096D01*
X21614810Y1445096D02*
X21652905Y1407000D01*
X21652905Y1407000D02*
X21614810Y1368905D01*
X21614810Y1368905D02*
X21576714Y1407000D01*
X21576714Y1407000D02*
X21614810Y1445096D01*
X21614810Y1445096D02*
X21614810Y1368905D01*
X22414809Y1368905D02*
X21957666Y1368905D01*
X22186238Y1368905D02*
X22186238Y2168905D01*
X22186238Y2168905D02*
X22110047Y2054620D01*
X22110047Y2054620D02*
X22033857Y1978429D01*
X22033857Y1978429D02*
X21957666Y1940334D01*
X22757667Y1368905D02*
X22757667Y2168905D01*
X22833857Y1673667D02*
X23062429Y1368905D01*
X23062429Y1902239D02*
X22757667Y1597477D01*
D11*
X36117448Y36046581D02*
X36450781Y35046581D01*
X36450781Y35046581D02*
X36784114Y36046581D01*
X37307924Y36046581D02*
X37498400Y36046581D01*
X37498400Y36046581D02*
X37593638Y35998962D01*
X37593638Y35998962D02*
X37688876Y35903724D01*
X37688876Y35903724D02*
X37736495Y35713248D01*
X37736495Y35713248D02*
X37736495Y35379915D01*
X37736495Y35379915D02*
X37688876Y35189439D01*
X37688876Y35189439D02*
X37593638Y35094200D01*
X37593638Y35094200D02*
X37498400Y35046581D01*
X37498400Y35046581D02*
X37307924Y35046581D01*
X37307924Y35046581D02*
X37212686Y35094200D01*
X37212686Y35094200D02*
X37117448Y35189439D01*
X37117448Y35189439D02*
X37069829Y35379915D01*
X37069829Y35379915D02*
X37069829Y35713248D01*
X37069829Y35713248D02*
X37117448Y35903724D01*
X37117448Y35903724D02*
X37212686Y35998962D01*
X37212686Y35998962D02*
X37307924Y36046581D01*
X38641257Y35046581D02*
X38165067Y35046581D01*
X38165067Y35046581D02*
X38165067Y36046581D01*
X38974591Y35427534D02*
X39736496Y35427534D01*
X39355543Y35046581D02*
X39355543Y35808486D01*
D10*
%TO.C,U1*%
X6809095Y6350077D02*
X7456714Y6350077D01*
X7456714Y6350077D02*
X7532904Y6388172D01*
X7532904Y6388172D02*
X7571000Y6426267D01*
X7571000Y6426267D02*
X7609095Y6502458D01*
X7609095Y6502458D02*
X7609095Y6654839D01*
X7609095Y6654839D02*
X7571000Y6731029D01*
X7571000Y6731029D02*
X7532904Y6769124D01*
X7532904Y6769124D02*
X7456714Y6807220D01*
X7456714Y6807220D02*
X6809095Y6807220D01*
X7609095Y7607219D02*
X7609095Y7150076D01*
X7609095Y7378648D02*
X6809095Y7378648D01*
X6809095Y7378648D02*
X6923380Y7302457D01*
X6923380Y7302457D02*
X6999571Y7226267D01*
X6999571Y7226267D02*
X7037666Y7150076D01*
%TO.C,D2*%
X32882095Y4489525D02*
X32082095Y4489525D01*
X32082095Y4489525D02*
X32082095Y4680001D01*
X32082095Y4680001D02*
X32120190Y4794287D01*
X32120190Y4794287D02*
X32196380Y4870477D01*
X32196380Y4870477D02*
X32272571Y4908572D01*
X32272571Y4908572D02*
X32424952Y4946668D01*
X32424952Y4946668D02*
X32539238Y4946668D01*
X32539238Y4946668D02*
X32691619Y4908572D01*
X32691619Y4908572D02*
X32767809Y4870477D01*
X32767809Y4870477D02*
X32844000Y4794287D01*
X32844000Y4794287D02*
X32882095Y4680001D01*
X32882095Y4680001D02*
X32882095Y4489525D01*
X32158285Y5251429D02*
X32120190Y5289525D01*
X32120190Y5289525D02*
X32082095Y5365715D01*
X32082095Y5365715D02*
X32082095Y5556191D01*
X32082095Y5556191D02*
X32120190Y5632382D01*
X32120190Y5632382D02*
X32158285Y5670477D01*
X32158285Y5670477D02*
X32234476Y5708572D01*
X32234476Y5708572D02*
X32310666Y5708572D01*
X32310666Y5708572D02*
X32424952Y5670477D01*
X32424952Y5670477D02*
X32882095Y5213334D01*
X32882095Y5213334D02*
X32882095Y5708572D01*
%TO.C,E1*%
X29368819Y9802553D02*
X29635485Y9802553D01*
X29749771Y9383505D02*
X29368819Y9383505D01*
X29368819Y9383505D02*
X29368819Y10183505D01*
X29368819Y10183505D02*
X29749771Y10183505D01*
X30511676Y9383505D02*
X30054533Y9383505D01*
X30283105Y9383505D02*
X30283105Y10183505D01*
X30283105Y10183505D02*
X30206914Y10069220D01*
X30206914Y10069220D02*
X30130724Y9993029D01*
X30130724Y9993029D02*
X30054533Y9954934D01*
%TO.C,R1*%
X16041895Y12338068D02*
X15660942Y12071401D01*
X16041895Y11880925D02*
X15241895Y11880925D01*
X15241895Y11880925D02*
X15241895Y12185687D01*
X15241895Y12185687D02*
X15279990Y12261877D01*
X15279990Y12261877D02*
X15318085Y12299972D01*
X15318085Y12299972D02*
X15394276Y12338068D01*
X15394276Y12338068D02*
X15508561Y12338068D01*
X15508561Y12338068D02*
X15584752Y12299972D01*
X15584752Y12299972D02*
X15622847Y12261877D01*
X15622847Y12261877D02*
X15660942Y12185687D01*
X15660942Y12185687D02*
X15660942Y11880925D01*
X16041895Y13099972D02*
X16041895Y12642829D01*
X16041895Y12871401D02*
X15241895Y12871401D01*
X15241895Y12871401D02*
X15356180Y12795210D01*
X15356180Y12795210D02*
X15432371Y12719020D01*
X15432371Y12719020D02*
X15470466Y12642829D01*
%TO.C,C1*%
X20923267Y9993096D02*
X20885171Y9955000D01*
X20885171Y9955000D02*
X20770886Y9916905D01*
X20770886Y9916905D02*
X20694695Y9916905D01*
X20694695Y9916905D02*
X20580409Y9955000D01*
X20580409Y9955000D02*
X20504219Y10031191D01*
X20504219Y10031191D02*
X20466124Y10107381D01*
X20466124Y10107381D02*
X20428028Y10259762D01*
X20428028Y10259762D02*
X20428028Y10374048D01*
X20428028Y10374048D02*
X20466124Y10526429D01*
X20466124Y10526429D02*
X20504219Y10602620D01*
X20504219Y10602620D02*
X20580409Y10678810D01*
X20580409Y10678810D02*
X20694695Y10716905D01*
X20694695Y10716905D02*
X20770886Y10716905D01*
X20770886Y10716905D02*
X20885171Y10678810D01*
X20885171Y10678810D02*
X20923267Y10640715D01*
X21685171Y9916905D02*
X21228028Y9916905D01*
X21456600Y9916905D02*
X21456600Y10716905D01*
X21456600Y10716905D02*
X21380409Y10602620D01*
X21380409Y10602620D02*
X21304219Y10526429D01*
X21304219Y10526429D02*
X21228028Y10488334D01*
%TO.C,C2*%
X18840467Y9993096D02*
X18802371Y9955000D01*
X18802371Y9955000D02*
X18688086Y9916905D01*
X18688086Y9916905D02*
X18611895Y9916905D01*
X18611895Y9916905D02*
X18497609Y9955000D01*
X18497609Y9955000D02*
X18421419Y10031191D01*
X18421419Y10031191D02*
X18383324Y10107381D01*
X18383324Y10107381D02*
X18345228Y10259762D01*
X18345228Y10259762D02*
X18345228Y10374048D01*
X18345228Y10374048D02*
X18383324Y10526429D01*
X18383324Y10526429D02*
X18421419Y10602620D01*
X18421419Y10602620D02*
X18497609Y10678810D01*
X18497609Y10678810D02*
X18611895Y10716905D01*
X18611895Y10716905D02*
X18688086Y10716905D01*
X18688086Y10716905D02*
X18802371Y10678810D01*
X18802371Y10678810D02*
X18840467Y10640715D01*
X19145228Y10640715D02*
X19183324Y10678810D01*
X19183324Y10678810D02*
X19259514Y10716905D01*
X19259514Y10716905D02*
X19449990Y10716905D01*
X19449990Y10716905D02*
X19526181Y10678810D01*
X19526181Y10678810D02*
X19564276Y10640715D01*
X19564276Y10640715D02*
X19602371Y10564524D01*
X19602371Y10564524D02*
X19602371Y10488334D01*
X19602371Y10488334D02*
X19564276Y10374048D01*
X19564276Y10374048D02*
X19107133Y9916905D01*
X19107133Y9916905D02*
X19602371Y9916905D01*
%TO.C,D1*%
X11499924Y12075905D02*
X11499924Y12875905D01*
X11499924Y12875905D02*
X11690400Y12875905D01*
X11690400Y12875905D02*
X11804686Y12837810D01*
X11804686Y12837810D02*
X11880876Y12761620D01*
X11880876Y12761620D02*
X11918971Y12685429D01*
X11918971Y12685429D02*
X11957067Y12533048D01*
X11957067Y12533048D02*
X11957067Y12418762D01*
X11957067Y12418762D02*
X11918971Y12266381D01*
X11918971Y12266381D02*
X11880876Y12190191D01*
X11880876Y12190191D02*
X11804686Y12114000D01*
X11804686Y12114000D02*
X11690400Y12075905D01*
X11690400Y12075905D02*
X11499924Y12075905D01*
X12718971Y12075905D02*
X12261828Y12075905D01*
X12490400Y12075905D02*
X12490400Y12875905D01*
X12490400Y12875905D02*
X12414209Y12761620D01*
X12414209Y12761620D02*
X12338019Y12685429D01*
X12338019Y12685429D02*
X12261828Y12647334D01*
D13*
%TO.C,SW1*%
X5875000Y30873000D02*
X5875000Y43173000D01*
X8275000Y30873000D02*
X5875000Y30873000D01*
X13325000Y30873000D02*
X10775000Y30873000D01*
X18175000Y30873000D02*
X15775000Y30873000D01*
X5875000Y43173000D02*
X8275000Y43173000D01*
X10775000Y43173000D02*
X13275000Y43173000D01*
X15775000Y43173000D02*
X18175000Y43173000D01*
X18175000Y43173000D02*
X18175000Y30873000D01*
X17125000Y37023000D02*
G75*
G03*
X17125000Y37023000I-5100000J0D01*
G01*
%TO.C,U1*%
X10908000Y4258000D02*
X10908000Y6858000D01*
X10558000Y4258000D02*
X10908000Y4258000D01*
X8238000Y4258000D02*
X7898000Y4258000D01*
X7898000Y4258000D02*
X7898000Y9348000D01*
X7896264Y8957916D02*
G75*
G03*
X7898000Y4758001I101736J-2099916D01*
G01*
%TO.C,D2*%
X28482000Y3520000D02*
X28638000Y3520000D01*
X30798000Y3520000D02*
X30954000Y3520000D01*
X28639392Y6752334D02*
G75*
G03*
X28482485Y3520001I1078608J-1672334D01*
G01*
X28638164Y6121129D02*
G75*
G03*
X28638001Y4039040I1079836J-1041129D01*
G01*
X30797999Y4039040D02*
G75*
G03*
X30797836Y6121129I-1079999J1040960D01*
G01*
X30953515Y3520001D02*
G75*
G03*
X30796608Y6752334I-1235515J1559999D01*
G01*
%TO.C,SW6*%
X40775000Y10486200D02*
X39275000Y10486200D01*
X36775000Y9236200D02*
X36775000Y4736200D01*
X43275000Y4736200D02*
X43275000Y9236200D01*
X39275000Y3486200D02*
X40775000Y3486200D01*
%TO.C,TP2*%
X6919000Y48895000D02*
G75*
G03*
X6919000Y48895000I-950000J0D01*
G01*
%TO.C,SW5*%
X44155000Y43183000D02*
X44155000Y30883000D01*
X41755000Y43183000D02*
X44155000Y43183000D01*
X36705000Y43183000D02*
X39255000Y43183000D01*
X31855000Y43183000D02*
X34255000Y43183000D01*
X44155000Y30883000D02*
X41755000Y30883000D01*
X39255000Y30883000D02*
X36755000Y30883000D01*
X34255000Y30883000D02*
X31855000Y30883000D01*
X31855000Y30883000D02*
X31855000Y43183000D01*
X43105000Y37033000D02*
G75*
G03*
X43105000Y37033000I-5100000J0D01*
G01*
%TO.C,TP1*%
X11999000Y48895000D02*
G75*
G03*
X11999000Y48895000I-950000J0D01*
G01*
%TO.C,TP3*%
X9459000Y48895000D02*
G75*
G03*
X9459000Y48895000I-950000J0D01*
G01*
%TO.C,SW4*%
X31155000Y17843000D02*
X18855000Y17843000D01*
X31155000Y20243000D02*
X31155000Y17843000D01*
X31155000Y25293000D02*
X31155000Y22743000D01*
X31155000Y30143000D02*
X31155000Y27743000D01*
X18855000Y17843000D02*
X18855000Y20243000D01*
X18855000Y22743000D02*
X18855000Y25243000D01*
X18855000Y27743000D02*
X18855000Y30143000D01*
X18855000Y30143000D02*
X31155000Y30143000D01*
X30105000Y23993000D02*
G75*
G03*
X30105000Y23993000I-5100000J0D01*
G01*
%TO.C,E1*%
X22791000Y13394400D02*
X23416000Y13394400D01*
X23103500Y13706900D02*
X23103500Y13081900D01*
X23656000Y13404963D02*
X23656000Y12769400D01*
X23656000Y13404963D02*
X24720437Y14469400D01*
X23656000Y10013837D02*
X23656000Y10649400D01*
X23656000Y10013837D02*
X24720437Y8949400D01*
X24720437Y14469400D02*
X29176000Y14469400D01*
X24720437Y8949400D02*
X29176000Y8949400D01*
X29176000Y14469400D02*
X29176000Y12769400D01*
X29176000Y8949400D02*
X29176000Y10649400D01*
%TO.C,SW2*%
X18865000Y56123000D02*
X31165000Y56123000D01*
X18865000Y53723000D02*
X18865000Y56123000D01*
X18865000Y48673000D02*
X18865000Y51223000D01*
X18865000Y43823000D02*
X18865000Y46223000D01*
X31165000Y56123000D02*
X31165000Y53723000D01*
X31165000Y51223000D02*
X31165000Y48723000D01*
X31165000Y46223000D02*
X31165000Y43823000D01*
X31165000Y43823000D02*
X18865000Y43823000D01*
X30115000Y49973000D02*
G75*
G03*
X30115000Y49973000I-5100000J0D01*
G01*
%TO.C,R1*%
X16206800Y12244336D02*
X16206800Y12698464D01*
X17676800Y12244336D02*
X17676800Y12698464D01*
%TO.C,C1*%
X20321600Y12210148D02*
X20321600Y12732652D01*
X21791600Y12210148D02*
X21791600Y12732652D01*
%TO.C,TP4*%
X9963000Y19685000D02*
G75*
G03*
X9963000Y19685000I-1200000J0D01*
G01*
%TO.C,C2*%
X18238800Y12210148D02*
X18238800Y12732652D01*
X19708800Y12210148D02*
X19708800Y12732652D01*
%TO.C,D1*%
X14750400Y11336000D02*
X14750400Y13556000D01*
X14750400Y13556000D02*
X10340400Y13556000D01*
X10340400Y11336000D02*
X14750400Y11336000D01*
%TO.C,SW3*%
X18865000Y43153000D02*
X31165000Y43153000D01*
X18865000Y40753000D02*
X18865000Y43153000D01*
X18865000Y35703000D02*
X18865000Y38253000D01*
X18865000Y30853000D02*
X18865000Y33253000D01*
X31165000Y43153000D02*
X31165000Y40753000D01*
X31165000Y38253000D02*
X31165000Y35753000D01*
X31165000Y33253000D02*
X31165000Y30853000D01*
X31165000Y30853000D02*
X18865000Y30853000D01*
X30115000Y37003000D02*
G75*
G03*
X30115000Y37003000I-5100000J0D01*
G01*
%TD*%
%LPC*%
D14*
%TO.C,SW1*%
X9525000Y30773000D03*
D15*
X9773400Y33771200D03*
X9773400Y40271200D03*
D14*
X9525000Y43273000D03*
X14525000Y30773000D03*
D15*
X14273400Y33771200D03*
X14273400Y40271200D03*
D14*
X14525000Y43273000D03*
%TD*%
D16*
%TO.C,U1*%
X9398000Y9398000D03*
D17*
X9398000Y6858000D03*
X9398000Y4318000D03*
%TD*%
D18*
%TO.C,D2*%
X29718000Y2540000D03*
D17*
X29718000Y5080000D03*
X29718000Y7620000D03*
%TD*%
D15*
%TO.C,SW6*%
X42275000Y10236200D03*
X42275000Y3736200D03*
X37775000Y10236200D03*
X37775000Y3736200D03*
%TD*%
D19*
%TO.C,TP2*%
X5969000Y48895000D03*
%TD*%
D14*
%TO.C,SW5*%
X40505000Y43283000D03*
D15*
X40256600Y40284800D03*
X40256600Y33784800D03*
D14*
X40505000Y30783000D03*
X35505000Y43283000D03*
D15*
X35756600Y40284800D03*
X35756600Y33784800D03*
D14*
X35505000Y30783000D03*
%TD*%
D19*
%TO.C,TP1*%
X11049000Y48895000D03*
%TD*%
%TO.C,TP3*%
X8509000Y48895000D03*
%TD*%
D20*
%TO.C,SW4*%
X31255000Y21493000D03*
D15*
X28256800Y21741400D03*
X21756800Y21741400D03*
D20*
X18755000Y21493000D03*
X31255000Y26493000D03*
D15*
X28256800Y26241400D03*
X21756800Y26241400D03*
D20*
X18755000Y26493000D03*
%TD*%
D21*
%TO.C,E1*%
X24216000Y11709400D03*
X28616000Y11709400D03*
%TD*%
D20*
%TO.C,SW2*%
X18765000Y52473000D03*
D15*
X21763200Y52224600D03*
X28263200Y52224600D03*
D20*
X31265000Y52473000D03*
X18765000Y47473000D03*
D15*
X21763200Y47724600D03*
X28263200Y47724600D03*
D20*
X31265000Y47473000D03*
%TD*%
D22*
%TO.C,R1*%
X16941800Y11471400D03*
X16941800Y13471400D03*
%TD*%
D23*
%TO.C,C1*%
X21056600Y11433900D03*
X21056600Y13508900D03*
%TD*%
D15*
%TO.C,TP4*%
X8763000Y19685000D03*
%TD*%
D23*
%TO.C,C2*%
X18973800Y11433900D03*
X18973800Y13508900D03*
%TD*%
D24*
%TO.C,D1*%
X13840400Y12446000D03*
X10340400Y12446000D03*
%TD*%
D20*
%TO.C,SW3*%
X18765000Y39503000D03*
D15*
X21763200Y39254600D03*
X28263200Y39254600D03*
D20*
X31265000Y39503000D03*
X18765000Y34503000D03*
D15*
X21763200Y34754600D03*
X28263200Y34754600D03*
D20*
X31265000Y34503000D03*
%TD*%
D25*
%TO.C,J4*%
X1651000Y2129000D03*
D26*
X1651000Y4669000D03*
X1651000Y7209000D03*
X1651000Y9749000D03*
X1651000Y12289000D03*
%TD*%
D27*
%TO.C,J1*%
X4191000Y23698200D03*
D28*
X4191000Y25698200D03*
X4191000Y27698200D03*
X4191000Y29698200D03*
X4191000Y31698200D03*
X4191000Y33698200D03*
X4191000Y35698200D03*
X4191000Y37698200D03*
X4191000Y39698200D03*
%TD*%
D25*
%TO.C,J2*%
X1651000Y24003000D03*
D26*
X1651000Y26543000D03*
X1651000Y29083000D03*
X1651000Y31623000D03*
X1651000Y34163000D03*
X1651000Y36703000D03*
X1651000Y39243000D03*
X1651000Y41783000D03*
X1651000Y44323000D03*
%TD*%
D27*
%TO.C,J3*%
X4191000Y4572000D03*
D28*
X4191000Y6572000D03*
X4191000Y8572000D03*
X4191000Y10572000D03*
X4191000Y12572000D03*
%TD*%
M02*
