%TF.GenerationSoftware,KiCad,Pcbnew,(7.0.0)*%
%TF.CreationDate,2023-03-11T17:47:16+09:00*%
%TF.ProjectId,monitor_osd_control,6d6f6e69-746f-4725-9f6f-73645f636f6e,5*%
%TF.SameCoordinates,PX7ab4258PY723a4bd*%
%TF.FileFunction,Copper,L1,Top*%
%TF.FilePolarity,Positive*%
%FSLAX46Y46*%
G04 Gerber Fmt 4.6, Leading zero omitted, Abs format (unit mm)*
G04 Created by KiCad (PCBNEW (7.0.0)) date 2023-03-11 17:47:16*
%MOMM*%
%LPD*%
G01*
G04 APERTURE LIST*
G04 Aperture macros list*
%AMRoundRect*
0 Rectangle with rounded corners*
0 $1 Rounding radius*
0 $2 $3 $4 $5 $6 $7 $8 $9 X,Y pos of 4 corners*
0 Add a 4 corners polygon primitive as box body*
4,1,4,$2,$3,$4,$5,$6,$7,$8,$9,$2,$3,0*
0 Add four circle primitives for the rounded corners*
1,1,$1+$1,$2,$3*
1,1,$1+$1,$4,$5*
1,1,$1+$1,$6,$7*
1,1,$1+$1,$8,$9*
0 Add four rect primitives between the rounded corners*
20,1,$1+$1,$2,$3,$4,$5,0*
20,1,$1+$1,$4,$5,$6,$7,0*
20,1,$1+$1,$6,$7,$8,$9,0*
20,1,$1+$1,$8,$9,$2,$3,0*%
G04 Aperture macros list end*
%TA.AperFunction,SMDPad,CuDef*%
%ADD10RoundRect,0.250000X0.400000X0.600000X-0.400000X0.600000X-0.400000X-0.600000X0.400000X-0.600000X0*%
%TD*%
%TA.AperFunction,ComponentPad*%
%ADD11O,1.850000X3.048000*%
%TD*%
%TA.AperFunction,ComponentPad*%
%ADD12RoundRect,0.250200X-0.649800X0.649800X-0.649800X-0.649800X0.649800X-0.649800X0.649800X0.649800X0*%
%TD*%
%TA.AperFunction,ComponentPad*%
%ADD13C,1.800000*%
%TD*%
%TA.AperFunction,ComponentPad*%
%ADD14R,1.800000X1.800000*%
%TD*%
%TA.AperFunction,ComponentPad*%
%ADD15C,2.000000*%
%TD*%
%TA.AperFunction,ComponentPad*%
%ADD16C,1.500000*%
%TD*%
%TA.AperFunction,ComponentPad*%
%ADD17O,3.048000X1.850000*%
%TD*%
%TA.AperFunction,SMDPad,CuDef*%
%ADD18RoundRect,0.250000X-1.050000X-0.550000X1.050000X-0.550000X1.050000X0.550000X-1.050000X0.550000X0*%
%TD*%
%TA.AperFunction,SMDPad,CuDef*%
%ADD19RoundRect,0.250000X0.450000X-0.350000X0.450000X0.350000X-0.450000X0.350000X-0.450000X-0.350000X0*%
%TD*%
%TA.AperFunction,SMDPad,CuDef*%
%ADD20RoundRect,0.250000X0.475000X-0.337500X0.475000X0.337500X-0.475000X0.337500X-0.475000X-0.337500X0*%
%TD*%
%TA.AperFunction,ComponentPad*%
%ADD21R,1.700000X1.700000*%
%TD*%
%TA.AperFunction,ComponentPad*%
%ADD22O,1.700000X1.700000*%
%TD*%
%TA.AperFunction,ComponentPad*%
%ADD23R,1.350000X1.350000*%
%TD*%
%TA.AperFunction,ComponentPad*%
%ADD24O,1.350000X1.350000*%
%TD*%
%TA.AperFunction,ViaPad*%
%ADD25C,0.800000*%
%TD*%
%TA.AperFunction,Conductor*%
%ADD26C,0.250000*%
%TD*%
%TA.AperFunction,Conductor*%
%ADD27C,0.300000*%
%TD*%
%TA.AperFunction,Conductor*%
%ADD28C,0.500000*%
%TD*%
G04 APERTURE END LIST*
D10*
%TO.P,D1,1,K*%
%TO.N,Net-(C1-Pad1)*%
X14817848Y12461445D03*
%TO.P,D1,2,A*%
%TO.N,+5V*%
X11317848Y12461445D03*
%TD*%
D11*
%TO.P,SW1,1,1*%
%TO.N,/VOL_M*%
X9511847Y30788444D03*
X9511847Y43288444D03*
%TO.P,SW1,2,2*%
%TO.N,GND*%
X14511847Y30788444D03*
X14511847Y43288444D03*
%TD*%
D12*
%TO.P,U1,1,OUT*%
%TO.N,/IRIN*%
X9384848Y9413445D03*
D13*
%TO.P,U1,2,GND*%
%TO.N,GND*%
X9384848Y6873445D03*
%TO.P,U1,3,Vs*%
%TO.N,Net-(C1-Pad1)*%
X9384848Y4333445D03*
%TD*%
D14*
%TO.P,D2,1,A1*%
%TO.N,/LED_R*%
X29704847Y2555444D03*
D13*
%TO.P,D2,2,K*%
%TO.N,GND*%
X29704848Y5095445D03*
%TO.P,D2,3,A2*%
%TO.N,/LED_G*%
X29704848Y7635445D03*
%TD*%
D15*
%TO.P,SW6,1,1*%
%TO.N,/POWER*%
X42261848Y10251645D03*
X42261848Y3751645D03*
%TO.P,SW6,2,2*%
%TO.N,GND*%
X37761848Y10251645D03*
X37761848Y3751645D03*
%TD*%
D16*
%TO.P,TP2,1,1*%
%TO.N,/SOURCE*%
X5955848Y48910445D03*
%TD*%
D11*
%TO.P,SW5,1,1*%
%TO.N,/VOL_P*%
X40491847Y43298444D03*
X40491847Y30798444D03*
%TO.P,SW5,2,2*%
%TO.N,GND*%
X35491847Y43298444D03*
X35491847Y30798444D03*
%TD*%
D16*
%TO.P,TP1,1,1*%
%TO.N,/POWER*%
X11035848Y48910445D03*
%TD*%
%TO.P,TP3,1,1*%
%TO.N,GND*%
X8495848Y48910445D03*
%TD*%
D17*
%TO.P,SW4,1,1*%
%TO.N,/DOWN*%
X31241847Y21508444D03*
X18741847Y21508444D03*
%TO.P,SW4,2,2*%
%TO.N,GND*%
X31241847Y26508444D03*
X18741847Y26508444D03*
%TD*%
D18*
%TO.P,E1,1*%
%TO.N,Net-(C1-Pad1)*%
X25872848Y11572445D03*
%TO.P,E1,2*%
%TO.N,GND*%
X29472848Y11572445D03*
%TD*%
D17*
%TO.P,SW2,1,1*%
%TO.N,/UP*%
X18751847Y52488444D03*
X31251847Y52488444D03*
%TO.P,SW2,2,2*%
%TO.N,GND*%
X18751847Y47488444D03*
X31251847Y47488444D03*
%TD*%
D19*
%TO.P,R1,1*%
%TO.N,/IRIN*%
X18046248Y11486845D03*
%TO.P,R1,2*%
%TO.N,Net-(C1-Pad1)*%
X18046248Y13486845D03*
%TD*%
D20*
%TO.P,C1,1*%
%TO.N,Net-(C1-Pad1)*%
X22465848Y11449345D03*
%TO.P,C1,2*%
%TO.N,GND*%
X22465848Y13524345D03*
%TD*%
D15*
%TO.P,TP4,1,1*%
%TO.N,GND*%
X8749848Y19700445D03*
%TD*%
D20*
%TO.P,C2,1*%
%TO.N,/IRIN*%
X20230648Y11449345D03*
%TO.P,C2,2*%
%TO.N,GND*%
X20230648Y13524345D03*
%TD*%
D17*
%TO.P,SW3,1,1*%
%TO.N,/MENU*%
X18751847Y39518444D03*
X31251847Y39518444D03*
%TO.P,SW3,2,2*%
%TO.N,GND*%
X18751847Y34518444D03*
X31251847Y34518444D03*
%TD*%
D21*
%TO.P,J4,1,Pin_1*%
%TO.N,+5V*%
X1637847Y2144444D03*
D22*
%TO.P,J4,2,Pin_2*%
%TO.N,/LED_R*%
X1637847Y4684444D03*
%TO.P,J4,3,Pin_3*%
%TO.N,/LED_G*%
X1637847Y7224444D03*
%TO.P,J4,4,Pin_4*%
%TO.N,/IRIN*%
X1637847Y9764444D03*
%TO.P,J4,5,Pin_5*%
%TO.N,GND*%
X1637847Y12304444D03*
%TD*%
D23*
%TO.P,J1,1,Pin_1*%
%TO.N,GND*%
X4177847Y23713644D03*
D24*
%TO.P,J1,2,Pin_2*%
%TO.N,/SOURCE*%
X4177847Y25713644D03*
%TO.P,J1,3,Pin_3*%
%TO.N,/UP*%
X4177847Y27713644D03*
%TO.P,J1,4,Pin_4*%
%TO.N,/DOWN*%
X4177847Y29713644D03*
%TO.P,J1,5,Pin_5*%
%TO.N,/VOL_P*%
X4177847Y31713644D03*
%TO.P,J1,6,Pin_6*%
%TO.N,/VOL_M*%
X4177847Y33713644D03*
%TO.P,J1,7,Pin_7*%
%TO.N,/MENU*%
X4177847Y35713644D03*
%TO.P,J1,8,Pin_8*%
%TO.N,/POWER*%
X4177847Y37713644D03*
%TO.P,J1,9,Pin_9*%
%TO.N,GND*%
X4177847Y39713644D03*
%TD*%
D21*
%TO.P,J2,1,Pin_1*%
%TO.N,GND*%
X1637847Y24018444D03*
D22*
%TO.P,J2,2,Pin_2*%
%TO.N,/SOURCE*%
X1637847Y26558444D03*
%TO.P,J2,3,Pin_3*%
%TO.N,/UP*%
X1637847Y29098444D03*
%TO.P,J2,4,Pin_4*%
%TO.N,/DOWN*%
X1637847Y31638444D03*
%TO.P,J2,5,Pin_5*%
%TO.N,/VOL_P*%
X1637847Y34178444D03*
%TO.P,J2,6,Pin_6*%
%TO.N,/VOL_M*%
X1637847Y36718444D03*
%TO.P,J2,7,Pin_7*%
%TO.N,/MENU*%
X1637847Y39258444D03*
%TO.P,J2,8,Pin_8*%
%TO.N,/POWER*%
X1637847Y41798444D03*
%TO.P,J2,9,Pin_9*%
%TO.N,GND*%
X1637847Y44338444D03*
%TD*%
D23*
%TO.P,J3,1,Pin_1*%
%TO.N,+5V*%
X4177847Y4587444D03*
D24*
%TO.P,J3,2,Pin_2*%
%TO.N,/LED_R*%
X4177847Y6587444D03*
%TO.P,J3,3,Pin_3*%
%TO.N,/LED_G*%
X4177847Y8587444D03*
%TO.P,J3,4,Pin_4*%
%TO.N,/IRIN*%
X4177847Y10587444D03*
%TO.P,J3,5,Pin_5*%
%TO.N,GND*%
X4177847Y12587444D03*
%TD*%
D25*
%TO.N,/SOURCE*%
X5955848Y28692045D03*
%TO.N,/IRIN*%
X16496848Y11404133D03*
%TO.N,Net-(C1-Pad1)*%
X12178848Y1539445D03*
%TD*%
D26*
%TO.N,/SOURCE*%
X5955848Y27218845D02*
X4450648Y25713645D01*
X4450648Y25713645D02*
X4177848Y25713645D01*
X5955848Y28692045D02*
X5955848Y27218845D01*
%TO.N,/DOWN*%
X6458248Y29713645D02*
X4177848Y29713645D01*
X14663448Y21508445D02*
X6458248Y29713645D01*
X18741848Y21508445D02*
X14663448Y21508445D01*
%TO.N,/SOURCE*%
X3333048Y26558445D02*
X4177848Y25713645D01*
X1637848Y26558445D02*
X3333048Y26558445D01*
%TO.N,/UP*%
X3759248Y27713645D02*
X4177848Y27713645D01*
X2374448Y29098445D02*
X3759248Y27713645D01*
X1637848Y29098445D02*
X2374448Y29098445D01*
X18751848Y52488445D02*
X31251848Y52488445D01*
%TO.N,/VOL_P*%
X5448848Y31713645D02*
X4177848Y31713645D01*
X40491848Y30798445D02*
X40491848Y43298445D01*
X38055248Y28361845D02*
X8800648Y28361845D01*
X4102648Y31713645D02*
X1637848Y34178445D01*
X4177848Y31713645D02*
X4102648Y31713645D01*
X8800648Y28361845D02*
X5448848Y31713645D01*
X40491848Y30798445D02*
X38055248Y28361845D01*
%TO.N,/DOWN*%
X1917248Y31638445D02*
X1637848Y31638445D01*
X4177848Y29713645D02*
X3842048Y29713645D01*
X18741848Y21508445D02*
X31241848Y21508445D01*
X3842048Y29713645D02*
X1917248Y31638445D01*
D27*
%TO.N,/VOL_M*%
X6586648Y33713645D02*
X4177848Y33713645D01*
X4177848Y33822845D02*
X1637848Y36362845D01*
X9511848Y30788445D02*
X6586648Y33713645D01*
X1637848Y36362845D02*
X1637848Y36718445D01*
X4177848Y33713645D02*
X4177848Y33822845D01*
D26*
X9511848Y43288445D02*
X9511848Y30788445D01*
%TO.N,/POWER*%
X4177848Y37713645D02*
X2984048Y38907445D01*
X42261848Y45929245D02*
X42261848Y10251645D01*
X16649248Y54523845D02*
X33667248Y54523845D01*
X11035848Y48910445D02*
X6311448Y44186045D01*
X33667248Y54523845D02*
X42261848Y45929245D01*
X6311448Y44186045D02*
X6311448Y39847245D01*
X2984048Y38907445D02*
X2984048Y40452245D01*
X2984048Y40452245D02*
X1637848Y41798445D01*
X6311448Y39847245D02*
X4177848Y37713645D01*
X42261848Y10251645D02*
X42261848Y3751645D01*
X11035848Y48910445D02*
X16649248Y54523845D01*
D28*
%TO.N,GND*%
X18741848Y26508445D02*
X31241848Y26508445D01*
X6717848Y17668445D02*
X8749848Y19700445D01*
X4558848Y44338445D02*
X8495848Y48275445D01*
X4177848Y12587445D02*
X5574848Y11190445D01*
X4177848Y41798445D02*
X1637848Y44338445D01*
X35491848Y43298445D02*
X35491848Y30798445D01*
X14511848Y43288445D02*
X14511848Y30788445D01*
X1637848Y24018445D02*
X1942648Y23713645D01*
X27799848Y9159445D02*
X27799848Y6492445D01*
X1637848Y44338445D02*
X4558848Y44338445D01*
X37761848Y10251645D02*
X37761848Y3751645D01*
X5574848Y9921445D02*
X8622848Y6873445D01*
X1637848Y12304445D02*
X1920848Y12587445D01*
X8622848Y6873445D02*
X9384848Y6873445D01*
X1942648Y23713645D02*
X4177848Y23713645D01*
X8495848Y48275445D02*
X8495848Y48910445D01*
X1920848Y12587445D02*
X4177848Y12587445D01*
X4177848Y12587445D02*
X5320848Y12587445D01*
X18751848Y34518445D02*
X31251848Y34518445D01*
X5320848Y12587445D02*
X6717848Y13984445D01*
X22465848Y13524345D02*
X27520948Y13524345D01*
X29472848Y10832445D02*
X27799848Y9159445D01*
X27799848Y6492445D02*
X29196848Y5095445D01*
X18751848Y47488445D02*
X31251848Y47488445D01*
X29472848Y11572445D02*
X29472848Y10832445D01*
X29196848Y5095445D02*
X29704848Y5095445D01*
X6717848Y13984445D02*
X6717848Y17668445D01*
X4177848Y39713645D02*
X4177848Y41798445D01*
X20230648Y13524345D02*
X22465848Y13524345D01*
X27520948Y13524345D02*
X29472848Y11572445D01*
X5574848Y11190445D02*
X5574848Y9921445D01*
D26*
%TO.N,/MENU*%
X3034848Y36856645D02*
X4177848Y35713645D01*
X1637848Y38826645D02*
X3034848Y37429645D01*
X3034848Y37429645D02*
X3034848Y36856645D01*
X4177848Y35713645D02*
X7048048Y38583845D01*
X1637848Y39258445D02*
X1637848Y38826645D01*
X9029248Y46091045D02*
X16141248Y46091045D01*
X7048048Y44109845D02*
X9029248Y46091045D01*
X7048048Y38583845D02*
X7048048Y44109845D01*
X18751848Y43480445D02*
X18751848Y39518445D01*
X16141248Y46091045D02*
X18751848Y43480445D01*
X18751848Y39518445D02*
X31251848Y39518445D01*
D28*
%TO.N,+5V*%
X1637848Y2144445D02*
X2623848Y1158445D01*
X1734848Y2144445D02*
X4177848Y4587445D01*
X11670848Y12108445D02*
X11317848Y12461445D01*
X1637848Y2144445D02*
X1734848Y2144445D01*
X2623848Y1158445D02*
X9892848Y1158445D01*
X9892848Y1158445D02*
X11670848Y2936445D01*
X11670848Y2936445D02*
X11670848Y12108445D01*
D26*
%TO.N,/IRIN*%
X18046248Y11486845D02*
X20193148Y11486845D01*
X16579560Y11486845D02*
X18046248Y11486845D01*
X20193148Y11486845D02*
X20230648Y11449345D01*
X16496848Y11404133D02*
X16579560Y11486845D01*
D28*
%TO.N,Net-(C1-Pad1)*%
X22465848Y11449345D02*
X25749748Y11449345D01*
X25872848Y4184445D02*
X25872848Y11572445D01*
X14817848Y12461445D02*
X15843248Y13486845D01*
X14817848Y12461445D02*
X14817848Y11219445D01*
X14817848Y11219445D02*
X15861848Y10175445D01*
X15861848Y10175445D02*
X21576848Y10175445D01*
X15843248Y13486845D02*
X18046248Y13486845D01*
X22465848Y11064445D02*
X22465848Y11449345D01*
X23227848Y1539445D02*
X25872848Y4184445D01*
X25749748Y11449345D02*
X25872848Y11572445D01*
X21576848Y10175445D02*
X22465848Y11064445D01*
X12178848Y1539445D02*
X23227848Y1539445D01*
%TD*%
M02*
