%TF.GenerationSoftware,KiCad,Pcbnew,(7.0.0)*%
%TF.CreationDate,2023-03-11T17:47:17+09:00*%
%TF.ProjectId,monitor_osd_control,6d6f6e69-746f-4725-9f6f-73645f636f6e,5*%
%TF.SameCoordinates,PX7ab4258PY723a4bd*%
%TF.FileFunction,Soldermask,Bot*%
%TF.FilePolarity,Negative*%
%FSLAX46Y46*%
G04 Gerber Fmt 4.6, Leading zero omitted, Abs format (unit mm)*
G04 Created by KiCad (PCBNEW (7.0.0)) date 2023-03-11 17:47:17*
%MOMM*%
%LPD*%
G01*
G04 APERTURE LIST*
G04 Aperture macros list*
%AMRoundRect*
0 Rectangle with rounded corners*
0 $1 Rounding radius*
0 $2 $3 $4 $5 $6 $7 $8 $9 X,Y pos of 4 corners*
0 Add a 4 corners polygon primitive as box body*
4,1,4,$2,$3,$4,$5,$6,$7,$8,$9,$2,$3,0*
0 Add four circle primitives for the rounded corners*
1,1,$1+$1,$2,$3*
1,1,$1+$1,$4,$5*
1,1,$1+$1,$6,$7*
1,1,$1+$1,$8,$9*
0 Add four rect primitives between the rounded corners*
20,1,$1+$1,$2,$3,$4,$5,0*
20,1,$1+$1,$4,$5,$6,$7,0*
20,1,$1+$1,$6,$7,$8,$9,0*
20,1,$1+$1,$8,$9,$2,$3,0*%
G04 Aperture macros list end*
%ADD10O,1.850000X3.048000*%
%ADD11RoundRect,0.250200X-0.649800X0.649800X-0.649800X-0.649800X0.649800X-0.649800X0.649800X0.649800X0*%
%ADD12C,1.800000*%
%ADD13R,1.800000X1.800000*%
%ADD14C,2.000000*%
%ADD15C,1.500000*%
%ADD16O,3.048000X1.850000*%
%ADD17R,1.700000X1.700000*%
%ADD18O,1.700000X1.700000*%
%ADD19R,1.350000X1.350000*%
%ADD20O,1.350000X1.350000*%
G04 APERTURE END LIST*
D10*
%TO.C,SW1*%
X9511847Y30788444D03*
X9511847Y43288444D03*
X14511847Y30788444D03*
X14511847Y43288444D03*
%TD*%
D11*
%TO.C,U1*%
X9384848Y9413445D03*
D12*
X9384848Y6873445D03*
X9384848Y4333445D03*
%TD*%
D13*
%TO.C,D2*%
X29704847Y2555444D03*
D12*
X29704848Y5095445D03*
X29704848Y7635445D03*
%TD*%
D14*
%TO.C,SW6*%
X42261848Y10251645D03*
X42261848Y3751645D03*
X37761848Y10251645D03*
X37761848Y3751645D03*
%TD*%
D15*
%TO.C,TP2*%
X5955848Y48910445D03*
%TD*%
D10*
%TO.C,SW5*%
X40491847Y43298444D03*
X40491847Y30798444D03*
X35491847Y43298444D03*
X35491847Y30798444D03*
%TD*%
D15*
%TO.C,TP1*%
X11035848Y48910445D03*
%TD*%
%TO.C,TP3*%
X8495848Y48910445D03*
%TD*%
D16*
%TO.C,SW4*%
X31241847Y21508444D03*
X18741847Y21508444D03*
X31241847Y26508444D03*
X18741847Y26508444D03*
%TD*%
%TO.C,SW2*%
X18751847Y52488444D03*
X31251847Y52488444D03*
X18751847Y47488444D03*
X31251847Y47488444D03*
%TD*%
D14*
%TO.C,TP4*%
X8749848Y19700445D03*
%TD*%
D16*
%TO.C,SW3*%
X18751847Y39518444D03*
X31251847Y39518444D03*
X18751847Y34518444D03*
X31251847Y34518444D03*
%TD*%
D17*
%TO.C,J4*%
X1637847Y2144444D03*
D18*
X1637847Y4684444D03*
X1637847Y7224444D03*
X1637847Y9764444D03*
X1637847Y12304444D03*
%TD*%
D19*
%TO.C,J1*%
X4177847Y23713644D03*
D20*
X4177847Y25713644D03*
X4177847Y27713644D03*
X4177847Y29713644D03*
X4177847Y31713644D03*
X4177847Y33713644D03*
X4177847Y35713644D03*
X4177847Y37713644D03*
X4177847Y39713644D03*
%TD*%
D17*
%TO.C,J2*%
X1637847Y24018444D03*
D18*
X1637847Y26558444D03*
X1637847Y29098444D03*
X1637847Y31638444D03*
X1637847Y34178444D03*
X1637847Y36718444D03*
X1637847Y39258444D03*
X1637847Y41798444D03*
X1637847Y44338444D03*
%TD*%
D19*
%TO.C,J3*%
X4177847Y4587444D03*
D20*
X4177847Y6587444D03*
X4177847Y8587444D03*
X4177847Y10587444D03*
X4177847Y12587444D03*
%TD*%
M02*
