M48
; DRILL file {KiCad 7.0.1} date Mon Mar 27 01:20:54 2023
; FORMAT={-:-/ absolute / inch / decimal}
; #@! TF.CreationDate,2023-03-27T01:20:54+09:00
; #@! TF.GenerationSoftware,Kicad,Pcbnew,7.0.1
; #@! TF.FileFunction,Plated,1,2,PTH
FMAT,2
INCH
; #@! TA.AperFunction,Plated,PTH,ViaDrill
T1C0.0157
; #@! TA.AperFunction,Plated,PTH,ComponentDrill
T2C0.0276
; #@! TA.AperFunction,Plated,PTH,ComponentDrill
T3C0.0315
; #@! TA.AperFunction,Plated,PTH,ComponentDrill
T4C0.0354
; #@! TA.AperFunction,Plated,PTH,ComponentDrill
T5C0.0394
; #@! TA.AperFunction,Plated,PTH,ComponentDrill
T6C0.0433
; #@! TA.AperFunction,Plated,PTH,ComponentDrill
T7C0.0512
%
G90
G05
T1
X0.235Y1.129
X0.48Y0.06
X0.65Y0.4484
T2
X0.235Y1.925
X0.335Y1.925
X0.435Y1.925
T3
X0.165Y1.5629
X0.165Y1.4842
X0.165Y1.4054
X0.165Y1.3267
X0.165Y1.248
X0.165Y1.1692
X0.165Y1.0905
X0.165Y1.0117
X0.165Y0.933
X0.165Y0.495
X0.165Y0.4162
X0.165Y0.3375
X0.165Y0.2587
X0.165Y0.18
T4
X0.37Y0.37
X0.37Y0.27
X0.37Y0.17
X1.17Y0.3
X1.17Y0.2
X1.17Y0.1
T5
X0.065Y1.745
X0.065Y1.645
X0.065Y1.545
X0.065Y1.445
X0.065Y1.345
X0.065Y1.245
X0.065Y1.145
X0.065Y1.045
X0.065Y0.945
X0.065Y0.4838
X0.065Y0.3838
X0.065Y0.2838
X0.065Y0.1838
X0.065Y0.0838
X0.345Y0.775
T6
X0.3848Y1.5855
X0.3848Y1.3296
X0.5619Y1.5855
X0.5619Y1.3296
X0.8566Y1.0331
X0.8566Y0.856
X0.8568Y2.0561
X0.8568Y1.8789
X0.8568Y1.5455
X0.8568Y1.3683
X1.1125Y1.0331
X1.1125Y0.856
X1.1127Y2.0561
X1.1127Y1.8789
X1.1127Y1.5455
X1.1127Y1.3683
X1.4077Y1.586
X1.4077Y1.3301
X1.4872Y0.403
X1.4872Y0.1471
X1.5849Y1.586
X1.5849Y1.3301
X1.6644Y0.403
X1.6644Y0.1471
T7
X0.375Y1.7037
X0.375Y1.2115
X0.5719Y1.7037
X0.5719Y1.2115
X0.7384Y1.043
X0.7384Y0.8462
X0.7388Y2.0659
X0.7388Y1.869
X0.7388Y1.5552
X0.7388Y1.3584
X1.2305Y1.043
X1.2305Y0.8462
X1.2309Y2.0659
X1.2309Y1.869
X1.2309Y1.5552
X1.2309Y1.3584
X1.3978Y1.7041
X1.3978Y1.2119
X1.5947Y1.7041
X1.5947Y1.2119
T0
M30
