%TF.GenerationSoftware,KiCad,Pcbnew,7.0.1*%
%TF.CreationDate,2023-03-28T22:02:51+09:00*%
%TF.ProjectId,monitor_osd_control,6d6f6e69-746f-4725-9f6f-73645f636f6e,5*%
%TF.SameCoordinates,PX7ab0ef8PY7236868*%
%TF.FileFunction,Copper,L1,Top*%
%TF.FilePolarity,Positive*%
%FSLAX46Y46*%
G04 Gerber Fmt 4.6, Leading zero omitted, Abs format (unit mm)*
G04 Created by KiCad (PCBNEW 7.0.1) date 2023-03-28 22:02:51*
%MOMM*%
%LPD*%
G01*
G04 APERTURE LIST*
G04 Aperture macros list*
%AMRoundRect*
0 Rectangle with rounded corners*
0 $1 Rounding radius*
0 $2 $3 $4 $5 $6 $7 $8 $9 X,Y pos of 4 corners*
0 Add a 4 corners polygon primitive as box body*
4,1,4,$2,$3,$4,$5,$6,$7,$8,$9,$2,$3,0*
0 Add four circle primitives for the rounded corners*
1,1,$1+$1,$2,$3*
1,1,$1+$1,$4,$5*
1,1,$1+$1,$6,$7*
1,1,$1+$1,$8,$9*
0 Add four rect primitives between the rounded corners*
20,1,$1+$1,$2,$3,$4,$5,0*
20,1,$1+$1,$4,$5,$6,$7,0*
20,1,$1+$1,$6,$7,$8,$9,0*
20,1,$1+$1,$8,$9,$2,$3,0*%
G04 Aperture macros list end*
%TA.AperFunction,ComponentPad*%
%ADD10O,1.850000X3.048000*%
%TD*%
%TA.AperFunction,ComponentPad*%
%ADD11C,2.000000*%
%TD*%
%TA.AperFunction,ComponentPad*%
%ADD12RoundRect,0.250200X-0.649800X0.649800X-0.649800X-0.649800X0.649800X-0.649800X0.649800X0.649800X0*%
%TD*%
%TA.AperFunction,ComponentPad*%
%ADD13C,1.800000*%
%TD*%
%TA.AperFunction,ComponentPad*%
%ADD14R,1.800000X1.800000*%
%TD*%
%TA.AperFunction,ComponentPad*%
%ADD15C,1.500000*%
%TD*%
%TA.AperFunction,ComponentPad*%
%ADD16O,3.048000X1.850000*%
%TD*%
%TA.AperFunction,SMDPad,CuDef*%
%ADD17RoundRect,0.250000X-1.050000X-0.550000X1.050000X-0.550000X1.050000X0.550000X-1.050000X0.550000X0*%
%TD*%
%TA.AperFunction,SMDPad,CuDef*%
%ADD18RoundRect,0.250000X0.450000X-0.350000X0.450000X0.350000X-0.450000X0.350000X-0.450000X-0.350000X0*%
%TD*%
%TA.AperFunction,SMDPad,CuDef*%
%ADD19RoundRect,0.250000X0.475000X-0.337500X0.475000X0.337500X-0.475000X0.337500X-0.475000X-0.337500X0*%
%TD*%
%TA.AperFunction,SMDPad,CuDef*%
%ADD20RoundRect,0.250000X0.400000X0.600000X-0.400000X0.600000X-0.400000X-0.600000X0.400000X-0.600000X0*%
%TD*%
%TA.AperFunction,ComponentPad*%
%ADD21R,1.700000X1.700000*%
%TD*%
%TA.AperFunction,ComponentPad*%
%ADD22O,1.700000X1.700000*%
%TD*%
%TA.AperFunction,ComponentPad*%
%ADD23R,1.350000X1.350000*%
%TD*%
%TA.AperFunction,ComponentPad*%
%ADD24O,1.350000X1.350000*%
%TD*%
%TA.AperFunction,ViaPad*%
%ADD25C,0.800000*%
%TD*%
%TA.AperFunction,Conductor*%
%ADD26C,0.250000*%
%TD*%
%TA.AperFunction,Conductor*%
%ADD27C,0.300000*%
%TD*%
%TA.AperFunction,Conductor*%
%ADD28C,0.500000*%
%TD*%
G04 APERTURE END LIST*
D10*
%TO.P,SW1,1,1*%
%TO.N,/VOL_M*%
X9525000Y30773000D03*
D11*
X9773400Y33771200D03*
X9773400Y40271200D03*
D10*
X9525000Y43273000D03*
%TO.P,SW1,2,2*%
%TO.N,GND*%
X14525000Y30773000D03*
D11*
X14273400Y33771200D03*
X14273400Y40271200D03*
D10*
X14525000Y43273000D03*
%TD*%
D12*
%TO.P,U1,1,OUT*%
%TO.N,/IRIN*%
X9398000Y9398000D03*
D13*
%TO.P,U1,2,GND*%
%TO.N,GND*%
X9398000Y6858000D03*
%TO.P,U1,3,Vs*%
%TO.N,Net-(C1-Pad1)*%
X9398000Y4318000D03*
%TD*%
D14*
%TO.P,D2,1,A1*%
%TO.N,/LED_R*%
X29718000Y2540000D03*
D13*
%TO.P,D2,2,K*%
%TO.N,GND*%
X29718000Y5080000D03*
%TO.P,D2,3,A2*%
%TO.N,/LED_G*%
X29718000Y7620000D03*
%TD*%
D11*
%TO.P,SW6,1,1*%
%TO.N,/POWER*%
X42275000Y10236200D03*
X42275000Y3736200D03*
%TO.P,SW6,2,2*%
%TO.N,GND*%
X37775000Y10236200D03*
X37775000Y3736200D03*
%TD*%
D15*
%TO.P,TP2,1,1*%
%TO.N,/SOURCE*%
X5969000Y48895000D03*
%TD*%
D10*
%TO.P,SW5,1,1*%
%TO.N,/VOL_P*%
X40505000Y43283000D03*
D11*
X40256600Y40284800D03*
X40256600Y33784800D03*
D10*
X40505000Y30783000D03*
%TO.P,SW5,2,2*%
%TO.N,GND*%
X35505000Y43283000D03*
D11*
X35756600Y40284800D03*
X35756600Y33784800D03*
D10*
X35505000Y30783000D03*
%TD*%
D15*
%TO.P,TP1,1,1*%
%TO.N,/POWER*%
X11049000Y48895000D03*
%TD*%
%TO.P,TP3,1,1*%
%TO.N,GND*%
X8509000Y48895000D03*
%TD*%
D16*
%TO.P,SW4,1,1*%
%TO.N,/DOWN*%
X31255000Y21493000D03*
D11*
X28256800Y21741400D03*
X21756800Y21741400D03*
D16*
X18755000Y21493000D03*
%TO.P,SW4,2,2*%
%TO.N,GND*%
X31255000Y26493000D03*
D11*
X28256800Y26241400D03*
X21756800Y26241400D03*
D16*
X18755000Y26493000D03*
%TD*%
D17*
%TO.P,E1,1*%
%TO.N,Net-(C1-Pad1)*%
X25886000Y11557000D03*
%TO.P,E1,2*%
%TO.N,GND*%
X29486000Y11557000D03*
%TD*%
D16*
%TO.P,SW2,1,1*%
%TO.N,/UP*%
X18765000Y52473000D03*
D11*
X21763200Y52224600D03*
X28263200Y52224600D03*
D16*
X31265000Y52473000D03*
%TO.P,SW2,2,2*%
%TO.N,GND*%
X18765000Y47473000D03*
D11*
X21763200Y47724600D03*
X28263200Y47724600D03*
D16*
X31265000Y47473000D03*
%TD*%
D18*
%TO.P,R1,1*%
%TO.N,/IRIN*%
X18059400Y11471400D03*
%TO.P,R1,2*%
%TO.N,Net-(C1-Pad1)*%
X18059400Y13471400D03*
%TD*%
D19*
%TO.P,C1,1*%
%TO.N,Net-(C1-Pad1)*%
X22479000Y11433900D03*
%TO.P,C1,2*%
%TO.N,GND*%
X22479000Y13508900D03*
%TD*%
D11*
%TO.P,TP4,1,1*%
%TO.N,GND*%
X8763000Y19685000D03*
%TD*%
D19*
%TO.P,C2,1*%
%TO.N,/IRIN*%
X20243800Y11433900D03*
%TO.P,C2,2*%
%TO.N,GND*%
X20243800Y13508900D03*
%TD*%
D20*
%TO.P,D1,1,K*%
%TO.N,Net-(C1-Pad1)*%
X14831000Y12446000D03*
%TO.P,D1,2,A*%
%TO.N,+5V*%
X11331000Y12446000D03*
%TD*%
D16*
%TO.P,SW3,1,1*%
%TO.N,/MENU*%
X18765000Y39503000D03*
D11*
X21763200Y39254600D03*
X28263200Y39254600D03*
D16*
X31265000Y39503000D03*
%TO.P,SW3,2,2*%
%TO.N,GND*%
X18765000Y34503000D03*
D11*
X21763200Y34754600D03*
X28263200Y34754600D03*
D16*
X31265000Y34503000D03*
%TD*%
D21*
%TO.P,J4,1,Pin_1*%
%TO.N,+5V*%
X1651000Y2129000D03*
D22*
%TO.P,J4,2,Pin_2*%
%TO.N,/LED_R*%
X1651000Y4669000D03*
%TO.P,J4,3,Pin_3*%
%TO.N,/LED_G*%
X1651000Y7209000D03*
%TO.P,J4,4,Pin_4*%
%TO.N,/IRIN*%
X1651000Y9749000D03*
%TO.P,J4,5,Pin_5*%
%TO.N,GND*%
X1651000Y12289000D03*
%TD*%
D23*
%TO.P,J1,1,Pin_1*%
%TO.N,GND*%
X4191000Y23698200D03*
D24*
%TO.P,J1,2,Pin_2*%
%TO.N,/SOURCE*%
X4191000Y25698200D03*
%TO.P,J1,3,Pin_3*%
%TO.N,/UP*%
X4191000Y27698200D03*
%TO.P,J1,4,Pin_4*%
%TO.N,/DOWN*%
X4191000Y29698200D03*
%TO.P,J1,5,Pin_5*%
%TO.N,/VOL_P*%
X4191000Y31698200D03*
%TO.P,J1,6,Pin_6*%
%TO.N,/VOL_M*%
X4191000Y33698200D03*
%TO.P,J1,7,Pin_7*%
%TO.N,/MENU*%
X4191000Y35698200D03*
%TO.P,J1,8,Pin_8*%
%TO.N,/POWER*%
X4191000Y37698200D03*
%TO.P,J1,9,Pin_9*%
%TO.N,GND*%
X4191000Y39698200D03*
%TD*%
D21*
%TO.P,J2,1,Pin_1*%
%TO.N,GND*%
X1651000Y24003000D03*
D22*
%TO.P,J2,2,Pin_2*%
%TO.N,/SOURCE*%
X1651000Y26543000D03*
%TO.P,J2,3,Pin_3*%
%TO.N,/UP*%
X1651000Y29083000D03*
%TO.P,J2,4,Pin_4*%
%TO.N,/DOWN*%
X1651000Y31623000D03*
%TO.P,J2,5,Pin_5*%
%TO.N,/VOL_P*%
X1651000Y34163000D03*
%TO.P,J2,6,Pin_6*%
%TO.N,/VOL_M*%
X1651000Y36703000D03*
%TO.P,J2,7,Pin_7*%
%TO.N,/MENU*%
X1651000Y39243000D03*
%TO.P,J2,8,Pin_8*%
%TO.N,/POWER*%
X1651000Y41783000D03*
%TO.P,J2,9,Pin_9*%
%TO.N,GND*%
X1651000Y44323000D03*
%TD*%
D23*
%TO.P,J3,1,Pin_1*%
%TO.N,+5V*%
X4191000Y4572000D03*
D24*
%TO.P,J3,2,Pin_2*%
%TO.N,/LED_R*%
X4191000Y6572000D03*
%TO.P,J3,3,Pin_3*%
%TO.N,/LED_G*%
X4191000Y8572000D03*
%TO.P,J3,4,Pin_4*%
%TO.N,/IRIN*%
X4191000Y10572000D03*
%TO.P,J3,5,Pin_5*%
%TO.N,GND*%
X4191000Y12572000D03*
%TD*%
D25*
%TO.N,/SOURCE*%
X5969000Y28676600D03*
%TO.N,/IRIN*%
X16510000Y11388688D03*
%TO.N,Net-(C1-Pad1)*%
X12192000Y1524000D03*
%TD*%
D26*
%TO.N,/SOURCE*%
X4463800Y25698200D02*
X4191000Y25698200D01*
X3346200Y26543000D02*
X4191000Y25698200D01*
X1651000Y26543000D02*
X3346200Y26543000D01*
X5969000Y27203400D02*
X4463800Y25698200D01*
X5969000Y28676600D02*
X5969000Y27203400D01*
%TO.N,/UP*%
X3772400Y27698200D02*
X4191000Y27698200D01*
X2387600Y29083000D02*
X3772400Y27698200D01*
X1651000Y29083000D02*
X2387600Y29083000D01*
X19013400Y52224600D02*
X31016600Y52224600D01*
X18765000Y52473000D02*
X19013400Y52224600D01*
X31016600Y52224600D02*
X31265000Y52473000D01*
%TO.N,/VOL_P*%
X5462000Y31698200D02*
X4191000Y31698200D01*
X38068400Y28346400D02*
X8813800Y28346400D01*
X40505000Y30783000D02*
X40256600Y31031400D01*
X4115800Y31698200D02*
X1651000Y34163000D01*
X4191000Y31698200D02*
X4115800Y31698200D01*
X8813800Y28346400D02*
X5462000Y31698200D01*
X40256600Y31031400D02*
X40256600Y43034600D01*
X40256600Y43034600D02*
X40505000Y43283000D01*
X40505000Y30783000D02*
X38068400Y28346400D01*
%TO.N,/DOWN*%
X1930400Y31623000D02*
X1651000Y31623000D01*
X18755000Y21493000D02*
X19003400Y21741400D01*
X4191000Y29698200D02*
X3855200Y29698200D01*
X19003400Y21741400D02*
X31006600Y21741400D01*
X14676600Y21493000D02*
X6471400Y29698200D01*
X18755000Y21493000D02*
X14676600Y21493000D01*
X31006600Y21741400D02*
X31255000Y21493000D01*
X6471400Y29698200D02*
X4191000Y29698200D01*
X3855200Y29698200D02*
X1930400Y31623000D01*
%TO.N,/VOL_M*%
X9525000Y43273000D02*
X9773400Y43024600D01*
D27*
X6599800Y33698200D02*
X4191000Y33698200D01*
D26*
X9773400Y43024600D02*
X9773400Y31021400D01*
D27*
X4191000Y33807400D02*
X1651000Y36347400D01*
X9525000Y30773000D02*
X6599800Y33698200D01*
X1651000Y36347400D02*
X1651000Y36703000D01*
D26*
X9773400Y31021400D02*
X9525000Y30773000D01*
D27*
X4191000Y33698200D02*
X4191000Y33807400D01*
D26*
%TO.N,/POWER*%
X4191000Y37698200D02*
X2997200Y38892000D01*
X42275000Y45913800D02*
X42275000Y10236200D01*
X16662400Y54508400D02*
X33680400Y54508400D01*
X11049000Y48895000D02*
X6324600Y44170600D01*
X33680400Y54508400D02*
X42275000Y45913800D01*
X6324600Y44170600D02*
X6324600Y39831800D01*
X2997200Y38892000D02*
X2997200Y40436800D01*
X2997200Y40436800D02*
X1651000Y41783000D01*
X6324600Y39831800D02*
X4191000Y37698200D01*
X42275000Y10236200D02*
X42275000Y3736200D01*
X11049000Y48895000D02*
X16662400Y54508400D01*
D28*
%TO.N,GND*%
X6731000Y17653000D02*
X8763000Y19685000D01*
X4572000Y44323000D02*
X8509000Y48260000D01*
X4191000Y12572000D02*
X5588000Y11175000D01*
X4191000Y41783000D02*
X1651000Y44323000D01*
X1651000Y24003000D02*
X1955800Y23698200D01*
X27813000Y9144000D02*
X27813000Y6477000D01*
X1651000Y44323000D02*
X4572000Y44323000D01*
X37775000Y10236200D02*
X37775000Y3736200D01*
X5588000Y9906000D02*
X8636000Y6858000D01*
X1651000Y12289000D02*
X1934000Y12572000D01*
X35756600Y43031400D02*
X35756600Y31034600D01*
X8636000Y6858000D02*
X9398000Y6858000D01*
X31003400Y26241400D02*
X31255000Y26493000D01*
X14525000Y43273000D02*
X14273400Y43021400D01*
X1955800Y23698200D02*
X4191000Y23698200D01*
X19016600Y34754600D02*
X31013400Y34754600D01*
X18765000Y34503000D02*
X19016600Y34754600D01*
X8509000Y48260000D02*
X8509000Y48895000D01*
X1934000Y12572000D02*
X4191000Y12572000D01*
X4191000Y12572000D02*
X5334000Y12572000D01*
X5334000Y12572000D02*
X6731000Y13969000D01*
X35505000Y43283000D02*
X35756600Y43031400D01*
X19006600Y26241400D02*
X31003400Y26241400D01*
X31013400Y34754600D02*
X31265000Y34503000D01*
X22479000Y13508900D02*
X27534100Y13508900D01*
X14273400Y43021400D02*
X14273400Y31024600D01*
X29486000Y10817000D02*
X27813000Y9144000D01*
X19016600Y47724600D02*
X31013400Y47724600D01*
X14273400Y31024600D02*
X14525000Y30773000D01*
X27813000Y6477000D02*
X29210000Y5080000D01*
X31013400Y47724600D02*
X31265000Y47473000D01*
X18765000Y47473000D02*
X19016600Y47724600D01*
X29486000Y11557000D02*
X29486000Y10817000D01*
X29210000Y5080000D02*
X29718000Y5080000D01*
X6731000Y13969000D02*
X6731000Y17653000D01*
X4191000Y39698200D02*
X4191000Y41783000D01*
X20243800Y13508900D02*
X22479000Y13508900D01*
X27534100Y13508900D02*
X29486000Y11557000D01*
X5588000Y11175000D02*
X5588000Y9906000D01*
X18755000Y26493000D02*
X19006600Y26241400D01*
X35756600Y31034600D02*
X35505000Y30783000D01*
D26*
%TO.N,/MENU*%
X3048000Y36841200D02*
X4191000Y35698200D01*
X1651000Y38811200D02*
X3048000Y37414200D01*
X3048000Y37414200D02*
X3048000Y36841200D01*
X31016600Y39254600D02*
X31265000Y39503000D01*
X4191000Y35698200D02*
X7061200Y38568400D01*
X19013400Y39254600D02*
X31016600Y39254600D01*
X1651000Y39243000D02*
X1651000Y38811200D01*
X9042400Y46075600D02*
X16154400Y46075600D01*
X7061200Y44094400D02*
X9042400Y46075600D01*
X18765000Y39503000D02*
X19013400Y39254600D01*
X7061200Y38568400D02*
X7061200Y44094400D01*
X18765000Y43465000D02*
X18765000Y39503000D01*
X16154400Y46075600D02*
X18765000Y43465000D01*
D28*
%TO.N,+5V*%
X1651000Y2129000D02*
X2637000Y1143000D01*
X1748000Y2129000D02*
X4191000Y4572000D01*
X11684000Y12093000D02*
X11331000Y12446000D01*
X1651000Y2129000D02*
X1748000Y2129000D01*
X2637000Y1143000D02*
X9906000Y1143000D01*
X9906000Y1143000D02*
X11684000Y2921000D01*
X11684000Y2921000D02*
X11684000Y12093000D01*
D26*
%TO.N,/IRIN*%
X18059400Y11471400D02*
X20206300Y11471400D01*
X16592712Y11471400D02*
X18059400Y11471400D01*
X20206300Y11471400D02*
X20243800Y11433900D01*
X16510000Y11388688D02*
X16592712Y11471400D01*
D28*
%TO.N,Net-(C1-Pad1)*%
X22479000Y11433900D02*
X25762900Y11433900D01*
X25886000Y4169000D02*
X25886000Y11557000D01*
X14831000Y12446000D02*
X15856400Y13471400D01*
X14831000Y12446000D02*
X14831000Y11204000D01*
X14831000Y11204000D02*
X15875000Y10160000D01*
X15875000Y10160000D02*
X21590000Y10160000D01*
X15856400Y13471400D02*
X18059400Y13471400D01*
X22479000Y11049000D02*
X22479000Y11433900D01*
X23241000Y1524000D02*
X25886000Y4169000D01*
X25762900Y11433900D02*
X25886000Y11557000D01*
X21590000Y10160000D02*
X22479000Y11049000D01*
X12192000Y1524000D02*
X23241000Y1524000D01*
%TD*%
M02*
