%TF.GenerationSoftware,KiCad,Pcbnew,7.0.9*%
%TF.CreationDate,2023-12-18T23:10:01+09:00*%
%TF.ProjectId,ipad_osd_control,69706164-5f6f-4736-945f-636f6e74726f,1*%
%TF.SameCoordinates,Original*%
%TF.FileFunction,Copper,L2,Bot*%
%TF.FilePolarity,Positive*%
%FSLAX46Y46*%
G04 Gerber Fmt 4.6, Leading zero omitted, Abs format (unit mm)*
G04 Created by KiCad (PCBNEW 7.0.9) date 2023-12-18 23:10:01*
%MOMM*%
%LPD*%
G01*
G04 APERTURE LIST*
G04 Aperture macros list*
%AMRoundRect*
0 Rectangle with rounded corners*
0 $1 Rounding radius*
0 $2 $3 $4 $5 $6 $7 $8 $9 X,Y pos of 4 corners*
0 Add a 4 corners polygon primitive as box body*
4,1,4,$2,$3,$4,$5,$6,$7,$8,$9,$2,$3,0*
0 Add four circle primitives for the rounded corners*
1,1,$1+$1,$2,$3*
1,1,$1+$1,$4,$5*
1,1,$1+$1,$6,$7*
1,1,$1+$1,$8,$9*
0 Add four rect primitives between the rounded corners*
20,1,$1+$1,$2,$3,$4,$5,0*
20,1,$1+$1,$4,$5,$6,$7,0*
20,1,$1+$1,$6,$7,$8,$9,0*
20,1,$1+$1,$8,$9,$2,$3,0*%
G04 Aperture macros list end*
%TA.AperFunction,ComponentPad*%
%ADD10C,2.000000*%
%TD*%
%TA.AperFunction,ComponentPad*%
%ADD11C,1.800000*%
%TD*%
%TA.AperFunction,ComponentPad*%
%ADD12R,1.800000X1.800000*%
%TD*%
%TA.AperFunction,ComponentPad*%
%ADD13O,1.300000X0.800000*%
%TD*%
%TA.AperFunction,ComponentPad*%
%ADD14RoundRect,0.200000X0.450000X-0.200000X0.450000X0.200000X-0.450000X0.200000X-0.450000X-0.200000X0*%
%TD*%
%TA.AperFunction,ComponentPad*%
%ADD15RoundRect,0.248400X0.651600X-0.651600X0.651600X0.651600X-0.651600X0.651600X-0.651600X-0.651600X0*%
%TD*%
%TA.AperFunction,Conductor*%
%ADD16C,0.250000*%
%TD*%
%TA.AperFunction,Conductor*%
%ADD17C,0.200000*%
%TD*%
G04 APERTURE END LIST*
D10*
%TO.P,SW2,2,2*%
%TO.N,/GND*%
X131520000Y-83530000D03*
X125020000Y-83530000D03*
%TO.P,SW2,1,1*%
%TO.N,/VOL+*%
X131520000Y-79030000D03*
X125020000Y-79030000D03*
%TD*%
%TO.P,SW3,1,1*%
%TO.N,/VOL-*%
X125020000Y-89190000D03*
X131520000Y-89190000D03*
%TO.P,SW3,2,2*%
%TO.N,/GND*%
X125020000Y-93690000D03*
X131520000Y-93690000D03*
%TD*%
%TO.P,SW1,1,1*%
%TO.N,/PWR*%
X135180000Y-99350000D03*
X141680000Y-99350000D03*
%TO.P,SW1,2,2*%
%TO.N,/GND*%
X135180000Y-103850000D03*
X141680000Y-103850000D03*
%TD*%
D11*
%TO.P,D1,3,A2*%
%TO.N,/LED_G*%
X128270000Y-106680000D03*
%TO.P,D1,2,K*%
%TO.N,/GND*%
X128270000Y-104140000D03*
D12*
%TO.P,D1,1,A1*%
%TO.N,/LED_R*%
X128270000Y-101600000D03*
%TD*%
D13*
%TO.P,J2,10,Pin_10*%
%TO.N,/LED_R*%
X117576600Y-81756900D03*
%TO.P,J2,9,Pin_9*%
%TO.N,/LED_G*%
X117576600Y-83006900D03*
%TO.P,J2,8,Pin_8*%
%TO.N,unconnected-(J2-Pin_8-Pad8)*%
X117576600Y-84256900D03*
%TO.P,J2,7,Pin_7*%
%TO.N,/VOL-*%
X117576600Y-85506900D03*
%TO.P,J2,6,Pin_6*%
%TO.N,/VOL+*%
X117576600Y-86756900D03*
%TO.P,J2,5,Pin_5*%
%TO.N,unconnected-(J2-Pin_5-Pad5)*%
X117576600Y-88006900D03*
%TO.P,J2,4,Pin_4*%
%TO.N,/PWR*%
X117576600Y-89256900D03*
%TO.P,J2,3,Pin_3*%
%TO.N,/IR*%
X117576600Y-90506900D03*
%TO.P,J2,2,Pin_2*%
%TO.N,/GND*%
X117576600Y-91756900D03*
D14*
%TO.P,J2,1,Pin_1*%
%TO.N,/VCC*%
X117576600Y-93006900D03*
%TD*%
D15*
%TO.P,U1,1,OUT*%
%TO.N,/IR*%
X124460000Y-104140000D03*
D11*
%TO.P,U1,2,GND*%
%TO.N,/GND*%
X124460000Y-101600000D03*
%TO.P,U1,3,Vs*%
%TO.N,/VCC*%
X124460000Y-99060000D03*
%TD*%
D14*
%TO.P,J1,1,Pin_1*%
%TO.N,/VCC*%
X113766600Y-91736900D03*
D13*
%TO.P,J1,2,Pin_2*%
%TO.N,/GND*%
X113766600Y-90486900D03*
%TO.P,J1,3,Pin_3*%
%TO.N,/IR*%
X113766600Y-89236900D03*
%TO.P,J1,4,Pin_4*%
%TO.N,/PWR*%
X113766600Y-87986900D03*
%TO.P,J1,5,Pin_5*%
%TO.N,/VOL+*%
X113766600Y-86736900D03*
%TO.P,J1,6,Pin_6*%
%TO.N,/VOL-*%
X113766600Y-85486900D03*
%TO.P,J1,7,Pin_7*%
%TO.N,/LED_G*%
X113766600Y-84236900D03*
%TO.P,J1,8,Pin_8*%
%TO.N,/LED_R*%
X113766600Y-82986900D03*
%TD*%
D16*
%TO.N,/GND*%
X123086900Y-91756900D02*
X125020000Y-93690000D01*
X117576600Y-91756900D02*
X123086900Y-91756900D01*
X131520000Y-100190000D02*
X131520000Y-93690000D01*
X135180000Y-103850000D02*
X131520000Y-100190000D01*
X134890000Y-104140000D02*
X135180000Y-103850000D01*
X128270000Y-104140000D02*
X134890000Y-104140000D01*
X133985000Y-91225000D02*
X131520000Y-93690000D01*
X133985000Y-85995000D02*
X133985000Y-91225000D01*
X131520000Y-83530000D02*
X133985000Y-85995000D01*
D17*
%TO.N,/VOL+*%
X125020000Y-79030000D02*
X131520000Y-79030000D01*
D16*
%TO.N,/PWR*%
X135180000Y-99350000D02*
X141680000Y-99350000D01*
%TO.N,/GND*%
X125222000Y-101600000D02*
X124460000Y-101600000D01*
X127762000Y-104140000D02*
X125222000Y-101600000D01*
X128270000Y-104140000D02*
X127762000Y-104140000D01*
%TO.N,/LED_G*%
X114281600Y-84236900D02*
X115511600Y-83006900D01*
X113766600Y-84236900D02*
X114281600Y-84236900D01*
X115511600Y-83006900D02*
X117576600Y-83006900D01*
%TO.N,/GND*%
X115552600Y-91756900D02*
X117576600Y-91756900D01*
X114282600Y-90486900D02*
X115552600Y-91756900D01*
X113766600Y-90486900D02*
X114282600Y-90486900D01*
%TO.N,/IR*%
X114165600Y-89236900D02*
X115435600Y-90506900D01*
X115435600Y-90506900D02*
X117576600Y-90506900D01*
X113766600Y-89236900D02*
X114165600Y-89236900D01*
%TO.N,/LED_R*%
X114996600Y-81756900D02*
X117576600Y-81756900D01*
X113766600Y-82986900D02*
X114996600Y-81756900D01*
%TO.N,/GND*%
X131520000Y-83530000D02*
X125020000Y-83530000D01*
X131520000Y-93690000D02*
X125020000Y-93690000D01*
%TO.N,/VCC*%
X113766600Y-91736900D02*
X115036600Y-93006900D01*
X115036600Y-93006900D02*
X117576600Y-93006900D01*
%TO.N,/PWR*%
X113766600Y-87986900D02*
X114016600Y-87986900D01*
%TO.N,/GND*%
X135180000Y-103850000D02*
X141680000Y-103850000D01*
%TO.N,/PWR*%
X114016600Y-87986900D02*
X115286600Y-89256900D01*
X115286600Y-89256900D02*
X117576600Y-89256900D01*
D17*
%TO.N,/VOL+*%
X113766600Y-86736900D02*
X117556600Y-86736900D01*
X117556600Y-86736900D02*
X117576600Y-86756900D01*
%TO.N,/VOL-*%
X125020000Y-89190000D02*
X131520000Y-89190000D01*
X113766600Y-85486900D02*
X117556600Y-85486900D01*
X117556600Y-85486900D02*
X117576600Y-85506900D01*
%TD*%
M02*
