%TF.GenerationSoftware,KiCad,Pcbnew,7.0.9*%
%TF.CreationDate,2023-12-18T23:10:00+09:00*%
%TF.ProjectId,ipad_osd_control,69706164-5f6f-4736-945f-636f6e74726f,1*%
%TF.SameCoordinates,Original*%
%TF.FileFunction,Copper,L1,Top*%
%TF.FilePolarity,Positive*%
%FSLAX46Y46*%
G04 Gerber Fmt 4.6, Leading zero omitted, Abs format (unit mm)*
G04 Created by KiCad (PCBNEW 7.0.9) date 2023-12-18 23:10:01*
%MOMM*%
%LPD*%
G01*
G04 APERTURE LIST*
G04 Aperture macros list*
%AMRoundRect*
0 Rectangle with rounded corners*
0 $1 Rounding radius*
0 $2 $3 $4 $5 $6 $7 $8 $9 X,Y pos of 4 corners*
0 Add a 4 corners polygon primitive as box body*
4,1,4,$2,$3,$4,$5,$6,$7,$8,$9,$2,$3,0*
0 Add four circle primitives for the rounded corners*
1,1,$1+$1,$2,$3*
1,1,$1+$1,$4,$5*
1,1,$1+$1,$6,$7*
1,1,$1+$1,$8,$9*
0 Add four rect primitives between the rounded corners*
20,1,$1+$1,$2,$3,$4,$5,0*
20,1,$1+$1,$4,$5,$6,$7,0*
20,1,$1+$1,$6,$7,$8,$9,0*
20,1,$1+$1,$8,$9,$2,$3,0*%
G04 Aperture macros list end*
%TA.AperFunction,ComponentPad*%
%ADD10C,2.000000*%
%TD*%
%TA.AperFunction,ComponentPad*%
%ADD11C,1.800000*%
%TD*%
%TA.AperFunction,ComponentPad*%
%ADD12R,1.800000X1.800000*%
%TD*%
%TA.AperFunction,ComponentPad*%
%ADD13O,1.300000X0.800000*%
%TD*%
%TA.AperFunction,ComponentPad*%
%ADD14RoundRect,0.200000X0.450000X-0.200000X0.450000X0.200000X-0.450000X0.200000X-0.450000X-0.200000X0*%
%TD*%
%TA.AperFunction,ComponentPad*%
%ADD15RoundRect,0.248400X0.651600X-0.651600X0.651600X0.651600X-0.651600X0.651600X-0.651600X-0.651600X0*%
%TD*%
%TA.AperFunction,Conductor*%
%ADD16C,0.250000*%
%TD*%
%TA.AperFunction,Conductor*%
%ADD17C,0.200000*%
%TD*%
G04 APERTURE END LIST*
D10*
%TO.P,SW2,2,2*%
%TO.N,/GND*%
X131520000Y-83530000D03*
X125020000Y-83530000D03*
%TO.P,SW2,1,1*%
%TO.N,/VOL+*%
X131520000Y-79030000D03*
X125020000Y-79030000D03*
%TD*%
%TO.P,SW3,1,1*%
%TO.N,/VOL-*%
X125020000Y-89190000D03*
X131520000Y-89190000D03*
%TO.P,SW3,2,2*%
%TO.N,/GND*%
X125020000Y-93690000D03*
X131520000Y-93690000D03*
%TD*%
%TO.P,SW1,1,1*%
%TO.N,/PWR*%
X135180000Y-99350000D03*
X141680000Y-99350000D03*
%TO.P,SW1,2,2*%
%TO.N,/GND*%
X135180000Y-103850000D03*
X141680000Y-103850000D03*
%TD*%
D11*
%TO.P,D1,3,A2*%
%TO.N,/LED_G*%
X128270000Y-106680000D03*
%TO.P,D1,2,K*%
%TO.N,/GND*%
X128270000Y-104140000D03*
D12*
%TO.P,D1,1,A1*%
%TO.N,/LED_R*%
X128270000Y-101600000D03*
%TD*%
D13*
%TO.P,J2,10,Pin_10*%
%TO.N,/LED_R*%
X117576600Y-81756900D03*
%TO.P,J2,9,Pin_9*%
%TO.N,/LED_G*%
X117576600Y-83006900D03*
%TO.P,J2,8,Pin_8*%
%TO.N,unconnected-(J2-Pin_8-Pad8)*%
X117576600Y-84256900D03*
%TO.P,J2,7,Pin_7*%
%TO.N,/VOL-*%
X117576600Y-85506900D03*
%TO.P,J2,6,Pin_6*%
%TO.N,/VOL+*%
X117576600Y-86756900D03*
%TO.P,J2,5,Pin_5*%
%TO.N,unconnected-(J2-Pin_5-Pad5)*%
X117576600Y-88006900D03*
%TO.P,J2,4,Pin_4*%
%TO.N,/PWR*%
X117576600Y-89256900D03*
%TO.P,J2,3,Pin_3*%
%TO.N,/IR*%
X117576600Y-90506900D03*
%TO.P,J2,2,Pin_2*%
%TO.N,/GND*%
X117576600Y-91756900D03*
D14*
%TO.P,J2,1,Pin_1*%
%TO.N,/VCC*%
X117576600Y-93006900D03*
%TD*%
D15*
%TO.P,U1,1,OUT*%
%TO.N,/IR*%
X124460000Y-104140000D03*
D11*
%TO.P,U1,2,GND*%
%TO.N,/GND*%
X124460000Y-101600000D03*
%TO.P,U1,3,Vs*%
%TO.N,/VCC*%
X124460000Y-99060000D03*
%TD*%
D14*
%TO.P,J1,1,Pin_1*%
%TO.N,/VCC*%
X113766600Y-91736900D03*
D13*
%TO.P,J1,2,Pin_2*%
%TO.N,/GND*%
X113766600Y-90486900D03*
%TO.P,J1,3,Pin_3*%
%TO.N,/IR*%
X113766600Y-89236900D03*
%TO.P,J1,4,Pin_4*%
%TO.N,/PWR*%
X113766600Y-87986900D03*
%TO.P,J1,5,Pin_5*%
%TO.N,/VOL+*%
X113766600Y-86736900D03*
%TO.P,J1,6,Pin_6*%
%TO.N,/VOL-*%
X113766600Y-85486900D03*
%TO.P,J1,7,Pin_7*%
%TO.N,/LED_G*%
X113766600Y-84236900D03*
%TO.P,J1,8,Pin_8*%
%TO.N,/LED_R*%
X113766600Y-82986900D03*
%TD*%
D16*
%TO.N,/LED_R*%
X126339600Y-103530400D02*
X128270000Y-101600000D01*
X126339600Y-105232200D02*
X126339600Y-103530400D01*
X119024400Y-105968800D02*
X125603000Y-105968800D01*
X117326600Y-81756900D02*
X115570000Y-83513500D01*
X115570000Y-102514400D02*
X119024400Y-105968800D01*
X117576600Y-81756900D02*
X117326600Y-81756900D01*
X115570000Y-83513500D02*
X115570000Y-102514400D01*
X125603000Y-105968800D02*
X126339600Y-105232200D01*
%TO.N,/IR*%
X118142100Y-90506900D02*
X117576600Y-90506900D01*
X126085600Y-98450400D02*
X118142100Y-90506900D01*
X124460000Y-104140000D02*
X126085600Y-102514400D01*
X126085600Y-102514400D02*
X126085600Y-98450400D01*
%TO.N,/PWR*%
X128102800Y-99350000D02*
X135180000Y-99350000D01*
X118009700Y-89256900D02*
X128102800Y-99350000D01*
X117576600Y-89256900D02*
X118009700Y-89256900D01*
%TO.N,/LED_G*%
X115062000Y-85090000D02*
X114208900Y-84236900D01*
X114208900Y-84236900D02*
X113766600Y-84236900D01*
X118922800Y-106680000D02*
X115062000Y-102819200D01*
X115062000Y-102819200D02*
X115062000Y-85090000D01*
X128270000Y-106680000D02*
X118922800Y-106680000D01*
D17*
%TO.N,/VOL+*%
X126695200Y-80705200D02*
X125020000Y-79030000D01*
X126695200Y-89916000D02*
X126695200Y-80705200D01*
X122326400Y-90982800D02*
X125628400Y-90982800D01*
X125628400Y-90982800D02*
X126695200Y-89916000D01*
X118100500Y-86756900D02*
X122326400Y-90982800D01*
X117576600Y-86756900D02*
X118100500Y-86756900D01*
%TO.N,/VOL-*%
X117576600Y-85506900D02*
X121336900Y-85506900D01*
X121336900Y-85506900D02*
X125020000Y-89190000D01*
D16*
%TO.N,/VCC*%
X123629700Y-99060000D02*
X117576600Y-93006900D01*
X124460000Y-99060000D02*
X123629700Y-99060000D01*
D17*
%TO.N,/VOL+*%
X113766600Y-86736900D02*
X113338600Y-86736900D01*
D16*
%TO.N,/IR*%
X113766600Y-89236900D02*
X113218600Y-89236900D01*
%TD*%
M02*
