%TF.GenerationSoftware,KiCad,Pcbnew,7.0.9*%
%TF.CreationDate,2023-12-18T23:10:01+09:00*%
%TF.ProjectId,ipad_osd_control,69706164-5f6f-4736-945f-636f6e74726f,1*%
%TF.SameCoordinates,Original*%
%TF.FileFunction,Legend,Top*%
%TF.FilePolarity,Positive*%
%FSLAX46Y46*%
G04 Gerber Fmt 4.6, Leading zero omitted, Abs format (unit mm)*
G04 Created by KiCad (PCBNEW 7.0.9) date 2023-12-18 23:10:01*
%MOMM*%
%LPD*%
G01*
G04 APERTURE LIST*
%ADD10C,0.150000*%
%ADD11C,0.120000*%
G04 APERTURE END LIST*
D10*
G36*
X133866464Y-84212476D02*
G01*
X132811703Y-84212476D01*
X132811703Y-83566047D01*
X132954560Y-83566047D01*
X132955745Y-83569304D01*
X132956799Y-83584237D01*
X133004418Y-83774713D01*
X133006406Y-83777657D01*
X133010097Y-83790064D01*
X133057716Y-83885302D01*
X133058902Y-83886425D01*
X133071765Y-83904794D01*
X133167003Y-84000033D01*
X133171067Y-84001928D01*
X133173414Y-84005748D01*
X133196319Y-84018151D01*
X133339175Y-84065770D01*
X133340810Y-84065725D01*
X133362893Y-84069619D01*
X133458131Y-84069619D01*
X133459669Y-84069058D01*
X133481848Y-84065770D01*
X133624705Y-84018151D01*
X133628216Y-84015363D01*
X133632685Y-84014973D01*
X133654022Y-84000032D01*
X133701640Y-83952413D01*
X133708558Y-83937575D01*
X133719084Y-83925032D01*
X133721927Y-83908904D01*
X133723321Y-83905916D01*
X133722798Y-83903965D01*
X133723607Y-83899380D01*
X133723607Y-83566047D01*
X133716943Y-83547738D01*
X133713559Y-83528547D01*
X133708374Y-83524196D01*
X133706060Y-83517838D01*
X133689186Y-83508095D01*
X133674259Y-83495570D01*
X133664516Y-83493852D01*
X133661631Y-83492186D01*
X133658348Y-83492764D01*
X133648607Y-83491047D01*
X133458131Y-83491047D01*
X133409922Y-83508594D01*
X133384270Y-83553023D01*
X133393179Y-83603547D01*
X133432479Y-83636524D01*
X133458131Y-83641047D01*
X133573607Y-83641047D01*
X133573607Y-83868314D01*
X133560474Y-83881447D01*
X133445961Y-83919619D01*
X133375063Y-83919619D01*
X133260550Y-83881448D01*
X133186437Y-83807334D01*
X133147943Y-83730347D01*
X133104560Y-83556813D01*
X133104560Y-83432424D01*
X133147943Y-83258890D01*
X133186437Y-83181903D01*
X133260550Y-83107790D01*
X133375063Y-83069619D01*
X133488045Y-83069619D01*
X133567447Y-83109320D01*
X133618413Y-83115185D01*
X133661226Y-83086919D01*
X133675853Y-83037744D01*
X133655450Y-82990673D01*
X133634529Y-82975156D01*
X133539291Y-82927537D01*
X133534837Y-82927024D01*
X133531402Y-82924142D01*
X133505750Y-82919619D01*
X133362893Y-82919619D01*
X133361355Y-82920178D01*
X133339175Y-82923468D01*
X133196319Y-82971087D01*
X133192808Y-82973873D01*
X133188340Y-82974264D01*
X133167003Y-82989205D01*
X133071765Y-83084443D01*
X133071074Y-83085924D01*
X133057716Y-83103935D01*
X133010097Y-83199173D01*
X133009690Y-83202701D01*
X133004418Y-83214524D01*
X132956799Y-83405000D01*
X132957159Y-83408448D01*
X132954560Y-83423190D01*
X132954560Y-83566047D01*
X132811703Y-83566047D01*
X132811703Y-82776762D01*
X133866464Y-82776762D01*
X133866464Y-84212476D01*
G37*
G36*
X133866464Y-94474076D02*
G01*
X132811703Y-94474076D01*
X132811703Y-93827647D01*
X132954560Y-93827647D01*
X132955745Y-93830904D01*
X132956799Y-93845837D01*
X133004418Y-94036313D01*
X133006406Y-94039257D01*
X133010097Y-94051664D01*
X133057716Y-94146902D01*
X133058902Y-94148025D01*
X133071765Y-94166394D01*
X133167003Y-94261633D01*
X133171067Y-94263528D01*
X133173414Y-94267348D01*
X133196319Y-94279751D01*
X133339175Y-94327370D01*
X133340810Y-94327325D01*
X133362893Y-94331219D01*
X133458131Y-94331219D01*
X133459669Y-94330658D01*
X133481848Y-94327370D01*
X133624705Y-94279751D01*
X133628216Y-94276963D01*
X133632685Y-94276573D01*
X133654022Y-94261632D01*
X133701640Y-94214013D01*
X133708558Y-94199175D01*
X133719084Y-94186632D01*
X133721927Y-94170504D01*
X133723321Y-94167516D01*
X133722798Y-94165565D01*
X133723607Y-94160980D01*
X133723607Y-93827647D01*
X133716943Y-93809338D01*
X133713559Y-93790147D01*
X133708374Y-93785796D01*
X133706060Y-93779438D01*
X133689186Y-93769695D01*
X133674259Y-93757170D01*
X133664516Y-93755452D01*
X133661631Y-93753786D01*
X133658348Y-93754364D01*
X133648607Y-93752647D01*
X133458131Y-93752647D01*
X133409922Y-93770194D01*
X133384270Y-93814623D01*
X133393179Y-93865147D01*
X133432479Y-93898124D01*
X133458131Y-93902647D01*
X133573607Y-93902647D01*
X133573607Y-94129914D01*
X133560474Y-94143047D01*
X133445961Y-94181219D01*
X133375063Y-94181219D01*
X133260550Y-94143048D01*
X133186437Y-94068934D01*
X133147943Y-93991947D01*
X133104560Y-93818413D01*
X133104560Y-93694024D01*
X133147943Y-93520490D01*
X133186437Y-93443503D01*
X133260550Y-93369390D01*
X133375063Y-93331219D01*
X133488045Y-93331219D01*
X133567447Y-93370920D01*
X133618413Y-93376785D01*
X133661226Y-93348519D01*
X133675853Y-93299344D01*
X133655450Y-93252273D01*
X133634529Y-93236756D01*
X133539291Y-93189137D01*
X133534837Y-93188624D01*
X133531402Y-93185742D01*
X133505750Y-93181219D01*
X133362893Y-93181219D01*
X133361355Y-93181778D01*
X133339175Y-93185068D01*
X133196319Y-93232687D01*
X133192808Y-93235473D01*
X133188340Y-93235864D01*
X133167003Y-93250805D01*
X133071765Y-93346043D01*
X133071074Y-93347524D01*
X133057716Y-93365535D01*
X133010097Y-93460773D01*
X133009690Y-93464301D01*
X133004418Y-93476124D01*
X132956799Y-93666600D01*
X132957159Y-93670048D01*
X132954560Y-93684790D01*
X132954560Y-93827647D01*
X132811703Y-93827647D01*
X132811703Y-93038362D01*
X133866464Y-93038362D01*
X133866464Y-94474076D01*
G37*
G36*
X133917264Y-104634076D02*
G01*
X132862503Y-104634076D01*
X132862503Y-103987647D01*
X133005360Y-103987647D01*
X133006545Y-103990904D01*
X133007599Y-104005837D01*
X133055218Y-104196313D01*
X133057206Y-104199257D01*
X133060897Y-104211664D01*
X133108516Y-104306902D01*
X133109702Y-104308025D01*
X133122565Y-104326394D01*
X133217803Y-104421633D01*
X133221867Y-104423528D01*
X133224214Y-104427348D01*
X133247119Y-104439751D01*
X133389975Y-104487370D01*
X133391610Y-104487325D01*
X133413693Y-104491219D01*
X133508931Y-104491219D01*
X133510469Y-104490658D01*
X133532648Y-104487370D01*
X133675505Y-104439751D01*
X133679016Y-104436963D01*
X133683485Y-104436573D01*
X133704822Y-104421632D01*
X133752440Y-104374013D01*
X133759358Y-104359175D01*
X133769884Y-104346632D01*
X133772727Y-104330504D01*
X133774121Y-104327516D01*
X133773598Y-104325565D01*
X133774407Y-104320980D01*
X133774407Y-103987647D01*
X133767743Y-103969338D01*
X133764359Y-103950147D01*
X133759174Y-103945796D01*
X133756860Y-103939438D01*
X133739986Y-103929695D01*
X133725059Y-103917170D01*
X133715316Y-103915452D01*
X133712431Y-103913786D01*
X133709148Y-103914364D01*
X133699407Y-103912647D01*
X133508931Y-103912647D01*
X133460722Y-103930194D01*
X133435070Y-103974623D01*
X133443979Y-104025147D01*
X133483279Y-104058124D01*
X133508931Y-104062647D01*
X133624407Y-104062647D01*
X133624407Y-104289914D01*
X133611274Y-104303047D01*
X133496761Y-104341219D01*
X133425863Y-104341219D01*
X133311350Y-104303048D01*
X133237237Y-104228934D01*
X133198743Y-104151947D01*
X133155360Y-103978413D01*
X133155360Y-103854024D01*
X133198743Y-103680490D01*
X133237237Y-103603503D01*
X133311350Y-103529390D01*
X133425863Y-103491219D01*
X133538845Y-103491219D01*
X133618247Y-103530920D01*
X133669213Y-103536785D01*
X133712026Y-103508519D01*
X133726653Y-103459344D01*
X133706250Y-103412273D01*
X133685329Y-103396756D01*
X133590091Y-103349137D01*
X133585637Y-103348624D01*
X133582202Y-103345742D01*
X133556550Y-103341219D01*
X133413693Y-103341219D01*
X133412155Y-103341778D01*
X133389975Y-103345068D01*
X133247119Y-103392687D01*
X133243608Y-103395473D01*
X133239140Y-103395864D01*
X133217803Y-103410805D01*
X133122565Y-103506043D01*
X133121874Y-103507524D01*
X133108516Y-103525535D01*
X133060897Y-103620773D01*
X133060490Y-103624301D01*
X133055218Y-103636124D01*
X133007599Y-103826600D01*
X133007959Y-103830048D01*
X133005360Y-103844790D01*
X133005360Y-103987647D01*
X132862503Y-103987647D01*
X132862503Y-103198362D01*
X133917264Y-103198362D01*
X133917264Y-104634076D01*
G37*
G36*
X131761276Y-104678296D02*
G01*
X130325562Y-104678296D01*
X130325562Y-104127106D01*
X130468419Y-104127106D01*
X130468979Y-104128644D01*
X130472268Y-104150823D01*
X130519887Y-104293680D01*
X130522674Y-104297192D01*
X130523065Y-104301659D01*
X130538005Y-104322996D01*
X130633243Y-104418234D01*
X130634724Y-104418924D01*
X130652735Y-104432283D01*
X130747973Y-104479902D01*
X130751501Y-104480308D01*
X130763324Y-104485581D01*
X130953800Y-104533200D01*
X130957248Y-104532839D01*
X130971990Y-104535439D01*
X131114847Y-104535439D01*
X131118104Y-104534253D01*
X131133037Y-104533200D01*
X131323513Y-104485581D01*
X131326457Y-104483592D01*
X131338864Y-104479902D01*
X131434102Y-104432283D01*
X131435225Y-104431096D01*
X131453594Y-104418234D01*
X131548833Y-104322996D01*
X131550728Y-104318931D01*
X131554548Y-104316585D01*
X131566951Y-104293680D01*
X131614570Y-104150824D01*
X131614525Y-104149188D01*
X131618419Y-104127106D01*
X131618419Y-104031868D01*
X131617859Y-104030330D01*
X131614570Y-104008150D01*
X131566951Y-103865294D01*
X131564163Y-103861782D01*
X131563773Y-103857314D01*
X131548832Y-103835977D01*
X131501212Y-103788358D01*
X131486374Y-103781439D01*
X131473832Y-103770915D01*
X131457704Y-103768071D01*
X131454716Y-103766678D01*
X131452765Y-103767200D01*
X131448180Y-103766392D01*
X131114847Y-103766392D01*
X131096538Y-103773055D01*
X131077347Y-103776440D01*
X131072996Y-103781624D01*
X131066638Y-103783939D01*
X131056895Y-103800812D01*
X131044370Y-103815740D01*
X131042652Y-103825482D01*
X131040986Y-103828368D01*
X131041564Y-103831650D01*
X131039847Y-103841392D01*
X131039847Y-104031868D01*
X131057394Y-104080077D01*
X131101823Y-104105729D01*
X131152347Y-104096820D01*
X131185324Y-104057520D01*
X131189847Y-104031868D01*
X131189847Y-103916392D01*
X131417114Y-103916392D01*
X131430248Y-103929525D01*
X131468419Y-104044038D01*
X131468419Y-104114936D01*
X131430248Y-104229448D01*
X131356134Y-104303561D01*
X131279147Y-104342055D01*
X131105613Y-104385439D01*
X130981224Y-104385439D01*
X130807690Y-104342055D01*
X130730703Y-104303562D01*
X130656590Y-104229449D01*
X130618419Y-104114935D01*
X130618419Y-104001954D01*
X130658120Y-103922552D01*
X130663985Y-103871586D01*
X130635719Y-103828773D01*
X130586544Y-103814146D01*
X130539473Y-103834549D01*
X130523956Y-103855470D01*
X130476337Y-103950708D01*
X130475824Y-103955161D01*
X130472942Y-103958597D01*
X130468419Y-103984249D01*
X130468419Y-104127106D01*
X130325562Y-104127106D01*
X130325562Y-103623535D01*
X131761276Y-103623535D01*
X131761276Y-104678296D01*
G37*
G36*
X123328476Y-102163696D02*
G01*
X121892762Y-102163696D01*
X121892762Y-101612506D01*
X122035619Y-101612506D01*
X122036179Y-101614044D01*
X122039468Y-101636223D01*
X122087087Y-101779080D01*
X122089874Y-101782592D01*
X122090265Y-101787059D01*
X122105205Y-101808396D01*
X122200443Y-101903634D01*
X122201924Y-101904324D01*
X122219935Y-101917683D01*
X122315173Y-101965302D01*
X122318701Y-101965708D01*
X122330524Y-101970981D01*
X122521000Y-102018600D01*
X122524448Y-102018239D01*
X122539190Y-102020839D01*
X122682047Y-102020839D01*
X122685304Y-102019653D01*
X122700237Y-102018600D01*
X122890713Y-101970981D01*
X122893657Y-101968992D01*
X122906064Y-101965302D01*
X123001302Y-101917683D01*
X123002425Y-101916496D01*
X123020794Y-101903634D01*
X123116033Y-101808396D01*
X123117928Y-101804331D01*
X123121748Y-101801985D01*
X123134151Y-101779080D01*
X123181770Y-101636224D01*
X123181725Y-101634588D01*
X123185619Y-101612506D01*
X123185619Y-101517268D01*
X123185059Y-101515730D01*
X123181770Y-101493550D01*
X123134151Y-101350694D01*
X123131363Y-101347182D01*
X123130973Y-101342714D01*
X123116032Y-101321377D01*
X123068412Y-101273758D01*
X123053574Y-101266839D01*
X123041032Y-101256315D01*
X123024904Y-101253471D01*
X123021916Y-101252078D01*
X123019965Y-101252600D01*
X123015380Y-101251792D01*
X122682047Y-101251792D01*
X122663738Y-101258455D01*
X122644547Y-101261840D01*
X122640196Y-101267024D01*
X122633838Y-101269339D01*
X122624095Y-101286212D01*
X122611570Y-101301140D01*
X122609852Y-101310882D01*
X122608186Y-101313768D01*
X122608764Y-101317050D01*
X122607047Y-101326792D01*
X122607047Y-101517268D01*
X122624594Y-101565477D01*
X122669023Y-101591129D01*
X122719547Y-101582220D01*
X122752524Y-101542920D01*
X122757047Y-101517268D01*
X122757047Y-101401792D01*
X122984314Y-101401792D01*
X122997448Y-101414925D01*
X123035619Y-101529438D01*
X123035619Y-101600336D01*
X122997448Y-101714848D01*
X122923334Y-101788961D01*
X122846347Y-101827455D01*
X122672813Y-101870839D01*
X122548424Y-101870839D01*
X122374890Y-101827455D01*
X122297903Y-101788962D01*
X122223790Y-101714849D01*
X122185619Y-101600335D01*
X122185619Y-101487354D01*
X122225320Y-101407952D01*
X122231185Y-101356986D01*
X122202919Y-101314173D01*
X122153744Y-101299546D01*
X122106673Y-101319949D01*
X122091156Y-101340870D01*
X122043537Y-101436108D01*
X122043024Y-101440561D01*
X122040142Y-101443997D01*
X122035619Y-101469649D01*
X122035619Y-101612506D01*
X121892762Y-101612506D01*
X121892762Y-101108935D01*
X123328476Y-101108935D01*
X123328476Y-102163696D01*
G37*
X114554000Y-98044000D02*
X121539000Y-98044000D01*
X121539000Y-105156000D01*
X114554000Y-105156000D01*
X114554000Y-98044000D01*
X120650000Y-101600000D02*
G75*
G03*
X120650000Y-101600000I-2540000J0D01*
G01*
X123202580Y-99170877D02*
X122202580Y-98837544D01*
X122202580Y-98837544D02*
X123202580Y-98504211D01*
X129568580Y-101396969D02*
X129568580Y-100920779D01*
X129568580Y-100920779D02*
X130568580Y-100920779D01*
X129568580Y-102301731D02*
X130044771Y-101968398D01*
X129568580Y-101730303D02*
X130568580Y-101730303D01*
X130568580Y-101730303D02*
X130568580Y-102111255D01*
X130568580Y-102111255D02*
X130520961Y-102206493D01*
X130520961Y-102206493D02*
X130473342Y-102254112D01*
X130473342Y-102254112D02*
X130378104Y-102301731D01*
X130378104Y-102301731D02*
X130235247Y-102301731D01*
X130235247Y-102301731D02*
X130140009Y-102254112D01*
X130140009Y-102254112D02*
X130092390Y-102206493D01*
X130092390Y-102206493D02*
X130044771Y-102111255D01*
X130044771Y-102111255D02*
X130044771Y-101730303D01*
X122202580Y-103663979D02*
X123202580Y-103663979D01*
X122202580Y-104711597D02*
X122678771Y-104378264D01*
X122202580Y-104140169D02*
X123202580Y-104140169D01*
X123202580Y-104140169D02*
X123202580Y-104521121D01*
X123202580Y-104521121D02*
X123154961Y-104616359D01*
X123154961Y-104616359D02*
X123107342Y-104663978D01*
X123107342Y-104663978D02*
X123012104Y-104711597D01*
X123012104Y-104711597D02*
X122869247Y-104711597D01*
X122869247Y-104711597D02*
X122774009Y-104663978D01*
X122774009Y-104663978D02*
X122726390Y-104616359D01*
X122726390Y-104616359D02*
X122678771Y-104521121D01*
X122678771Y-104521121D02*
X122678771Y-104140169D01*
X137090379Y-106143419D02*
X137090379Y-105143419D01*
X137090379Y-105143419D02*
X137471331Y-105143419D01*
X137471331Y-105143419D02*
X137566569Y-105191038D01*
X137566569Y-105191038D02*
X137614188Y-105238657D01*
X137614188Y-105238657D02*
X137661807Y-105333895D01*
X137661807Y-105333895D02*
X137661807Y-105476752D01*
X137661807Y-105476752D02*
X137614188Y-105571990D01*
X137614188Y-105571990D02*
X137566569Y-105619609D01*
X137566569Y-105619609D02*
X137471331Y-105667228D01*
X137471331Y-105667228D02*
X137090379Y-105667228D01*
X137995141Y-105143419D02*
X138233236Y-106143419D01*
X138233236Y-106143419D02*
X138423712Y-105429133D01*
X138423712Y-105429133D02*
X138614188Y-106143419D01*
X138614188Y-106143419D02*
X138852284Y-105143419D01*
X139804664Y-106143419D02*
X139471331Y-105667228D01*
X139233236Y-106143419D02*
X139233236Y-105143419D01*
X139233236Y-105143419D02*
X139614188Y-105143419D01*
X139614188Y-105143419D02*
X139709426Y-105191038D01*
X139709426Y-105191038D02*
X139757045Y-105238657D01*
X139757045Y-105238657D02*
X139804664Y-105333895D01*
X139804664Y-105333895D02*
X139804664Y-105476752D01*
X139804664Y-105476752D02*
X139757045Y-105571990D01*
X139757045Y-105571990D02*
X139709426Y-105619609D01*
X139709426Y-105619609D02*
X139614188Y-105667228D01*
X139614188Y-105667228D02*
X139233236Y-105667228D01*
X117532379Y-106448219D02*
X117532379Y-105448219D01*
X118579997Y-106448219D02*
X118246664Y-105972028D01*
X118008569Y-106448219D02*
X118008569Y-105448219D01*
X118008569Y-105448219D02*
X118389521Y-105448219D01*
X118389521Y-105448219D02*
X118484759Y-105495838D01*
X118484759Y-105495838D02*
X118532378Y-105543457D01*
X118532378Y-105543457D02*
X118579997Y-105638695D01*
X118579997Y-105638695D02*
X118579997Y-105781552D01*
X118579997Y-105781552D02*
X118532378Y-105876790D01*
X118532378Y-105876790D02*
X118484759Y-105924409D01*
X118484759Y-105924409D02*
X118389521Y-105972028D01*
X118389521Y-105972028D02*
X118008569Y-105972028D01*
X129568580Y-106625304D02*
X129568580Y-106149114D01*
X129568580Y-106149114D02*
X130568580Y-106149114D01*
X130520961Y-107482447D02*
X130568580Y-107387209D01*
X130568580Y-107387209D02*
X130568580Y-107244352D01*
X130568580Y-107244352D02*
X130520961Y-107101495D01*
X130520961Y-107101495D02*
X130425723Y-107006257D01*
X130425723Y-107006257D02*
X130330485Y-106958638D01*
X130330485Y-106958638D02*
X130140009Y-106911019D01*
X130140009Y-106911019D02*
X129997152Y-106911019D01*
X129997152Y-106911019D02*
X129806676Y-106958638D01*
X129806676Y-106958638D02*
X129711438Y-107006257D01*
X129711438Y-107006257D02*
X129616200Y-107101495D01*
X129616200Y-107101495D02*
X129568580Y-107244352D01*
X129568580Y-107244352D02*
X129568580Y-107339590D01*
X129568580Y-107339590D02*
X129616200Y-107482447D01*
X129616200Y-107482447D02*
X129663819Y-107530066D01*
X129663819Y-107530066D02*
X129997152Y-107530066D01*
X129997152Y-107530066D02*
X129997152Y-107339590D01*
X126558922Y-84975819D02*
X126892255Y-85975819D01*
X126892255Y-85975819D02*
X127225588Y-84975819D01*
X127749398Y-84975819D02*
X127939874Y-84975819D01*
X127939874Y-84975819D02*
X128035112Y-85023438D01*
X128035112Y-85023438D02*
X128130350Y-85118676D01*
X128130350Y-85118676D02*
X128177969Y-85309152D01*
X128177969Y-85309152D02*
X128177969Y-85642485D01*
X128177969Y-85642485D02*
X128130350Y-85832961D01*
X128130350Y-85832961D02*
X128035112Y-85928200D01*
X128035112Y-85928200D02*
X127939874Y-85975819D01*
X127939874Y-85975819D02*
X127749398Y-85975819D01*
X127749398Y-85975819D02*
X127654160Y-85928200D01*
X127654160Y-85928200D02*
X127558922Y-85832961D01*
X127558922Y-85832961D02*
X127511303Y-85642485D01*
X127511303Y-85642485D02*
X127511303Y-85309152D01*
X127511303Y-85309152D02*
X127558922Y-85118676D01*
X127558922Y-85118676D02*
X127654160Y-85023438D01*
X127654160Y-85023438D02*
X127749398Y-84975819D01*
X129082731Y-85975819D02*
X128606541Y-85975819D01*
X128606541Y-85975819D02*
X128606541Y-84975819D01*
X129416065Y-85594866D02*
X130177970Y-85594866D01*
X129797017Y-85975819D02*
X129797017Y-85213914D01*
X126558922Y-95135819D02*
X126892255Y-96135819D01*
X126892255Y-96135819D02*
X127225588Y-95135819D01*
X127749398Y-95135819D02*
X127939874Y-95135819D01*
X127939874Y-95135819D02*
X128035112Y-95183438D01*
X128035112Y-95183438D02*
X128130350Y-95278676D01*
X128130350Y-95278676D02*
X128177969Y-95469152D01*
X128177969Y-95469152D02*
X128177969Y-95802485D01*
X128177969Y-95802485D02*
X128130350Y-95992961D01*
X128130350Y-95992961D02*
X128035112Y-96088200D01*
X128035112Y-96088200D02*
X127939874Y-96135819D01*
X127939874Y-96135819D02*
X127749398Y-96135819D01*
X127749398Y-96135819D02*
X127654160Y-96088200D01*
X127654160Y-96088200D02*
X127558922Y-95992961D01*
X127558922Y-95992961D02*
X127511303Y-95802485D01*
X127511303Y-95802485D02*
X127511303Y-95469152D01*
X127511303Y-95469152D02*
X127558922Y-95278676D01*
X127558922Y-95278676D02*
X127654160Y-95183438D01*
X127654160Y-95183438D02*
X127749398Y-95135819D01*
X129082731Y-96135819D02*
X128606541Y-96135819D01*
X128606541Y-96135819D02*
X128606541Y-95135819D01*
X129416065Y-95754866D02*
X130177970Y-95754866D01*
D11*
%TO.C,SW2*%
X131770000Y-82030000D02*
X131770000Y-80530000D01*
X130520000Y-78030000D02*
X126020000Y-78030000D01*
X126020000Y-84530000D02*
X130520000Y-84530000D01*
X124770000Y-80530000D02*
X124770000Y-82030000D01*
%TO.C,SW3*%
X124770000Y-90690000D02*
X124770000Y-92190000D01*
X126020000Y-94690000D02*
X130520000Y-94690000D01*
X130520000Y-88190000D02*
X126020000Y-88190000D01*
X131770000Y-92190000D02*
X131770000Y-90690000D01*
%TO.C,SW1*%
X134930000Y-100850000D02*
X134930000Y-102350000D01*
X136180000Y-104850000D02*
X140680000Y-104850000D01*
X140680000Y-98350000D02*
X136180000Y-98350000D01*
X141930000Y-102350000D02*
X141930000Y-100850000D01*
%TO.C,D1*%
X127034485Y-102580001D02*
G75*
G03*
X127191392Y-105812334I1235515J-1559999D01*
G01*
X127190001Y-103099040D02*
G75*
G03*
X127190164Y-105181129I1079999J-1040960D01*
G01*
X129349836Y-105181129D02*
G75*
G03*
X129349999Y-103099040I-1079836J1041129D01*
G01*
X129348608Y-105812334D02*
G75*
G03*
X129505515Y-102580001I-1078608J1672334D01*
G01*
X127190000Y-102580000D02*
X127034000Y-102580000D01*
X129506000Y-102580000D02*
X129350000Y-102580000D01*
%TD*%
M02*
