M48
; DRILL file {KiCad 7.0.9} date Mon Dec 18 23:10:02 2023
; FORMAT={-:-/ absolute / inch / decimal}
; #@! TF.CreationDate,2023-12-18T23:10:02+09:00
; #@! TF.GenerationSoftware,Kicad,Pcbnew,7.0.9
; #@! TF.FileFunction,Plated,1,2,PTH
FMAT,2
INCH
; #@! TA.AperFunction,Plated,PTH,ComponentDrill
T1C0.0197
; #@! TA.AperFunction,Plated,PTH,ComponentDrill
T2C0.0354
; #@! TA.AperFunction,Plated,PTH,ComponentDrill
T3C0.0433
%
G90
G05
T1
X4.479Y-3.2672
X4.479Y-3.3164
X4.479Y-3.3656
X4.479Y-3.4148
X4.479Y-3.4641
X4.479Y-3.5133
X4.479Y-3.5625
X4.479Y-3.6117
X4.629Y-3.2188
X4.629Y-3.268
X4.629Y-3.3172
X4.629Y-3.3664
X4.629Y-3.4156
X4.629Y-3.4648
X4.629Y-3.5141
X4.629Y-3.5633
X4.629Y-3.6125
X4.629Y-3.6617
T2
X4.9Y-3.9
X4.9Y-4.0
X4.9Y-4.1
X5.05Y-4.0
X5.05Y-4.1
X5.05Y-4.2
T3
X4.922Y-3.1114
X4.922Y-3.2886
X4.922Y-3.5114
X4.922Y-3.6886
X5.178Y-3.1114
X5.178Y-3.2886
X5.178Y-3.5114
X5.178Y-3.6886
X5.322Y-3.9114
X5.322Y-4.0886
X5.578Y-3.9114
X5.578Y-4.0886
T0
M30
